%TF.GenerationSoftware,KiCad,Pcbnew,7.0.10*%
%TF.CreationDate,2024-08-04T08:05:15-06:00*%
%TF.ProjectId,display_card_cover,64697370-6c61-4795-9f63-6172645f636f,rev?*%
%TF.SameCoordinates,Original*%
%TF.FileFunction,Soldermask,Top*%
%TF.FilePolarity,Negative*%
%FSLAX46Y46*%
G04 Gerber Fmt 4.6, Leading zero omitted, Abs format (unit mm)*
G04 Created by KiCad (PCBNEW 7.0.10) date 2024-08-04 08:05:15*
%MOMM*%
%LPD*%
G01*
G04 APERTURE LIST*
%ADD10C,0.200000*%
%ADD11C,1.000000*%
%ADD12C,0.425000*%
%ADD13R,1.700000X1.700000*%
%ADD14O,1.700000X1.700000*%
G04 APERTURE END LIST*
D10*
X659231600Y-436778400D02*
X657326600Y-436778400D01*
X728878400Y-365226600D01*
X730783400Y-365226600D01*
X659231600Y-436778400D01*
G36*
X659231600Y-436778400D02*
G01*
X657326600Y-436778400D01*
X728878400Y-365226600D01*
X730783400Y-365226600D01*
X659231600Y-436778400D01*
G37*
X600811600Y-436778400D02*
X599541600Y-436778400D01*
X671093400Y-365226600D01*
X672363400Y-365226600D01*
X600811600Y-436778400D01*
G36*
X600811600Y-436778400D02*
G01*
X599541600Y-436778400D01*
X671093400Y-365226600D01*
X672363400Y-365226600D01*
X600811600Y-436778400D01*
G37*
X555091600Y-399313400D02*
X555091600Y-398043400D01*
X571500000Y-381635000D01*
X572770000Y-381635000D01*
X555091600Y-399313400D01*
G36*
X555091600Y-399313400D02*
G01*
X555091600Y-398043400D01*
X571500000Y-381635000D01*
X572770000Y-381635000D01*
X555091600Y-399313400D01*
G37*
X736498400Y-411581600D02*
X716280000Y-431698400D01*
X715645000Y-431698400D01*
X736498400Y-410946600D01*
X736498400Y-411581600D01*
G36*
X736498400Y-411581600D02*
G01*
X716280000Y-431698400D01*
X715645000Y-431698400D01*
X736498400Y-410946600D01*
X736498400Y-411581600D01*
G37*
X633831600Y-436778400D02*
X631926600Y-436778400D01*
X703478400Y-365226600D01*
X705383400Y-365226600D01*
X633831600Y-436778400D01*
G36*
X633831600Y-436778400D02*
G01*
X631926600Y-436778400D01*
X703478400Y-365226600D01*
X705383400Y-365226600D01*
X633831600Y-436778400D01*
G37*
X560908200Y-434136800D02*
X559841400Y-433298600D01*
X611505000Y-381635000D01*
X613410000Y-381635000D01*
X560908200Y-434136800D01*
G36*
X560908200Y-434136800D02*
G01*
X559841400Y-433298600D01*
X611505000Y-381635000D01*
X613410000Y-381635000D01*
X560908200Y-434136800D01*
G37*
X584301600Y-436778400D02*
X583666600Y-436778400D01*
X655218400Y-365226600D01*
X655853400Y-365226600D01*
X584301600Y-436778400D01*
G36*
X584301600Y-436778400D02*
G01*
X583666600Y-436778400D01*
X655218400Y-365226600D01*
X655853400Y-365226600D01*
X584301600Y-436778400D01*
G37*
X730859600Y-428015400D02*
X727176600Y-431698400D01*
X725906600Y-431698400D01*
X730859600Y-426745400D01*
X730859600Y-428015400D01*
G36*
X730859600Y-428015400D02*
G01*
X727176600Y-431698400D01*
X725906600Y-431698400D01*
X730859600Y-426745400D01*
X730859600Y-428015400D01*
G37*
X736498400Y-422376600D02*
X733475800Y-425399200D01*
X733475800Y-424129200D01*
X736498400Y-421132000D01*
X736498400Y-422376600D01*
G36*
X736498400Y-422376600D02*
G01*
X733475800Y-425399200D01*
X733475800Y-424129200D01*
X736498400Y-421132000D01*
X736498400Y-422376600D01*
G37*
X618591600Y-436778400D02*
X617321600Y-436778400D01*
X688873400Y-365226600D01*
X690143400Y-365226600D01*
X618591600Y-436778400D01*
G36*
X618591600Y-436778400D02*
G01*
X617321600Y-436778400D01*
X688873400Y-365226600D01*
X690143400Y-365226600D01*
X618591600Y-436778400D01*
G37*
X555091600Y-424713400D02*
X555091600Y-424078400D01*
X597535000Y-381635000D01*
X598170000Y-381635000D01*
X555091600Y-424713400D01*
G36*
X555091600Y-424713400D02*
G01*
X555091600Y-424078400D01*
X597535000Y-381635000D01*
X598170000Y-381635000D01*
X555091600Y-424713400D01*
G37*
X576021200Y-436778400D02*
X572211200Y-436778400D01*
X643763000Y-365226600D01*
X647573000Y-365226600D01*
X576021200Y-436778400D01*
G36*
X576021200Y-436778400D02*
G01*
X572211200Y-436778400D01*
X643763000Y-365226600D01*
X647573000Y-365226600D01*
X576021200Y-436778400D01*
G37*
X611606600Y-436778400D02*
X608431600Y-436778400D01*
X679983400Y-365226600D01*
X683158400Y-365226600D01*
X611606600Y-436778400D01*
G36*
X611606600Y-436778400D02*
G01*
X608431600Y-436778400D01*
X679983400Y-365226600D01*
X683158400Y-365226600D01*
X611606600Y-436778400D01*
G37*
X592556600Y-436778400D02*
X591286600Y-436778400D01*
X662838400Y-365226600D01*
X664108400Y-365226600D01*
X592556600Y-436778400D01*
G36*
X592556600Y-436778400D02*
G01*
X591286600Y-436778400D01*
X662838400Y-365226600D01*
X664108400Y-365226600D01*
X592556600Y-436778400D01*
G37*
X555091600Y-414553400D02*
X555091600Y-413283400D01*
X586740000Y-381635000D01*
X588010000Y-381635000D01*
X555091600Y-414553400D01*
G36*
X555091600Y-414553400D02*
G01*
X555091600Y-413283400D01*
X586740000Y-381635000D01*
X588010000Y-381635000D01*
X555091600Y-414553400D01*
G37*
X736498400Y-398246600D02*
X703046600Y-431698400D01*
X701776600Y-431698400D01*
X736498400Y-396976600D01*
X736498400Y-398246600D01*
G36*
X736498400Y-398246600D02*
G01*
X703046600Y-431698400D01*
X701776600Y-431698400D01*
X736498400Y-396976600D01*
X736498400Y-398246600D01*
G37*
X555091600Y-426618400D02*
X555091600Y-425983400D01*
X599440000Y-381635000D01*
X600075000Y-381635000D01*
X555091600Y-426618400D01*
G36*
X555091600Y-426618400D02*
G01*
X555091600Y-425983400D01*
X599440000Y-381635000D01*
X600075000Y-381635000D01*
X555091600Y-426618400D01*
G37*
X555091600Y-410108400D02*
X555091600Y-407568400D01*
X581025000Y-381635000D01*
X583565000Y-381635000D01*
X555091600Y-410108400D01*
G36*
X555091600Y-410108400D02*
G01*
X555091600Y-407568400D01*
X581025000Y-381635000D01*
X583565000Y-381635000D01*
X555091600Y-410108400D01*
G37*
X651078200Y-436778400D02*
X650443200Y-436778400D01*
X721995000Y-365226600D01*
X722630000Y-365226600D01*
X651078200Y-436778400D01*
G36*
X651078200Y-436778400D02*
G01*
X650443200Y-436778400D01*
X721995000Y-365226600D01*
X722630000Y-365226600D01*
X651078200Y-436778400D01*
G37*
X555091600Y-431698400D02*
X555091600Y-429158400D01*
X602615000Y-381635000D01*
X605155000Y-381635000D01*
X555091600Y-431698400D01*
G36*
X555091600Y-431698400D02*
G01*
X555091600Y-429158400D01*
X602615000Y-381635000D01*
X605155000Y-381635000D01*
X555091600Y-431698400D01*
G37*
X627481600Y-436778400D02*
X626211600Y-436778400D01*
X697763400Y-365226600D01*
X699033400Y-365226600D01*
X627481600Y-436778400D01*
G36*
X627481600Y-436778400D02*
G01*
X626211600Y-436778400D01*
X697763400Y-365226600D01*
X699033400Y-365226600D01*
X627481600Y-436778400D01*
G37*
X555091600Y-395503400D02*
X555091600Y-394868400D01*
X568325000Y-381635000D01*
X568960000Y-381635000D01*
X555091600Y-395503400D01*
G36*
X555091600Y-395503400D02*
G01*
X555091600Y-394868400D01*
X568325000Y-381635000D01*
X568960000Y-381635000D01*
X555091600Y-395503400D01*
G37*
X736498400Y-388721600D02*
X693521600Y-431698400D01*
X692251600Y-431698400D01*
X736498400Y-387451600D01*
X736498400Y-388721600D01*
G36*
X736498400Y-388721600D02*
G01*
X693521600Y-431698400D01*
X692251600Y-431698400D01*
X736498400Y-387451600D01*
X736498400Y-388721600D01*
G37*
X736498400Y-409676600D02*
X714578200Y-431698400D01*
X713943200Y-431698400D01*
X736498400Y-409168600D01*
X736498400Y-409676600D01*
G36*
X736498400Y-409676600D02*
G01*
X714578200Y-431698400D01*
X713943200Y-431698400D01*
X736498400Y-409168600D01*
X736498400Y-409676600D01*
G37*
X629285000Y-381635000D02*
X555091600Y-381635000D01*
X555091600Y-381000000D01*
X629920000Y-381000000D01*
X629285000Y-381635000D01*
G36*
X629285000Y-381635000D02*
G01*
X555091600Y-381635000D01*
X555091600Y-381000000D01*
X629920000Y-381000000D01*
X629285000Y-381635000D01*
G37*
X645261600Y-436778400D02*
X641451600Y-436778400D01*
X713003400Y-365226600D01*
X716813400Y-365226600D01*
X645261600Y-436778400D01*
G36*
X645261600Y-436778400D02*
G01*
X641451600Y-436778400D01*
X713003400Y-365226600D01*
X716813400Y-365226600D01*
X645261600Y-436778400D01*
G37*
X653034000Y-436778400D02*
X652399000Y-436778400D01*
X723950800Y-365226600D01*
X724585800Y-365226600D01*
X653034000Y-436778400D01*
G36*
X653034000Y-436778400D02*
G01*
X652399000Y-436778400D01*
X723950800Y-365226600D01*
X724585800Y-365226600D01*
X653034000Y-436778400D01*
G37*
X668832800Y-433628800D02*
X668197800Y-433628800D01*
X732688400Y-368706400D01*
X733196400Y-368706400D01*
X668832800Y-433628800D01*
G36*
X668832800Y-433628800D02*
G01*
X668197800Y-433628800D01*
X732688400Y-368706400D01*
X733196400Y-368706400D01*
X668832800Y-433628800D01*
G37*
X736498400Y-384911600D02*
X689711600Y-431698400D01*
X688441600Y-431698400D01*
X736498400Y-383641600D01*
X736498400Y-384911600D01*
G36*
X736498400Y-384911600D02*
G01*
X689711600Y-431698400D01*
X688441600Y-431698400D01*
X736498400Y-383641600D01*
X736498400Y-384911600D01*
G37*
X736498400Y-415061400D02*
X720026500Y-431698400D01*
X718756500Y-431698400D01*
X736498400Y-413842200D01*
X736498400Y-415061400D01*
G36*
X736498400Y-415061400D02*
G01*
X720026500Y-431698400D01*
X718756500Y-431698400D01*
X736498400Y-413842200D01*
X736498400Y-415061400D01*
G37*
X736498400Y-404596600D02*
X709396600Y-431698400D01*
X705586600Y-431698400D01*
X736498400Y-400786600D01*
X736498400Y-404596600D01*
G36*
X736498400Y-404596600D02*
G01*
X709396600Y-431698400D01*
X705586600Y-431698400D01*
X736498400Y-400786600D01*
X736498400Y-404596600D01*
G37*
X649173200Y-436778400D02*
X648538200Y-436778400D01*
X720090000Y-365226600D01*
X720725000Y-365226600D01*
X649173200Y-436778400D01*
G36*
X649173200Y-436778400D02*
G01*
X648538200Y-436778400D01*
X720090000Y-365226600D01*
X720725000Y-365226600D01*
X649173200Y-436778400D01*
G37*
X736498400Y-374726200D02*
X679551600Y-431698400D01*
X677646600Y-431698400D01*
X736498400Y-372821200D01*
X736498400Y-374726200D01*
G36*
X736498400Y-374726200D02*
G01*
X679551600Y-431698400D01*
X677646600Y-431698400D01*
X736498400Y-372821200D01*
X736498400Y-374726200D01*
G37*
X586206600Y-436778400D02*
X585571600Y-436778400D01*
X657123400Y-365226600D01*
X657758400Y-365226600D01*
X586206600Y-436778400D01*
G36*
X586206600Y-436778400D02*
G01*
X585571600Y-436778400D01*
X657123400Y-365226600D01*
X657758400Y-365226600D01*
X586206600Y-436778400D01*
G37*
X603351600Y-436778400D02*
X602716600Y-436778400D01*
X674268400Y-365226600D01*
X674903400Y-365226600D01*
X603351600Y-436778400D01*
G36*
X603351600Y-436778400D02*
G01*
X602716600Y-436778400D01*
X674268400Y-365226600D01*
X674903400Y-365226600D01*
X603351600Y-436778400D01*
G37*
D11*
G36*
X569827407Y-371418586D02*
G01*
X569824018Y-371634009D01*
X569813850Y-371842592D01*
X569796903Y-372044337D01*
X569773177Y-372239242D01*
X569742673Y-372427309D01*
X569705391Y-372608538D01*
X569661329Y-372782927D01*
X569610489Y-372950478D01*
X569552870Y-373111189D01*
X569488472Y-373265062D01*
X569417296Y-373412096D01*
X569339341Y-373552292D01*
X569254607Y-373685648D01*
X569163095Y-373812166D01*
X569064804Y-373931845D01*
X568959734Y-374044685D01*
X568847886Y-374150687D01*
X568729259Y-374249849D01*
X568603853Y-374342173D01*
X568471668Y-374427658D01*
X568332705Y-374506304D01*
X568186963Y-374578112D01*
X568034443Y-374643080D01*
X567875143Y-374701210D01*
X567709065Y-374752501D01*
X567536209Y-374796953D01*
X567356573Y-374834567D01*
X567170159Y-374865341D01*
X566976967Y-374889277D01*
X566776995Y-374906374D01*
X566570245Y-374916632D01*
X566356716Y-374920052D01*
X566239069Y-374919205D01*
X566123044Y-374916663D01*
X566008641Y-374912427D01*
X565895860Y-374906496D01*
X565784701Y-374898871D01*
X565675164Y-374889552D01*
X565567249Y-374878538D01*
X565460956Y-374865830D01*
X565356284Y-374851427D01*
X565253235Y-374835330D01*
X565151807Y-374817539D01*
X565052001Y-374798053D01*
X564953818Y-374776872D01*
X564857256Y-374753997D01*
X564762316Y-374729428D01*
X564668998Y-374703164D01*
X564577302Y-374675206D01*
X564398776Y-374614206D01*
X564226737Y-374546429D01*
X564061186Y-374471874D01*
X563902123Y-374390541D01*
X563749548Y-374302430D01*
X563603460Y-374207542D01*
X563463860Y-374105876D01*
X563396493Y-374052501D01*
X563267540Y-373941493D01*
X563146907Y-373825355D01*
X563034594Y-373704089D01*
X562930600Y-373577693D01*
X562834925Y-373446168D01*
X562747570Y-373309515D01*
X562668535Y-373167732D01*
X562632137Y-373094917D01*
X562597819Y-373020819D01*
X562565581Y-372945440D01*
X562535422Y-372868778D01*
X562507344Y-372790834D01*
X562481345Y-372711608D01*
X562457427Y-372631099D01*
X562435588Y-372549309D01*
X562415829Y-372466236D01*
X562398150Y-372381880D01*
X562382551Y-372296243D01*
X562369032Y-372209323D01*
X562357593Y-372121120D01*
X562348233Y-372031636D01*
X562340954Y-371940869D01*
X562335754Y-371848820D01*
X562332634Y-371755489D01*
X562331594Y-371660875D01*
X562332670Y-371567821D01*
X562335897Y-371475991D01*
X562341276Y-371385387D01*
X562348806Y-371296007D01*
X562358487Y-371207853D01*
X562370320Y-371120923D01*
X562384304Y-371035219D01*
X562400440Y-370950739D01*
X562418727Y-370867485D01*
X562439166Y-370785455D01*
X562461756Y-370704651D01*
X562486497Y-370625072D01*
X562513390Y-370546718D01*
X562542435Y-370469588D01*
X562573631Y-370393684D01*
X562606978Y-370319005D01*
X562642477Y-370245551D01*
X562680127Y-370173322D01*
X562761881Y-370032539D01*
X562852242Y-369896656D01*
X562951208Y-369765673D01*
X563058779Y-369639590D01*
X563174957Y-369518408D01*
X563299740Y-369402125D01*
X563433129Y-369290743D01*
X563574141Y-369184978D01*
X563721183Y-369086037D01*
X563874255Y-368993919D01*
X564033356Y-368908625D01*
X564198487Y-368830154D01*
X564369648Y-368758507D01*
X564546839Y-368693683D01*
X564637695Y-368663830D01*
X564730059Y-368635683D01*
X564823930Y-368609242D01*
X564919309Y-368584507D01*
X565016195Y-368561477D01*
X565114589Y-368540154D01*
X565214490Y-368520536D01*
X565315898Y-368502624D01*
X565418814Y-368486419D01*
X565523237Y-368471919D01*
X565629168Y-368459124D01*
X565736606Y-368448036D01*
X565845552Y-368438654D01*
X565956005Y-368430977D01*
X566067966Y-368425007D01*
X566181434Y-368420742D01*
X566296409Y-368418183D01*
X566412892Y-368417330D01*
X566520657Y-368417840D01*
X566627797Y-368419368D01*
X566734312Y-368421916D01*
X566840203Y-368425482D01*
X566945468Y-368430067D01*
X567050108Y-368435671D01*
X567154124Y-368442295D01*
X567257514Y-368449937D01*
X567360280Y-368458598D01*
X567462421Y-368468278D01*
X567563937Y-368478977D01*
X567664827Y-368490695D01*
X567765093Y-368503432D01*
X567864734Y-368517187D01*
X567963751Y-368531962D01*
X568062142Y-368547756D01*
X568159908Y-368564569D01*
X568257050Y-368582400D01*
X568353566Y-368601251D01*
X568449458Y-368621120D01*
X568544724Y-368642009D01*
X568639366Y-368663916D01*
X568733383Y-368686843D01*
X568826775Y-368710788D01*
X568919542Y-368735752D01*
X569011684Y-368761736D01*
X569194093Y-368816759D01*
X569374003Y-368875858D01*
X569551413Y-368939033D01*
X569551413Y-370543220D01*
X569373115Y-370543220D01*
X569292701Y-370497058D01*
X569212049Y-370452362D01*
X569050028Y-370367365D01*
X568887053Y-370288230D01*
X568723124Y-370214958D01*
X568558241Y-370147547D01*
X568392404Y-370085997D01*
X568225613Y-370030310D01*
X568057868Y-369980484D01*
X567889168Y-369936521D01*
X567719515Y-369898419D01*
X567548907Y-369866179D01*
X567377346Y-369839801D01*
X567204830Y-369819284D01*
X567031361Y-369804630D01*
X566856937Y-369795837D01*
X566681559Y-369792906D01*
X566549973Y-369794745D01*
X566423272Y-369800264D01*
X566301456Y-369809461D01*
X566184525Y-369822337D01*
X566072479Y-369838892D01*
X565965317Y-369859126D01*
X565863040Y-369883039D01*
X565765648Y-369910631D01*
X565673142Y-369941902D01*
X565585519Y-369976851D01*
X565463245Y-370036174D01*
X565351962Y-370103774D01*
X565251670Y-370179651D01*
X565162369Y-370263806D01*
X565091221Y-370348820D01*
X565027071Y-370442661D01*
X564969920Y-370545329D01*
X564935707Y-370618678D01*
X564904604Y-370695950D01*
X564876612Y-370777146D01*
X564851729Y-370862264D01*
X564829957Y-370951306D01*
X564811296Y-371044271D01*
X564795744Y-371141159D01*
X564783303Y-371241970D01*
X564773972Y-371346705D01*
X564767752Y-371455362D01*
X564764642Y-371567943D01*
X564764253Y-371625704D01*
X564765760Y-371751466D01*
X564770283Y-371872786D01*
X564777820Y-371989664D01*
X564788372Y-372102100D01*
X564801939Y-372210093D01*
X564818521Y-372313645D01*
X564838117Y-372412754D01*
X564860729Y-372507421D01*
X564886355Y-372597646D01*
X564914996Y-372683428D01*
X564946653Y-372764769D01*
X564981324Y-372841667D01*
X565019010Y-372914123D01*
X565081191Y-373014479D01*
X565150157Y-373104839D01*
X565222063Y-373183407D01*
X565301310Y-373254247D01*
X565387900Y-373317359D01*
X565481831Y-373372743D01*
X565583103Y-373420399D01*
X565691717Y-373460327D01*
X565807673Y-373492527D01*
X565930970Y-373516999D01*
X566061609Y-373533743D01*
X566199590Y-373542759D01*
X566295655Y-373544476D01*
X566408694Y-373540721D01*
X566517001Y-373529455D01*
X566620575Y-373510679D01*
X566719417Y-373484392D01*
X566813527Y-373450595D01*
X566902904Y-373409288D01*
X566987550Y-373360470D01*
X567067463Y-373304141D01*
X567149322Y-373232425D01*
X567220267Y-373154054D01*
X567280298Y-373069027D01*
X567329413Y-372977344D01*
X567367614Y-372879006D01*
X567389103Y-372800884D01*
X567404451Y-372719019D01*
X567413660Y-372633410D01*
X567416730Y-372544057D01*
X566171092Y-372544057D01*
X566171092Y-371418586D01*
X569827407Y-371418586D01*
G37*
G36*
X574544900Y-368669061D02*
G01*
X574704097Y-368673938D01*
X574860126Y-368682067D01*
X575012988Y-368693447D01*
X575162682Y-368708078D01*
X575309209Y-368725962D01*
X575452568Y-368747096D01*
X575592759Y-368771482D01*
X575729783Y-368799120D01*
X575863640Y-368830009D01*
X575994329Y-368864150D01*
X576121851Y-368901542D01*
X576246204Y-368942185D01*
X576367391Y-368986080D01*
X576485410Y-369033227D01*
X576600261Y-369083625D01*
X576730101Y-369147372D01*
X576851564Y-369214539D01*
X576964651Y-369285125D01*
X577069360Y-369359131D01*
X577165693Y-369436556D01*
X577253649Y-369517400D01*
X577333228Y-369601664D01*
X577404431Y-369689347D01*
X577467257Y-369780450D01*
X577521705Y-369874972D01*
X577567778Y-369972913D01*
X577605473Y-370074274D01*
X577634792Y-370179054D01*
X577655734Y-370287254D01*
X577668299Y-370398872D01*
X577672487Y-370513911D01*
X577671032Y-370597532D01*
X577666667Y-370679622D01*
X577659393Y-370760182D01*
X577649208Y-370839212D01*
X577636113Y-370916711D01*
X577601194Y-371067119D01*
X577554635Y-371211405D01*
X577496437Y-371349571D01*
X577426599Y-371481614D01*
X577345121Y-371607537D01*
X577252003Y-371727338D01*
X577147246Y-371841018D01*
X577030849Y-371948576D01*
X576902812Y-372050013D01*
X576763136Y-372145329D01*
X576611820Y-372234523D01*
X576448864Y-372317597D01*
X576363021Y-372356838D01*
X576274269Y-372394548D01*
X576182606Y-372430729D01*
X578805774Y-374795000D01*
X576072697Y-374795000D01*
X573894050Y-372794162D01*
X573193073Y-372794162D01*
X573193073Y-374795000D01*
X570789724Y-374795000D01*
X570789724Y-370043011D01*
X573193073Y-370043011D01*
X573193073Y-371418586D01*
X573757274Y-371418586D01*
X573856594Y-371418189D01*
X573997916Y-371416106D01*
X574130050Y-371412236D01*
X574252997Y-371406580D01*
X574366756Y-371399139D01*
X574471327Y-371389911D01*
X574596463Y-371374829D01*
X574705266Y-371356572D01*
X574818300Y-371329285D01*
X574856367Y-371316981D01*
X574961125Y-371274086D01*
X575051914Y-371220628D01*
X575128736Y-371156605D01*
X575191591Y-371082020D01*
X575240477Y-370996871D01*
X575275396Y-370901158D01*
X575292419Y-370822441D01*
X575301586Y-370737782D01*
X575303332Y-370678042D01*
X575290516Y-370564555D01*
X575252069Y-370462231D01*
X575187991Y-370371069D01*
X575098282Y-370291070D01*
X574982942Y-370222233D01*
X574891809Y-370182544D01*
X574789284Y-370147816D01*
X574675368Y-370118049D01*
X574550060Y-370093243D01*
X574413360Y-370073398D01*
X574265269Y-370058514D01*
X574105786Y-370048592D01*
X573934911Y-370043631D01*
X573845202Y-370043011D01*
X573193073Y-370043011D01*
X570789724Y-370043011D01*
X570789724Y-368667435D01*
X574382536Y-368667435D01*
X574544900Y-368669061D01*
G37*
G36*
X588362997Y-374795000D02*
G01*
X585698307Y-374795000D01*
X583470812Y-369286835D01*
X581245760Y-374795000D01*
X578649459Y-374795000D01*
X582166556Y-366666598D01*
X584845900Y-366666598D01*
X588362997Y-374795000D01*
G37*
G36*
X593099457Y-368669679D02*
G01*
X593275865Y-368676411D01*
X593447350Y-368687631D01*
X593613913Y-368703339D01*
X593775552Y-368723534D01*
X593932268Y-368748218D01*
X594084061Y-368777390D01*
X594230931Y-368811050D01*
X594372878Y-368849197D01*
X594509902Y-368891833D01*
X594642003Y-368938957D01*
X594769181Y-368990568D01*
X594891436Y-369046668D01*
X595008768Y-369107255D01*
X595121177Y-369172331D01*
X595228663Y-369241894D01*
X595330701Y-369315388D01*
X595426156Y-369392256D01*
X595515028Y-369472498D01*
X595597317Y-369556113D01*
X595673023Y-369643101D01*
X595742146Y-369733463D01*
X595804685Y-369827199D01*
X595860642Y-369924309D01*
X595910015Y-370024792D01*
X595952805Y-370128648D01*
X595989012Y-370235879D01*
X596018636Y-370346482D01*
X596041677Y-370460460D01*
X596058135Y-370577811D01*
X596068009Y-370698536D01*
X596071301Y-370822634D01*
X596068057Y-370958089D01*
X596058326Y-371088950D01*
X596042106Y-371215216D01*
X596019399Y-371336887D01*
X595990205Y-371453963D01*
X595954522Y-371566445D01*
X595912352Y-371674332D01*
X595863695Y-371777623D01*
X595808549Y-371876320D01*
X595746916Y-371970423D01*
X595678795Y-372059930D01*
X595604187Y-372144842D01*
X595523090Y-372225160D01*
X595435506Y-372300883D01*
X595341435Y-372372011D01*
X595240875Y-372438545D01*
X595140812Y-372496751D01*
X595034795Y-372551202D01*
X594922825Y-372601897D01*
X594804902Y-372648838D01*
X594681025Y-372692023D01*
X594551195Y-372731453D01*
X594415411Y-372767127D01*
X594273674Y-372799047D01*
X594125983Y-372827211D01*
X593972339Y-372851620D01*
X593812742Y-372872274D01*
X593647191Y-372889173D01*
X593475686Y-372902316D01*
X593298229Y-372911704D01*
X593114818Y-372917337D01*
X592925453Y-372919214D01*
X591523499Y-372919214D01*
X591523499Y-374795000D01*
X589127477Y-374795000D01*
X589127477Y-370043011D01*
X591523499Y-370043011D01*
X591523499Y-371543639D01*
X592478489Y-371543639D01*
X592617497Y-371540761D01*
X592747537Y-371532129D01*
X592868609Y-371517741D01*
X592980713Y-371497599D01*
X593083848Y-371471702D01*
X593178015Y-371440049D01*
X593302451Y-371381780D01*
X593406707Y-371310562D01*
X593490785Y-371226396D01*
X593554684Y-371129281D01*
X593598404Y-371019217D01*
X593616341Y-370938647D01*
X593625309Y-370852323D01*
X593626430Y-370807002D01*
X593621540Y-370719342D01*
X593606872Y-370635880D01*
X593582423Y-370556615D01*
X593548196Y-370481549D01*
X593504189Y-370410680D01*
X593450403Y-370344009D01*
X593426151Y-370318517D01*
X593351504Y-370253945D01*
X593264340Y-370197983D01*
X593164658Y-370150630D01*
X593052459Y-370111887D01*
X592927743Y-370081754D01*
X592825991Y-370064804D01*
X592717198Y-370052696D01*
X592601364Y-370045432D01*
X592478489Y-370043011D01*
X591523499Y-370043011D01*
X589127477Y-370043011D01*
X589127477Y-368667435D01*
X592918126Y-368667435D01*
X593099457Y-368669679D01*
G37*
G36*
X604463485Y-374795000D02*
G01*
X602057693Y-374795000D01*
X602057693Y-372168900D01*
X599571301Y-372168900D01*
X599571301Y-374795000D01*
X597167951Y-374795000D01*
X597167951Y-368667435D01*
X599571301Y-368667435D01*
X599571301Y-370793325D01*
X602057693Y-370793325D01*
X602057693Y-368667435D01*
X604463485Y-368667435D01*
X604463485Y-374795000D01*
G37*
G36*
X608657135Y-374795000D02*
G01*
X606253785Y-374795000D01*
X606253785Y-368667435D01*
X608657135Y-368667435D01*
X608657135Y-374795000D01*
G37*
G36*
X618084909Y-374795000D02*
G01*
X615268789Y-374795000D01*
X613798447Y-373157595D01*
X612286584Y-374795000D01*
X609526639Y-374795000D01*
X612362299Y-371739033D01*
X609573046Y-368667435D01*
X612391608Y-368667435D01*
X613832641Y-370255990D01*
X615283443Y-368667435D01*
X618050715Y-368667435D01*
X615254134Y-371678461D01*
X618084909Y-374795000D01*
G37*
D12*
G36*
X559541845Y-379800501D02*
G01*
X558392536Y-379800501D01*
X558392536Y-379508191D01*
X558759584Y-379508191D01*
X558759584Y-378604688D01*
X558392536Y-378604688D01*
X558392536Y-378312378D01*
X558412654Y-378312215D01*
X558432734Y-378311729D01*
X558452774Y-378310918D01*
X558472776Y-378309783D01*
X558492739Y-378308323D01*
X558512662Y-378306539D01*
X558532547Y-378304430D01*
X558552393Y-378301997D01*
X558571824Y-378299097D01*
X558590255Y-378295795D01*
X558607688Y-378292091D01*
X558624121Y-378287984D01*
X558643258Y-378282285D01*
X558660833Y-378275957D01*
X558676848Y-378269001D01*
X558679863Y-378267535D01*
X558696881Y-378258235D01*
X558712643Y-378247982D01*
X558727147Y-378236777D01*
X558740394Y-378224619D01*
X558752384Y-378211507D01*
X558763117Y-378197443D01*
X558767058Y-378191551D01*
X558776141Y-378176071D01*
X558783926Y-378159477D01*
X558790414Y-378141768D01*
X558795604Y-378122943D01*
X558799497Y-378103004D01*
X558801676Y-378086249D01*
X558802766Y-378073215D01*
X559183517Y-378073215D01*
X559183517Y-379508191D01*
X559541845Y-379508191D01*
X559541845Y-379800501D01*
G37*
G36*
X561133771Y-379800501D02*
G01*
X559856161Y-379800501D01*
X559856161Y-379524799D01*
X559876325Y-379509127D01*
X559896229Y-379493561D01*
X559915874Y-379478102D01*
X559935259Y-379462751D01*
X559954385Y-379447506D01*
X559973251Y-379432369D01*
X559991858Y-379417339D01*
X560010205Y-379402415D01*
X560028293Y-379387599D01*
X560046121Y-379372890D01*
X560063690Y-379358287D01*
X560080999Y-379343792D01*
X560098049Y-379329404D01*
X560114839Y-379315123D01*
X560131370Y-379300949D01*
X560147641Y-379286882D01*
X560163661Y-379272913D01*
X560179437Y-379259031D01*
X560194970Y-379245236D01*
X560210260Y-379231529D01*
X560225307Y-379217910D01*
X560240110Y-379204378D01*
X560254670Y-379190934D01*
X560268987Y-379177577D01*
X560283060Y-379164308D01*
X560296890Y-379151127D01*
X560310477Y-379138033D01*
X560323821Y-379125027D01*
X560336921Y-379112108D01*
X560349778Y-379099277D01*
X560362392Y-379086534D01*
X560374762Y-379073878D01*
X560390372Y-379057552D01*
X560405436Y-379041478D01*
X560419956Y-379025658D01*
X560433930Y-379010091D01*
X560447360Y-378994777D01*
X560460244Y-378979716D01*
X560472584Y-378964907D01*
X560484378Y-378950352D01*
X560495628Y-378936050D01*
X560506333Y-378922001D01*
X560516493Y-378908205D01*
X560526107Y-378894662D01*
X560539508Y-378874822D01*
X560551682Y-378855551D01*
X560559117Y-378843020D01*
X560569357Y-378824284D01*
X560578590Y-378805446D01*
X560586815Y-378786506D01*
X560594034Y-378767464D01*
X560600245Y-378748320D01*
X560605449Y-378729073D01*
X560609645Y-378709724D01*
X560612835Y-378690273D01*
X560615017Y-378670720D01*
X560616192Y-378651065D01*
X560616416Y-378637905D01*
X560615777Y-378616124D01*
X560613862Y-378595314D01*
X560610668Y-378575475D01*
X560606198Y-378556607D01*
X560600450Y-378538710D01*
X560593425Y-378521783D01*
X560585123Y-378505827D01*
X560575544Y-378490841D01*
X560564687Y-378476827D01*
X560552553Y-378463783D01*
X560543754Y-378455626D01*
X560529704Y-378444273D01*
X560514647Y-378434037D01*
X560498582Y-378424917D01*
X560481511Y-378416914D01*
X560463432Y-378410028D01*
X560444346Y-378404258D01*
X560424253Y-378399605D01*
X560403152Y-378396069D01*
X560381045Y-378393650D01*
X560357930Y-378392347D01*
X560341960Y-378392099D01*
X560321372Y-378392443D01*
X560301128Y-378393477D01*
X560281229Y-378395200D01*
X560261675Y-378397613D01*
X560242465Y-378400715D01*
X560223600Y-378404506D01*
X560216151Y-378406216D01*
X560197685Y-378410700D01*
X560179139Y-378415591D01*
X560160511Y-378420886D01*
X560141802Y-378426587D01*
X560123012Y-378432694D01*
X560104141Y-378439206D01*
X560096570Y-378441924D01*
X560078430Y-378449211D01*
X560061122Y-378456538D01*
X560044646Y-378463905D01*
X560029000Y-378471313D01*
X560011323Y-378480257D01*
X559994842Y-378489258D01*
X559979861Y-378497725D01*
X559964264Y-378506569D01*
X559948921Y-378515315D01*
X559933464Y-378524203D01*
X559932145Y-378524967D01*
X559898098Y-378524967D01*
X559898098Y-378152936D01*
X559917769Y-378144392D01*
X559934225Y-378137941D01*
X559952140Y-378131454D01*
X559971516Y-378124930D01*
X559992351Y-378118369D01*
X560014646Y-378111773D01*
X560038401Y-378105139D01*
X560055048Y-378100697D01*
X560072345Y-378096238D01*
X560090290Y-378091763D01*
X560108883Y-378087272D01*
X560128126Y-378082765D01*
X560147647Y-378078391D01*
X560167078Y-378074299D01*
X560186418Y-378070489D01*
X560205667Y-378066961D01*
X560224825Y-378063715D01*
X560243892Y-378060752D01*
X560262869Y-378058071D01*
X560281755Y-378055672D01*
X560300549Y-378053556D01*
X560319253Y-378051721D01*
X560337867Y-378050169D01*
X560356389Y-378048899D01*
X560374821Y-378047911D01*
X560393161Y-378047206D01*
X560411411Y-378046783D01*
X560429570Y-378046641D01*
X560448757Y-378046775D01*
X560467652Y-378047177D01*
X560486253Y-378047846D01*
X560504562Y-378048782D01*
X560522578Y-378049987D01*
X560540301Y-378051459D01*
X560557731Y-378053198D01*
X560574869Y-378055205D01*
X560591714Y-378057480D01*
X560608266Y-378060022D01*
X560640492Y-378065910D01*
X560671547Y-378072868D01*
X560701431Y-378080897D01*
X560730144Y-378089996D01*
X560757686Y-378100165D01*
X560784057Y-378111405D01*
X560809257Y-378123715D01*
X560833285Y-378137096D01*
X560856143Y-378151548D01*
X560877830Y-378167069D01*
X560898346Y-378183662D01*
X560917653Y-378201174D01*
X560935715Y-378219558D01*
X560952531Y-378238815D01*
X560968101Y-378258945D01*
X560982426Y-378279947D01*
X560995505Y-378301822D01*
X561007339Y-378324570D01*
X561017927Y-378348190D01*
X561027269Y-378372682D01*
X561035366Y-378398048D01*
X561042217Y-378424286D01*
X561047822Y-378451396D01*
X561052182Y-378479379D01*
X561055296Y-378508235D01*
X561057165Y-378537963D01*
X561057787Y-378568564D01*
X561057504Y-378587691D01*
X561056652Y-378606770D01*
X561055233Y-378625800D01*
X561053246Y-378644782D01*
X561050691Y-378663714D01*
X561047569Y-378682598D01*
X561043879Y-378701434D01*
X561039622Y-378720220D01*
X561034797Y-378738959D01*
X561029404Y-378757648D01*
X561023443Y-378776289D01*
X561016915Y-378794881D01*
X561009819Y-378813424D01*
X561002155Y-378831919D01*
X560993924Y-378850365D01*
X560985125Y-378868763D01*
X560975720Y-378887168D01*
X560965565Y-378905743D01*
X560954660Y-378924486D01*
X560943007Y-378943397D01*
X560930604Y-378962478D01*
X560917452Y-378981727D01*
X560903550Y-379001144D01*
X560888900Y-379020731D01*
X560873499Y-379040486D01*
X560857350Y-379060410D01*
X560840451Y-379080502D01*
X560822803Y-379100763D01*
X560804405Y-379121193D01*
X560785259Y-379141791D01*
X560765362Y-379162558D01*
X560744717Y-379183494D01*
X560731608Y-379196329D01*
X560718545Y-379208984D01*
X560705528Y-379221462D01*
X560692556Y-379233761D01*
X560679629Y-379245882D01*
X560666748Y-379257824D01*
X560653912Y-379269588D01*
X560641121Y-379281173D01*
X560628376Y-379292580D01*
X560615677Y-379303809D01*
X560603022Y-379314859D01*
X560590413Y-379325731D01*
X560571585Y-379341704D01*
X560552859Y-379357275D01*
X560540432Y-379367434D01*
X560522307Y-379382125D01*
X560505146Y-379395991D01*
X560488947Y-379409032D01*
X560473713Y-379421249D01*
X560459441Y-379432641D01*
X560446133Y-379443208D01*
X560429888Y-379456015D01*
X560415356Y-379467355D01*
X560399599Y-379479469D01*
X560396769Y-379481617D01*
X561133771Y-379481617D01*
X561133771Y-379800501D01*
G37*
G36*
X561977944Y-378046776D02*
G01*
X561997596Y-378047180D01*
X562016923Y-378047853D01*
X562035925Y-378048795D01*
X562054603Y-378050007D01*
X562072957Y-378051488D01*
X562090986Y-378053238D01*
X562108691Y-378055257D01*
X562126072Y-378057546D01*
X562143128Y-378060103D01*
X562159860Y-378062930D01*
X562176267Y-378066027D01*
X562200270Y-378071176D01*
X562223543Y-378076931D01*
X562238653Y-378081104D01*
X562260772Y-378087678D01*
X562282133Y-378094631D01*
X562302735Y-378101964D01*
X562322578Y-378109676D01*
X562341661Y-378117768D01*
X562359986Y-378126239D01*
X562377551Y-378135090D01*
X562394357Y-378144320D01*
X562410405Y-378153930D01*
X562425693Y-378163920D01*
X562435464Y-378170790D01*
X562450079Y-378181664D01*
X562464031Y-378192954D01*
X562477318Y-378204660D01*
X562489941Y-378216781D01*
X562501900Y-378229319D01*
X562513194Y-378242273D01*
X562523825Y-378255643D01*
X562533791Y-378269429D01*
X562543093Y-378283631D01*
X562551731Y-378298249D01*
X562557121Y-378308226D01*
X562564615Y-378323449D01*
X562571373Y-378338914D01*
X562577393Y-378354620D01*
X562582676Y-378370566D01*
X562587222Y-378386753D01*
X562591031Y-378403181D01*
X562594102Y-378419850D01*
X562596436Y-378436760D01*
X562598034Y-378453911D01*
X562598894Y-378471302D01*
X562599057Y-378483030D01*
X562598426Y-378505866D01*
X562596532Y-378528287D01*
X562593375Y-378550291D01*
X562588956Y-378571879D01*
X562583274Y-378593051D01*
X562576329Y-378613808D01*
X562568122Y-378634148D01*
X562558652Y-378654072D01*
X562547919Y-378673580D01*
X562535924Y-378692672D01*
X562527226Y-378705169D01*
X562513086Y-378723495D01*
X562497603Y-378741258D01*
X562480777Y-378758460D01*
X562462608Y-378775100D01*
X562449749Y-378785881D01*
X562436294Y-378796412D01*
X562422242Y-378806693D01*
X562407592Y-378816725D01*
X562392346Y-378826507D01*
X562376503Y-378836039D01*
X562360064Y-378845321D01*
X562343027Y-378854354D01*
X562325393Y-378863136D01*
X562307163Y-378871669D01*
X562307163Y-378878728D01*
X562328399Y-378887618D01*
X562348924Y-378896848D01*
X562368739Y-378906419D01*
X562387844Y-378916331D01*
X562406238Y-378926583D01*
X562423922Y-378937176D01*
X562440895Y-378948109D01*
X562457158Y-378959383D01*
X562472711Y-378970998D01*
X562487553Y-378982953D01*
X562501685Y-378995249D01*
X562515107Y-379007885D01*
X562527818Y-379020862D01*
X562539818Y-379034180D01*
X562551108Y-379047838D01*
X562561688Y-379061837D01*
X562571593Y-379076129D01*
X562580859Y-379090772D01*
X562589486Y-379105765D01*
X562597474Y-379121108D01*
X562604823Y-379136802D01*
X562611533Y-379152846D01*
X562617604Y-379169241D01*
X562623036Y-379185985D01*
X562627829Y-379203081D01*
X562631983Y-379220526D01*
X562635497Y-379238322D01*
X562638373Y-379256468D01*
X562640610Y-379274964D01*
X562642207Y-379293811D01*
X562643166Y-379313008D01*
X562643485Y-379332556D01*
X562643080Y-379353285D01*
X562641865Y-379373744D01*
X562639840Y-379393934D01*
X562637004Y-379413853D01*
X562633358Y-379433502D01*
X562628902Y-379452881D01*
X562623636Y-379471991D01*
X562617560Y-379490830D01*
X562610674Y-379509399D01*
X562602978Y-379527698D01*
X562597397Y-379539747D01*
X562588379Y-379557427D01*
X562578610Y-379574654D01*
X562568089Y-379591429D01*
X562556816Y-379607751D01*
X562544791Y-379623621D01*
X562532015Y-379639038D01*
X562518487Y-379654003D01*
X562504207Y-379668515D01*
X562489176Y-379682574D01*
X562473392Y-379696182D01*
X562462452Y-379705002D01*
X562445449Y-379717814D01*
X562427759Y-379730094D01*
X562409384Y-379741842D01*
X562390322Y-379753056D01*
X562370574Y-379763738D01*
X562350141Y-379773886D01*
X562329021Y-379783502D01*
X562307215Y-379792586D01*
X562284723Y-379801136D01*
X562261545Y-379809153D01*
X562245711Y-379814203D01*
X562229583Y-379818979D01*
X562213169Y-379823447D01*
X562196470Y-379827608D01*
X562179485Y-379831460D01*
X562162215Y-379835004D01*
X562144659Y-379838239D01*
X562126818Y-379841167D01*
X562108691Y-379843786D01*
X562090279Y-379846098D01*
X562071581Y-379848101D01*
X562052598Y-379849796D01*
X562033330Y-379851182D01*
X562013776Y-379852261D01*
X561993937Y-379853031D01*
X561973812Y-379853494D01*
X561953401Y-379853648D01*
X561931668Y-379853490D01*
X561910271Y-379853018D01*
X561889212Y-379852232D01*
X561868490Y-379851131D01*
X561848106Y-379849715D01*
X561828059Y-379847984D01*
X561808349Y-379845939D01*
X561788977Y-379843579D01*
X561769942Y-379840904D01*
X561751245Y-379837915D01*
X561732885Y-379834611D01*
X561714862Y-379830993D01*
X561697176Y-379827060D01*
X561679828Y-379822812D01*
X561662817Y-379818249D01*
X561646144Y-379813372D01*
X561629827Y-379808278D01*
X561613887Y-379802959D01*
X561590682Y-379794562D01*
X561568324Y-379785662D01*
X561546812Y-379776257D01*
X561526147Y-379766349D01*
X561506329Y-379755938D01*
X561487357Y-379745023D01*
X561469232Y-379733604D01*
X561451954Y-379721681D01*
X561435522Y-379709255D01*
X561430233Y-379705002D01*
X561415042Y-379691944D01*
X561400610Y-379678464D01*
X561386938Y-379664560D01*
X561374024Y-379650232D01*
X561361869Y-379635482D01*
X561350473Y-379620308D01*
X561339837Y-379604711D01*
X561329959Y-379588690D01*
X561320841Y-379572246D01*
X561312482Y-379555379D01*
X561307330Y-379543899D01*
X561300281Y-379526372D01*
X561293925Y-379508671D01*
X561288263Y-379490794D01*
X561283293Y-379472742D01*
X561279018Y-379454515D01*
X561275435Y-379436112D01*
X561272546Y-379417535D01*
X561270350Y-379398782D01*
X561268848Y-379379854D01*
X561268039Y-379360751D01*
X561267885Y-379347919D01*
X561268206Y-379329534D01*
X561269170Y-379311542D01*
X561270737Y-379294356D01*
X561694309Y-379294356D01*
X561694984Y-379316736D01*
X561697009Y-379338255D01*
X561700385Y-379358913D01*
X561705111Y-379378709D01*
X561711187Y-379397644D01*
X561718613Y-379415718D01*
X561727390Y-379432931D01*
X561737517Y-379449282D01*
X561748994Y-379464773D01*
X561761821Y-379479401D01*
X561771123Y-379488676D01*
X561786034Y-379501661D01*
X561801807Y-379513369D01*
X561818440Y-379523800D01*
X561835935Y-379532954D01*
X561854291Y-379540831D01*
X561873509Y-379547430D01*
X561893587Y-379552752D01*
X561914527Y-379556797D01*
X561936328Y-379559564D01*
X561958991Y-379561054D01*
X561974577Y-379561338D01*
X561992198Y-379560637D01*
X562011012Y-379558535D01*
X562028454Y-379555546D01*
X562046810Y-379551485D01*
X562052222Y-379550127D01*
X562068362Y-379545500D01*
X562086269Y-379539031D01*
X562103183Y-379531410D01*
X562119103Y-379522637D01*
X562129867Y-379515664D01*
X562143369Y-379505208D01*
X562155850Y-379494080D01*
X562169120Y-379480249D01*
X562180998Y-379465503D01*
X562190073Y-379452137D01*
X562198971Y-379434919D01*
X562204859Y-379418201D01*
X562209141Y-379399672D01*
X562211482Y-379382848D01*
X562212709Y-379364768D01*
X562212909Y-379353316D01*
X562212345Y-379332556D01*
X562210652Y-379313041D01*
X562207830Y-379294771D01*
X562203879Y-379277748D01*
X562197352Y-379258220D01*
X562189062Y-379240638D01*
X562179008Y-379225003D01*
X562176786Y-379222109D01*
X562163470Y-379207443D01*
X562149898Y-379195330D01*
X562133730Y-379182880D01*
X562119902Y-379173322D01*
X562104614Y-379163573D01*
X562087866Y-379153635D01*
X562069658Y-379143506D01*
X562049990Y-379133189D01*
X562028863Y-379122681D01*
X562021496Y-379119136D01*
X562005170Y-379111654D01*
X561988899Y-379104609D01*
X561970526Y-379096979D01*
X561953609Y-379090175D01*
X561935233Y-379082966D01*
X561923506Y-379078445D01*
X561907851Y-379072379D01*
X561888921Y-379064961D01*
X561870701Y-379057725D01*
X561853190Y-379050672D01*
X561836389Y-379043801D01*
X561820298Y-379037113D01*
X561810983Y-379033187D01*
X561797073Y-379047987D01*
X561783630Y-379063842D01*
X561773210Y-379077284D01*
X561763090Y-379091401D01*
X561753267Y-379106193D01*
X561743743Y-379121660D01*
X561734518Y-379137801D01*
X561730017Y-379146125D01*
X561721648Y-379163155D01*
X561714395Y-379180614D01*
X561708257Y-379198500D01*
X561703236Y-379216815D01*
X561699330Y-379235558D01*
X561696540Y-379254729D01*
X561694867Y-379274329D01*
X561694309Y-379294356D01*
X561270737Y-379294356D01*
X561270775Y-379293942D01*
X561273023Y-379276735D01*
X561275914Y-379259921D01*
X561279446Y-379243499D01*
X561285949Y-379219602D01*
X561293897Y-379196588D01*
X561303291Y-379174457D01*
X561314129Y-379153210D01*
X561326413Y-379132845D01*
X561340142Y-379113364D01*
X561350097Y-379100867D01*
X561366239Y-379082623D01*
X561383681Y-379064948D01*
X561396030Y-379053481D01*
X561408957Y-379042267D01*
X561422461Y-379031306D01*
X561436543Y-379020598D01*
X561451202Y-379010143D01*
X561466438Y-378999941D01*
X561482252Y-378989992D01*
X561498643Y-378980296D01*
X561515611Y-378970853D01*
X561533157Y-378961664D01*
X561551281Y-378952727D01*
X561569982Y-378944043D01*
X561589260Y-378935612D01*
X561589260Y-378928969D01*
X561570518Y-378919557D01*
X561552494Y-378909901D01*
X561535186Y-378900003D01*
X561518596Y-378889861D01*
X561502722Y-378879476D01*
X561487565Y-378868847D01*
X561473125Y-378857975D01*
X561459402Y-378846860D01*
X561446396Y-378835502D01*
X561434106Y-378823900D01*
X561417017Y-378806042D01*
X561401540Y-378787636D01*
X561387676Y-378768682D01*
X561375425Y-378749182D01*
X561364592Y-378729118D01*
X561354823Y-378708630D01*
X561346121Y-378687720D01*
X561338484Y-378666386D01*
X561331913Y-378644628D01*
X561326407Y-378622448D01*
X561321967Y-378599844D01*
X561318593Y-378576816D01*
X561316284Y-378553366D01*
X561315041Y-378529492D01*
X561314804Y-378513341D01*
X561314986Y-378504621D01*
X561745795Y-378504621D01*
X561746346Y-378521638D01*
X561748587Y-378541724D01*
X561752550Y-378560492D01*
X561758237Y-378577942D01*
X561765647Y-378594074D01*
X561774781Y-378608888D01*
X561781088Y-378617144D01*
X561793200Y-378630227D01*
X561807217Y-378643006D01*
X561823141Y-378655480D01*
X561837251Y-378665241D01*
X561852582Y-378674807D01*
X561869132Y-378684178D01*
X561886902Y-378693355D01*
X561891535Y-378695619D01*
X561908688Y-378703794D01*
X561924932Y-378711074D01*
X561942329Y-378718474D01*
X561958157Y-378724911D01*
X561969180Y-378729251D01*
X561987047Y-378736156D01*
X562003542Y-378742467D01*
X562021496Y-378749285D01*
X562040911Y-378756610D01*
X562057493Y-378762835D01*
X562075010Y-378769385D01*
X562088761Y-378774510D01*
X562099790Y-378759731D01*
X562110040Y-378745081D01*
X562119513Y-378730562D01*
X562128206Y-378716172D01*
X562137978Y-378698367D01*
X562146534Y-378680766D01*
X562153873Y-378663366D01*
X562155195Y-378659911D01*
X562161295Y-378642149D01*
X562166362Y-378623636D01*
X562170394Y-378604374D01*
X562173393Y-378584362D01*
X562175047Y-378567811D01*
X562176040Y-378550781D01*
X562176371Y-378533271D01*
X562175456Y-378511719D01*
X562172712Y-378491283D01*
X562168138Y-378471962D01*
X562161734Y-378453758D01*
X562153502Y-378436669D01*
X562143439Y-378420696D01*
X562131547Y-378405839D01*
X562117826Y-378392099D01*
X562102632Y-378379642D01*
X562086114Y-378368847D01*
X562068273Y-378359712D01*
X562049108Y-378352238D01*
X562028620Y-378346425D01*
X562006808Y-378342273D01*
X561989581Y-378340249D01*
X561971609Y-378339159D01*
X561959214Y-378338951D01*
X561941630Y-378339371D01*
X561924687Y-378340630D01*
X561903096Y-378343614D01*
X561882647Y-378348091D01*
X561863339Y-378354060D01*
X561845174Y-378361520D01*
X561828150Y-378370473D01*
X561812268Y-378380919D01*
X561804755Y-378386701D01*
X561790936Y-378398988D01*
X561778960Y-378411977D01*
X561768826Y-378425666D01*
X561758750Y-378443763D01*
X561751553Y-378462954D01*
X561747234Y-378483240D01*
X561745853Y-378500257D01*
X561745795Y-378504621D01*
X561314986Y-378504621D01*
X561315173Y-378495615D01*
X561316278Y-378478093D01*
X561318121Y-378460776D01*
X561320701Y-378443663D01*
X561324019Y-378426754D01*
X561328073Y-378410050D01*
X561332865Y-378393550D01*
X561338393Y-378377255D01*
X561344659Y-378361164D01*
X561351662Y-378345277D01*
X561356741Y-378334799D01*
X561364976Y-378319230D01*
X561373956Y-378303974D01*
X561383680Y-378289033D01*
X561394149Y-378274405D01*
X561405362Y-378260091D01*
X561417320Y-378246091D01*
X561430022Y-378232405D01*
X561443468Y-378219033D01*
X561457659Y-378205974D01*
X561472595Y-378193229D01*
X561482965Y-378184907D01*
X561498211Y-378173371D01*
X561514208Y-378162272D01*
X561530958Y-378151611D01*
X561548459Y-378141388D01*
X561566711Y-378131603D01*
X561585716Y-378122256D01*
X561605472Y-378113346D01*
X561625980Y-378104875D01*
X561647240Y-378096842D01*
X561669252Y-378089246D01*
X561684344Y-378084426D01*
X561707491Y-378077673D01*
X561731157Y-378071585D01*
X561755341Y-378066161D01*
X561771752Y-378062914D01*
X561788393Y-378059962D01*
X561805264Y-378057305D01*
X561822366Y-378054944D01*
X561839698Y-378052877D01*
X561857260Y-378051106D01*
X561875052Y-378049630D01*
X561893075Y-378048450D01*
X561911328Y-378047564D01*
X561929812Y-378046974D01*
X561948526Y-378046678D01*
X561957969Y-378046641D01*
X561977944Y-378046776D01*
G37*
G36*
X564159427Y-379800501D02*
G01*
X563680687Y-379800501D01*
X563430729Y-379452552D01*
X563173712Y-379800501D01*
X562704521Y-379800501D01*
X563186584Y-379151108D01*
X562712411Y-378498393D01*
X563191566Y-378498393D01*
X563436542Y-378835961D01*
X563683178Y-378498393D01*
X564153614Y-378498393D01*
X563678196Y-379138236D01*
X564159427Y-379800501D01*
G37*
G36*
X565176491Y-378046817D02*
G01*
X565197875Y-378047342D01*
X565219258Y-378048218D01*
X565240642Y-378049444D01*
X565262025Y-378051021D01*
X565283408Y-378052948D01*
X565304792Y-378055225D01*
X565326175Y-378057852D01*
X565346813Y-378060584D01*
X565365750Y-378063172D01*
X565382988Y-378065618D01*
X565402145Y-378068475D01*
X565418646Y-378071108D01*
X565437286Y-378074421D01*
X565443681Y-378075706D01*
X565443681Y-378418672D01*
X565412124Y-378418672D01*
X565394478Y-378410939D01*
X565377973Y-378404798D01*
X565362078Y-378399458D01*
X565344237Y-378393915D01*
X565324450Y-378388169D01*
X565311643Y-378384625D01*
X565293795Y-378380148D01*
X565275338Y-378376269D01*
X565256270Y-378372986D01*
X565236593Y-378370300D01*
X565216306Y-378368211D01*
X565195409Y-378366719D01*
X565173903Y-378365823D01*
X565151786Y-378365525D01*
X565126565Y-378365942D01*
X565102077Y-378367192D01*
X565078322Y-378369276D01*
X565055301Y-378372194D01*
X565033012Y-378375946D01*
X565011457Y-378380531D01*
X564990635Y-378385950D01*
X564970546Y-378392202D01*
X564951190Y-378399289D01*
X564932567Y-378407208D01*
X564914677Y-378415962D01*
X564897520Y-378425549D01*
X564881096Y-378435970D01*
X564865406Y-378447225D01*
X564850448Y-378459313D01*
X564836224Y-378472235D01*
X564822699Y-378485935D01*
X564809839Y-378500359D01*
X564797643Y-378515506D01*
X564786113Y-378531377D01*
X564775248Y-378547970D01*
X564765048Y-378565288D01*
X564755512Y-378583328D01*
X564746642Y-378602092D01*
X564738437Y-378621580D01*
X564730896Y-378641791D01*
X564724021Y-378662725D01*
X564717811Y-378684382D01*
X564712265Y-378706763D01*
X564707385Y-378729868D01*
X564703170Y-378753695D01*
X564699619Y-378778246D01*
X564715604Y-378768163D01*
X564731641Y-378758467D01*
X564747728Y-378749158D01*
X564763867Y-378740235D01*
X564780057Y-378731699D01*
X564796297Y-378723550D01*
X564812589Y-378715788D01*
X564828932Y-378708413D01*
X564845326Y-378701424D01*
X564861771Y-378694823D01*
X564872763Y-378690637D01*
X564889543Y-378684775D01*
X564906716Y-378679489D01*
X564924284Y-378674780D01*
X564942246Y-378670648D01*
X564960602Y-378667092D01*
X564979353Y-378664113D01*
X564998497Y-378661711D01*
X565018036Y-378659885D01*
X565037968Y-378658636D01*
X565058295Y-378657963D01*
X565072065Y-378657835D01*
X565089483Y-378658057D01*
X565106705Y-378658725D01*
X565123729Y-378659838D01*
X565140556Y-378661397D01*
X565157186Y-378663400D01*
X565173619Y-378665849D01*
X565195223Y-378669806D01*
X565216476Y-378674555D01*
X565237380Y-378680096D01*
X565247700Y-378683163D01*
X565268065Y-378689748D01*
X565287846Y-378697046D01*
X565307043Y-378705059D01*
X565325656Y-378713785D01*
X565343686Y-378723224D01*
X565361131Y-378733378D01*
X565377993Y-378744244D01*
X565394270Y-378755825D01*
X565410839Y-378769202D01*
X565426759Y-378783331D01*
X565442029Y-378798212D01*
X565456650Y-378813845D01*
X565470620Y-378830229D01*
X565483942Y-378847365D01*
X565496613Y-378865253D01*
X565508635Y-378883892D01*
X565520008Y-378903284D01*
X565530731Y-378923427D01*
X565537519Y-378937273D01*
X565547017Y-378958848D01*
X565555580Y-378981532D01*
X565563210Y-379005326D01*
X565567777Y-379021805D01*
X565571929Y-379038776D01*
X565575666Y-379056241D01*
X565578988Y-379074199D01*
X565581895Y-379092650D01*
X565584386Y-379111594D01*
X565586462Y-379131031D01*
X565588123Y-379150962D01*
X565589368Y-379171385D01*
X565590199Y-379192301D01*
X565590614Y-379213711D01*
X565590666Y-379224600D01*
X565590496Y-379241684D01*
X565589986Y-379258578D01*
X565589137Y-379275281D01*
X565586419Y-379308115D01*
X565582341Y-379340187D01*
X565576904Y-379371497D01*
X565570108Y-379402044D01*
X565561953Y-379431829D01*
X565552439Y-379460852D01*
X565541566Y-379489112D01*
X565529333Y-379516610D01*
X565515742Y-379543346D01*
X565500791Y-379569320D01*
X565484481Y-379594531D01*
X565466811Y-379618980D01*
X565447783Y-379642667D01*
X565427395Y-379665591D01*
X565416692Y-379676767D01*
X565394439Y-379698186D01*
X565371174Y-379718223D01*
X565346897Y-379736879D01*
X565321608Y-379754152D01*
X565295307Y-379770044D01*
X565267994Y-379784554D01*
X565239668Y-379797682D01*
X565210331Y-379809428D01*
X565179982Y-379819792D01*
X565148620Y-379828774D01*
X565116246Y-379836374D01*
X565099680Y-379839656D01*
X565082861Y-379842593D01*
X565065788Y-379845184D01*
X565048463Y-379847429D01*
X565030884Y-379849329D01*
X565013053Y-379850884D01*
X564994969Y-379852093D01*
X564976631Y-379852957D01*
X564958041Y-379853475D01*
X564939197Y-379853648D01*
X564920329Y-379853476D01*
X564901718Y-379852960D01*
X564883362Y-379852100D01*
X564865263Y-379850897D01*
X564847420Y-379849350D01*
X564829834Y-379847458D01*
X564812504Y-379845223D01*
X564795430Y-379842645D01*
X564778612Y-379839722D01*
X564762050Y-379836455D01*
X564745745Y-379832845D01*
X564721768Y-379826785D01*
X564698367Y-379819951D01*
X564675543Y-379812343D01*
X564668063Y-379809635D01*
X564646111Y-379801096D01*
X564624787Y-379791826D01*
X564604090Y-379781827D01*
X564584021Y-379771098D01*
X564564580Y-379759639D01*
X564545767Y-379747451D01*
X564527581Y-379734532D01*
X564510023Y-379720883D01*
X564493092Y-379706505D01*
X564476789Y-379691397D01*
X564466270Y-379680919D01*
X564454047Y-379668132D01*
X564442187Y-379654891D01*
X564430691Y-379641195D01*
X564419558Y-379627045D01*
X564408789Y-379612442D01*
X564398382Y-379597384D01*
X564388339Y-379581871D01*
X564378660Y-379565905D01*
X564369343Y-379549485D01*
X564360390Y-379532610D01*
X564351801Y-379515282D01*
X564343574Y-379497499D01*
X564335711Y-379479262D01*
X564328211Y-379460571D01*
X564321075Y-379441426D01*
X564314302Y-379421826D01*
X564307966Y-379401708D01*
X564302040Y-379381110D01*
X564296522Y-379360031D01*
X564291413Y-379338472D01*
X564286713Y-379316434D01*
X564282421Y-379293915D01*
X564278538Y-379270916D01*
X564275064Y-379247437D01*
X564271999Y-379223478D01*
X564269342Y-379199039D01*
X564267094Y-379174119D01*
X564265255Y-379148720D01*
X564263824Y-379122841D01*
X564262988Y-379101282D01*
X564695052Y-379101282D01*
X564695154Y-379120200D01*
X564695461Y-379138651D01*
X564695971Y-379156635D01*
X564696687Y-379174152D01*
X564697606Y-379191202D01*
X564698730Y-379207784D01*
X564700800Y-379231782D01*
X564703329Y-379254729D01*
X564706317Y-379276625D01*
X564709766Y-379297470D01*
X564713674Y-379317264D01*
X564718043Y-379336007D01*
X564721210Y-379347919D01*
X564726306Y-379365038D01*
X564731628Y-379381361D01*
X564739076Y-379401888D01*
X564746926Y-379421001D01*
X564755178Y-379438699D01*
X564763833Y-379454983D01*
X564772890Y-379469853D01*
X564784776Y-379486452D01*
X564787229Y-379489506D01*
X564798902Y-379503086D01*
X564811188Y-379515178D01*
X564824087Y-379525780D01*
X564839911Y-379536268D01*
X564856570Y-379544729D01*
X564874006Y-379551201D01*
X564891799Y-379556083D01*
X564909951Y-379559375D01*
X564928460Y-379561078D01*
X564939197Y-379561338D01*
X564956999Y-379560222D01*
X564975528Y-379556874D01*
X564992337Y-379552114D01*
X565009702Y-379545646D01*
X565014766Y-379543484D01*
X565029713Y-379536020D01*
X565045972Y-379525762D01*
X565060958Y-379513835D01*
X565074673Y-379500239D01*
X565083691Y-379489506D01*
X565093936Y-379475829D01*
X565103389Y-379461787D01*
X565112052Y-379447381D01*
X565119925Y-379432609D01*
X565127007Y-379417472D01*
X565133298Y-379401971D01*
X565135593Y-379395668D01*
X565140856Y-379378431D01*
X565145227Y-379358639D01*
X565148081Y-379340967D01*
X565150365Y-379321660D01*
X565152078Y-379300717D01*
X565152988Y-379283938D01*
X565153577Y-379266238D01*
X565153844Y-379247619D01*
X565153862Y-379241209D01*
X565153531Y-379220182D01*
X565152539Y-379200077D01*
X565150884Y-379180893D01*
X565148568Y-379162630D01*
X565145590Y-379145288D01*
X565141951Y-379128868D01*
X565136471Y-379109638D01*
X565132686Y-379098791D01*
X565125763Y-379081702D01*
X565117967Y-379065728D01*
X565109300Y-379050869D01*
X565099761Y-379037125D01*
X565087164Y-379022105D01*
X565073311Y-379008690D01*
X565058465Y-378996963D01*
X565042890Y-378986696D01*
X565026585Y-378977889D01*
X565009550Y-378970542D01*
X564991785Y-378964654D01*
X564985701Y-378963016D01*
X564967123Y-378958642D01*
X564948137Y-378955173D01*
X564928742Y-378952608D01*
X564908938Y-378950949D01*
X564892123Y-378950258D01*
X564881898Y-378950145D01*
X564864668Y-378950568D01*
X564847234Y-378951838D01*
X564829595Y-378953955D01*
X564811753Y-378956918D01*
X564793705Y-378960728D01*
X564787644Y-378962186D01*
X564769802Y-378966906D01*
X564752397Y-378972034D01*
X564735430Y-378977571D01*
X564718901Y-378983517D01*
X564702810Y-378989872D01*
X564697543Y-378992081D01*
X564697192Y-379009328D01*
X564696520Y-379026864D01*
X564696297Y-379031942D01*
X564695641Y-379050488D01*
X564695290Y-379067369D01*
X564695096Y-379086067D01*
X564695052Y-379101282D01*
X564262988Y-379101282D01*
X564262802Y-379096481D01*
X564262189Y-379069642D01*
X564261985Y-379042322D01*
X564262176Y-379013925D01*
X564262750Y-378985931D01*
X564263707Y-378958339D01*
X564265047Y-378931149D01*
X564266770Y-378904361D01*
X564268875Y-378877975D01*
X564271363Y-378851992D01*
X564274234Y-378826411D01*
X564277487Y-378801232D01*
X564281124Y-378776456D01*
X564285143Y-378752082D01*
X564289545Y-378728110D01*
X564294329Y-378704540D01*
X564299497Y-378681372D01*
X564305047Y-378658607D01*
X564310980Y-378636244D01*
X564317346Y-378614190D01*
X564324195Y-378592458D01*
X564331528Y-378571047D01*
X564339344Y-378549957D01*
X564347644Y-378529189D01*
X564356426Y-378508741D01*
X564365692Y-378488614D01*
X564375442Y-378468809D01*
X564385674Y-378449325D01*
X564396391Y-378430162D01*
X564407590Y-378411320D01*
X564419273Y-378392799D01*
X564431439Y-378374600D01*
X564444088Y-378356721D01*
X564457221Y-378339164D01*
X564470837Y-378321928D01*
X564484378Y-378305956D01*
X564498429Y-378290430D01*
X564512989Y-378275348D01*
X564528058Y-378260710D01*
X564543637Y-378246516D01*
X564559725Y-378232767D01*
X564576322Y-378219462D01*
X564593428Y-378206602D01*
X564611044Y-378194186D01*
X564629169Y-378182215D01*
X564647804Y-378170688D01*
X564666947Y-378159605D01*
X564686600Y-378148967D01*
X564706762Y-378138773D01*
X564727434Y-378129024D01*
X564748614Y-378119719D01*
X564770346Y-378110870D01*
X564792568Y-378102591D01*
X564815280Y-378094884D01*
X564838482Y-378087748D01*
X564862173Y-378081182D01*
X564886355Y-378075187D01*
X564911026Y-378069764D01*
X564936187Y-378064911D01*
X564961837Y-378060629D01*
X564987978Y-378056918D01*
X565014608Y-378053778D01*
X565041729Y-378051209D01*
X565069339Y-378049211D01*
X565097438Y-378047783D01*
X565126028Y-378046927D01*
X565155108Y-378046641D01*
X565176491Y-378046817D01*
G37*
G36*
X566901078Y-379083013D02*
G01*
X567135673Y-379083013D01*
X567135673Y-379401896D01*
X566901078Y-379401896D01*
X566901078Y-379800501D01*
X566479637Y-379800501D01*
X566479637Y-379401896D01*
X565714815Y-379401896D01*
X565714815Y-379083013D01*
X566039096Y-379083013D01*
X566479637Y-379083013D01*
X566479637Y-378497147D01*
X566039096Y-379083013D01*
X565714815Y-379083013D01*
X565714815Y-379071387D01*
X566465519Y-378073215D01*
X566901078Y-378073215D01*
X566901078Y-379083013D01*
G37*
G36*
X568615037Y-378073306D02*
G01*
X568637653Y-378073578D01*
X568660088Y-378074033D01*
X568682341Y-378074668D01*
X568704412Y-378075486D01*
X568726301Y-378076485D01*
X568748009Y-378077666D01*
X568769535Y-378079028D01*
X568790880Y-378080572D01*
X568812043Y-378082298D01*
X568833024Y-378084205D01*
X568853824Y-378086294D01*
X568874442Y-378088565D01*
X568894878Y-378091017D01*
X568915132Y-378093651D01*
X568935205Y-378096467D01*
X568955160Y-378099631D01*
X568974956Y-378103312D01*
X568994592Y-378107507D01*
X569014070Y-378112219D01*
X569033389Y-378117447D01*
X569052548Y-378123190D01*
X569071549Y-378129449D01*
X569090391Y-378136224D01*
X569109074Y-378143514D01*
X569127598Y-378151321D01*
X569145963Y-378159643D01*
X569164169Y-378168480D01*
X569182216Y-378177834D01*
X569200105Y-378187704D01*
X569217834Y-378198089D01*
X569235404Y-378208990D01*
X569256608Y-378222886D01*
X569277243Y-378237380D01*
X569297312Y-378252470D01*
X569316812Y-378268158D01*
X569335745Y-378284442D01*
X569354110Y-378301323D01*
X569371907Y-378318801D01*
X569389137Y-378336875D01*
X569405799Y-378355547D01*
X569421893Y-378374815D01*
X569437420Y-378394681D01*
X569452379Y-378415143D01*
X569466770Y-378436202D01*
X569480594Y-378457858D01*
X569493850Y-378480111D01*
X569506538Y-378502960D01*
X569518555Y-378526363D01*
X569529797Y-378550275D01*
X569540263Y-378574697D01*
X569549954Y-378599627D01*
X569558870Y-378625067D01*
X569567010Y-378651016D01*
X569574375Y-378677475D01*
X569580965Y-378704442D01*
X569586780Y-378731919D01*
X569591819Y-378759906D01*
X569596083Y-378788401D01*
X569599572Y-378817406D01*
X569602285Y-378846920D01*
X569604224Y-378876944D01*
X569605386Y-378907477D01*
X569605774Y-378938519D01*
X569605359Y-378968477D01*
X569604113Y-378998043D01*
X569602037Y-379027217D01*
X569599131Y-379055998D01*
X569595394Y-379084386D01*
X569590826Y-379112383D01*
X569585429Y-379139986D01*
X569579200Y-379167197D01*
X569572142Y-379194016D01*
X569564253Y-379220442D01*
X569555533Y-379246475D01*
X569545983Y-379272116D01*
X569535603Y-379297365D01*
X569524392Y-379322221D01*
X569512351Y-379346684D01*
X569499480Y-379370755D01*
X569485974Y-379394233D01*
X569472030Y-379417019D01*
X569457649Y-379439114D01*
X569442829Y-379460519D01*
X569427572Y-379481233D01*
X569411876Y-379501255D01*
X569395743Y-379520587D01*
X569379172Y-379539228D01*
X569362163Y-379557178D01*
X569344716Y-379574437D01*
X569326831Y-379591005D01*
X569308508Y-379606882D01*
X569289747Y-379622068D01*
X569270548Y-379636563D01*
X569250911Y-379650367D01*
X569230837Y-379663480D01*
X569213823Y-379674136D01*
X569196621Y-379684306D01*
X569179230Y-379693989D01*
X569161652Y-379703185D01*
X569143885Y-379711895D01*
X569125931Y-379720118D01*
X569107788Y-379727854D01*
X569089457Y-379735104D01*
X569070938Y-379741868D01*
X569052231Y-379748145D01*
X569033335Y-379753935D01*
X569014252Y-379759239D01*
X568994980Y-379764056D01*
X568975520Y-379768386D01*
X568955872Y-379772230D01*
X568936036Y-379775588D01*
X568916026Y-379778605D01*
X568895857Y-379781427D01*
X568875530Y-379784054D01*
X568855043Y-379786487D01*
X568834398Y-379788725D01*
X568813593Y-379790769D01*
X568792630Y-379792618D01*
X568771508Y-379794272D01*
X568750226Y-379795732D01*
X568728786Y-379796997D01*
X568707187Y-379798068D01*
X568685429Y-379798943D01*
X568663512Y-379799625D01*
X568641436Y-379800111D01*
X568619201Y-379800403D01*
X568596807Y-379800501D01*
X568052463Y-379800501D01*
X568052463Y-378392099D01*
X568489267Y-378392099D01*
X568489267Y-379481617D01*
X568497571Y-379481617D01*
X568515764Y-379481598D01*
X568533597Y-379481539D01*
X568551070Y-379481442D01*
X568568183Y-379481306D01*
X568584936Y-379481130D01*
X568609390Y-379480795D01*
X568633034Y-379480371D01*
X568655868Y-379479860D01*
X568677892Y-379479262D01*
X568699105Y-379478576D01*
X568719509Y-379477802D01*
X568739102Y-379476941D01*
X568745453Y-379476634D01*
X568764358Y-379475166D01*
X568783080Y-379472786D01*
X568801620Y-379469493D01*
X568819977Y-379465287D01*
X568838152Y-379460170D01*
X568856145Y-379454140D01*
X568873955Y-379447198D01*
X568891582Y-379439343D01*
X568909027Y-379430576D01*
X568926290Y-379420897D01*
X568937697Y-379413937D01*
X568957408Y-379400721D01*
X568976214Y-379386606D01*
X568994115Y-379371594D01*
X569011111Y-379355684D01*
X569027203Y-379338877D01*
X569042389Y-379321171D01*
X569056670Y-379302568D01*
X569070046Y-379283067D01*
X569082517Y-379262669D01*
X569094083Y-379241373D01*
X569101290Y-379226676D01*
X569111308Y-379203869D01*
X569117439Y-379188150D01*
X569123132Y-379172018D01*
X569128387Y-379155474D01*
X569133204Y-379138519D01*
X569137583Y-379121151D01*
X569141524Y-379103372D01*
X569145028Y-379085180D01*
X569148093Y-379066577D01*
X569150721Y-379047561D01*
X569152910Y-379028134D01*
X569154662Y-379008294D01*
X569155976Y-378988043D01*
X569156852Y-378967380D01*
X569157289Y-378946304D01*
X569157344Y-378935612D01*
X569157114Y-378914320D01*
X569156423Y-378893416D01*
X569155271Y-378872902D01*
X569153659Y-378852777D01*
X569151586Y-378833042D01*
X569149053Y-378813695D01*
X569146059Y-378794738D01*
X569142604Y-378776170D01*
X569138689Y-378757992D01*
X569134313Y-378740203D01*
X569129476Y-378722803D01*
X569124179Y-378705792D01*
X569118421Y-378689170D01*
X569112203Y-378672938D01*
X569105524Y-378657095D01*
X569098384Y-378641641D01*
X569090766Y-378626590D01*
X569082651Y-378611954D01*
X569074041Y-378597733D01*
X569060194Y-378577180D01*
X569045230Y-378557561D01*
X569029150Y-378538876D01*
X569011953Y-378521126D01*
X568993640Y-378504310D01*
X568980810Y-378493618D01*
X568967485Y-378483342D01*
X568953662Y-378473480D01*
X568939344Y-378464034D01*
X568924529Y-378455003D01*
X568916936Y-378450644D01*
X568900199Y-378441847D01*
X568883309Y-378433832D01*
X568866265Y-378426598D01*
X568849068Y-378420145D01*
X568831718Y-378414473D01*
X568814215Y-378409581D01*
X568796558Y-378405471D01*
X568778748Y-378402142D01*
X568760785Y-378399593D01*
X568742668Y-378397826D01*
X568730505Y-378397081D01*
X568711878Y-378396191D01*
X568692586Y-378395388D01*
X568672631Y-378394673D01*
X568652011Y-378394045D01*
X568630727Y-378393505D01*
X568608778Y-378393052D01*
X568586166Y-378392687D01*
X568562889Y-378392410D01*
X568538948Y-378392220D01*
X568514343Y-378392118D01*
X568497571Y-378392099D01*
X568489267Y-378392099D01*
X568052463Y-378392099D01*
X568052463Y-378073215D01*
X568592240Y-378073215D01*
X568615037Y-378073306D01*
G37*
G36*
X570239804Y-379800501D02*
G01*
X569831235Y-379800501D01*
X569831235Y-378498393D01*
X570239804Y-378498393D01*
X570239804Y-379800501D01*
G37*
G36*
X570251430Y-378312378D02*
G01*
X569819609Y-378312378D01*
X569819609Y-377993494D01*
X570251430Y-377993494D01*
X570251430Y-378312378D01*
G37*
G36*
X570948157Y-379827074D02*
G01*
X570930105Y-379826951D01*
X570912176Y-379826581D01*
X570894371Y-379825965D01*
X570876689Y-379825102D01*
X570859130Y-379823992D01*
X570841694Y-379822637D01*
X570824382Y-379821034D01*
X570807192Y-379819185D01*
X570790127Y-379817090D01*
X570773184Y-379814747D01*
X570756365Y-379812159D01*
X570739668Y-379809324D01*
X570723096Y-379806242D01*
X570706646Y-379802914D01*
X570690320Y-379799339D01*
X570674117Y-379795518D01*
X570650373Y-379789506D01*
X570627410Y-379783305D01*
X570605228Y-379776914D01*
X570583827Y-379770333D01*
X570563207Y-379763562D01*
X570543368Y-379756601D01*
X570524310Y-379749451D01*
X570506033Y-379742111D01*
X570488537Y-379734581D01*
X570471822Y-379726862D01*
X570461113Y-379721610D01*
X570461113Y-379375323D01*
X570495160Y-379375323D01*
X570510211Y-379385988D01*
X570524233Y-379395789D01*
X570539049Y-379406027D01*
X570554660Y-379416702D01*
X570561594Y-379421411D01*
X570576629Y-379430841D01*
X570593708Y-379440446D01*
X570609502Y-379448584D01*
X570626714Y-379456844D01*
X570645346Y-379465225D01*
X570661274Y-379472018D01*
X570665397Y-379473728D01*
X570683658Y-379481351D01*
X570702629Y-379488650D01*
X570718316Y-379494255D01*
X570734457Y-379499653D01*
X570751053Y-379504843D01*
X570768102Y-379509826D01*
X570785606Y-379514601D01*
X570794528Y-379516910D01*
X570812675Y-379521095D01*
X570831197Y-379524721D01*
X570850096Y-379527790D01*
X570869371Y-379530301D01*
X570889022Y-379532254D01*
X570909049Y-379533648D01*
X570929453Y-379534485D01*
X570950233Y-379534764D01*
X570971506Y-379534394D01*
X570992144Y-379533285D01*
X571012145Y-379531436D01*
X571031511Y-379528847D01*
X571050241Y-379525519D01*
X571068335Y-379521452D01*
X571085794Y-379516644D01*
X571102616Y-379511097D01*
X571118090Y-379504642D01*
X571134530Y-379495350D01*
X571147746Y-379484700D01*
X571159351Y-379470127D01*
X571166314Y-379453598D01*
X571168635Y-379435113D01*
X571167185Y-379416366D01*
X571162834Y-379399724D01*
X571154309Y-379383285D01*
X571141995Y-379369596D01*
X571138325Y-379366603D01*
X571122322Y-379356388D01*
X571104241Y-379347853D01*
X571086095Y-379340897D01*
X571069565Y-379335435D01*
X571051244Y-379330063D01*
X571031132Y-379324782D01*
X571020404Y-379322175D01*
X571001948Y-379317757D01*
X570985253Y-379313986D01*
X570967361Y-379310134D01*
X570948273Y-379306201D01*
X570927989Y-379302187D01*
X570910900Y-379298917D01*
X570902069Y-379297263D01*
X570884571Y-379293779D01*
X570867580Y-379290178D01*
X570851095Y-379286461D01*
X570831200Y-379281649D01*
X570812096Y-379276656D01*
X570793782Y-379271480D01*
X570776259Y-379266122D01*
X570757302Y-379259973D01*
X570738942Y-379253464D01*
X570721179Y-379246595D01*
X570704012Y-379239366D01*
X570687442Y-379231777D01*
X570671470Y-379223828D01*
X570656094Y-379215519D01*
X570641315Y-379206850D01*
X570627133Y-379197821D01*
X570606979Y-379183602D01*
X570588168Y-379168573D01*
X570570700Y-379152733D01*
X570554574Y-379136084D01*
X570544570Y-379124534D01*
X570530694Y-379106421D01*
X570518183Y-379087272D01*
X570507037Y-379067086D01*
X570497256Y-379045864D01*
X570488839Y-379023606D01*
X570481787Y-379000311D01*
X570476100Y-378975979D01*
X570473067Y-378959183D01*
X570470641Y-378941925D01*
X570468821Y-378924208D01*
X570467608Y-378906029D01*
X570467001Y-378887390D01*
X570466926Y-378877898D01*
X570467555Y-378856157D01*
X570469443Y-378834741D01*
X570472589Y-378813650D01*
X570476994Y-378792883D01*
X570482658Y-378772440D01*
X570489581Y-378752322D01*
X570497762Y-378732528D01*
X570507201Y-378713058D01*
X570517867Y-378693913D01*
X570529726Y-378675300D01*
X570539404Y-378661689D01*
X570549754Y-378648377D01*
X570560775Y-378635365D01*
X570572467Y-378622652D01*
X570584831Y-378610238D01*
X570597867Y-378598124D01*
X570611574Y-378586308D01*
X570625952Y-378574792D01*
X570640913Y-378563875D01*
X570656524Y-378553388D01*
X570672784Y-378543331D01*
X570689694Y-378533706D01*
X570707253Y-378524510D01*
X570725462Y-378515746D01*
X570744321Y-378507412D01*
X570763829Y-378499509D01*
X570783986Y-378492036D01*
X570804794Y-378484994D01*
X570819026Y-378480539D01*
X570840854Y-378474232D01*
X570863207Y-378468545D01*
X570886086Y-378463478D01*
X570909491Y-378459032D01*
X570933420Y-378455206D01*
X570957876Y-378452001D01*
X570974471Y-378450209D01*
X570991300Y-378448692D01*
X571008363Y-378447452D01*
X571025659Y-378446487D01*
X571043189Y-378445797D01*
X571060952Y-378445384D01*
X571078949Y-378445246D01*
X571096093Y-378445353D01*
X571113062Y-378445674D01*
X571129855Y-378446209D01*
X571146473Y-378446959D01*
X571171072Y-378448484D01*
X571195277Y-378450491D01*
X571219088Y-378452980D01*
X571242504Y-378455950D01*
X571265527Y-378459403D01*
X571288155Y-378463337D01*
X571310389Y-378467752D01*
X571332229Y-378472650D01*
X571353629Y-378477887D01*
X571374386Y-378483320D01*
X571394501Y-378488951D01*
X571413974Y-378494779D01*
X571432805Y-378500804D01*
X571450993Y-378507027D01*
X571468539Y-378513446D01*
X571485443Y-378520062D01*
X571501704Y-378526875D01*
X571517323Y-378533886D01*
X571527379Y-378538669D01*
X571527379Y-378870424D01*
X571494577Y-378870424D01*
X571479169Y-378860108D01*
X571463339Y-378850455D01*
X571446933Y-378840986D01*
X571430974Y-378832111D01*
X571428143Y-378830563D01*
X571411103Y-378821313D01*
X571394239Y-378812560D01*
X571377549Y-378804303D01*
X571361034Y-378796542D01*
X571344695Y-378789277D01*
X571339288Y-378786966D01*
X571322904Y-378780411D01*
X571305933Y-378774242D01*
X571288373Y-378768458D01*
X571270226Y-378763059D01*
X571251491Y-378758045D01*
X571232168Y-378753416D01*
X571224274Y-378751673D01*
X571204340Y-378747606D01*
X571184245Y-378744228D01*
X571163987Y-378741540D01*
X571143567Y-378739541D01*
X571122985Y-378738231D01*
X571102240Y-378737611D01*
X571093897Y-378737556D01*
X571072111Y-378737977D01*
X571051182Y-378739242D01*
X571031109Y-378741351D01*
X571011892Y-378744303D01*
X570993532Y-378748098D01*
X570976028Y-378752737D01*
X570959381Y-378758219D01*
X570943590Y-378764544D01*
X570926006Y-378773404D01*
X570911403Y-378783116D01*
X570897813Y-378795893D01*
X570888514Y-378809897D01*
X570883090Y-378827784D01*
X570882554Y-378835961D01*
X570884004Y-378854504D01*
X570888355Y-378871259D01*
X570895607Y-378886226D01*
X570905760Y-378899404D01*
X570912864Y-378906132D01*
X570926741Y-378915601D01*
X570942141Y-378923447D01*
X570961029Y-378931252D01*
X570978649Y-378937468D01*
X570998502Y-378943657D01*
X571014856Y-378948282D01*
X571032465Y-378952892D01*
X571044902Y-378955958D01*
X571061756Y-378959970D01*
X571079360Y-378963962D01*
X571097714Y-378967933D01*
X571116818Y-378971885D01*
X571136672Y-378975816D01*
X571153096Y-378978946D01*
X571165729Y-378981286D01*
X571182772Y-378984439D01*
X571199646Y-378987877D01*
X571216352Y-378991601D01*
X571232889Y-378995610D01*
X571249258Y-378999905D01*
X571265458Y-379004486D01*
X571281489Y-379009351D01*
X571297351Y-379014503D01*
X571314732Y-379020327D01*
X571331580Y-379026485D01*
X571347897Y-379032978D01*
X571363681Y-379039805D01*
X571378934Y-379046965D01*
X571400815Y-379058333D01*
X571421500Y-379070453D01*
X571440987Y-379083324D01*
X571459278Y-379096947D01*
X571476371Y-379111321D01*
X571492268Y-379126448D01*
X571506967Y-379142326D01*
X571511601Y-379147786D01*
X571524661Y-379164798D01*
X571536436Y-379182824D01*
X571546927Y-379201865D01*
X571556133Y-379221921D01*
X571564054Y-379242991D01*
X571570691Y-379265075D01*
X571576043Y-379288174D01*
X571580111Y-379312288D01*
X571582109Y-379328927D01*
X571583537Y-379346018D01*
X571584393Y-379363559D01*
X571584678Y-379381551D01*
X571584299Y-379398757D01*
X571583160Y-379415811D01*
X571581263Y-379432711D01*
X571578606Y-379449458D01*
X571575190Y-379466051D01*
X571571015Y-379482491D01*
X571566082Y-379498778D01*
X571560389Y-379514912D01*
X571553937Y-379530892D01*
X571546725Y-379546719D01*
X571541496Y-379557186D01*
X571533082Y-379572601D01*
X571524033Y-379587548D01*
X571514349Y-379602029D01*
X571504030Y-379616042D01*
X571493076Y-379629589D01*
X571481487Y-379642668D01*
X571469263Y-379655280D01*
X571456404Y-379667425D01*
X571442910Y-379679103D01*
X571428781Y-379690313D01*
X571419009Y-379697528D01*
X571402945Y-379708883D01*
X571386364Y-379719750D01*
X571369265Y-379730127D01*
X571351647Y-379740016D01*
X571333511Y-379749415D01*
X571314857Y-379758326D01*
X571295684Y-379766747D01*
X571275994Y-379774679D01*
X571255785Y-379782123D01*
X571235058Y-379789077D01*
X571220952Y-379793442D01*
X571199223Y-379799452D01*
X571176698Y-379804872D01*
X571153377Y-379809700D01*
X571129261Y-379813937D01*
X571112742Y-379816433D01*
X571095869Y-379818666D01*
X571078643Y-379820637D01*
X571061063Y-379822345D01*
X571043129Y-379823790D01*
X571024842Y-379824972D01*
X571006201Y-379825892D01*
X570987207Y-379826549D01*
X570967859Y-379826943D01*
X570948157Y-379827074D01*
G37*
G36*
X572608816Y-378445958D02*
G01*
X572636056Y-378448094D01*
X572662495Y-378451654D01*
X572688133Y-378456638D01*
X572712969Y-378463046D01*
X572737004Y-378470879D01*
X572760238Y-378480135D01*
X572782671Y-378490815D01*
X572804303Y-378502920D01*
X572825133Y-378516448D01*
X572845162Y-378531401D01*
X572864390Y-378547777D01*
X572882817Y-378565578D01*
X572900443Y-378584803D01*
X572917267Y-378605451D01*
X572933290Y-378627524D01*
X572948424Y-378650773D01*
X572962582Y-378675053D01*
X572975763Y-378700365D01*
X572987968Y-378726708D01*
X572999197Y-378754083D01*
X573009449Y-378782489D01*
X573018725Y-378811927D01*
X573027024Y-378842397D01*
X573034347Y-378873898D01*
X573040694Y-378906430D01*
X573043501Y-378923084D01*
X573046064Y-378939995D01*
X573048383Y-378957163D01*
X573050458Y-378974590D01*
X573052288Y-378992275D01*
X573053875Y-379010217D01*
X573055218Y-379028418D01*
X573056316Y-379046876D01*
X573057170Y-379065592D01*
X573057781Y-379084567D01*
X573058147Y-379103798D01*
X573058269Y-379123288D01*
X573058113Y-379142918D01*
X573057646Y-379162309D01*
X573056868Y-379181461D01*
X573055778Y-379200375D01*
X573054376Y-379219051D01*
X573052663Y-379237488D01*
X573050639Y-379255687D01*
X573048304Y-379273647D01*
X573045657Y-379291369D01*
X573042698Y-379308853D01*
X573039429Y-379326098D01*
X573035847Y-379343105D01*
X573031955Y-379359873D01*
X573027751Y-379376403D01*
X573023235Y-379392694D01*
X573018408Y-379408747D01*
X573013270Y-379424562D01*
X573002059Y-379455476D01*
X572989603Y-379485436D01*
X572975901Y-379514442D01*
X572960953Y-379542495D01*
X572944760Y-379569594D01*
X572927321Y-379595740D01*
X572908637Y-379620931D01*
X572898827Y-379633170D01*
X572878608Y-379656650D01*
X572857812Y-379678616D01*
X572836438Y-379699067D01*
X572814487Y-379718003D01*
X572791958Y-379735424D01*
X572768853Y-379751330D01*
X572745169Y-379765722D01*
X572720908Y-379778598D01*
X572696070Y-379789960D01*
X572670655Y-379799806D01*
X572644662Y-379808138D01*
X572618091Y-379814955D01*
X572590944Y-379820257D01*
X572563218Y-379824044D01*
X572534916Y-379826317D01*
X572506036Y-379827074D01*
X572487885Y-379826877D01*
X572470180Y-379826286D01*
X572452920Y-379825301D01*
X572436105Y-379823921D01*
X572414378Y-379821469D01*
X572393442Y-379818316D01*
X572373297Y-379814462D01*
X572353945Y-379809908D01*
X572335383Y-379804653D01*
X572317172Y-379798664D01*
X572298663Y-379791911D01*
X572279855Y-379784392D01*
X572260749Y-379776107D01*
X572241344Y-379767056D01*
X572221641Y-379757241D01*
X572206668Y-379749376D01*
X572191527Y-379741081D01*
X572181339Y-379735312D01*
X572181339Y-380278826D01*
X571772770Y-380278826D01*
X571772770Y-379508606D01*
X572181339Y-379508606D01*
X572198130Y-379515171D01*
X572215698Y-379520751D01*
X572234045Y-379525344D01*
X572250738Y-379528554D01*
X572253171Y-379528951D01*
X572270962Y-379531216D01*
X572290183Y-379532925D01*
X572307798Y-379533947D01*
X572326463Y-379534560D01*
X572346179Y-379534764D01*
X572364562Y-379534377D01*
X572382341Y-379533214D01*
X572399517Y-379531276D01*
X572416090Y-379528562D01*
X572439818Y-379523038D01*
X572462189Y-379515770D01*
X572483202Y-379506757D01*
X572502857Y-379496000D01*
X572521155Y-379483499D01*
X572538095Y-379469253D01*
X572553677Y-379453263D01*
X572567903Y-379435528D01*
X572580888Y-379415961D01*
X572592596Y-379394627D01*
X572599692Y-379379423D01*
X572606220Y-379363434D01*
X572612181Y-379346660D01*
X572617574Y-379329101D01*
X572622399Y-379310757D01*
X572626657Y-379291628D01*
X572630347Y-379271714D01*
X572633469Y-379251015D01*
X572636023Y-379229531D01*
X572638010Y-379207262D01*
X572639429Y-379184208D01*
X572640281Y-379160369D01*
X572640565Y-379135745D01*
X572640334Y-379111769D01*
X572639643Y-379088631D01*
X572638492Y-379066330D01*
X572636880Y-379044865D01*
X572634807Y-379024237D01*
X572632273Y-379004447D01*
X572629279Y-378985493D01*
X572625825Y-378967376D01*
X572621909Y-378950096D01*
X572617533Y-378933653D01*
X572610106Y-378910557D01*
X572601642Y-378889345D01*
X572592141Y-378870016D01*
X572581605Y-378852570D01*
X572569969Y-378836764D01*
X572557173Y-378822514D01*
X572543217Y-378809818D01*
X572528100Y-378798676D01*
X572511823Y-378789089D01*
X572494385Y-378781057D01*
X572475787Y-378774580D01*
X572456029Y-378769657D01*
X572435109Y-378766288D01*
X572413030Y-378764475D01*
X572397665Y-378764129D01*
X572380428Y-378764565D01*
X572363232Y-378765873D01*
X572346076Y-378768052D01*
X572328960Y-378771104D01*
X572311886Y-378775027D01*
X572294851Y-378779821D01*
X572288049Y-378781983D01*
X572271211Y-378787999D01*
X572254435Y-378794886D01*
X572237719Y-378802645D01*
X572221064Y-378811275D01*
X572204469Y-378820778D01*
X572187936Y-378831152D01*
X572181339Y-378835546D01*
X572181339Y-379508606D01*
X571772770Y-379508606D01*
X571772770Y-378498393D01*
X572181339Y-378498393D01*
X572181339Y-378619220D01*
X572198263Y-378604921D01*
X572215244Y-378591140D01*
X572232284Y-378577877D01*
X572249382Y-378565132D01*
X572266539Y-378552906D01*
X572283754Y-378541197D01*
X572301028Y-378530007D01*
X572318360Y-378519335D01*
X572335750Y-378509182D01*
X572353199Y-378499546D01*
X572364863Y-378493410D01*
X572382636Y-378484803D01*
X572400919Y-378477042D01*
X572419713Y-378470128D01*
X572439018Y-378464060D01*
X572458834Y-378458839D01*
X572479160Y-378454465D01*
X572499998Y-378450937D01*
X572521347Y-378448256D01*
X572543206Y-378446422D01*
X572565577Y-378445434D01*
X572580774Y-378445246D01*
X572608816Y-378445958D01*
G37*
G36*
X573679427Y-379800501D02*
G01*
X573270858Y-379800501D01*
X573270858Y-377993494D01*
X573679427Y-377993494D01*
X573679427Y-379800501D01*
G37*
G36*
X574490573Y-378445356D02*
G01*
X574511209Y-378445689D01*
X574531485Y-378446242D01*
X574551400Y-378447017D01*
X574570956Y-378448013D01*
X574590151Y-378449231D01*
X574608987Y-378450670D01*
X574627462Y-378452330D01*
X574645577Y-378454212D01*
X574663332Y-378456315D01*
X574680728Y-378458640D01*
X574697763Y-378461186D01*
X574714438Y-378463953D01*
X574746708Y-378470152D01*
X574777537Y-378477237D01*
X574806926Y-378485207D01*
X574834875Y-378494063D01*
X574861384Y-378503804D01*
X574886453Y-378514431D01*
X574910081Y-378525943D01*
X574932269Y-378538341D01*
X574953016Y-378551625D01*
X574962850Y-378558599D01*
X574981604Y-378573183D01*
X574999149Y-378588702D01*
X575015483Y-378605155D01*
X575030608Y-378622542D01*
X575044522Y-378640863D01*
X575057227Y-378660118D01*
X575068721Y-378680308D01*
X575079006Y-378701432D01*
X575088081Y-378723490D01*
X575095945Y-378746483D01*
X575102600Y-378770409D01*
X575108045Y-378795270D01*
X575112280Y-378821065D01*
X575115305Y-378847795D01*
X575117120Y-378875458D01*
X575117725Y-378904056D01*
X575117725Y-379800501D01*
X574711231Y-379800501D01*
X574711231Y-379661404D01*
X574698329Y-379672261D01*
X574683381Y-379684834D01*
X574669017Y-379696911D01*
X574655237Y-379708492D01*
X574642041Y-379719576D01*
X574635662Y-379724932D01*
X574622403Y-379735364D01*
X574607538Y-379745796D01*
X574591068Y-379756228D01*
X574576115Y-379764922D01*
X574560048Y-379773615D01*
X574546392Y-379780570D01*
X574529335Y-379789939D01*
X574512420Y-379798841D01*
X574495648Y-379807277D01*
X574479017Y-379815247D01*
X574462528Y-379822750D01*
X574446181Y-379829788D01*
X574439682Y-379832472D01*
X574422449Y-379838572D01*
X574403189Y-379843639D01*
X574386321Y-379846948D01*
X574368155Y-379849595D01*
X574348692Y-379851580D01*
X574327931Y-379852903D01*
X574305873Y-379853565D01*
X574294357Y-379853648D01*
X574272841Y-379853189D01*
X574251785Y-379851812D01*
X574231190Y-379849517D01*
X574211055Y-379846304D01*
X574191381Y-379842173D01*
X574172168Y-379837124D01*
X574153415Y-379831157D01*
X574135123Y-379824271D01*
X574117292Y-379816468D01*
X574099921Y-379807747D01*
X574083011Y-379798108D01*
X574066561Y-379787551D01*
X574050572Y-379776076D01*
X574035044Y-379763683D01*
X574019976Y-379750372D01*
X574005369Y-379736143D01*
X573991442Y-379721166D01*
X573978413Y-379705715D01*
X573966283Y-379689791D01*
X573955051Y-379673393D01*
X573944717Y-379656522D01*
X573935283Y-379639177D01*
X573926747Y-379621359D01*
X573919109Y-379603067D01*
X573912370Y-379584301D01*
X573906529Y-379565062D01*
X573901587Y-379545349D01*
X573897544Y-379525162D01*
X573894399Y-379504502D01*
X573892152Y-379483369D01*
X573890805Y-379461761D01*
X573890355Y-379439681D01*
X573890582Y-379421528D01*
X573891264Y-379403817D01*
X573891663Y-379397744D01*
X574303492Y-379397744D01*
X574303926Y-379414820D01*
X574305857Y-379435977D01*
X574309331Y-379455291D01*
X574314349Y-379472762D01*
X574320911Y-379488391D01*
X574331285Y-379505336D01*
X574344072Y-379519402D01*
X574352903Y-379526460D01*
X574369629Y-379536508D01*
X574388666Y-379544853D01*
X574405560Y-379550302D01*
X574423933Y-379554662D01*
X574443785Y-379557932D01*
X574465117Y-379560112D01*
X574482086Y-379561031D01*
X574499888Y-379561338D01*
X574516687Y-379560730D01*
X574533608Y-379558905D01*
X574550650Y-379555864D01*
X574567814Y-379551606D01*
X574585100Y-379546132D01*
X574602507Y-379539442D01*
X574609504Y-379536425D01*
X574626767Y-379528153D01*
X574643524Y-379518908D01*
X574659774Y-379508690D01*
X574675516Y-379497499D01*
X574690752Y-379485334D01*
X574705481Y-379472197D01*
X574711231Y-379466669D01*
X574711231Y-379189307D01*
X574692115Y-379191306D01*
X574673692Y-379193253D01*
X574655962Y-379195150D01*
X574638926Y-379196995D01*
X574617289Y-379199376D01*
X574596885Y-379201666D01*
X574577714Y-379203866D01*
X574559776Y-379205974D01*
X574543070Y-379207992D01*
X574523019Y-379210692D01*
X574503090Y-379214123D01*
X574483282Y-379218283D01*
X574463596Y-379223173D01*
X574444031Y-379228793D01*
X574424588Y-379235143D01*
X574416845Y-379237887D01*
X574400685Y-379244332D01*
X574385680Y-379251730D01*
X574369200Y-379261866D01*
X574354383Y-379273373D01*
X574341231Y-379286253D01*
X574333387Y-379295602D01*
X574323228Y-379310832D01*
X574315170Y-379327872D01*
X574309214Y-379346722D01*
X574305857Y-379363813D01*
X574303959Y-379382161D01*
X574303492Y-379397744D01*
X573891663Y-379397744D01*
X573892399Y-379386546D01*
X573893989Y-379369717D01*
X573897224Y-379345301D01*
X573901482Y-379321877D01*
X573906761Y-379299446D01*
X573913062Y-379278007D01*
X573920385Y-379257561D01*
X573928730Y-379238108D01*
X573938097Y-379219647D01*
X573948485Y-379202179D01*
X573959911Y-379185465D01*
X573972235Y-379169422D01*
X573985457Y-379154051D01*
X573999576Y-379139352D01*
X574014593Y-379125324D01*
X574030508Y-379111967D01*
X574047320Y-379099282D01*
X574065030Y-379087269D01*
X574083638Y-379075927D01*
X574103144Y-379065256D01*
X574116646Y-379058515D01*
X574137813Y-379048608D01*
X574159738Y-379039286D01*
X574182422Y-379030547D01*
X574205865Y-379022392D01*
X574221916Y-379017279D01*
X574238304Y-379012427D01*
X574255029Y-379007833D01*
X574272092Y-379003499D01*
X574289492Y-378999425D01*
X574307229Y-378995610D01*
X574325304Y-378992055D01*
X574343716Y-378988759D01*
X574362465Y-378985723D01*
X574381552Y-378982946D01*
X574400949Y-378980337D01*
X574420524Y-378977802D01*
X574440277Y-378975341D01*
X574460209Y-378972955D01*
X574480319Y-378970644D01*
X574500608Y-378968407D01*
X574521075Y-378966245D01*
X574541721Y-378964158D01*
X574562544Y-378962145D01*
X574583547Y-378960207D01*
X574604727Y-378958343D01*
X574626087Y-378956554D01*
X574647624Y-378954840D01*
X574669340Y-378953200D01*
X574691234Y-378951635D01*
X574713307Y-378950145D01*
X574713307Y-378942671D01*
X574712603Y-378921503D01*
X574710490Y-378901599D01*
X574706968Y-378882957D01*
X574702038Y-378865577D01*
X574695699Y-378849461D01*
X574687952Y-378834607D01*
X574675430Y-378816766D01*
X574660405Y-378801169D01*
X574642875Y-378787817D01*
X574633171Y-378781983D01*
X574617519Y-378774044D01*
X574600459Y-378766885D01*
X574581989Y-378760507D01*
X574562111Y-378754910D01*
X574540825Y-378750094D01*
X574518130Y-378746059D01*
X574494026Y-378742805D01*
X574477174Y-378741070D01*
X574459696Y-378739682D01*
X574441592Y-378738640D01*
X574422862Y-378737946D01*
X574403506Y-378737599D01*
X574393593Y-378737556D01*
X574375045Y-378737906D01*
X574355731Y-378738957D01*
X574335652Y-378740709D01*
X574314807Y-378743161D01*
X574293196Y-378746314D01*
X574276486Y-378749139D01*
X574259345Y-378752357D01*
X574241773Y-378755970D01*
X574223771Y-378759977D01*
X574205672Y-378764291D01*
X574187653Y-378768823D01*
X574169714Y-378773575D01*
X574151855Y-378778545D01*
X574134077Y-378783734D01*
X574116379Y-378789143D01*
X574098761Y-378794770D01*
X574081224Y-378800616D01*
X574063766Y-378806681D01*
X574046389Y-378812965D01*
X574034849Y-378817276D01*
X573999972Y-378817276D01*
X573999972Y-378508773D01*
X574016295Y-378504420D01*
X574034953Y-378499872D01*
X574055947Y-378495130D01*
X574073226Y-378491445D01*
X574091818Y-378487651D01*
X574111724Y-378483747D01*
X574132943Y-378479734D01*
X574155477Y-378475612D01*
X574179324Y-378471380D01*
X574195952Y-378468498D01*
X574212932Y-378465682D01*
X574229928Y-378463048D01*
X574246941Y-378460596D01*
X574263969Y-378458325D01*
X574281014Y-378456236D01*
X574298075Y-378454329D01*
X574315152Y-378452603D01*
X574332246Y-378451059D01*
X574349355Y-378449696D01*
X574366481Y-378448516D01*
X574383623Y-378447516D01*
X574400782Y-378446699D01*
X574417956Y-378446063D01*
X574435147Y-378445609D01*
X574452354Y-378445337D01*
X574469577Y-378445246D01*
X574490573Y-378445356D01*
G37*
G36*
X576635327Y-378498393D02*
G01*
X575973478Y-380278826D01*
X575534183Y-380278826D01*
X575732655Y-379769775D01*
X575251838Y-378498393D01*
X575681584Y-378498393D01*
X575956870Y-379315117D01*
X576215132Y-378498393D01*
X576635327Y-378498393D01*
G37*
G36*
X578250921Y-379853648D02*
G01*
X578226607Y-379853417D01*
X578202608Y-379852725D01*
X578178925Y-379851571D01*
X578155558Y-379849956D01*
X578132506Y-379847880D01*
X578109769Y-379845342D01*
X578087348Y-379842343D01*
X578065243Y-379838882D01*
X578043452Y-379834960D01*
X578021978Y-379830576D01*
X578000819Y-379825731D01*
X577979975Y-379820424D01*
X577959447Y-379814656D01*
X577939234Y-379808427D01*
X577919336Y-379801736D01*
X577899754Y-379794584D01*
X577880488Y-379786970D01*
X577861537Y-379778895D01*
X577842901Y-379770358D01*
X577824581Y-379761360D01*
X577806577Y-379751901D01*
X577788888Y-379741980D01*
X577771514Y-379731597D01*
X577754456Y-379720754D01*
X577737713Y-379709448D01*
X577721286Y-379697682D01*
X577705174Y-379685454D01*
X577689378Y-379672764D01*
X577673897Y-379659613D01*
X577658731Y-379646001D01*
X577643881Y-379631927D01*
X577629347Y-379617392D01*
X577615195Y-379602412D01*
X577601492Y-379587057D01*
X577588239Y-379571326D01*
X577575434Y-379555220D01*
X577563079Y-379538738D01*
X577551173Y-379521881D01*
X577539717Y-379504649D01*
X577528710Y-379487041D01*
X577518152Y-379469057D01*
X577508043Y-379450698D01*
X577498384Y-379431964D01*
X577489174Y-379412854D01*
X577480413Y-379393368D01*
X577472101Y-379373508D01*
X577464239Y-379353271D01*
X577456826Y-379332659D01*
X577449862Y-379311672D01*
X577443348Y-379290309D01*
X577437283Y-379268571D01*
X577431667Y-379246457D01*
X577426500Y-379223968D01*
X577421783Y-379201103D01*
X577417515Y-379177863D01*
X577413696Y-379154248D01*
X577410326Y-379130257D01*
X577407406Y-379105890D01*
X577404935Y-379081148D01*
X577402913Y-379056030D01*
X577401341Y-379030537D01*
X577400218Y-379004669D01*
X577399544Y-378978425D01*
X577399319Y-378951805D01*
X577399544Y-378926122D01*
X577400219Y-378900767D01*
X577401344Y-378875739D01*
X577402920Y-378851038D01*
X577404945Y-378826666D01*
X577407421Y-378802621D01*
X577410346Y-378778903D01*
X577413722Y-378755514D01*
X577417548Y-378732451D01*
X577421823Y-378709717D01*
X577426549Y-378687310D01*
X577431725Y-378665231D01*
X577437351Y-378643479D01*
X577443427Y-378622055D01*
X577449954Y-378600959D01*
X577456930Y-378580190D01*
X577464356Y-378559749D01*
X577472233Y-378539635D01*
X577480559Y-378519849D01*
X577489336Y-378500391D01*
X577498563Y-378481261D01*
X577508239Y-378462458D01*
X577518366Y-378443982D01*
X577528943Y-378425835D01*
X577539970Y-378408014D01*
X577551448Y-378390522D01*
X577563375Y-378373357D01*
X577575752Y-378356520D01*
X577588580Y-378340010D01*
X577601857Y-378323828D01*
X577615585Y-378307974D01*
X577629762Y-378292447D01*
X577644347Y-378277325D01*
X577659246Y-378262682D01*
X577674457Y-378248519D01*
X577689981Y-378234837D01*
X577705818Y-378221634D01*
X577721969Y-378208912D01*
X577738432Y-378196670D01*
X577755208Y-378184907D01*
X577772298Y-378173625D01*
X577789700Y-378162823D01*
X577807416Y-378152501D01*
X577825444Y-378142659D01*
X577843786Y-378133298D01*
X577862440Y-378124416D01*
X577881408Y-378116014D01*
X577900689Y-378108093D01*
X577920282Y-378100652D01*
X577940189Y-378093690D01*
X577960409Y-378087209D01*
X577980941Y-378081208D01*
X578001787Y-378075687D01*
X578022946Y-378070646D01*
X578044418Y-378066085D01*
X578066203Y-378062004D01*
X578088301Y-378058404D01*
X578110712Y-378055283D01*
X578133436Y-378052643D01*
X578156473Y-378050482D01*
X578179823Y-378048802D01*
X578203486Y-378047602D01*
X578227462Y-378046882D01*
X578251751Y-378046641D01*
X578271102Y-378046744D01*
X578290074Y-378047050D01*
X578308666Y-378047561D01*
X578326879Y-378048276D01*
X578344712Y-378049196D01*
X578362165Y-378050320D01*
X578379239Y-378051648D01*
X578395934Y-378053181D01*
X578417603Y-378055543D01*
X578438597Y-378058267D01*
X578459247Y-378061323D01*
X578479677Y-378064677D01*
X578499886Y-378068330D01*
X578519875Y-378072281D01*
X578539643Y-378076530D01*
X578559190Y-378081078D01*
X578578517Y-378085924D01*
X578597623Y-378091069D01*
X578616442Y-378096833D01*
X578635787Y-378103226D01*
X578651643Y-378108792D01*
X578667837Y-378114761D01*
X578684367Y-378121132D01*
X578701235Y-378127905D01*
X578718441Y-378135080D01*
X578727170Y-378138819D01*
X578744291Y-378146267D01*
X578760568Y-378153455D01*
X578776003Y-378160384D01*
X578794109Y-378168680D01*
X578810898Y-378176571D01*
X578826370Y-378184056D01*
X578840523Y-378191136D01*
X578840523Y-378604688D01*
X578796095Y-378604688D01*
X578783692Y-378593550D01*
X578770151Y-378581624D01*
X578755471Y-378568909D01*
X578742368Y-378557712D01*
X578728474Y-378545967D01*
X578716789Y-378536177D01*
X578701543Y-378523642D01*
X578685648Y-378511208D01*
X578669105Y-378498875D01*
X578655403Y-378489082D01*
X578641286Y-378479354D01*
X578626753Y-378469690D01*
X578611805Y-378460092D01*
X578608004Y-378457702D01*
X578592654Y-378448327D01*
X578576915Y-378439303D01*
X578560786Y-378430629D01*
X578544269Y-378422305D01*
X578527362Y-378414332D01*
X578510065Y-378406709D01*
X578492380Y-378399436D01*
X578474305Y-378392514D01*
X578456029Y-378386188D01*
X578437533Y-378380706D01*
X578418816Y-378376067D01*
X578399878Y-378372272D01*
X578380720Y-378369320D01*
X578361341Y-378367212D01*
X578341742Y-378365947D01*
X578321922Y-378365525D01*
X578304310Y-378365791D01*
X578286976Y-378366591D01*
X578269919Y-378367923D01*
X578253139Y-378369787D01*
X578236637Y-378372185D01*
X578215066Y-378376211D01*
X578193987Y-378381183D01*
X578173402Y-378387103D01*
X578153309Y-378393971D01*
X578148363Y-378395835D01*
X578128855Y-378404010D01*
X578109567Y-378413586D01*
X578090499Y-378424563D01*
X578076344Y-378433716D01*
X578062312Y-378443656D01*
X578048404Y-378454385D01*
X578034621Y-378465903D01*
X578020961Y-378478208D01*
X578007426Y-378491302D01*
X577998471Y-378500469D01*
X577986456Y-378513497D01*
X577974858Y-378527357D01*
X577963675Y-378542050D01*
X577952908Y-378557574D01*
X577942557Y-378573930D01*
X577932623Y-378591118D01*
X577923104Y-378609139D01*
X577914001Y-378627991D01*
X577905315Y-378647676D01*
X577897044Y-378668192D01*
X577891762Y-378682332D01*
X577884341Y-378704185D01*
X577877651Y-378726767D01*
X577871690Y-378750079D01*
X577866460Y-378774120D01*
X577863378Y-378790554D01*
X577860621Y-378807311D01*
X577858188Y-378824394D01*
X577856079Y-378841800D01*
X577854295Y-378859531D01*
X577852835Y-378877586D01*
X577851700Y-378895966D01*
X577850889Y-378914670D01*
X577850402Y-378933698D01*
X577850240Y-378953051D01*
X577850409Y-378973398D01*
X577850915Y-378993333D01*
X577851758Y-379012856D01*
X577852939Y-379031967D01*
X577854457Y-379050667D01*
X577856313Y-379068954D01*
X577858506Y-379086829D01*
X577861036Y-379104292D01*
X577863903Y-379121344D01*
X577867108Y-379137983D01*
X577870651Y-379154210D01*
X577876597Y-379177779D01*
X577883302Y-379200421D01*
X577890766Y-379222135D01*
X577893422Y-379229168D01*
X577901756Y-379249730D01*
X577910565Y-379269534D01*
X577919847Y-379288579D01*
X577929604Y-379306864D01*
X577939836Y-379324391D01*
X577950542Y-379341158D01*
X577961722Y-379357167D01*
X577973377Y-379372416D01*
X577985506Y-379386906D01*
X577998110Y-379400638D01*
X578006775Y-379409370D01*
X578019604Y-379421502D01*
X578032710Y-379432984D01*
X578046093Y-379443816D01*
X578059754Y-379453999D01*
X578073692Y-379463532D01*
X578087907Y-379472416D01*
X578102400Y-379480650D01*
X578122155Y-379490618D01*
X578142403Y-379499432D01*
X578157913Y-379505284D01*
X578178771Y-379512194D01*
X578199616Y-379518182D01*
X578220448Y-379523249D01*
X578241267Y-379527394D01*
X578262073Y-379530619D01*
X578282866Y-379532922D01*
X578303646Y-379534304D01*
X578324413Y-379534764D01*
X578345875Y-379534304D01*
X578367076Y-379532922D01*
X578388019Y-379530619D01*
X578408702Y-379527394D01*
X578429125Y-379523249D01*
X578449289Y-379518182D01*
X578469193Y-379512194D01*
X578488838Y-379505284D01*
X578508067Y-379497810D01*
X578526518Y-379490129D01*
X578544191Y-379482240D01*
X578561085Y-379474143D01*
X578577200Y-379465839D01*
X578592537Y-379457327D01*
X578607095Y-379448608D01*
X578620875Y-379439681D01*
X578635291Y-379430416D01*
X578649265Y-379421100D01*
X578666113Y-379409381D01*
X578682272Y-379397582D01*
X578697741Y-379385701D01*
X578712521Y-379373740D01*
X578723848Y-379364112D01*
X578737438Y-379352258D01*
X578750440Y-379340829D01*
X578765266Y-379327677D01*
X578779245Y-379315138D01*
X578792378Y-379303212D01*
X578800662Y-379295602D01*
X578840523Y-379295602D01*
X578840523Y-379704171D01*
X578825226Y-379711330D01*
X578809179Y-379718793D01*
X578792382Y-379726560D01*
X578774835Y-379734631D01*
X578756538Y-379743006D01*
X578741360Y-379749925D01*
X578729661Y-379755242D01*
X578713831Y-379762171D01*
X578697897Y-379768841D01*
X578681860Y-379775250D01*
X578665718Y-379781401D01*
X578649473Y-379787292D01*
X578633124Y-379792923D01*
X578616671Y-379798295D01*
X578600115Y-379803407D01*
X578579828Y-379809350D01*
X578559865Y-379814929D01*
X578540227Y-379820145D01*
X578520913Y-379824998D01*
X578501923Y-379829488D01*
X578483258Y-379833614D01*
X578464917Y-379837377D01*
X578446901Y-379840776D01*
X578428307Y-379843793D01*
X578408027Y-379846407D01*
X578386059Y-379848620D01*
X578368477Y-379850015D01*
X578349946Y-379851184D01*
X578330466Y-379852127D01*
X578310037Y-379852843D01*
X578288659Y-379853333D01*
X578266332Y-379853597D01*
X578250921Y-379853648D01*
G37*
G36*
X579666888Y-378445430D02*
G01*
X579686626Y-378445982D01*
X579706080Y-378446903D01*
X579725251Y-378448191D01*
X579744137Y-378449848D01*
X579762740Y-378451873D01*
X579781059Y-378454266D01*
X579799094Y-378457027D01*
X579816845Y-378460157D01*
X579834312Y-378463655D01*
X579851496Y-378467520D01*
X579868395Y-378471755D01*
X579885011Y-378476357D01*
X579901343Y-378481327D01*
X579917391Y-378486666D01*
X579933155Y-378492372D01*
X579948636Y-378498447D01*
X579978745Y-378511702D01*
X580007719Y-378526429D01*
X580035558Y-378542629D01*
X580062262Y-378560301D01*
X580087830Y-378579446D01*
X580112262Y-378600064D01*
X580135560Y-378622155D01*
X580146782Y-378633752D01*
X580168302Y-378657810D01*
X580188434Y-378682962D01*
X580207176Y-378709206D01*
X580224531Y-378736544D01*
X580240497Y-378764974D01*
X580255075Y-378794498D01*
X580261843Y-378809670D01*
X580268265Y-378825115D01*
X580274339Y-378840834D01*
X580280066Y-378856826D01*
X580285446Y-378873091D01*
X580290479Y-378889629D01*
X580295164Y-378906441D01*
X580299503Y-378923526D01*
X580303495Y-378940884D01*
X580307139Y-378958515D01*
X580310436Y-378976420D01*
X580313387Y-378994598D01*
X580315990Y-379013050D01*
X580318246Y-379031774D01*
X580320155Y-379050772D01*
X580321717Y-379070044D01*
X580322932Y-379089588D01*
X580323799Y-379109406D01*
X580324320Y-379129497D01*
X580324494Y-379149862D01*
X580324321Y-379170176D01*
X580323803Y-379190219D01*
X580322939Y-379209991D01*
X580321730Y-379229492D01*
X580320175Y-379248722D01*
X580318275Y-379267682D01*
X580316030Y-379286370D01*
X580313439Y-379304788D01*
X580310502Y-379322935D01*
X580307220Y-379340811D01*
X580303593Y-379358416D01*
X580299620Y-379375751D01*
X580295301Y-379392814D01*
X580290638Y-379409607D01*
X580285628Y-379426129D01*
X580280273Y-379442379D01*
X580274573Y-379458359D01*
X580268527Y-379474069D01*
X580262136Y-379489507D01*
X580248317Y-379519571D01*
X580233117Y-379548551D01*
X580216534Y-379576449D01*
X580198570Y-379603262D01*
X580179223Y-379628992D01*
X580158495Y-379653639D01*
X580147613Y-379665556D01*
X580124929Y-379688333D01*
X580101096Y-379709640D01*
X580076115Y-379729478D01*
X580049986Y-379747846D01*
X580022708Y-379764745D01*
X579994283Y-379780175D01*
X579964708Y-379794134D01*
X579933986Y-379806625D01*
X579918194Y-379812319D01*
X579902115Y-379817646D01*
X579885749Y-379822605D01*
X579869096Y-379827197D01*
X579852156Y-379831422D01*
X579834928Y-379835279D01*
X579817414Y-379838769D01*
X579799613Y-379841892D01*
X579781524Y-379844647D01*
X579763149Y-379847035D01*
X579744486Y-379849056D01*
X579725536Y-379850709D01*
X579706299Y-379851995D01*
X579686775Y-379852913D01*
X579666964Y-379853464D01*
X579646866Y-379853648D01*
X579626946Y-379853464D01*
X579607304Y-379852913D01*
X579587942Y-379851995D01*
X579568858Y-379850709D01*
X579550054Y-379849056D01*
X579531528Y-379847035D01*
X579513281Y-379844647D01*
X579495314Y-379841892D01*
X579477625Y-379838769D01*
X579460215Y-379835279D01*
X579443084Y-379831422D01*
X579426232Y-379827197D01*
X579409660Y-379822605D01*
X579393366Y-379817646D01*
X579377351Y-379812319D01*
X579361615Y-379806625D01*
X579330980Y-379794134D01*
X579301461Y-379780175D01*
X579273058Y-379764745D01*
X579245771Y-379747846D01*
X579219599Y-379729478D01*
X579194544Y-379709640D01*
X579170604Y-379688333D01*
X579147780Y-379665556D01*
X579126210Y-379641451D01*
X579106032Y-379616263D01*
X579087245Y-379589991D01*
X579069850Y-379562635D01*
X579053847Y-379534197D01*
X579039235Y-379504674D01*
X579032451Y-379489507D01*
X579026014Y-379474069D01*
X579019926Y-379458359D01*
X579014186Y-379442379D01*
X579008793Y-379426129D01*
X579003749Y-379409607D01*
X578999052Y-379392814D01*
X578994703Y-379375751D01*
X578990702Y-379358416D01*
X578987049Y-379340811D01*
X578983744Y-379322935D01*
X578980787Y-379304788D01*
X578978178Y-379286370D01*
X578975916Y-379267682D01*
X578974003Y-379248722D01*
X578972437Y-379229492D01*
X578971220Y-379209991D01*
X578970350Y-379190219D01*
X578969828Y-379170176D01*
X578969675Y-379152353D01*
X579389019Y-379152353D01*
X579389194Y-379174985D01*
X579389720Y-379196792D01*
X579390596Y-379217775D01*
X579391822Y-379237933D01*
X579393398Y-379257265D01*
X579395325Y-379275774D01*
X579397602Y-379293457D01*
X579400230Y-379310316D01*
X579404278Y-379331511D01*
X579408949Y-379351240D01*
X579414113Y-379369659D01*
X579419641Y-379387130D01*
X579425532Y-379403654D01*
X579431786Y-379419231D01*
X579440115Y-379437371D01*
X579449011Y-379454030D01*
X579458475Y-379469209D01*
X579460436Y-379472067D01*
X579470962Y-379485991D01*
X579482299Y-379498699D01*
X579494447Y-379510190D01*
X579510096Y-379522374D01*
X579526912Y-379532807D01*
X579541817Y-379540162D01*
X579557501Y-379546263D01*
X579573672Y-379551329D01*
X579590329Y-379555362D01*
X579607473Y-379558360D01*
X579625103Y-379560325D01*
X579643220Y-379561255D01*
X579650603Y-379561338D01*
X579669035Y-379560593D01*
X579687583Y-379558360D01*
X579706248Y-379554638D01*
X579725030Y-379549426D01*
X579740771Y-379543946D01*
X579750254Y-379540162D01*
X579765707Y-379532888D01*
X579780146Y-379524559D01*
X579796135Y-379513173D01*
X579810664Y-379500269D01*
X579823734Y-379485847D01*
X579831636Y-379475389D01*
X579842499Y-379458912D01*
X579852510Y-379441401D01*
X579861670Y-379422857D01*
X579868385Y-379407277D01*
X579874554Y-379391035D01*
X579880179Y-379374131D01*
X579885259Y-379356565D01*
X579886444Y-379352071D01*
X579890823Y-379333146D01*
X579894619Y-379312496D01*
X579897082Y-379295875D01*
X579899217Y-379278284D01*
X579901023Y-379259723D01*
X579902501Y-379240190D01*
X579903651Y-379219687D01*
X579904472Y-379198213D01*
X579904964Y-379175769D01*
X579905129Y-379152353D01*
X579904957Y-379130360D01*
X579904443Y-379109067D01*
X579903585Y-379088475D01*
X579902384Y-379068584D01*
X579900841Y-379049393D01*
X579898954Y-379030904D01*
X579896724Y-379013114D01*
X579894151Y-378996026D01*
X579891236Y-378979638D01*
X579886814Y-378958877D01*
X579885614Y-378953882D01*
X579880612Y-378934548D01*
X579875155Y-378916201D01*
X579869245Y-378898840D01*
X579862881Y-378882465D01*
X579856062Y-378867076D01*
X579846900Y-378849227D01*
X579837029Y-378832918D01*
X579832882Y-378826826D01*
X579821240Y-378811996D01*
X579809153Y-378798645D01*
X579796619Y-378786775D01*
X579783640Y-378776385D01*
X579767476Y-378765870D01*
X579750669Y-378757486D01*
X579733230Y-378750713D01*
X579714857Y-378745341D01*
X579695550Y-378741370D01*
X579678747Y-378739132D01*
X579661295Y-378737867D01*
X579646866Y-378737556D01*
X579629992Y-378737981D01*
X579610412Y-378739616D01*
X579591562Y-378742477D01*
X579573442Y-378746565D01*
X579556052Y-378751878D01*
X579547630Y-378754995D01*
X579531359Y-378762502D01*
X579515555Y-378772258D01*
X579500218Y-378784262D01*
X579487794Y-378795983D01*
X579475695Y-378809264D01*
X579466249Y-378821013D01*
X579455564Y-378836387D01*
X579445569Y-378853444D01*
X579438069Y-378868301D01*
X579431011Y-378884234D01*
X579424393Y-378901245D01*
X579418217Y-378919333D01*
X579412482Y-378938498D01*
X579409780Y-378948484D01*
X579404914Y-378969381D01*
X579401690Y-378985913D01*
X579398832Y-379003183D01*
X579396338Y-379021190D01*
X579394209Y-379039934D01*
X579392445Y-379059416D01*
X579391046Y-379079634D01*
X579390012Y-379100590D01*
X579389343Y-379122283D01*
X579389039Y-379144713D01*
X579389019Y-379152353D01*
X578969675Y-379152353D01*
X578969654Y-379149862D01*
X578969828Y-379129345D01*
X578970350Y-379109109D01*
X578971220Y-379089154D01*
X578972437Y-379069479D01*
X578974003Y-379050085D01*
X578975916Y-379030972D01*
X578978178Y-379012139D01*
X578980787Y-378993586D01*
X578983744Y-378975314D01*
X578987049Y-378957323D01*
X578990702Y-378939613D01*
X578994703Y-378922183D01*
X578999052Y-378905033D01*
X579003749Y-378888164D01*
X579008793Y-378871576D01*
X579014186Y-378855268D01*
X579019926Y-378839241D01*
X579026014Y-378823495D01*
X579032451Y-378808029D01*
X579039235Y-378792844D01*
X579053847Y-378763315D01*
X579069850Y-378734909D01*
X579087245Y-378707625D01*
X579106032Y-378681463D01*
X579126210Y-378656424D01*
X579147780Y-378632507D01*
X579170604Y-378609831D01*
X579194544Y-378588617D01*
X579219599Y-378568867D01*
X579245771Y-378550580D01*
X579273058Y-378533756D01*
X579301461Y-378518395D01*
X579330980Y-378504496D01*
X579361615Y-378492061D01*
X579377351Y-378486392D01*
X579393366Y-378481089D01*
X579409660Y-378476151D01*
X579426232Y-378471579D01*
X579443084Y-378467373D01*
X579460215Y-378463533D01*
X579477625Y-378460058D01*
X579495314Y-378456950D01*
X579513281Y-378454207D01*
X579531528Y-378451829D01*
X579550054Y-378449818D01*
X579568858Y-378448172D01*
X579587942Y-378446892D01*
X579607304Y-378445977D01*
X579626946Y-378445429D01*
X579646866Y-378445246D01*
X579666888Y-378445430D01*
G37*
G36*
X581762376Y-379800501D02*
G01*
X581351315Y-379800501D01*
X581351315Y-379148616D01*
X581351211Y-379128796D01*
X581350900Y-379108989D01*
X581350381Y-379089195D01*
X581349654Y-379069414D01*
X581348720Y-379049646D01*
X581347578Y-379029891D01*
X581346229Y-379010149D01*
X581344672Y-378990420D01*
X581342939Y-378971249D01*
X581340857Y-378953388D01*
X581338424Y-378936838D01*
X581334890Y-378917994D01*
X581330809Y-378901197D01*
X581325189Y-378883743D01*
X581321004Y-378873745D01*
X581312407Y-378857975D01*
X581302495Y-378843986D01*
X581289271Y-378829917D01*
X581274259Y-378818271D01*
X581259968Y-378810218D01*
X581244213Y-378803586D01*
X581226530Y-378798326D01*
X581206921Y-378794438D01*
X581189109Y-378792247D01*
X581169958Y-378791008D01*
X581153674Y-378790703D01*
X581134790Y-378791360D01*
X581115818Y-378793330D01*
X581096759Y-378796615D01*
X581077612Y-378801213D01*
X581061589Y-378806048D01*
X581051946Y-378809387D01*
X581035804Y-378815774D01*
X581019297Y-378823255D01*
X581002425Y-378831831D01*
X580985188Y-378841502D01*
X580967586Y-378852267D01*
X580953242Y-378861668D01*
X580942330Y-378869178D01*
X580942330Y-379800501D01*
X580533761Y-379800501D01*
X580533761Y-378498393D01*
X580942330Y-378498393D01*
X580942330Y-378627109D01*
X580961123Y-378611400D01*
X580979821Y-378596348D01*
X580998424Y-378581952D01*
X581016932Y-378568214D01*
X581035346Y-378555132D01*
X581053664Y-378542707D01*
X581071888Y-378530939D01*
X581090016Y-378519828D01*
X581108050Y-378509374D01*
X581125989Y-378499577D01*
X581137896Y-378493410D01*
X581155977Y-378484803D01*
X581174408Y-378477042D01*
X581193190Y-378470128D01*
X581212322Y-378464060D01*
X581231805Y-378458839D01*
X581251638Y-378454465D01*
X581271821Y-378450937D01*
X581292355Y-378448256D01*
X581313239Y-378446422D01*
X581334473Y-378445434D01*
X581348824Y-378445246D01*
X581373574Y-378445744D01*
X581397585Y-378447238D01*
X581420857Y-378449727D01*
X581443388Y-378453213D01*
X581465181Y-378457694D01*
X581486233Y-378463171D01*
X581506546Y-378469644D01*
X581526120Y-378477113D01*
X581544953Y-378485578D01*
X581563048Y-378495039D01*
X581580402Y-378505495D01*
X581597017Y-378516948D01*
X581612893Y-378529396D01*
X581628028Y-378542840D01*
X581642425Y-378557280D01*
X581656081Y-378572716D01*
X581668953Y-378589096D01*
X581680994Y-378606368D01*
X581692205Y-378624532D01*
X581702585Y-378643588D01*
X581712135Y-378663536D01*
X581720854Y-378684376D01*
X581728743Y-378706108D01*
X581735802Y-378728732D01*
X581742030Y-378752249D01*
X581747428Y-378776657D01*
X581751995Y-378801957D01*
X581755732Y-378828150D01*
X581758639Y-378855234D01*
X581760715Y-378883211D01*
X581761960Y-378912080D01*
X581762376Y-378941840D01*
X581762376Y-379800501D01*
G37*
G36*
X582558754Y-379827074D02*
G01*
X582528041Y-379826678D01*
X582498392Y-379825491D01*
X582469807Y-379823512D01*
X582442287Y-379820742D01*
X582415830Y-379817180D01*
X582390437Y-379812827D01*
X582366108Y-379807682D01*
X582342843Y-379801746D01*
X582320642Y-379795018D01*
X582299505Y-379787499D01*
X582279432Y-379779188D01*
X582260423Y-379770086D01*
X582242478Y-379760192D01*
X582225597Y-379749507D01*
X582209780Y-379738030D01*
X582195027Y-379725762D01*
X582181251Y-379712595D01*
X582168363Y-379698423D01*
X582156364Y-379683245D01*
X582145254Y-379667061D01*
X582135032Y-379649872D01*
X582125700Y-379631678D01*
X582117256Y-379612477D01*
X582109701Y-379592271D01*
X582103035Y-379571060D01*
X582097258Y-379548843D01*
X582092369Y-379525620D01*
X582088370Y-379501392D01*
X582085259Y-379476158D01*
X582083037Y-379449918D01*
X582081704Y-379422673D01*
X582081259Y-379394422D01*
X582081259Y-378790703D01*
X581924724Y-378790703D01*
X581924724Y-378498393D01*
X582081259Y-378498393D01*
X582081259Y-378126362D01*
X582489829Y-378126362D01*
X582489829Y-378498393D01*
X582883450Y-378498393D01*
X582883450Y-378790703D01*
X582489829Y-378790703D01*
X582489829Y-379242039D01*
X582489859Y-379262524D01*
X582489950Y-379282198D01*
X582490102Y-379301061D01*
X582490315Y-379319113D01*
X582490589Y-379336354D01*
X582490998Y-379355973D01*
X582491074Y-379359129D01*
X582492111Y-379377449D01*
X582494286Y-379395039D01*
X582497599Y-379411899D01*
X582502051Y-379428029D01*
X582508685Y-379445925D01*
X582509759Y-379448400D01*
X582518055Y-379465044D01*
X582528776Y-379480099D01*
X582541920Y-379493564D01*
X582555116Y-379503841D01*
X582567473Y-379511512D01*
X582584372Y-379519414D01*
X582600484Y-379524751D01*
X582618441Y-379528951D01*
X582638242Y-379532017D01*
X582655412Y-379533652D01*
X582673763Y-379534560D01*
X582688300Y-379534764D01*
X582705973Y-379533596D01*
X582723522Y-379530659D01*
X582740115Y-379526718D01*
X582758138Y-379521462D01*
X582774249Y-379516080D01*
X582790077Y-379510312D01*
X582807010Y-379503577D01*
X582823924Y-379495979D01*
X582839507Y-379487636D01*
X582848572Y-379481617D01*
X582883450Y-379481617D01*
X582883450Y-379787629D01*
X582866712Y-379792073D01*
X582849714Y-379796271D01*
X582832457Y-379800222D01*
X582814940Y-379803926D01*
X582797164Y-379807384D01*
X582779128Y-379810595D01*
X582760833Y-379813560D01*
X582742278Y-379816279D01*
X582723061Y-379818809D01*
X582702781Y-379821002D01*
X582681436Y-379822857D01*
X582664730Y-379824027D01*
X582647425Y-379825008D01*
X582629521Y-379825798D01*
X582611019Y-379826399D01*
X582591918Y-379826811D01*
X582572219Y-379827032D01*
X582558754Y-379827074D01*
G37*
G36*
X583925635Y-378870424D02*
G01*
X583891587Y-378870424D01*
X583874987Y-378862768D01*
X583858728Y-378857578D01*
X583842331Y-378853718D01*
X583823907Y-378850494D01*
X583806926Y-378848236D01*
X583789302Y-378846445D01*
X583771036Y-378845122D01*
X583752127Y-378844265D01*
X583732577Y-378843876D01*
X583725917Y-378843850D01*
X583705643Y-378844316D01*
X583685045Y-378845715D01*
X583668332Y-378847506D01*
X583651412Y-378849893D01*
X583634285Y-378852878D01*
X583616950Y-378856459D01*
X583599407Y-378860637D01*
X583590558Y-378862950D01*
X583572976Y-378867738D01*
X583555524Y-378872759D01*
X583538202Y-378878014D01*
X583521010Y-378883503D01*
X583503947Y-378889225D01*
X583487014Y-378895181D01*
X583470211Y-378901370D01*
X583453538Y-378907793D01*
X583453538Y-379800501D01*
X583044968Y-379800501D01*
X583044968Y-378498393D01*
X583453538Y-378498393D01*
X583453538Y-378688976D01*
X583466903Y-378677259D01*
X583479973Y-378666204D01*
X583494531Y-378654215D01*
X583507801Y-378643510D01*
X583522104Y-378632156D01*
X583531182Y-378625033D01*
X583546530Y-378613231D01*
X583561431Y-378602221D01*
X583575887Y-378592000D01*
X583589896Y-378582571D01*
X583606119Y-378572299D01*
X583621699Y-378563166D01*
X583638870Y-378553464D01*
X583653960Y-378545780D01*
X583669760Y-378538461D01*
X583686269Y-378531507D01*
X583703488Y-378524918D01*
X583721416Y-378518694D01*
X583725087Y-378517493D01*
X583743360Y-378511990D01*
X583761329Y-378507421D01*
X583778993Y-378503784D01*
X583796354Y-378501079D01*
X583813411Y-378499307D01*
X583830163Y-378498468D01*
X583836779Y-378498393D01*
X583853726Y-378498599D01*
X583870708Y-378499153D01*
X583881207Y-378499639D01*
X583898938Y-378500495D01*
X583916697Y-378501950D01*
X583925635Y-378502960D01*
X583925635Y-378870424D01*
G37*
G36*
X584677677Y-378445430D02*
G01*
X584697415Y-378445982D01*
X584716869Y-378446903D01*
X584736039Y-378448191D01*
X584754926Y-378449848D01*
X584773528Y-378451873D01*
X584791847Y-378454266D01*
X584809882Y-378457027D01*
X584827633Y-378460157D01*
X584845101Y-378463655D01*
X584862284Y-378467520D01*
X584879184Y-378471755D01*
X584895800Y-378476357D01*
X584912132Y-378481327D01*
X584928180Y-378486666D01*
X584943944Y-378492372D01*
X584959424Y-378498447D01*
X584989534Y-378511702D01*
X585018508Y-378526429D01*
X585046347Y-378542629D01*
X585073050Y-378560301D01*
X585098618Y-378579446D01*
X585123051Y-378600064D01*
X585146348Y-378622155D01*
X585157571Y-378633752D01*
X585179091Y-378657810D01*
X585199222Y-378682962D01*
X585217965Y-378709206D01*
X585235320Y-378736544D01*
X585251286Y-378764974D01*
X585265864Y-378794498D01*
X585272632Y-378809670D01*
X585279053Y-378825115D01*
X585285127Y-378840834D01*
X585290854Y-378856826D01*
X585296234Y-378873091D01*
X585301267Y-378889629D01*
X585305953Y-378906441D01*
X585310292Y-378923526D01*
X585314283Y-378940884D01*
X585317928Y-378958515D01*
X585321225Y-378976420D01*
X585324175Y-378994598D01*
X585326778Y-379013050D01*
X585329034Y-379031774D01*
X585330943Y-379050772D01*
X585332505Y-379070044D01*
X585333720Y-379089588D01*
X585334588Y-379109406D01*
X585335109Y-379129497D01*
X585335282Y-379149862D01*
X585335109Y-379170176D01*
X585334591Y-379190219D01*
X585333728Y-379209991D01*
X585332518Y-379229492D01*
X585330964Y-379248722D01*
X585329064Y-379267682D01*
X585326818Y-379286370D01*
X585324227Y-379304788D01*
X585321291Y-379322935D01*
X585318009Y-379340811D01*
X585314381Y-379358416D01*
X585310408Y-379375751D01*
X585306090Y-379392814D01*
X585301426Y-379409607D01*
X585296417Y-379426129D01*
X585291062Y-379442379D01*
X585285362Y-379458359D01*
X585279316Y-379474069D01*
X585272925Y-379489507D01*
X585259106Y-379519571D01*
X585243905Y-379548551D01*
X585227323Y-379576449D01*
X585209358Y-379603262D01*
X585190012Y-379628992D01*
X585169284Y-379653639D01*
X585158401Y-379665556D01*
X585135717Y-379688333D01*
X585111885Y-379709640D01*
X585086904Y-379729478D01*
X585060775Y-379747846D01*
X585033497Y-379764745D01*
X585005071Y-379780175D01*
X584975497Y-379794134D01*
X584944774Y-379806625D01*
X584928983Y-379812319D01*
X584912904Y-379817646D01*
X584896538Y-379822605D01*
X584879884Y-379827197D01*
X584862944Y-379831422D01*
X584845717Y-379835279D01*
X584828203Y-379838769D01*
X584810401Y-379841892D01*
X584792313Y-379844647D01*
X584773937Y-379847035D01*
X584755274Y-379849056D01*
X584736325Y-379850709D01*
X584717088Y-379851995D01*
X584697564Y-379852913D01*
X584677753Y-379853464D01*
X584657655Y-379853648D01*
X584637734Y-379853464D01*
X584618093Y-379852913D01*
X584598730Y-379851995D01*
X584579647Y-379850709D01*
X584560842Y-379849056D01*
X584542316Y-379847035D01*
X584524070Y-379844647D01*
X584506102Y-379841892D01*
X584488413Y-379838769D01*
X584471004Y-379835279D01*
X584453873Y-379831422D01*
X584437021Y-379827197D01*
X584420448Y-379822605D01*
X584404154Y-379817646D01*
X584388139Y-379812319D01*
X584372404Y-379806625D01*
X584341769Y-379794134D01*
X584312250Y-379780175D01*
X584283846Y-379764745D01*
X584256559Y-379747846D01*
X584230388Y-379729478D01*
X584205332Y-379709640D01*
X584181393Y-379688333D01*
X584158569Y-379665556D01*
X584136999Y-379641451D01*
X584116821Y-379616263D01*
X584098034Y-379589991D01*
X584080639Y-379562635D01*
X584064635Y-379534197D01*
X584050023Y-379504674D01*
X584043239Y-379489507D01*
X584036803Y-379474069D01*
X584030715Y-379458359D01*
X584024974Y-379442379D01*
X584019582Y-379426129D01*
X584014537Y-379409607D01*
X584009840Y-379392814D01*
X584005492Y-379375751D01*
X584001491Y-379358416D01*
X583997838Y-379340811D01*
X583994533Y-379322935D01*
X583991576Y-379304788D01*
X583988966Y-379286370D01*
X583986705Y-379267682D01*
X583984791Y-379248722D01*
X583983226Y-379229492D01*
X583982008Y-379209991D01*
X583981138Y-379190219D01*
X583980617Y-379170176D01*
X583980464Y-379152353D01*
X584399808Y-379152353D01*
X584399983Y-379174985D01*
X584400508Y-379196792D01*
X584401384Y-379217775D01*
X584402610Y-379237933D01*
X584404187Y-379257265D01*
X584406114Y-379275774D01*
X584408391Y-379293457D01*
X584411018Y-379310316D01*
X584415067Y-379331511D01*
X584419738Y-379351240D01*
X584424902Y-379369659D01*
X584430430Y-379387130D01*
X584436320Y-379403654D01*
X584442575Y-379419231D01*
X584450903Y-379437371D01*
X584459799Y-379454030D01*
X584469263Y-379469209D01*
X584471224Y-379472067D01*
X584481750Y-379485991D01*
X584493088Y-379498699D01*
X584505236Y-379510190D01*
X584520884Y-379522374D01*
X584537700Y-379532807D01*
X584552606Y-379540162D01*
X584568290Y-379546263D01*
X584584461Y-379551329D01*
X584601118Y-379555362D01*
X584618261Y-379558360D01*
X584635892Y-379560325D01*
X584654009Y-379561255D01*
X584661392Y-379561338D01*
X584679823Y-379560593D01*
X584698372Y-379558360D01*
X584717037Y-379554638D01*
X584735819Y-379549426D01*
X584751559Y-379543946D01*
X584761043Y-379540162D01*
X584776496Y-379532888D01*
X584790935Y-379524559D01*
X584806924Y-379513173D01*
X584821453Y-379500269D01*
X584834522Y-379485847D01*
X584842424Y-379475389D01*
X584853287Y-379458912D01*
X584863299Y-379441401D01*
X584872458Y-379422857D01*
X584879173Y-379407277D01*
X584885343Y-379391035D01*
X584890968Y-379374131D01*
X584896048Y-379356565D01*
X584897233Y-379352071D01*
X584901612Y-379333146D01*
X584905407Y-379312496D01*
X584907870Y-379295875D01*
X584910005Y-379278284D01*
X584911812Y-379259723D01*
X584913290Y-379240190D01*
X584914439Y-379219687D01*
X584915260Y-379198213D01*
X584915753Y-379175769D01*
X584915917Y-379152353D01*
X584915746Y-379130360D01*
X584915231Y-379109067D01*
X584914373Y-379088475D01*
X584913173Y-379068584D01*
X584911629Y-379049393D01*
X584909742Y-379030904D01*
X584907513Y-379013114D01*
X584904940Y-378996026D01*
X584902024Y-378979638D01*
X584897603Y-378958877D01*
X584896402Y-378953882D01*
X584891400Y-378934548D01*
X584885944Y-378916201D01*
X584880034Y-378898840D01*
X584873669Y-378882465D01*
X584866851Y-378867076D01*
X584857689Y-378849227D01*
X584847817Y-378832918D01*
X584843670Y-378826826D01*
X584832029Y-378811996D01*
X584819941Y-378798645D01*
X584807408Y-378786775D01*
X584794428Y-378776385D01*
X584778264Y-378765870D01*
X584761458Y-378757486D01*
X584744019Y-378750713D01*
X584725646Y-378745341D01*
X584706338Y-378741370D01*
X584689535Y-378739132D01*
X584672083Y-378737867D01*
X584657655Y-378737556D01*
X584640781Y-378737981D01*
X584621201Y-378739616D01*
X584602351Y-378742477D01*
X584584231Y-378746565D01*
X584566840Y-378751878D01*
X584558419Y-378754995D01*
X584542148Y-378762502D01*
X584526344Y-378772258D01*
X584511007Y-378784262D01*
X584498583Y-378795983D01*
X584486483Y-378809264D01*
X584477037Y-378821013D01*
X584466353Y-378836387D01*
X584456358Y-378853444D01*
X584448858Y-378868301D01*
X584441799Y-378884234D01*
X584435182Y-378901245D01*
X584429005Y-378919333D01*
X584423270Y-378938498D01*
X584420568Y-378948484D01*
X584415702Y-378969381D01*
X584412479Y-378985913D01*
X584409620Y-379003183D01*
X584407127Y-379021190D01*
X584404998Y-379039934D01*
X584403234Y-379059416D01*
X584401835Y-379079634D01*
X584400801Y-379100590D01*
X584400132Y-379122283D01*
X584399828Y-379144713D01*
X584399808Y-379152353D01*
X583980464Y-379152353D01*
X583980443Y-379149862D01*
X583980617Y-379129345D01*
X583981138Y-379109109D01*
X583982008Y-379089154D01*
X583983226Y-379069479D01*
X583984791Y-379050085D01*
X583986705Y-379030972D01*
X583988966Y-379012139D01*
X583991576Y-378993586D01*
X583994533Y-378975314D01*
X583997838Y-378957323D01*
X584001491Y-378939613D01*
X584005492Y-378922183D01*
X584009840Y-378905033D01*
X584014537Y-378888164D01*
X584019582Y-378871576D01*
X584024974Y-378855268D01*
X584030715Y-378839241D01*
X584036803Y-378823495D01*
X584043239Y-378808029D01*
X584050023Y-378792844D01*
X584064635Y-378763315D01*
X584080639Y-378734909D01*
X584098034Y-378707625D01*
X584116821Y-378681463D01*
X584136999Y-378656424D01*
X584158569Y-378632507D01*
X584181393Y-378609831D01*
X584205332Y-378588617D01*
X584230388Y-378568867D01*
X584256559Y-378550580D01*
X584283846Y-378533756D01*
X584312250Y-378518395D01*
X584341769Y-378504496D01*
X584372404Y-378492061D01*
X584388139Y-378486392D01*
X584404154Y-378481089D01*
X584420448Y-378476151D01*
X584437021Y-378471579D01*
X584453873Y-378467373D01*
X584471004Y-378463533D01*
X584488413Y-378460058D01*
X584506102Y-378456950D01*
X584524070Y-378454207D01*
X584542316Y-378451829D01*
X584560842Y-378449818D01*
X584579647Y-378448172D01*
X584598730Y-378446892D01*
X584618093Y-378445977D01*
X584637734Y-378445429D01*
X584657655Y-378445246D01*
X584677677Y-378445430D01*
G37*
G36*
X585953119Y-379800501D02*
G01*
X585544549Y-379800501D01*
X585544549Y-377993494D01*
X585953119Y-377993494D01*
X585953119Y-379800501D01*
G37*
G36*
X586670607Y-379800501D02*
G01*
X586262037Y-379800501D01*
X586262037Y-377993494D01*
X586670607Y-377993494D01*
X586670607Y-379800501D01*
G37*
G36*
X587603184Y-378445404D02*
G01*
X587621585Y-378445877D01*
X587639694Y-378446665D01*
X587657509Y-378447770D01*
X587675032Y-378449189D01*
X587692262Y-378450924D01*
X587709199Y-378452975D01*
X587725844Y-378455341D01*
X587758255Y-378461019D01*
X587789495Y-378467959D01*
X587819564Y-378476161D01*
X587848462Y-378485625D01*
X587876188Y-378496351D01*
X587902744Y-378508339D01*
X587928129Y-378521588D01*
X587952343Y-378536100D01*
X587975385Y-378551873D01*
X587997257Y-378568908D01*
X588017958Y-378587205D01*
X588037487Y-378606764D01*
X588055890Y-378627498D01*
X588073105Y-378649323D01*
X588089133Y-378672237D01*
X588103973Y-378696242D01*
X588117627Y-378721336D01*
X588130093Y-378747521D01*
X588141372Y-378774795D01*
X588151463Y-378803159D01*
X588160368Y-378832613D01*
X588168085Y-378863158D01*
X588174615Y-378894792D01*
X588179957Y-378927516D01*
X588182183Y-378944286D01*
X588184113Y-378961329D01*
X588185745Y-378978645D01*
X588187081Y-378996233D01*
X588188120Y-379014094D01*
X588188862Y-379032227D01*
X588189307Y-379050633D01*
X588189455Y-379069311D01*
X588189455Y-379215881D01*
X587293426Y-379215881D01*
X587294753Y-379232749D01*
X587297261Y-379254434D01*
X587300611Y-379275198D01*
X587304806Y-379295041D01*
X587309843Y-379313962D01*
X587315725Y-379331962D01*
X587322449Y-379349041D01*
X587330017Y-379365199D01*
X587332041Y-379369094D01*
X587340566Y-379384061D01*
X587349739Y-379398237D01*
X587362118Y-379414844D01*
X587375512Y-379430213D01*
X587389918Y-379444346D01*
X587405339Y-379457243D01*
X587418405Y-379466669D01*
X587435299Y-379477581D01*
X587453025Y-379487479D01*
X587471582Y-379496363D01*
X587487026Y-379502740D01*
X587503002Y-379508469D01*
X587519510Y-379513549D01*
X587536550Y-379517980D01*
X587540893Y-379518986D01*
X587558637Y-379522684D01*
X587576783Y-379525889D01*
X587595331Y-379528601D01*
X587614282Y-379530820D01*
X587633634Y-379532545D01*
X587653389Y-379533778D01*
X587673547Y-379534518D01*
X587694106Y-379534764D01*
X587711824Y-379534505D01*
X587729477Y-379533726D01*
X587747065Y-379532429D01*
X587764589Y-379530612D01*
X587782047Y-379528277D01*
X587799441Y-379525422D01*
X587816769Y-379522048D01*
X587834033Y-379518156D01*
X587851083Y-379513835D01*
X587867769Y-379509177D01*
X587884092Y-379504181D01*
X587900052Y-379498848D01*
X587919491Y-379491708D01*
X587938362Y-379484040D01*
X587956665Y-379475845D01*
X587960258Y-379474143D01*
X587975765Y-379466786D01*
X587990888Y-379459246D01*
X588005625Y-379451523D01*
X588022801Y-379442016D01*
X588039423Y-379432245D01*
X588052850Y-379423902D01*
X588068333Y-379413845D01*
X588082707Y-379404225D01*
X588098073Y-379393556D01*
X588111930Y-379383482D01*
X588122606Y-379375323D01*
X588165788Y-379375323D01*
X588165788Y-379717043D01*
X588150301Y-379723320D01*
X588132278Y-379730638D01*
X588114868Y-379737722D01*
X588098071Y-379744573D01*
X588081888Y-379751191D01*
X588074026Y-379754412D01*
X588057375Y-379760825D01*
X588038564Y-379767296D01*
X588021238Y-379772734D01*
X588002412Y-379778212D01*
X587986270Y-379782624D01*
X587969169Y-379787061D01*
X587960258Y-379789290D01*
X587943578Y-379793630D01*
X587926755Y-379797724D01*
X587909790Y-379801571D01*
X587892682Y-379805172D01*
X587875431Y-379808526D01*
X587858037Y-379811633D01*
X587840501Y-379814494D01*
X587822822Y-379817109D01*
X587804696Y-379819445D01*
X587785609Y-379821469D01*
X587765562Y-379823182D01*
X587744555Y-379824583D01*
X587722587Y-379825673D01*
X587705482Y-379826286D01*
X587687836Y-379826724D01*
X587669650Y-379826987D01*
X587650924Y-379827074D01*
X587627868Y-379826901D01*
X587605150Y-379826383D01*
X587582772Y-379825520D01*
X587560732Y-379824310D01*
X587539032Y-379822756D01*
X587517670Y-379820856D01*
X587496647Y-379818610D01*
X587475964Y-379816019D01*
X587455619Y-379813083D01*
X587435614Y-379809801D01*
X587415947Y-379806173D01*
X587396619Y-379802200D01*
X587377631Y-379797882D01*
X587358981Y-379793218D01*
X587340670Y-379788209D01*
X587322698Y-379782854D01*
X587305066Y-379777154D01*
X587287772Y-379771108D01*
X587270817Y-379764717D01*
X587254201Y-379757980D01*
X587237924Y-379750898D01*
X587221987Y-379743470D01*
X587206388Y-379735697D01*
X587191128Y-379727579D01*
X587176207Y-379719115D01*
X587161625Y-379710305D01*
X587147382Y-379701150D01*
X587133478Y-379691650D01*
X587119913Y-379681804D01*
X587106687Y-379671613D01*
X587093800Y-379661076D01*
X587081252Y-379650193D01*
X587057319Y-379627498D01*
X587034930Y-379603631D01*
X587014085Y-379578594D01*
X586994784Y-379552385D01*
X586977027Y-379525005D01*
X586960814Y-379496454D01*
X586946146Y-379466733D01*
X586939390Y-379451433D01*
X586933021Y-379435840D01*
X586927038Y-379419954D01*
X586921441Y-379403776D01*
X586916229Y-379387305D01*
X586911404Y-379370541D01*
X586906965Y-379353485D01*
X586902912Y-379336135D01*
X586899245Y-379318493D01*
X586895963Y-379300558D01*
X586893068Y-379282331D01*
X586890559Y-379263810D01*
X586888436Y-379244997D01*
X586886699Y-379225891D01*
X586885348Y-379206493D01*
X586884383Y-379186801D01*
X586883804Y-379166817D01*
X586883611Y-379146540D01*
X586883791Y-379126684D01*
X586884331Y-379107080D01*
X586885231Y-379087729D01*
X586886491Y-379068629D01*
X586888112Y-379049782D01*
X586890092Y-379031187D01*
X586892432Y-379012845D01*
X586895133Y-378994754D01*
X586898194Y-378976916D01*
X586898233Y-378976718D01*
X587292595Y-378976718D01*
X587786284Y-378976718D01*
X587785190Y-378952898D01*
X587783155Y-378930172D01*
X587780178Y-378908541D01*
X587776260Y-378888005D01*
X587771400Y-378868564D01*
X587765599Y-378850218D01*
X587758856Y-378832966D01*
X587751172Y-378816809D01*
X587742546Y-378801747D01*
X587732979Y-378787780D01*
X587726078Y-378779077D01*
X587711020Y-378763117D01*
X587694080Y-378749285D01*
X587675259Y-378737582D01*
X587659909Y-378730200D01*
X587643501Y-378724016D01*
X587626034Y-378719028D01*
X587607508Y-378715238D01*
X587587925Y-378712644D01*
X587567283Y-378711248D01*
X587552934Y-378710982D01*
X587531046Y-378711610D01*
X587510071Y-378713493D01*
X587490008Y-378716631D01*
X587470858Y-378721025D01*
X587452620Y-378726674D01*
X587435294Y-378733579D01*
X587418881Y-378741739D01*
X587403379Y-378751154D01*
X587388791Y-378761824D01*
X587375114Y-378773751D01*
X587366503Y-378782399D01*
X587354495Y-378796242D01*
X587343537Y-378810990D01*
X587333630Y-378826643D01*
X587324774Y-378843201D01*
X587316970Y-378860665D01*
X587310216Y-378879033D01*
X587304513Y-378898306D01*
X587299862Y-378918485D01*
X587296261Y-378939568D01*
X587293711Y-378961556D01*
X587292595Y-378976718D01*
X586898233Y-378976718D01*
X586901614Y-378959330D01*
X586905395Y-378941996D01*
X586909536Y-378924914D01*
X586914036Y-378908084D01*
X586918897Y-378891507D01*
X586924118Y-378875182D01*
X586929699Y-378859109D01*
X586935641Y-378843289D01*
X586941942Y-378827720D01*
X586948603Y-378812404D01*
X586955624Y-378797340D01*
X586970747Y-378767968D01*
X586987310Y-378739606D01*
X587005314Y-378712252D01*
X587024757Y-378685907D01*
X587045641Y-378660571D01*
X587067965Y-378636244D01*
X587091636Y-378613115D01*
X587116454Y-378591479D01*
X587142421Y-378571334D01*
X587169537Y-378552682D01*
X587197800Y-378535522D01*
X587212363Y-378527502D01*
X587227212Y-378519854D01*
X587242349Y-378512580D01*
X587257773Y-378505679D01*
X587273483Y-378499150D01*
X587289481Y-378492995D01*
X587305766Y-378487213D01*
X587322338Y-378481804D01*
X587339197Y-378476768D01*
X587356344Y-378472105D01*
X587373777Y-378467815D01*
X587391497Y-378463898D01*
X587409505Y-378460354D01*
X587427799Y-378457183D01*
X587446381Y-378454385D01*
X587465249Y-378451961D01*
X587484405Y-378449909D01*
X587503848Y-378448230D01*
X587523578Y-378446924D01*
X587543595Y-378445992D01*
X587563899Y-378445432D01*
X587584490Y-378445246D01*
X587603184Y-378445404D01*
G37*
G36*
X589271915Y-378870424D02*
G01*
X589237868Y-378870424D01*
X589221267Y-378862768D01*
X589205009Y-378857578D01*
X589188612Y-378853718D01*
X589170188Y-378850494D01*
X589153206Y-378848236D01*
X589135583Y-378846445D01*
X589117316Y-378845122D01*
X589098408Y-378844265D01*
X589078857Y-378843876D01*
X589072198Y-378843850D01*
X589051924Y-378844316D01*
X589031325Y-378845715D01*
X589014613Y-378847506D01*
X588997693Y-378849893D01*
X588980565Y-378852878D01*
X588963230Y-378856459D01*
X588945688Y-378860637D01*
X588936838Y-378862950D01*
X588919257Y-378867738D01*
X588901805Y-378872759D01*
X588884483Y-378878014D01*
X588867290Y-378883503D01*
X588850227Y-378889225D01*
X588833295Y-378895181D01*
X588816491Y-378901370D01*
X588799818Y-378907793D01*
X588799818Y-379800501D01*
X588391249Y-379800501D01*
X588391249Y-378498393D01*
X588799818Y-378498393D01*
X588799818Y-378688976D01*
X588813184Y-378677259D01*
X588826253Y-378666204D01*
X588840812Y-378654215D01*
X588854081Y-378643510D01*
X588868385Y-378632156D01*
X588877463Y-378625033D01*
X588892810Y-378613231D01*
X588907712Y-378602221D01*
X588922167Y-378592000D01*
X588936177Y-378582571D01*
X588952399Y-378572299D01*
X588967979Y-378563166D01*
X588985151Y-378553464D01*
X589000241Y-378545780D01*
X589016040Y-378538461D01*
X589032549Y-378531507D01*
X589049768Y-378524918D01*
X589067696Y-378518694D01*
X589071367Y-378517493D01*
X589089640Y-378511990D01*
X589107609Y-378507421D01*
X589125274Y-378503784D01*
X589142635Y-378501079D01*
X589159691Y-378499307D01*
X589176444Y-378498468D01*
X589183060Y-378498393D01*
X589200007Y-378498599D01*
X589216988Y-378499153D01*
X589227487Y-378499639D01*
X589245218Y-378500495D01*
X589262977Y-378501950D01*
X589271915Y-378502960D01*
X589271915Y-378870424D01*
G37*
D13*
%TO.C, *%
X556890000Y-434975000D03*
D14*
X559430000Y-434975000D03*
%TD*%
D13*
%TO.C, *%
X666115000Y-434975000D03*
D14*
X668655000Y-434975000D03*
%TD*%
D13*
%TO.C, *%
X732155000Y-426080000D03*
D14*
X732155000Y-428620000D03*
%TD*%
D13*
%TO.C, *%
X732150000Y-367030000D03*
D14*
X734690000Y-367030000D03*
%TD*%
D13*
%TO.C, *%
X648330000Y-367030000D03*
D14*
X650870000Y-367030000D03*
%TD*%
D13*
%TO.C, *%
X556895000Y-367030000D03*
D14*
X556895000Y-369570000D03*
%TD*%
M02*
