%TF.GenerationSoftware,KiCad,Pcbnew,7.0.10*%
%TF.CreationDate,2024-08-04T08:05:15-06:00*%
%TF.ProjectId,display_card_cover,64697370-6c61-4795-9f63-6172645f636f,rev?*%
%TF.SameCoordinates,Original*%
%TF.FileFunction,Legend,Bot*%
%TF.FilePolarity,Positive*%
%FSLAX46Y46*%
G04 Gerber Fmt 4.6, Leading zero omitted, Abs format (unit mm)*
G04 Created by KiCad (PCBNEW 7.0.10) date 2024-08-04 08:05:15*
%MOMM*%
%LPD*%
G01*
G04 APERTURE LIST*
%ADD10C,0.120000*%
G04 APERTURE END LIST*
D10*
%TO.C, *%
X560760000Y-433645000D02*
X560760000Y-436305000D01*
X558160000Y-433645000D02*
X560760000Y-433645000D01*
X558160000Y-433645000D02*
X558160000Y-436305000D01*
X556890000Y-433645000D02*
X555560000Y-433645000D01*
X555560000Y-433645000D02*
X555560000Y-434975000D01*
X558160000Y-436305000D02*
X560760000Y-436305000D01*
X669985000Y-433645000D02*
X669985000Y-436305000D01*
X667385000Y-433645000D02*
X669985000Y-433645000D01*
X667385000Y-433645000D02*
X667385000Y-436305000D01*
X666115000Y-433645000D02*
X664785000Y-433645000D01*
X664785000Y-433645000D02*
X664785000Y-434975000D01*
X667385000Y-436305000D02*
X669985000Y-436305000D01*
X733485000Y-429950000D02*
X730825000Y-429950000D01*
X733485000Y-427350000D02*
X733485000Y-429950000D01*
X733485000Y-427350000D02*
X730825000Y-427350000D01*
X733485000Y-426080000D02*
X733485000Y-424750000D01*
X733485000Y-424750000D02*
X732155000Y-424750000D01*
X730825000Y-427350000D02*
X730825000Y-429950000D01*
X736020000Y-365700000D02*
X736020000Y-368360000D01*
X733420000Y-365700000D02*
X736020000Y-365700000D01*
X733420000Y-365700000D02*
X733420000Y-368360000D01*
X732150000Y-365700000D02*
X730820000Y-365700000D01*
X730820000Y-365700000D02*
X730820000Y-367030000D01*
X733420000Y-368360000D02*
X736020000Y-368360000D01*
X652200000Y-365700000D02*
X652200000Y-368360000D01*
X649600000Y-365700000D02*
X652200000Y-365700000D01*
X649600000Y-365700000D02*
X649600000Y-368360000D01*
X648330000Y-365700000D02*
X647000000Y-365700000D01*
X647000000Y-365700000D02*
X647000000Y-367030000D01*
X649600000Y-368360000D02*
X652200000Y-368360000D01*
X558225000Y-367030000D02*
X558225000Y-365700000D01*
X558225000Y-370900000D02*
X555565000Y-370900000D01*
X558225000Y-368300000D02*
X558225000Y-370900000D01*
X558225000Y-368300000D02*
X555565000Y-368300000D01*
X558225000Y-365700000D02*
X556895000Y-365700000D01*
X555565000Y-368300000D02*
X555565000Y-370900000D01*
%TD*%
M02*
