%TF.GenerationSoftware,KiCad,Pcbnew,7.0.10*%
%TF.CreationDate,2024-08-03T18:46:40-06:00*%
%TF.ProjectId,display_card_bottom,64697370-6c61-4795-9f63-6172645f626f,rev?*%
%TF.SameCoordinates,Original*%
%TF.FileFunction,Soldermask,Bot*%
%TF.FilePolarity,Negative*%
%FSLAX46Y46*%
G04 Gerber Fmt 4.6, Leading zero omitted, Abs format (unit mm)*
G04 Created by KiCad (PCBNEW 7.0.10) date 2024-08-03 18:46:40*
%MOMM*%
%LPD*%
G01*
G04 APERTURE LIST*
%ADD10R,1.700000X1.700000*%
%ADD11O,1.700000X1.700000*%
%ADD12R,1.600000X1.600000*%
%ADD13O,1.600000X1.600000*%
%ADD14C,1.440000*%
%ADD15C,1.600000*%
%ADD16C,1.500000*%
G04 APERTURE END LIST*
D10*
%TO.C,20pin conn.*%
X703569840Y-441309840D03*
X703569840Y-443849840D03*
D11*
X701029840Y-441309840D03*
X701029840Y-443849840D03*
X698489840Y-441309840D03*
X698489840Y-443849840D03*
X695949840Y-441309840D03*
X695949840Y-443849840D03*
X693409840Y-441309840D03*
X693409840Y-443849840D03*
D10*
X690869840Y-441309840D03*
X690869840Y-443849840D03*
D11*
X688329840Y-441309840D03*
X688329840Y-443849840D03*
X685789840Y-441309840D03*
X685789840Y-443849840D03*
X683249840Y-441309840D03*
X683249840Y-443849840D03*
X680709840Y-441309840D03*
X680709840Y-443849840D03*
X678169840Y-441309840D03*
X678169840Y-443849840D03*
X675629840Y-441309840D03*
X675629840Y-443849840D03*
X673089840Y-441309840D03*
X673089840Y-443849840D03*
X670549840Y-441309840D03*
X670549840Y-443849840D03*
D10*
X668009840Y-441309840D03*
X668009840Y-443849840D03*
D11*
X665469840Y-441309840D03*
X665469840Y-443849840D03*
X662929840Y-441309840D03*
X662929840Y-443849840D03*
X660389840Y-441309840D03*
X660389840Y-443849840D03*
X657849840Y-441309840D03*
X657849840Y-443849840D03*
X655309840Y-441309840D03*
X655309840Y-443849840D03*
%TD*%
D12*
%TO.C,ATmega644 MCU*%
X633730000Y-399410000D03*
D13*
X631190000Y-399410000D03*
X628650000Y-399410000D03*
X626110000Y-399410000D03*
X623570000Y-399410000D03*
X621030000Y-399410000D03*
X618490000Y-399410000D03*
X615950000Y-399410000D03*
X613410000Y-399410000D03*
X610870000Y-399410000D03*
X608330000Y-399410000D03*
X605790000Y-399410000D03*
X603250000Y-399410000D03*
X600710000Y-399410000D03*
X598170000Y-399410000D03*
X595630000Y-399410000D03*
X593090000Y-399410000D03*
X590550000Y-399410000D03*
X588010000Y-399410000D03*
X585470000Y-399410000D03*
X585470000Y-414650000D03*
X588010000Y-414650000D03*
X590550000Y-414650000D03*
X593090000Y-414650000D03*
X595630000Y-414650000D03*
X598170000Y-414650000D03*
X600710000Y-414650000D03*
X603250000Y-414650000D03*
X605790000Y-414650000D03*
X608330000Y-414650000D03*
X610870000Y-414650000D03*
X615950000Y-414650000D03*
X618490000Y-414650000D03*
X621030000Y-414650000D03*
X623570000Y-414650000D03*
X626110000Y-414650000D03*
X628650000Y-414650000D03*
X631190000Y-414650000D03*
X633730000Y-414650000D03*
X613410000Y-414650000D03*
%TD*%
D14*
%TO.C, *%
X579755000Y-374010000D03*
X582295000Y-374010000D03*
X584835000Y-374010000D03*
%TD*%
D10*
%TO.C,REF\u002A\u002A*%
X641345000Y-440050000D03*
D11*
X643885000Y-440050000D03*
%TD*%
D15*
%TO.C,20pf*%
X579755000Y-410225000D03*
X579755000Y-412725000D03*
%TD*%
D12*
%TO.C,74245*%
X681990000Y-407030000D03*
D13*
X679450000Y-407030000D03*
X676910000Y-407030000D03*
X674370000Y-407030000D03*
X671830000Y-407030000D03*
X669290000Y-407030000D03*
X666750000Y-407030000D03*
X664210000Y-407030000D03*
X661670000Y-407030000D03*
X659130000Y-407030000D03*
X659130000Y-414650000D03*
X661670000Y-414650000D03*
X664210000Y-414650000D03*
X666750000Y-414650000D03*
X669290000Y-414650000D03*
X671830000Y-414650000D03*
X674370000Y-414650000D03*
X676910000Y-414650000D03*
X679450000Y-414650000D03*
X681990000Y-414650000D03*
%TD*%
D10*
%TO.C, *%
X532130000Y-372105000D03*
D11*
X532130000Y-374645000D03*
%TD*%
D15*
%TO.C,0.1uf*%
X685165000Y-417190000D03*
X685165000Y-414690000D03*
%TD*%
D10*
%TO.C,REF\u002A\u002A*%
X623565000Y-372105000D03*
D11*
X626105000Y-372105000D03*
%TD*%
D10*
%TO.C, *%
X534670000Y-440050000D03*
D11*
X532130000Y-440050000D03*
%TD*%
D15*
%TO.C,0.1uf*%
X612140000Y-417825000D03*
X614640000Y-417825000D03*
%TD*%
D14*
%TO.C, *%
X561340000Y-374010000D03*
X563880000Y-374010000D03*
X566420000Y-374010000D03*
%TD*%
D10*
%TO.C,ISP*%
X621030000Y-387345000D03*
D11*
X621030000Y-389885000D03*
X618490000Y-389885000D03*
X615950000Y-387345000D03*
X615950000Y-389885000D03*
X618490000Y-387345000D03*
%TD*%
D10*
%TO.C,REF\u002A\u002A*%
X707385000Y-372105000D03*
D11*
X709925000Y-372105000D03*
%TD*%
D10*
%TO.C, *%
X707390000Y-431155000D03*
D11*
X707390000Y-433695000D03*
%TD*%
D16*
%TO.C,OSC*%
X577670000Y-399410000D03*
X572770000Y-399410000D03*
%TD*%
D15*
%TO.C,20pf*%
X579755000Y-407645000D03*
X579755000Y-405145000D03*
%TD*%
%TO.C,0.1uf*%
X701040000Y-377825000D03*
X701040000Y-380325000D03*
%TD*%
D10*
%TO.C, *%
X707385000Y-377820000D03*
D11*
X707385000Y-380360000D03*
X707385000Y-382900000D03*
X707385000Y-385440000D03*
X707385000Y-387980000D03*
X707385000Y-390520000D03*
X707385000Y-393060000D03*
X707385000Y-395600000D03*
X707385000Y-398140000D03*
X707385000Y-400680000D03*
X707385000Y-403220000D03*
X707385000Y-405760000D03*
X707385000Y-408300000D03*
X707385000Y-410840000D03*
X707385000Y-413380000D03*
X707385000Y-415920000D03*
X707385000Y-418460000D03*
X707385000Y-421000000D03*
X707385000Y-423540000D03*
X707385000Y-426080000D03*
%TD*%
M02*
