M48
; DRILL file {KiCad 7.0.10} date Sat Aug  3 18:46:38 2024
; FORMAT={-:-/ absolute / inch / decimal}
; #@! TF.CreationDate,2024-08-03T18:46:38-06:00
; #@! TF.GenerationSoftware,Kicad,Pcbnew,7.0.10
; #@! TF.FileFunction,Plated,1,2,PTH
FMAT,2
INCH
; #@! TA.AperFunction,Plated,PTH,ViaDrill
T1C0.0118
; #@! TA.AperFunction,Plated,PTH,ViaDrill
T2C0.0150
; #@! TA.AperFunction,Plated,PTH,ViaDrill
T3C0.0300
; #@! TA.AperFunction,Plated,PTH,ComponentDrill
T4C0.0315
; #@! TA.AperFunction,Plated,PTH,ComponentDrill
T5C0.0394
%
G90
G05
T1
X23.05Y-16.4998
X23.125Y-16.4998
X23.2Y-16.4998
T2
X25.6Y-15.2248
X25.65Y-15.7748
X25.7Y-15.7248
X25.75Y-15.6748
X26.15Y-15.9248
X26.25Y-15.8748
X26.35Y-15.8248
X26.45Y-15.7748
X26.55Y-15.7248
X26.65Y-15.6748
X26.75Y-15.6248
X26.85Y-15.5748
X26.925Y-15.5248
X27.45Y-15.0498
X27.6481Y-15.2229
X27.65Y-15.3248
X27.725Y-15.2248
T3
X26.425Y-16.7498
X26.55Y-16.7498
X26.675Y-16.7498
X27.575Y-15.1623
T4
X22.1Y-14.7248
X22.2Y-14.7248
X22.3Y-14.7248
X22.55Y-15.7248
X22.7429Y-15.7248
X22.825Y-14.7248
X22.825Y-15.9506
X22.825Y-16.049
X22.825Y-16.1506
X22.825Y-16.249
X22.925Y-14.7248
X23.025Y-14.7248
X23.05Y-15.7248
X23.05Y-16.3248
X23.15Y-15.7248
X23.15Y-16.3248
X23.25Y-15.7248
X23.25Y-16.3248
X23.35Y-15.7248
X23.35Y-16.3248
X23.45Y-15.7248
X23.45Y-16.3248
X23.55Y-15.7248
X23.55Y-16.3248
X23.65Y-15.7248
X23.65Y-16.3248
X23.75Y-15.7248
X23.75Y-16.3248
X23.85Y-15.7248
X23.85Y-16.3248
X23.95Y-15.7248
X23.95Y-16.3248
X24.05Y-15.7248
X24.05Y-16.3248
X24.1Y-16.4498
X24.15Y-15.7248
X24.15Y-16.3248
X24.1984Y-16.4498
X24.25Y-15.7248
X24.25Y-16.3248
X24.35Y-15.7248
X24.35Y-16.3248
X24.45Y-15.7248
X24.45Y-16.3248
X24.55Y-15.7248
X24.55Y-16.3248
X24.65Y-15.7248
X24.65Y-16.3248
X24.75Y-15.7248
X24.75Y-16.3248
X24.85Y-15.7248
X24.85Y-16.3248
X24.95Y-15.7248
X24.95Y-16.3248
X25.95Y-16.0248
X25.95Y-16.3248
X26.05Y-16.0248
X26.05Y-16.3248
X26.15Y-16.0248
X26.15Y-16.3248
X26.25Y-16.0248
X26.25Y-16.3248
X26.35Y-16.0248
X26.35Y-16.3248
X26.45Y-16.0248
X26.45Y-16.3248
X26.55Y-16.0248
X26.55Y-16.3248
X26.65Y-16.0248
X26.65Y-16.3248
X26.75Y-16.0248
X26.75Y-16.3248
X26.85Y-16.0248
X26.85Y-16.3248
X26.975Y-16.3264
X26.975Y-16.4248
X27.6Y-14.875
X27.6Y-14.9734
T5
X20.95Y-14.6498
X20.95Y-14.7498
X20.95Y-17.3248
X21.05Y-17.3248
X24.25Y-15.2498
X24.25Y-15.3498
X24.35Y-15.2498
X24.35Y-15.3498
X24.45Y-15.2498
X24.45Y-15.3498
X24.5498Y-14.6498
X24.6498Y-14.6498
X25.2498Y-17.3248
X25.3498Y-17.3248
X25.7996Y-17.3744
X25.7996Y-17.4744
X25.8996Y-17.3744
X25.8996Y-17.4744
X25.9996Y-17.3744
X25.9996Y-17.4744
X26.0996Y-17.3744
X26.0996Y-17.4744
X26.1996Y-17.3744
X26.1996Y-17.4744
X26.2996Y-17.3744
X26.2996Y-17.4744
X26.3996Y-17.3744
X26.3996Y-17.4744
X26.4996Y-17.3744
X26.4996Y-17.4744
X26.5996Y-17.3744
X26.5996Y-17.4744
X26.6996Y-17.3744
X26.6996Y-17.4744
X26.7996Y-17.3744
X26.7996Y-17.4744
X26.8996Y-17.3744
X26.8996Y-17.4744
X26.9996Y-17.3744
X26.9996Y-17.4744
X27.0996Y-17.3744
X27.0996Y-17.4744
X27.1996Y-17.3744
X27.1996Y-17.4744
X27.2996Y-17.3744
X27.2996Y-17.4744
X27.3996Y-17.3744
X27.3996Y-17.4744
X27.4996Y-17.3744
X27.4996Y-17.4744
X27.5996Y-17.3744
X27.5996Y-17.4744
X27.6996Y-17.3744
X27.6996Y-17.4744
X27.8498Y-14.6498
X27.8498Y-14.8748
X27.8498Y-14.9748
X27.8498Y-15.0748
X27.8498Y-15.1748
X27.8498Y-15.2748
X27.8498Y-15.3748
X27.8498Y-15.4748
X27.8498Y-15.5748
X27.8498Y-15.6748
X27.8498Y-15.7748
X27.8498Y-15.8748
X27.8498Y-15.9748
X27.8498Y-16.0748
X27.8498Y-16.1748
X27.8498Y-16.2748
X27.8498Y-16.3748
X27.8498Y-16.4748
X27.8498Y-16.5748
X27.8498Y-16.6748
X27.8498Y-16.7748
X27.85Y-16.9746
X27.85Y-17.0746
X27.9498Y-14.6498
M30
