%TF.GenerationSoftware,KiCad,Pcbnew,(5.1.10)-1*%
%TF.CreationDate,2022-08-14T17:25:08-06:00*%
%TF.ProjectId,network_card_a,6e657477-6f72-46b5-9f63-6172645f612e,rev?*%
%TF.SameCoordinates,Original*%
%TF.FileFunction,Copper,L2,Bot*%
%TF.FilePolarity,Positive*%
%FSLAX46Y46*%
G04 Gerber Fmt 4.6, Leading zero omitted, Abs format (unit mm)*
G04 Created by KiCad (PCBNEW (5.1.10)-1) date 2022-08-14 17:25:08*
%MOMM*%
%LPD*%
G01*
G04 APERTURE LIST*
%TA.AperFunction,ComponentPad*%
%ADD10C,1.600000*%
%TD*%
%TA.AperFunction,ComponentPad*%
%ADD11O,1.600000X1.600000*%
%TD*%
%TA.AperFunction,ComponentPad*%
%ADD12C,1.800000*%
%TD*%
%TA.AperFunction,ComponentPad*%
%ADD13R,1.800000X1.800000*%
%TD*%
%TA.AperFunction,ComponentPad*%
%ADD14R,1.700000X1.700000*%
%TD*%
%TA.AperFunction,ComponentPad*%
%ADD15O,1.700000X1.700000*%
%TD*%
%TA.AperFunction,ComponentPad*%
%ADD16C,1.500000*%
%TD*%
%TA.AperFunction,ComponentPad*%
%ADD17R,1.600000X1.600000*%
%TD*%
%TA.AperFunction,WasherPad*%
%ADD18C,3.650000*%
%TD*%
%TA.AperFunction,ComponentPad*%
%ADD19R,1.500000X1.500000*%
%TD*%
%TA.AperFunction,ComponentPad*%
%ADD20C,1.300000*%
%TD*%
%TA.AperFunction,ComponentPad*%
%ADD21C,0.100000*%
%TD*%
%TA.AperFunction,Conductor*%
%ADD22C,1.600000*%
%TD*%
%TA.AperFunction,Conductor*%
%ADD23C,1.000000*%
%TD*%
%TA.AperFunction,Conductor*%
%ADD24C,2.500000*%
%TD*%
%TA.AperFunction,Conductor*%
%ADD25C,0.250000*%
%TD*%
G04 APERTURE END LIST*
D10*
%TO.P,10k\u03A9,1*%
%TO.N,N/C*%
X435515000Y-287350200D03*
D11*
%TO.P,10k\u03A9,2*%
X425355000Y-287350200D03*
%TD*%
%TO.P,10k\u03A9,2*%
%TO.N,N/C*%
X425320460Y-279717500D03*
D10*
%TO.P,10k\u03A9,1*%
X435480460Y-279717500D03*
%TD*%
D11*
%TO.P,100k\u03A9,2*%
%TO.N,N/C*%
X425323000Y-283527500D03*
D10*
%TO.P,100k\u03A9,1*%
X435483000Y-283527500D03*
%TD*%
D12*
%TO.P,TX,2*%
%TO.N,N/C*%
X468475060Y-272770600D03*
D13*
%TO.P,TX,1*%
X468475060Y-270230600D03*
%TD*%
D11*
%TO.P,4.7k\u03A9,2*%
%TO.N,N/C*%
X448815460Y-267157200D03*
D10*
%TO.P,4.7k\u03A9,1*%
X458975460Y-267157200D03*
%TD*%
D14*
%TO.P, ,1*%
%TO.N,N/C*%
X359280460Y-270857980D03*
D15*
%TO.P, ,2*%
X361820460Y-270857980D03*
%TO.P, ,3*%
X359280460Y-273397980D03*
%TO.P, ,4*%
X361820460Y-273397980D03*
%TO.P, ,5*%
X359280460Y-275937980D03*
%TO.P, ,6*%
X361820460Y-275937980D03*
%TD*%
D10*
%TO.P,4.7k\u03A9,1*%
%TO.N,N/C*%
X458975460Y-269892780D03*
D11*
%TO.P,4.7k\u03A9,2*%
X448815460Y-269892780D03*
%TD*%
D10*
%TO.P,20pf,2*%
%TO.N,N/C*%
X362455460Y-284232980D03*
%TO.P,20pf,1*%
X362455460Y-286732980D03*
%TD*%
D16*
%TO.P, ,2*%
%TO.N,N/C*%
X358010460Y-291632980D03*
%TO.P, ,1*%
X358010460Y-286732980D03*
%TD*%
D10*
%TO.P,20pf,1*%
%TO.N,N/C*%
X362455460Y-294135180D03*
%TO.P,20pf,2*%
X362455460Y-291635180D03*
%TD*%
%TO.P,0.1uf,1*%
%TO.N,N/C*%
X448815460Y-286097980D03*
%TO.P,0.1uf,2*%
X451315460Y-286097980D03*
%TD*%
%TO.P,0.1uf,1*%
%TO.N,N/C*%
X394205460Y-275302980D03*
%TO.P,0.1uf,2*%
X396705460Y-275302980D03*
%TD*%
%TO.P,0.1uf,1*%
%TO.N,N/C*%
X394205460Y-296892980D03*
%TO.P,0.1uf,2*%
X396705460Y-296892980D03*
%TD*%
D12*
%TO.P,RX,2*%
%TO.N,N/C*%
X468475060Y-267403580D03*
D13*
%TO.P,RX,1*%
X468475060Y-264863580D03*
%TD*%
D15*
%TO.P,20pin conn.,40*%
%TO.N,N/C*%
X418299900Y-312326020D03*
%TO.P,20pin conn.,39*%
X418299900Y-309786020D03*
%TO.P,20pin conn.,38*%
X420839900Y-312326020D03*
%TO.P,20pin conn.,37*%
X420839900Y-309786020D03*
%TO.P,20pin conn.,36*%
X423379900Y-312326020D03*
%TO.P,20pin conn.,35*%
X423379900Y-309786020D03*
%TO.P,20pin conn.,34*%
X425919900Y-312326020D03*
%TO.P,20pin conn.,33*%
X425919900Y-309786020D03*
%TO.P,20pin conn.,32*%
X428459900Y-312326020D03*
%TO.P,20pin conn.,31*%
X428459900Y-309786020D03*
D14*
%TO.P,20pin conn.,30*%
X430999900Y-312326020D03*
%TO.P,20pin conn.,29*%
X430999900Y-309786020D03*
D15*
%TO.P,20pin conn.,28*%
X433539900Y-312326020D03*
%TO.P,20pin conn.,27*%
X433539900Y-309786020D03*
%TO.P,20pin conn.,26*%
X436079900Y-312326020D03*
%TO.P,20pin conn.,25*%
X436079900Y-309786020D03*
%TO.P,20pin conn.,24*%
X438619900Y-312326020D03*
%TO.P,20pin conn.,23*%
X438619900Y-309786020D03*
%TO.P,20pin conn.,22*%
X441159900Y-312326020D03*
%TO.P,20pin conn.,21*%
X441159900Y-309786020D03*
%TO.P,20pin conn.,20*%
X443699900Y-312326020D03*
%TO.P,20pin conn.,19*%
X443699900Y-309786020D03*
%TO.P,20pin conn.,18*%
X446239900Y-312326020D03*
%TO.P,20pin conn.,17*%
X446239900Y-309786020D03*
%TO.P,20pin conn.,16*%
X448779900Y-312326020D03*
%TO.P,20pin conn.,15*%
X448779900Y-309786020D03*
%TO.P,20pin conn.,14*%
X451319900Y-312326020D03*
%TO.P,20pin conn.,13*%
X451319900Y-309786020D03*
D14*
%TO.P,20pin conn.,12*%
X453859900Y-312326020D03*
%TO.P,20pin conn.,11*%
X453859900Y-309786020D03*
D15*
%TO.P,20pin conn.,10*%
X456399900Y-312326020D03*
%TO.P,20pin conn.,9*%
X456399900Y-309786020D03*
%TO.P,20pin conn.,8*%
X458939900Y-312326020D03*
%TO.P,20pin conn.,7*%
X458939900Y-309786020D03*
%TO.P,20pin conn.,6*%
X461479900Y-312326020D03*
%TO.P,20pin conn.,5*%
X461479900Y-309786020D03*
%TO.P,20pin conn.,4*%
X464019900Y-312326020D03*
%TO.P,20pin conn.,3*%
X464019900Y-309786020D03*
D14*
%TO.P,20pin conn.,2*%
X466559900Y-312326020D03*
%TO.P,20pin conn.,1*%
X466559900Y-309786020D03*
%TD*%
D17*
%TO.P,atmega164,1*%
%TO.N,N/C*%
X419605460Y-278477980D03*
D11*
%TO.P,atmega164,21*%
X371345460Y-293717980D03*
%TO.P,atmega164,2*%
X417065460Y-278477980D03*
%TO.P,atmega164,22*%
X373885460Y-293717980D03*
%TO.P,atmega164,3*%
X414525460Y-278477980D03*
%TO.P,atmega164,23*%
X376425460Y-293717980D03*
%TO.P,atmega164,4*%
X411985460Y-278477980D03*
%TO.P,atmega164,24*%
X378965460Y-293717980D03*
%TO.P,atmega164,5*%
X409445460Y-278477980D03*
%TO.P,atmega164,25*%
X381505460Y-293717980D03*
%TO.P,atmega164,6*%
X406905460Y-278477980D03*
%TO.P,atmega164,26*%
X384045460Y-293717980D03*
%TO.P,atmega164,7*%
X404365460Y-278477980D03*
%TO.P,atmega164,27*%
X386585460Y-293717980D03*
%TO.P,atmega164,8*%
X401825460Y-278477980D03*
%TO.P,atmega164,28*%
X389125460Y-293717980D03*
%TO.P,atmega164,9*%
X399285460Y-278477980D03*
%TO.P,atmega164,29*%
X391665460Y-293717980D03*
%TO.P,atmega164,10*%
X396745460Y-278477980D03*
%TO.P,atmega164,30*%
X394205460Y-293717980D03*
%TO.P,atmega164,11*%
X394205460Y-278477980D03*
%TO.P,atmega164,31*%
X396745460Y-293717980D03*
%TO.P,atmega164,12*%
X391665460Y-278477980D03*
%TO.P,atmega164,32*%
X399285460Y-293717980D03*
%TO.P,atmega164,13*%
X389125460Y-278477980D03*
%TO.P,atmega164,33*%
X401825460Y-293717980D03*
%TO.P,atmega164,14*%
X386585460Y-278477980D03*
%TO.P,atmega164,34*%
X404365460Y-293717980D03*
%TO.P,atmega164,15*%
X384045460Y-278477980D03*
%TO.P,atmega164,35*%
X406905460Y-293717980D03*
%TO.P,atmega164,16*%
X381505460Y-278477980D03*
%TO.P,atmega164,36*%
X409445460Y-293717980D03*
%TO.P,atmega164,17*%
X378965460Y-278477980D03*
%TO.P,atmega164,37*%
X411985460Y-293717980D03*
%TO.P,atmega164,18*%
X376425460Y-278477980D03*
%TO.P,atmega164,38*%
X414525460Y-293717980D03*
%TO.P,atmega164,19*%
X373885460Y-278477980D03*
%TO.P,atmega164,39*%
X417065460Y-293717980D03*
%TO.P,atmega164,20*%
X371345460Y-278477980D03*
%TO.P,atmega164,40*%
X419605460Y-293717980D03*
%TD*%
D18*
%TO.P,RJ45,*%
%TO.N,*%
X468627460Y-277766780D03*
X468627460Y-289196780D03*
D19*
%TO.P,RJ45,1*%
%TO.N,N/C*%
X462277460Y-287926780D03*
D16*
%TO.P,RJ45,2*%
X459737460Y-286656780D03*
%TO.P,RJ45,3*%
X462277460Y-285386780D03*
%TO.P,RJ45,4*%
X459737460Y-284116780D03*
%TO.P,RJ45,5*%
X462277460Y-282846780D03*
%TO.P,RJ45,6*%
X459737460Y-281576780D03*
%TO.P,RJ45,7*%
X462277460Y-280306780D03*
%TO.P,RJ45,8*%
X459737460Y-279036780D03*
%TD*%
D20*
%TO.P,BC547B,2*%
%TO.N,N/C*%
X439925460Y-274667980D03*
%TO.P,BC547B,3*%
X441195460Y-273397980D03*
%TA.AperFunction,ComponentPad*%
D21*
%TO.P,BC547B,1*%
G36*
X442114699Y-275937980D02*
G01*
X441195460Y-276857219D01*
X440276221Y-275937980D01*
X441195460Y-275018741D01*
X442114699Y-275937980D01*
G37*
%TD.AperFunction*%
%TD*%
%TA.AperFunction,ComponentPad*%
%TO.P,BC547B,1*%
%TO.N,N/C*%
G36*
X449734699Y-281017980D02*
G01*
X448815460Y-281937219D01*
X447896221Y-281017980D01*
X448815460Y-280098741D01*
X449734699Y-281017980D01*
G37*
%TD.AperFunction*%
D20*
%TO.P,BC547B,3*%
X448815460Y-278477980D03*
%TO.P,BC547B,2*%
X447545460Y-279747980D03*
%TD*%
%TA.AperFunction,ComponentPad*%
D21*
%TO.P,BC547B,1*%
%TO.N,N/C*%
G36*
X449734699Y-292447980D02*
G01*
X448815460Y-293367219D01*
X447896221Y-292447980D01*
X448815460Y-291528741D01*
X449734699Y-292447980D01*
G37*
%TD.AperFunction*%
D20*
%TO.P,BC547B,3*%
X448815460Y-289907980D03*
%TO.P,BC547B,2*%
X447545460Y-291177980D03*
%TD*%
%TO.P,BC547B,2*%
%TO.N,N/C*%
X439925460Y-286097980D03*
%TO.P,BC547B,3*%
X441195460Y-284827980D03*
%TA.AperFunction,ComponentPad*%
D21*
%TO.P,BC547B,1*%
G36*
X442114699Y-287367980D02*
G01*
X441195460Y-288287219D01*
X440276221Y-287367980D01*
X441195460Y-286448741D01*
X442114699Y-287367980D01*
G37*
%TD.AperFunction*%
%TD*%
D11*
%TO.P,100k\u03A9,2*%
%TO.N,N/C*%
X425320460Y-275920200D03*
D10*
%TO.P,100k\u03A9,1*%
X435480460Y-275920200D03*
%TD*%
%TO.P,0.1uf,1*%
%TO.N,N/C*%
X438655460Y-270222980D03*
%TO.P,0.1uf,2*%
X441155460Y-270222980D03*
%TD*%
%TO.P,0.1uf,2*%
%TO.N,N/C*%
X441155460Y-281652980D03*
%TO.P,0.1uf,1*%
X438655460Y-281652980D03*
%TD*%
%TO.P,0.1uf,2*%
%TO.N,N/C*%
X451315460Y-274667980D03*
%TO.P,0.1uf,1*%
X448815460Y-274667980D03*
%TD*%
D22*
%TO.N,*%
X440560460Y-267682980D02*
X438655460Y-269587980D01*
X438655460Y-269587980D02*
X438655460Y-270222980D01*
X472945460Y-291812980D02*
X462785460Y-291812980D01*
D23*
X444370460Y-272762980D02*
X441830460Y-270222980D01*
X441830460Y-270222980D02*
X441155460Y-270222980D01*
X441155460Y-270222980D02*
X441155460Y-270817980D01*
X443735460Y-270857980D02*
X445640460Y-272762980D01*
X443100460Y-270857980D02*
X445005460Y-272762980D01*
X441830460Y-269587980D02*
X443735460Y-269587980D01*
X443735460Y-269587980D02*
X444370460Y-270222980D01*
X441195460Y-270222980D02*
X441830460Y-269587980D01*
X444370460Y-270222980D02*
X446910460Y-272762980D01*
X441195460Y-270222980D02*
X444370460Y-270222980D01*
X443735460Y-272762980D02*
X441195460Y-270222980D01*
D22*
X446275460Y-273397980D02*
X446910460Y-274032980D01*
D23*
X446910460Y-272762980D02*
X444370460Y-272762980D01*
X448815460Y-274667980D02*
X446910460Y-272762980D01*
X447545460Y-286097980D02*
X448815460Y-286097980D01*
X446275460Y-286097980D02*
X447545460Y-286097980D01*
X445640460Y-282922980D02*
X445640460Y-284192980D01*
X445640460Y-284192980D02*
X445640460Y-284827980D01*
X447545460Y-286097980D02*
X445640460Y-284192980D01*
X445640460Y-278477980D02*
X445640460Y-282922980D01*
X448815460Y-286097980D02*
X445640460Y-282922980D01*
X441195460Y-281652980D02*
X443735460Y-279112980D01*
D22*
X444500000Y-283210000D02*
X444500000Y-288925000D01*
X443735460Y-289272980D02*
X443417960Y-289590480D01*
D23*
X448815460Y-286415480D02*
X448815460Y-286097980D01*
X446910460Y-287367980D02*
X446592960Y-287685480D01*
X445640460Y-285462980D02*
X446275460Y-286097980D01*
X448180460Y-275302980D02*
X447545460Y-275302980D01*
X447545460Y-275302980D02*
X447227960Y-274985480D01*
X446275460Y-277207980D02*
X445322960Y-276255480D01*
X445640460Y-274667980D02*
X445640460Y-277842980D01*
X443735460Y-273397980D02*
X446910460Y-276572980D01*
X447545460Y-275937980D02*
X446592960Y-274985480D01*
X444687960Y-279430480D02*
X448815460Y-275302980D01*
X448815460Y-275302980D02*
X448815460Y-274667980D01*
X444370460Y-272762980D02*
X446275460Y-274667980D01*
X446275460Y-274667980D02*
X448815460Y-274667980D01*
X448815460Y-274667980D02*
X448815460Y-278477980D01*
X448815460Y-286097980D02*
X448815460Y-289907980D01*
X443735460Y-273397980D02*
X443735460Y-274667980D01*
X443735460Y-274667980D02*
X443735460Y-277842980D01*
X445640460Y-286732980D02*
X448180460Y-286732980D01*
X442465460Y-281652980D02*
X443100460Y-281017980D01*
X442465460Y-280382980D02*
X443735460Y-280382980D01*
X441195460Y-281652980D02*
X441830460Y-281017980D01*
D22*
X445957960Y-288320480D02*
X446592960Y-287685480D01*
D23*
X442465460Y-281652980D02*
X443735460Y-282922980D01*
D22*
X442465460Y-290542980D02*
X443417960Y-289590480D01*
X443417960Y-289590480D02*
X445005460Y-288002980D01*
X453859900Y-309786020D02*
X453859900Y-309557420D01*
X396745460Y-286097980D02*
X396745460Y-288002980D01*
X396745460Y-288002980D02*
X396745460Y-289272980D01*
X395475460Y-289272980D02*
X396745460Y-288002980D01*
X395475460Y-290542980D02*
X395475460Y-289272980D01*
X422145460Y-290542980D02*
X398015460Y-290542980D01*
X398015460Y-290542980D02*
X394840460Y-290542980D01*
X396745460Y-289272980D02*
X398015460Y-290542980D01*
X394840460Y-288002980D02*
X396745460Y-286097980D01*
X396745460Y-286097980D02*
X396745460Y-284827980D01*
X394840460Y-289907980D02*
X394205460Y-289272980D01*
X396110460Y-291177980D02*
X394840460Y-289907980D01*
X394840460Y-289907980D02*
X394840460Y-288002980D01*
X396745460Y-278477980D02*
X396745460Y-284827980D01*
X394205460Y-293717980D02*
X394205460Y-287367980D01*
X394205460Y-287367980D02*
X396745460Y-284827980D01*
D23*
X394205460Y-293717980D02*
X394205460Y-293082980D01*
X394205460Y-293082980D02*
X394205460Y-287367980D01*
D22*
X354200460Y-268317980D02*
X354200460Y-268952980D01*
X352930460Y-268317980D02*
X352930460Y-270857980D01*
D24*
X357375460Y-267047980D02*
X351025460Y-267047980D01*
D23*
X357375460Y-289272980D02*
X356105460Y-290542980D01*
X356105460Y-290542980D02*
X356105460Y-289272980D01*
X356105460Y-289272980D02*
X357375460Y-289272980D01*
X356105460Y-289272980D02*
X356105460Y-288002980D01*
X356105460Y-288002980D02*
X356105460Y-285462980D01*
X357375460Y-289272980D02*
X356105460Y-288002980D01*
X356105460Y-285462980D02*
X357335460Y-284232980D01*
X357335460Y-284232980D02*
X362455460Y-284232980D01*
D22*
X445005460Y-289907980D02*
X445005460Y-288637980D01*
X445005460Y-288637980D02*
X445005460Y-284827980D01*
X445005460Y-292447980D02*
X445005460Y-289907980D01*
X445005460Y-290542980D02*
X443100460Y-290542980D01*
X445005460Y-292447980D02*
X443100460Y-290542980D01*
X434845460Y-269587980D02*
X432940460Y-267682980D01*
X439290460Y-268952980D02*
X434845460Y-268952980D01*
D25*
X358010460Y-286732980D02*
X362455460Y-286732980D01*
X362455460Y-291635180D02*
X358012660Y-291635180D01*
X358012660Y-291635180D02*
X358010460Y-291632980D01*
D22*
X469770460Y-276572980D02*
X471040460Y-277842980D01*
X471040460Y-277842980D02*
X471040460Y-290542980D01*
X474215460Y-295622980D02*
X474215460Y-294352980D01*
X474215460Y-294352980D02*
X474215460Y-293082980D01*
X474215460Y-294352980D02*
X465325460Y-294352980D01*
X474215460Y-293082980D02*
X464055460Y-293082980D01*
X469448490Y-314986010D02*
X469893552Y-314986010D01*
X469893552Y-314986010D02*
X474215460Y-310664102D01*
D23*
X395475460Y-290542980D02*
X394205460Y-291812980D01*
D22*
X445005460Y-289907980D02*
X445005460Y-289272980D01*
D23*
X445005460Y-274667980D02*
X445005460Y-284827980D01*
X445005460Y-284827980D02*
X445005460Y-286097980D01*
X394205460Y-293717980D02*
X394205460Y-296892980D01*
X396745460Y-293717980D02*
X396745460Y-296852980D01*
X396745460Y-296852980D02*
X396705460Y-296892980D01*
X396705460Y-275302980D02*
X396705460Y-278437980D01*
X396705460Y-278437980D02*
X396745460Y-278477980D01*
X443735460Y-277842980D02*
X443735460Y-280382980D01*
X443735460Y-279400000D02*
X443735460Y-283845000D01*
X459737460Y-279036780D02*
X459661260Y-279112980D01*
X451990460Y-277842980D02*
X451990460Y-280382980D01*
X453260460Y-279112980D02*
X451355460Y-281017980D01*
X451315460Y-274667980D02*
X451315460Y-277247980D01*
X451315460Y-277247980D02*
X451315460Y-286097980D01*
X453260460Y-279112980D02*
X451471660Y-277324180D01*
X446275460Y-274667980D02*
X445005460Y-274667980D01*
X445640460Y-285462980D02*
X445640460Y-286732980D01*
X445640460Y-284827980D02*
X445640460Y-285462980D01*
X444370460Y-274032980D02*
X444370460Y-285462980D01*
X443735460Y-281652980D02*
X441195460Y-281652980D01*
D24*
X466595460Y-277842980D02*
X466595460Y-289272980D01*
X468500460Y-277842980D02*
X468500460Y-289272980D01*
X469770460Y-277842980D02*
X469770460Y-289272980D01*
D22*
X467865460Y-295622980D02*
X467865460Y-314672980D01*
X474215460Y-295622980D02*
X467865460Y-295622980D01*
X469135460Y-295622980D02*
X469135460Y-314672980D01*
X470405460Y-295622980D02*
X470405460Y-313402980D01*
X471675460Y-293717980D02*
X471675460Y-312767980D01*
X472945460Y-292447980D02*
X472945460Y-311497980D01*
X474215460Y-310227980D02*
X474215460Y-295622980D01*
X443735460Y-293082980D02*
X441830460Y-291177980D01*
X443735460Y-297527980D02*
X443735460Y-293082980D01*
X453895460Y-310156860D02*
X453895460Y-305782980D01*
X453859900Y-312097420D02*
X453895460Y-312061860D01*
X445005460Y-296892980D02*
X445005460Y-292447980D01*
X453859900Y-305747420D02*
X445005460Y-296892980D01*
X453859900Y-312326020D02*
X453859900Y-305747420D01*
X453859900Y-309209440D02*
X452625460Y-307975000D01*
X452625460Y-307975000D02*
X452625460Y-306070000D01*
X452625460Y-306417980D02*
X443735460Y-297527980D01*
X453895460Y-307687980D02*
X452625460Y-306417980D01*
D24*
X416430460Y-267047980D02*
X357375460Y-267047980D01*
X430400460Y-271492980D02*
X423415460Y-271492980D01*
D22*
X443100460Y-290542980D02*
X431670460Y-290542980D01*
X431670460Y-290542980D02*
X422145460Y-290542980D01*
X451315460Y-274667980D02*
X451315460Y-286057980D01*
X452625460Y-285462980D02*
X452625460Y-275977980D01*
X471040460Y-264507980D02*
X471040460Y-267047980D01*
X472945460Y-263237980D02*
X472945460Y-293082980D01*
X472310460Y-263237980D02*
X472310460Y-293082980D01*
X471040460Y-263237980D02*
X471040460Y-264507980D01*
D24*
X445482980Y-265777980D02*
X351660460Y-265777980D01*
X444787020Y-267047980D02*
X416430460Y-267047980D01*
D22*
X444787020Y-267047980D02*
X444847980Y-267047980D01*
X474215460Y-263237980D02*
X471170000Y-263237980D01*
X474215460Y-295622980D02*
X474215460Y-263237980D01*
D23*
X471170000Y-272415000D02*
X467360000Y-276225000D01*
X471805000Y-273050000D02*
X467995000Y-276860000D01*
X471805000Y-273685000D02*
X467995000Y-277495000D01*
X471157300Y-262938260D02*
X465442300Y-262938260D01*
D25*
X468475060Y-264863580D02*
X468500460Y-264838180D01*
X458975460Y-269875000D02*
X458975460Y-270222980D01*
D23*
X466178900Y-262958580D02*
X465607400Y-263530080D01*
X470118440Y-262966200D02*
X471083640Y-263931400D01*
X465107020Y-276138640D02*
X465107020Y-276572980D01*
D22*
X465107020Y-276572980D02*
X469770460Y-276572980D01*
X460880460Y-276572980D02*
X465107020Y-276572980D01*
D23*
X470814400Y-272770600D02*
X471170000Y-272415000D01*
X469745060Y-272770600D02*
X466377020Y-276138640D01*
X469265000Y-267403580D02*
X470971880Y-269110460D01*
D22*
X471040460Y-267047980D02*
X471040460Y-269110460D01*
D23*
X471170000Y-265430000D02*
X469265000Y-267335000D01*
X470684860Y-267403580D02*
X471040460Y-267047980D01*
X468475060Y-267403580D02*
X470684860Y-267403580D01*
X357375460Y-289272980D02*
X363507020Y-289272980D01*
D25*
X389125460Y-280382980D02*
X389125460Y-278477980D01*
X387855460Y-281652980D02*
X389125460Y-280382980D01*
X371762020Y-281652980D02*
X387855460Y-281652980D01*
X366682020Y-286732980D02*
X371762020Y-281652980D01*
X362455460Y-286732980D02*
X366682020Y-286732980D01*
D23*
X364271560Y-289560000D02*
X367030000Y-289560000D01*
D25*
X392082020Y-275302980D02*
X394205460Y-275302980D01*
X366682020Y-289272980D02*
X367317020Y-289272980D01*
X368129820Y-291635180D02*
X362455460Y-291635180D01*
X376207020Y-283557980D02*
X368129820Y-291635180D01*
X388272020Y-283557980D02*
X376207020Y-283557980D01*
X391665460Y-280164540D02*
X388272020Y-283557980D01*
X391665460Y-278477980D02*
X391665460Y-280164540D01*
D23*
X367952020Y-289272980D02*
X374015000Y-283210000D01*
X363636560Y-289272980D02*
X367952020Y-289272980D01*
X367665000Y-288925000D02*
X373380000Y-283210000D01*
X364271560Y-288925000D02*
X367665000Y-288925000D01*
D25*
X374015000Y-282575000D02*
X375285000Y-282575000D01*
X394205460Y-278894540D02*
X394205460Y-278477980D01*
X390177020Y-275302980D02*
X394205460Y-275302980D01*
X388620000Y-276860000D02*
X390177020Y-275302980D01*
X390525000Y-276860000D02*
X388620000Y-276860000D01*
X390573260Y-276705060D02*
X388848600Y-276705060D01*
X390753600Y-276542500D02*
X389028940Y-276542500D01*
X390900920Y-276367240D02*
X389176260Y-276367240D01*
X391086340Y-276209760D02*
X389361680Y-276209760D01*
X391253980Y-276082760D02*
X389529320Y-276082760D01*
X391353040Y-275920200D02*
X389628380Y-275920200D01*
X391556240Y-275765260D02*
X389831580Y-275765260D01*
X391693400Y-275605240D02*
X389968740Y-275605240D01*
X391833100Y-275455380D02*
X390108440Y-275455380D01*
X390405620Y-276979380D02*
X390525000Y-276860000D01*
X390405620Y-280154380D02*
X390405620Y-276979380D01*
X387985000Y-282575000D02*
X390405620Y-280154380D01*
X375285000Y-282575000D02*
X387985000Y-282575000D01*
D24*
X447040000Y-263872980D02*
X351025460Y-263872980D01*
D22*
X445135000Y-267335000D02*
X448945000Y-263525000D01*
X351660460Y-268317980D02*
X351660460Y-309245000D01*
D24*
X353060000Y-307340000D02*
X409575000Y-307340000D01*
X352425000Y-308610000D02*
X408940000Y-308610000D01*
X410845000Y-307975000D02*
X411480000Y-307340000D01*
X352425000Y-306070000D02*
X410845000Y-306070000D01*
D22*
X359410000Y-303530000D02*
X352425000Y-296545000D01*
X359410000Y-304800000D02*
X352425000Y-297815000D01*
X358775000Y-306070000D02*
X351790000Y-299085000D01*
X358775000Y-307340000D02*
X351790000Y-300355000D01*
X358140000Y-307975000D02*
X351155000Y-300990000D01*
X415481258Y-314231020D02*
X410521250Y-309271012D01*
X417195000Y-314674762D02*
X411156250Y-308636012D01*
X408940000Y-308610000D02*
X408940000Y-309880000D01*
X430999900Y-313667140D02*
X429801020Y-314866020D01*
X430999900Y-309786020D02*
X430999900Y-313667140D01*
X432198780Y-314866020D02*
X430999900Y-313667140D01*
X432341020Y-314960000D02*
X429801020Y-314960000D01*
X442465460Y-291177980D02*
X395475460Y-291177980D01*
X395475460Y-291177980D02*
X394205460Y-292447980D01*
D24*
X430400460Y-270857980D02*
X423415460Y-270857980D01*
X427860460Y-273397980D02*
X430400460Y-270857980D01*
X424050460Y-273397980D02*
X427860460Y-273397980D01*
X419605460Y-268952980D02*
X424050460Y-273397980D01*
X431670460Y-268952980D02*
X419605460Y-268952980D01*
X425231560Y-274955000D02*
X426085000Y-274955000D01*
X426085000Y-276225000D02*
X426938440Y-276225000D01*
X426938440Y-276225000D02*
X433923440Y-269240000D01*
X433923440Y-269240000D02*
X434340000Y-269240000D01*
D23*
X435262020Y-270222980D02*
X438655460Y-270222980D01*
X433992020Y-270222980D02*
X435262020Y-270222980D01*
D24*
X429260000Y-286385000D02*
X429260000Y-277495000D01*
X431165000Y-286385000D02*
X429260000Y-286385000D01*
X431165000Y-274955000D02*
X431165000Y-286385000D01*
X435610000Y-270510000D02*
X431165000Y-274955000D01*
X437515000Y-270510000D02*
X435610000Y-270510000D01*
D23*
X438655460Y-281652980D02*
X434687980Y-281652980D01*
X434687980Y-281652980D02*
X433070000Y-280035000D01*
D22*
X433070000Y-280035000D02*
X433070000Y-273685000D01*
D23*
X434721000Y-281635200D02*
X433163980Y-283192220D01*
X434687980Y-281652980D02*
X434627020Y-281652980D01*
X433357020Y-281652980D02*
X433070000Y-281940000D01*
X434687980Y-281652980D02*
X433357020Y-281652980D01*
D22*
X433070000Y-281940000D02*
X433070000Y-280035000D01*
X465325460Y-306417980D02*
X465325460Y-296932980D01*
X464055460Y-305782980D02*
X464055460Y-296297980D01*
X462915000Y-304165000D02*
X462915000Y-294680000D01*
X353169220Y-271254220D02*
X357375460Y-267047980D01*
X353060000Y-271363440D02*
X353169220Y-271254220D01*
X353060000Y-295910000D02*
X353060000Y-271363440D01*
X360045000Y-302895000D02*
X353060000Y-295910000D01*
X409575000Y-302895000D02*
X360045000Y-302895000D01*
X413385000Y-306705000D02*
X409575000Y-302895000D01*
D24*
X352425000Y-304165000D02*
X410210000Y-304165000D01*
D22*
X413385000Y-306705000D02*
X413385000Y-313055000D01*
D24*
X411480000Y-308610000D02*
X412115000Y-307975000D01*
D23*
X396705460Y-296892980D02*
X420657020Y-296892980D01*
X420657020Y-296892980D02*
X423545000Y-294005000D01*
X423545000Y-294005000D02*
X439420000Y-294005000D01*
X439420000Y-294005000D02*
X440690000Y-295275000D01*
X440690000Y-295275000D02*
X440690000Y-299085000D01*
X440690000Y-299085000D02*
X448310000Y-306705000D01*
X448310000Y-306705000D02*
X426085000Y-306705000D01*
X426085000Y-306705000D02*
X419735000Y-300355000D01*
X419735000Y-300355000D02*
X417830000Y-298450000D01*
X417830000Y-298450000D02*
X398145000Y-298450000D01*
X397827500Y-298132500D02*
X398145000Y-297815000D01*
X396875000Y-297180000D02*
X397827500Y-298132500D01*
X397827500Y-298132500D02*
X398145000Y-298450000D01*
X398145000Y-297815000D02*
X405130000Y-297815000D01*
X405130000Y-297815000D02*
X421005000Y-297815000D01*
X421005000Y-297815000D02*
X424180000Y-294640000D01*
X424180000Y-294640000D02*
X439420000Y-294640000D01*
D24*
X420370000Y-297815000D02*
X427990000Y-305435000D01*
X422275000Y-297815000D02*
X429895000Y-305435000D01*
X424180000Y-297815000D02*
X431800000Y-305435000D01*
X426085000Y-297815000D02*
X433705000Y-305435000D01*
X433705000Y-297815000D02*
X441325000Y-305435000D01*
X427990000Y-297815000D02*
X435610000Y-305435000D01*
X429895000Y-297815000D02*
X437515000Y-305435000D01*
X431800000Y-297815000D02*
X439420000Y-305435000D01*
X435610000Y-297815000D02*
X443230000Y-305435000D01*
D22*
X444500000Y-306070000D02*
X446405000Y-306070000D01*
X430999900Y-309786020D02*
X430999900Y-308444900D01*
X430999900Y-308610000D02*
X427990000Y-305600100D01*
X430999900Y-308610000D02*
X433705000Y-305904900D01*
X430999900Y-308985920D02*
X430999900Y-307340000D01*
D24*
X423545000Y-295910000D02*
X439420000Y-295910000D01*
X439420000Y-297180000D02*
X439420000Y-299085000D01*
X439420000Y-299085000D02*
X439102500Y-299402500D01*
X439102500Y-299402500D02*
X445135000Y-305435000D01*
X437515000Y-297815000D02*
X439102500Y-299402500D01*
D23*
X442356240Y-272237200D02*
X442356240Y-272018760D01*
X442356240Y-272018760D02*
X443735460Y-273397980D01*
X441195460Y-273397980D02*
X442356240Y-272237200D01*
X441155460Y-270817980D02*
X442356240Y-272018760D01*
X442129540Y-272245460D02*
X442356240Y-272018760D01*
X441155460Y-272245460D02*
X442129540Y-272245460D01*
X441155460Y-270222980D02*
X441155460Y-272245460D01*
X441155460Y-272245460D02*
X441155460Y-273357980D01*
X441155460Y-283040460D02*
X441790460Y-283040460D01*
X441155460Y-281652980D02*
X441155460Y-283040460D01*
X441155460Y-283040460D02*
X441155460Y-284787980D01*
X441790460Y-283040460D02*
X441960000Y-283210000D01*
X441960000Y-283845000D02*
X442069220Y-283954220D01*
X441960000Y-283210000D02*
X441960000Y-283845000D01*
X441195460Y-284827980D02*
X442069220Y-283954220D01*
X442069220Y-283845000D02*
X443496700Y-283845000D01*
X441726320Y-272669000D02*
X443153800Y-272669000D01*
X445244220Y-287020000D02*
X446671700Y-287020000D01*
X444022480Y-284480000D02*
X441195460Y-281652980D01*
X444500000Y-284480000D02*
X444022480Y-284480000D01*
X444500000Y-290195000D02*
X447644520Y-287050480D01*
X448741800Y-288925000D02*
X448106800Y-288290000D01*
X448741800Y-277850600D02*
X448106800Y-277215600D01*
X448310000Y-277215600D02*
X447040000Y-277215600D01*
X448640200Y-276529800D02*
X447370200Y-276529800D01*
X448310000Y-288290000D02*
X446405000Y-288290000D01*
X448310000Y-287655000D02*
X446405000Y-287655000D01*
X462280000Y-277495000D02*
X464342480Y-277495000D01*
D22*
X455295000Y-277495000D02*
X456565000Y-277495000D01*
X456565000Y-278130000D02*
X455671240Y-279023760D01*
X456565000Y-277495000D02*
X456565000Y-278130000D01*
X455671240Y-279023760D02*
X451315460Y-274667980D01*
X456047480Y-279400000D02*
X455671240Y-279023760D01*
D23*
X464820000Y-280035000D02*
X464820000Y-280670000D01*
X461835500Y-277050500D02*
X464820000Y-280035000D01*
X462470500Y-277050500D02*
X465455000Y-280035000D01*
X463186780Y-282846780D02*
X465325460Y-284985460D01*
X463186780Y-282846780D02*
X463278220Y-282846780D01*
X463278220Y-282846780D02*
X465325460Y-280799540D01*
D24*
X465325460Y-280799540D02*
X465325460Y-288925000D01*
X465325460Y-277842980D02*
X465325460Y-280799540D01*
D23*
X462277460Y-282846780D02*
X464185000Y-282846780D01*
X463186780Y-280306780D02*
X465325460Y-282445460D01*
X462277460Y-280306780D02*
X464185000Y-280306780D01*
X463278220Y-280306780D02*
X465325460Y-278259540D01*
D22*
X460880460Y-276572980D02*
X452574660Y-276572980D01*
D23*
X459737460Y-279036780D02*
X458833220Y-279036780D01*
D22*
X457070460Y-280799540D02*
X457070460Y-278259540D01*
D23*
X457847700Y-279036780D02*
X457070460Y-278259540D01*
X458833220Y-279036780D02*
X457847700Y-279036780D01*
X457847700Y-277482300D02*
X458152500Y-277177500D01*
D22*
X457235560Y-277662640D02*
X458317600Y-276580600D01*
D23*
X458470000Y-279036780D02*
X457154280Y-280352500D01*
X457530200Y-278130000D02*
X458470000Y-279069800D01*
X457200000Y-278130000D02*
X457530200Y-278130000D01*
D25*
X441195460Y-275937980D02*
X435828440Y-275937980D01*
X360550460Y-277207980D02*
X359280460Y-275937980D01*
X367248440Y-273685000D02*
X363725460Y-277207980D01*
X363725460Y-277207980D02*
X360550460Y-277207980D01*
X397349980Y-273685000D02*
X367248440Y-273685000D01*
X399285460Y-275620480D02*
X397349980Y-273685000D01*
X399285460Y-278477980D02*
X399285460Y-275620480D01*
X363090460Y-272127980D02*
X360550460Y-272127980D01*
X363438440Y-271780000D02*
X363090460Y-272127980D01*
X400842480Y-271780000D02*
X363438440Y-271780000D01*
X404365460Y-275302980D02*
X400842480Y-271780000D01*
X360550460Y-272127980D02*
X359280460Y-270857980D01*
X404365460Y-278477980D02*
X404365460Y-275302980D01*
X363725460Y-274667980D02*
X360550460Y-274667980D01*
X360550460Y-274667980D02*
X359280460Y-273397980D01*
X365343440Y-273050000D02*
X363725460Y-274667980D01*
X398223740Y-273050000D02*
X365343440Y-273050000D01*
X401825460Y-276651720D02*
X398223740Y-273050000D01*
X401825460Y-278477980D02*
X401825460Y-276651720D01*
X363725460Y-273397980D02*
X363090460Y-273397980D01*
X364708440Y-272415000D02*
X363725460Y-273397980D01*
X399415000Y-272415000D02*
X364708440Y-272415000D01*
X403095460Y-276095460D02*
X399415000Y-272415000D01*
X403095460Y-279747980D02*
X403095460Y-276095460D01*
X363090460Y-273397980D02*
X361820460Y-273397980D01*
X403730460Y-280382980D02*
X403095460Y-279747980D01*
X406270460Y-280382980D02*
X403730460Y-280382980D01*
X406905460Y-279747980D02*
X406270460Y-280382980D01*
X406905460Y-278477980D02*
X406905460Y-279747980D01*
D23*
X394205460Y-277624540D02*
X394205460Y-278477980D01*
X392805920Y-276225000D02*
X394205460Y-277624540D01*
X394205460Y-275302980D02*
X394205460Y-277624540D01*
D25*
X390525000Y-276860000D02*
X391160000Y-276225000D01*
D23*
X391769600Y-275742400D02*
X393039600Y-275742400D01*
D25*
X391160000Y-276225000D02*
X391795000Y-275590000D01*
X391795000Y-275590000D02*
X392082020Y-275302980D01*
D23*
X393141200Y-275742400D02*
X393776200Y-276377400D01*
X390702800Y-276250400D02*
X392684000Y-276250400D01*
D25*
X372541800Y-282392120D02*
X388117080Y-282392120D01*
D23*
X367317020Y-290542980D02*
X375064020Y-282795980D01*
X363090460Y-289272980D02*
X364360460Y-290542980D01*
X364360460Y-290542980D02*
X367317020Y-290542980D01*
X364360460Y-288002980D02*
X363090460Y-289272980D01*
X367317020Y-288002980D02*
X364360460Y-288002980D01*
X372988840Y-282806140D02*
X374192800Y-282806140D01*
X372551960Y-282768040D02*
X367317020Y-288002980D01*
D25*
X375818400Y-282569920D02*
X375318020Y-283070300D01*
X375130060Y-282821380D02*
X387741160Y-282821380D01*
X387741160Y-282821380D02*
X388442200Y-282120340D01*
X375163080Y-282679140D02*
X387774180Y-282679140D01*
D23*
X371094000Y-280416000D02*
X387355080Y-280416000D01*
X367277020Y-284232980D02*
X371094000Y-280416000D01*
X362455460Y-284232980D02*
X367277020Y-284232980D01*
D25*
X387850380Y-279793700D02*
X387850380Y-277629620D01*
X387850380Y-277629620D02*
X388620000Y-276860000D01*
X387850380Y-280446480D02*
X387850380Y-279651460D01*
X387604000Y-280692860D02*
X387850380Y-280446480D01*
X387050280Y-280403300D02*
X387840220Y-279613360D01*
X387570980Y-280098500D02*
X387687820Y-279981660D01*
D23*
X361152440Y-280416000D02*
X357335460Y-284232980D01*
X371094000Y-280416000D02*
X361152440Y-280416000D01*
D24*
X361950000Y-281940000D02*
X368300000Y-281940000D01*
X359410000Y-283210000D02*
X365760000Y-283210000D01*
X360680000Y-282575000D02*
X367030000Y-282575000D01*
D23*
X368300000Y-281305000D02*
X369570000Y-281305000D01*
X394205460Y-279529540D02*
X394205460Y-278894540D01*
X389001000Y-284734000D02*
X394205460Y-279529540D01*
X376936000Y-284734000D02*
X389001000Y-284734000D01*
X362455460Y-294135180D02*
X367534820Y-294135180D01*
X458833220Y-284116780D02*
X457070460Y-285879540D01*
X459737460Y-284116780D02*
X458833220Y-284116780D01*
X458833220Y-284116780D02*
X457835000Y-284116780D01*
X458741780Y-284116780D02*
X457070460Y-282445460D01*
X458833220Y-284116780D02*
X458741780Y-284116780D01*
D22*
X457070460Y-282445460D02*
X457070460Y-280799540D01*
D23*
X370205000Y-291465000D02*
X388620000Y-291465000D01*
X370205000Y-291465000D02*
X376936000Y-284734000D01*
X388620000Y-291465000D02*
X391795000Y-288290000D01*
X391795000Y-288290000D02*
X391795000Y-286385000D01*
X391795000Y-286385000D02*
X394335000Y-283845000D01*
X394335000Y-283845000D02*
X394335000Y-278765000D01*
X389001000Y-286004000D02*
X394205460Y-280799540D01*
X389001000Y-287274000D02*
X394205460Y-282069540D01*
X389001000Y-288544000D02*
X394205460Y-283339540D01*
X370840000Y-290830000D02*
X389255000Y-290830000D01*
X371475000Y-290195000D02*
X389890000Y-290195000D01*
X372110000Y-289560000D02*
X390525000Y-289560000D01*
X372745000Y-288925000D02*
X391160000Y-288925000D01*
X373380000Y-288290000D02*
X391795000Y-288290000D01*
X374015000Y-287655000D02*
X391160000Y-287655000D01*
X374650000Y-287020000D02*
X391795000Y-287020000D01*
X375285000Y-286385000D02*
X389255000Y-286385000D01*
X375920000Y-285750000D02*
X389890000Y-285750000D01*
X376555000Y-285115000D02*
X390525000Y-285115000D01*
D25*
X404017480Y-270510000D02*
X362168440Y-270510000D01*
X408178000Y-274670520D02*
X404017480Y-270510000D01*
X362168440Y-270510000D02*
X361820460Y-270857980D01*
X408178000Y-280162000D02*
X408178000Y-274670520D01*
X407035000Y-281305000D02*
X408178000Y-280162000D01*
X397510000Y-281305000D02*
X407035000Y-281305000D01*
D22*
X425450000Y-276067520D02*
X416430460Y-267047980D01*
X426085000Y-287020000D02*
X426085000Y-276067520D01*
X426720000Y-287020000D02*
X426720000Y-276067520D01*
X427990000Y-277495000D02*
X435262020Y-270222980D01*
X427990000Y-286385000D02*
X427990000Y-277495000D01*
X433070000Y-287020000D02*
X427355000Y-287020000D01*
X427355000Y-287020000D02*
X427990000Y-286385000D01*
X433070000Y-281940000D02*
X433070000Y-287020000D01*
X432739800Y-287350200D02*
X433070000Y-287020000D01*
X425355000Y-287350200D02*
X432739800Y-287350200D01*
X425355000Y-287350200D02*
X400380200Y-287350200D01*
X400380200Y-287350200D02*
X399415000Y-286385000D01*
X399415000Y-286385000D02*
X399415000Y-283845000D01*
X399415000Y-283845000D02*
X400050000Y-283210000D01*
X400050000Y-283210000D02*
X407670000Y-283210000D01*
X407670000Y-283210000D02*
X409575000Y-281305000D01*
X421640000Y-281305000D02*
X425450000Y-277495000D01*
X409575000Y-281305000D02*
X421640000Y-281305000D01*
X425320460Y-287315660D02*
X425355000Y-287350200D01*
D24*
X401320000Y-285750000D02*
X424815000Y-285750000D01*
X400685000Y-284480000D02*
X424180000Y-284480000D01*
X409575000Y-282575000D02*
X424180000Y-282575000D01*
X424180000Y-282575000D02*
X424180000Y-280670000D01*
X423545000Y-281305000D02*
X422910000Y-281305000D01*
D22*
X456435460Y-293370000D02*
X462785460Y-299720000D01*
X458470000Y-292735000D02*
X464185000Y-298450000D01*
X457200000Y-292735000D02*
X463550000Y-299085000D01*
X456565000Y-292735000D02*
X457200000Y-292735000D01*
X466577680Y-274667980D02*
X468475060Y-272770600D01*
X451315460Y-274667980D02*
X466577680Y-274667980D01*
D23*
X468475060Y-272770600D02*
X470814400Y-272770600D01*
D22*
X469920320Y-272770600D02*
X471040460Y-271650460D01*
X468475060Y-272770600D02*
X469920320Y-272770600D01*
X471040460Y-271650460D02*
X471040460Y-290542980D01*
X471040460Y-269110460D02*
X471040460Y-271650460D01*
X465555330Y-275690330D02*
X453490330Y-275690330D01*
D23*
X468475060Y-272770600D02*
X465555330Y-275690330D01*
X465555330Y-275690330D02*
X465107020Y-276138640D01*
D22*
X457070460Y-284827980D02*
X457070460Y-283210000D01*
X456852020Y-286097980D02*
X457070460Y-285879540D01*
X451315460Y-286097980D02*
X456852020Y-286097980D01*
X453260460Y-285750000D02*
X453260460Y-277247980D01*
X454530460Y-285620460D02*
X454530460Y-278517980D01*
X455800460Y-284985460D02*
X455800460Y-278765000D01*
D25*
X451307200Y-291007800D02*
X447715640Y-291007800D01*
X452755000Y-289560000D02*
X451307200Y-291007800D01*
X460644240Y-289560000D02*
X452755000Y-289560000D01*
X462277460Y-287926780D02*
X460644240Y-289560000D01*
D22*
X460532480Y-291465000D02*
X465325460Y-296257980D01*
X462280000Y-295275000D02*
X462280000Y-291465000D01*
X465455000Y-298450000D02*
X462280000Y-295275000D01*
X472440000Y-290542980D02*
X463550000Y-290542980D01*
X462915000Y-291942520D02*
X462915000Y-291465000D01*
X466559900Y-295587420D02*
X462915000Y-291942520D01*
X466559900Y-296222420D02*
X466559900Y-295587420D01*
X465455000Y-288607500D02*
X465455000Y-288290000D01*
X462597500Y-291465000D02*
X465455000Y-288607500D01*
X462280000Y-291465000D02*
X462597500Y-291465000D01*
X455800460Y-295910000D02*
X462150460Y-302260000D01*
X455800460Y-294640000D02*
X462150460Y-300990000D01*
X455800460Y-293370000D02*
X462150460Y-299720000D01*
X458975460Y-291465000D02*
X465325460Y-297815000D01*
X409548990Y-309906010D02*
X409575000Y-309880000D01*
X350270470Y-309906010D02*
X409548990Y-309906010D01*
X350270470Y-263237980D02*
X350270470Y-309906010D01*
X465455000Y-263237980D02*
X350270470Y-263237980D01*
X414966248Y-314986010D02*
X409886250Y-309906012D01*
X429681030Y-314986010D02*
X414966248Y-314986010D01*
X429801020Y-314866020D02*
X429681030Y-314986010D01*
X466559900Y-314960000D02*
X432435000Y-314960000D01*
X466559900Y-294388540D02*
X466559900Y-314960000D01*
X466595460Y-294352980D02*
X466559900Y-294388540D01*
X464846010Y-314986010D02*
X469893552Y-314986010D01*
X466559900Y-313220100D02*
X464820000Y-314960000D01*
X466559900Y-312326020D02*
X466559900Y-313220100D01*
X464437730Y-306452270D02*
X459487270Y-306452270D01*
X454660000Y-296674540D02*
X464437730Y-306452270D01*
X464437730Y-306452270D02*
X466559900Y-308574440D01*
X459487270Y-306452270D02*
X451485000Y-298450000D01*
X451485000Y-298450000D02*
X451485000Y-294005000D01*
X451485000Y-294005000D02*
X454025000Y-291465000D01*
X462280000Y-291465000D02*
X454025000Y-291465000D01*
X451485000Y-296674540D02*
X461262730Y-306452270D01*
X452120000Y-296039540D02*
X461897730Y-305817270D01*
D24*
X452755000Y-294640000D02*
X454660000Y-296545000D01*
X453390000Y-293370000D02*
X455295000Y-295275000D01*
X454660000Y-292100000D02*
X456565000Y-294005000D01*
D22*
X423545000Y-273685000D02*
X423545000Y-280000460D01*
X424815000Y-273685000D02*
X424815000Y-280000460D01*
D23*
X362455460Y-294135180D02*
X362455460Y-294510460D01*
X397510000Y-297180000D02*
X398462500Y-298132500D01*
X356105460Y-292605460D02*
X356105460Y-290542980D01*
X362585000Y-299085000D02*
X356105460Y-292605460D01*
X396705460Y-297984540D02*
X395605000Y-299085000D01*
X396705460Y-296892980D02*
X396705460Y-297984540D01*
X419100000Y-299085000D02*
X419417500Y-298767500D01*
D24*
X419417500Y-298767500D02*
X426085000Y-305435000D01*
X418465000Y-297815000D02*
X419417500Y-298767500D01*
D23*
X396705460Y-298280460D02*
X397510000Y-299085000D01*
X396705460Y-297984540D02*
X396705460Y-298280460D01*
X397510000Y-299085000D02*
X419100000Y-299085000D01*
X395605000Y-299085000D02*
X397510000Y-299085000D01*
X393065000Y-299085000D02*
X392430000Y-299085000D01*
X395605000Y-299085000D02*
X393065000Y-299085000D01*
X393065000Y-299085000D02*
X362585000Y-299085000D01*
X392430000Y-299085000D02*
X389255000Y-295910000D01*
X389255000Y-295910000D02*
X370205000Y-295910000D01*
X370205000Y-295910000D02*
X369252500Y-294957500D01*
X369252500Y-292417500D02*
X370205000Y-291465000D01*
X367534820Y-294135180D02*
X369252500Y-292417500D01*
X369252500Y-294957500D02*
X369252500Y-292417500D01*
X368935000Y-294640000D02*
X362585000Y-294640000D01*
X368300000Y-294005000D02*
X368935000Y-293370000D01*
X391160000Y-298450000D02*
X362585000Y-298450000D01*
X390525000Y-297815000D02*
X361950000Y-297815000D01*
X389890000Y-297180000D02*
X361315000Y-297180000D01*
X389255000Y-296545000D02*
X360680000Y-296545000D01*
X364490000Y-294640000D02*
X358140000Y-294640000D01*
X369570000Y-295910000D02*
X360045000Y-295910000D01*
X368935000Y-295275000D02*
X359410000Y-295275000D01*
D25*
X424685460Y-311091580D02*
X425919900Y-312326020D01*
X417200080Y-300837600D02*
X424685460Y-308322980D01*
X354761800Y-294120570D02*
X361478830Y-300837600D01*
X361478830Y-300837600D02*
X417200080Y-300837600D01*
X354761800Y-272201640D02*
X354761800Y-294120570D01*
X357723440Y-269240000D02*
X354761800Y-272201640D01*
X424685460Y-308322980D02*
X424685460Y-311091580D01*
X406557480Y-269240000D02*
X357723440Y-269240000D01*
X414525460Y-277207980D02*
X406557480Y-269240000D01*
X414525460Y-278477980D02*
X414525460Y-277207980D01*
X439323480Y-287367980D02*
X441195460Y-287367980D01*
X435483000Y-283527500D02*
X439323480Y-287367980D01*
X389534400Y-276860000D02*
X393065000Y-276860000D01*
X389534400Y-276860000D02*
X390398000Y-277723600D01*
X390448800Y-277672800D02*
X391210800Y-276910800D01*
X390067800Y-277190200D02*
X390652000Y-277190200D01*
X390067800Y-277342600D02*
X390652000Y-277342600D01*
X390169400Y-277495000D02*
X390398000Y-277495000D01*
X389737600Y-277037800D02*
X390956800Y-277037800D01*
%TD*%
M02*
