%TF.GenerationSoftware,KiCad,Pcbnew,(5.1.10)-1*%
%TF.CreationDate,2022-08-14T17:25:08-06:00*%
%TF.ProjectId,network_card_a,6e657477-6f72-46b5-9f63-6172645f612e,rev?*%
%TF.SameCoordinates,Original*%
%TF.FileFunction,Legend,Top*%
%TF.FilePolarity,Positive*%
%FSLAX46Y46*%
G04 Gerber Fmt 4.6, Leading zero omitted, Abs format (unit mm)*
G04 Created by KiCad (PCBNEW (5.1.10)-1) date 2022-08-14 17:25:08*
%MOMM*%
%LPD*%
G01*
G04 APERTURE LIST*
%ADD10C,0.150000*%
%ADD11C,0.120000*%
%ADD12C,0.125000*%
G04 APERTURE END LIST*
D10*
X354625714Y-290567857D02*
X354590000Y-290532142D01*
X354554285Y-290460714D01*
X354554285Y-290282142D01*
X354590000Y-290210714D01*
X354625714Y-290175000D01*
X354697142Y-290139285D01*
X354768571Y-290139285D01*
X354875714Y-290175000D01*
X355304285Y-290603571D01*
X355304285Y-290139285D01*
X354554285Y-289675000D02*
X354554285Y-289603571D01*
X354590000Y-289532142D01*
X354625714Y-289496428D01*
X354697142Y-289460714D01*
X354840000Y-289425000D01*
X355018571Y-289425000D01*
X355161428Y-289460714D01*
X355232857Y-289496428D01*
X355268571Y-289532142D01*
X355304285Y-289603571D01*
X355304285Y-289675000D01*
X355268571Y-289746428D01*
X355232857Y-289782142D01*
X355161428Y-289817857D01*
X355018571Y-289853571D01*
X354840000Y-289853571D01*
X354697142Y-289817857D01*
X354625714Y-289782142D01*
X354590000Y-289746428D01*
X354554285Y-289675000D01*
X355304285Y-289103571D02*
X354554285Y-289103571D01*
X355090000Y-288853571D01*
X354554285Y-288603571D01*
X355304285Y-288603571D01*
X355304285Y-288246428D02*
X354554285Y-288246428D01*
X355304285Y-287925000D02*
X354911428Y-287925000D01*
X354840000Y-287960714D01*
X354804285Y-288032142D01*
X354804285Y-288139285D01*
X354840000Y-288210714D01*
X354875714Y-288246428D01*
X354804285Y-287639285D02*
X354804285Y-287246428D01*
X355304285Y-287639285D01*
X355304285Y-287246428D01*
X363816888Y-273737265D02*
X363816888Y-272987265D01*
X364066888Y-273522980D01*
X364316888Y-272987265D01*
X364316888Y-273737265D01*
X364816888Y-272987265D02*
X364959745Y-272987265D01*
X365031174Y-273022980D01*
X365102602Y-273094408D01*
X365138317Y-273237265D01*
X365138317Y-273487265D01*
X365102602Y-273630122D01*
X365031174Y-273701551D01*
X364959745Y-273737265D01*
X364816888Y-273737265D01*
X364745460Y-273701551D01*
X364674031Y-273630122D01*
X364638317Y-273487265D01*
X364638317Y-273237265D01*
X364674031Y-273094408D01*
X364745460Y-273022980D01*
X364816888Y-272987265D01*
X365424031Y-273701551D02*
X365531174Y-273737265D01*
X365709745Y-273737265D01*
X365781174Y-273701551D01*
X365816888Y-273665837D01*
X365852602Y-273594408D01*
X365852602Y-273522980D01*
X365816888Y-273451551D01*
X365781174Y-273415837D01*
X365709745Y-273380122D01*
X365566888Y-273344408D01*
X365495460Y-273308694D01*
X365459745Y-273272980D01*
X365424031Y-273201551D01*
X365424031Y-273130122D01*
X365459745Y-273058694D01*
X365495460Y-273022980D01*
X365566888Y-272987265D01*
X365745460Y-272987265D01*
X365852602Y-273022980D01*
X366174031Y-273737265D02*
X366174031Y-272987265D01*
X364424031Y-275562980D02*
X364352602Y-275527265D01*
X364245460Y-275527265D01*
X364138317Y-275562980D01*
X364066888Y-275634408D01*
X364031174Y-275705837D01*
X363995460Y-275848694D01*
X363995460Y-275955837D01*
X364031174Y-276098694D01*
X364066888Y-276170122D01*
X364138317Y-276241551D01*
X364245460Y-276277265D01*
X364316888Y-276277265D01*
X364424031Y-276241551D01*
X364459745Y-276205837D01*
X364459745Y-275955837D01*
X364316888Y-275955837D01*
X364781174Y-276277265D02*
X364781174Y-275527265D01*
X365209745Y-276277265D01*
X365209745Y-275527265D01*
X365566888Y-276277265D02*
X365566888Y-275527265D01*
X365745460Y-275527265D01*
X365852602Y-275562980D01*
X365924031Y-275634408D01*
X365959745Y-275705837D01*
X365995460Y-275848694D01*
X365995460Y-275955837D01*
X365959745Y-276098694D01*
X365924031Y-276170122D01*
X365852602Y-276241551D01*
X365745460Y-276277265D01*
X365566888Y-276277265D01*
X354926888Y-271197265D02*
X354926888Y-270447265D01*
X355176888Y-270982980D01*
X355426888Y-270447265D01*
X355426888Y-271197265D01*
X355784031Y-271197265D02*
X355784031Y-270447265D01*
X356105460Y-271161551D02*
X356212602Y-271197265D01*
X356391174Y-271197265D01*
X356462602Y-271161551D01*
X356498317Y-271125837D01*
X356534031Y-271054408D01*
X356534031Y-270982980D01*
X356498317Y-270911551D01*
X356462602Y-270875837D01*
X356391174Y-270840122D01*
X356248317Y-270804408D01*
X356176888Y-270768694D01*
X356141174Y-270732980D01*
X356105460Y-270661551D01*
X356105460Y-270590122D01*
X356141174Y-270518694D01*
X356176888Y-270482980D01*
X356248317Y-270447265D01*
X356426888Y-270447265D01*
X356534031Y-270482980D01*
X356998317Y-270447265D02*
X357141174Y-270447265D01*
X357212602Y-270482980D01*
X357284031Y-270554408D01*
X357319745Y-270697265D01*
X357319745Y-270947265D01*
X357284031Y-271090122D01*
X357212602Y-271161551D01*
X357141174Y-271197265D01*
X356998317Y-271197265D01*
X356926888Y-271161551D01*
X356855460Y-271090122D01*
X356819745Y-270947265D01*
X356819745Y-270697265D01*
X356855460Y-270554408D01*
X356926888Y-270482980D01*
X356998317Y-270447265D01*
X355659031Y-273665837D02*
X355623317Y-273701551D01*
X355516174Y-273737265D01*
X355444745Y-273737265D01*
X355337602Y-273701551D01*
X355266174Y-273630122D01*
X355230460Y-273558694D01*
X355194745Y-273415837D01*
X355194745Y-273308694D01*
X355230460Y-273165837D01*
X355266174Y-273094408D01*
X355337602Y-273022980D01*
X355444745Y-272987265D01*
X355516174Y-272987265D01*
X355623317Y-273022980D01*
X355659031Y-273058694D01*
X356337602Y-273737265D02*
X355980460Y-273737265D01*
X355980460Y-272987265D01*
X356587602Y-273737265D02*
X356587602Y-272987265D01*
X357016174Y-273737265D02*
X356694745Y-273308694D01*
X357016174Y-272987265D02*
X356587602Y-273415837D01*
X355016174Y-276277265D02*
X354766174Y-275920122D01*
X354587602Y-276277265D02*
X354587602Y-275527265D01*
X354873317Y-275527265D01*
X354944745Y-275562980D01*
X354980460Y-275598694D01*
X355016174Y-275670122D01*
X355016174Y-275777265D01*
X354980460Y-275848694D01*
X354944745Y-275884408D01*
X354873317Y-275920122D01*
X354587602Y-275920122D01*
X355337602Y-275884408D02*
X355587602Y-275884408D01*
X355694745Y-276277265D02*
X355337602Y-276277265D01*
X355337602Y-275527265D01*
X355694745Y-275527265D01*
X355980460Y-276241551D02*
X356087602Y-276277265D01*
X356266174Y-276277265D01*
X356337602Y-276241551D01*
X356373317Y-276205837D01*
X356409031Y-276134408D01*
X356409031Y-276062980D01*
X356373317Y-275991551D01*
X356337602Y-275955837D01*
X356266174Y-275920122D01*
X356123317Y-275884408D01*
X356051888Y-275848694D01*
X356016174Y-275812980D01*
X355980460Y-275741551D01*
X355980460Y-275670122D01*
X356016174Y-275598694D01*
X356051888Y-275562980D01*
X356123317Y-275527265D01*
X356301888Y-275527265D01*
X356409031Y-275562980D01*
X356730460Y-275884408D02*
X356980460Y-275884408D01*
X357087602Y-276277265D02*
X356730460Y-276277265D01*
X356730460Y-275527265D01*
X357087602Y-275527265D01*
X357301888Y-275527265D02*
X357730460Y-275527265D01*
X357516174Y-276277265D02*
X357516174Y-275527265D01*
X363995460Y-270447265D02*
X364245460Y-271197265D01*
X364495460Y-270447265D01*
X365174031Y-271125837D02*
X365138317Y-271161551D01*
X365031174Y-271197265D01*
X364959745Y-271197265D01*
X364852602Y-271161551D01*
X364781174Y-271090122D01*
X364745460Y-271018694D01*
X364709745Y-270875837D01*
X364709745Y-270768694D01*
X364745460Y-270625837D01*
X364781174Y-270554408D01*
X364852602Y-270482980D01*
X364959745Y-270447265D01*
X365031174Y-270447265D01*
X365138317Y-270482980D01*
X365174031Y-270518694D01*
X365924031Y-271125837D02*
X365888317Y-271161551D01*
X365781174Y-271197265D01*
X365709745Y-271197265D01*
X365602602Y-271161551D01*
X365531174Y-271090122D01*
X365495460Y-271018694D01*
X365459745Y-270875837D01*
X365459745Y-270768694D01*
X365495460Y-270625837D01*
X365531174Y-270554408D01*
X365602602Y-270482980D01*
X365709745Y-270447265D01*
X365781174Y-270447265D01*
X365888317Y-270482980D01*
X365924031Y-270518694D01*
D11*
%TO.C,10k\u03A9*%
X426395000Y-287350200D02*
X427165000Y-287350200D01*
X434475000Y-287350200D02*
X433705000Y-287350200D01*
X427165000Y-288720200D02*
X433705000Y-288720200D01*
X427165000Y-285980200D02*
X427165000Y-288720200D01*
X433705000Y-285980200D02*
X427165000Y-285980200D01*
X433705000Y-288720200D02*
X433705000Y-285980200D01*
X426360460Y-279717500D02*
X427130460Y-279717500D01*
X434440460Y-279717500D02*
X433670460Y-279717500D01*
X427130460Y-281087500D02*
X433670460Y-281087500D01*
X427130460Y-278347500D02*
X427130460Y-281087500D01*
X433670460Y-278347500D02*
X427130460Y-278347500D01*
X433670460Y-281087500D02*
X433670460Y-278347500D01*
%TO.C,100k\u03A9*%
X426363000Y-283527500D02*
X427133000Y-283527500D01*
X434443000Y-283527500D02*
X433673000Y-283527500D01*
X427133000Y-284897500D02*
X433673000Y-284897500D01*
X427133000Y-282157500D02*
X427133000Y-284897500D01*
X433673000Y-282157500D02*
X427133000Y-282157500D01*
X433673000Y-284897500D02*
X433673000Y-282157500D01*
%TO.C,TX*%
X469555060Y-270230600D02*
X469555060Y-270230600D01*
X469685060Y-270230600D02*
X469555060Y-270230600D01*
X469685060Y-270230600D02*
X469685060Y-270230600D01*
X469555060Y-270230600D02*
X469685060Y-270230600D01*
X469555060Y-272770600D02*
X469555060Y-272770600D01*
X469685060Y-272770600D02*
X469555060Y-272770600D01*
X469685060Y-272770600D02*
X469685060Y-272770600D01*
X469555060Y-272770600D02*
X469685060Y-272770600D01*
X469685060Y-269940600D02*
X469685060Y-269540600D01*
X470805060Y-269940600D02*
X469685060Y-269940600D01*
X470805060Y-269540600D02*
X470805060Y-269940600D01*
X469685060Y-269540600D02*
X470805060Y-269540600D01*
X469685060Y-273060600D02*
X469685060Y-269940600D01*
X469685060Y-269940600D02*
X473545060Y-269940600D01*
X469685060Y-273060600D02*
X473545060Y-273060600D01*
X473545060Y-269940600D02*
G75*
G02*
X473545060Y-273060600I0J-1560000D01*
G01*
%TO.C,4.7k\u03A9*%
X449855460Y-267157200D02*
X450625460Y-267157200D01*
X457935460Y-267157200D02*
X457165460Y-267157200D01*
X450625460Y-268527200D02*
X457165460Y-268527200D01*
X450625460Y-265787200D02*
X450625460Y-268527200D01*
X457165460Y-265787200D02*
X450625460Y-265787200D01*
X457165460Y-268527200D02*
X457165460Y-265787200D01*
%TO.C, *%
X357950460Y-269527980D02*
X359280460Y-269527980D01*
X357950460Y-270857980D02*
X357950460Y-269527980D01*
X360550460Y-269527980D02*
X363150460Y-269527980D01*
X360550460Y-272127980D02*
X360550460Y-269527980D01*
X357950460Y-272127980D02*
X360550460Y-272127980D01*
X363150460Y-269527980D02*
X363150460Y-277267980D01*
X357950460Y-272127980D02*
X357950460Y-277267980D01*
X357950460Y-277267980D02*
X363150460Y-277267980D01*
%TO.C,4.7k\u03A9*%
X449855460Y-269892780D02*
X450625460Y-269892780D01*
X457935460Y-269892780D02*
X457165460Y-269892780D01*
X450625460Y-271262780D02*
X457165460Y-271262780D01*
X450625460Y-268522780D02*
X450625460Y-271262780D01*
X457165460Y-268522780D02*
X450625460Y-268522780D01*
X457165460Y-271262780D02*
X457165460Y-268522780D01*
%TO.C,20pf*%
X361535460Y-286111980D02*
X361535460Y-284853980D01*
X363375460Y-286111980D02*
X363375460Y-284853980D01*
%TO.C, *%
X360535460Y-286057980D02*
X360535460Y-292307980D01*
X355485460Y-286057980D02*
X355485460Y-292307980D01*
X355485460Y-292307980D02*
G75*
G03*
X360535460Y-292307980I2525000J0D01*
G01*
X355485460Y-286057980D02*
G75*
G02*
X360535460Y-286057980I2525000J0D01*
G01*
%TO.C,20pf*%
X361535460Y-293514180D02*
X361535460Y-292256180D01*
X363375460Y-293514180D02*
X363375460Y-292256180D01*
%TO.C,0.1uf*%
X449436460Y-285177980D02*
X450694460Y-285177980D01*
X449436460Y-287017980D02*
X450694460Y-287017980D01*
X394826460Y-274382980D02*
X396084460Y-274382980D01*
X394826460Y-276222980D02*
X396084460Y-276222980D01*
X394826460Y-295972980D02*
X396084460Y-295972980D01*
X394826460Y-297812980D02*
X396084460Y-297812980D01*
%TO.C,RX*%
X469685060Y-267693580D02*
X473545060Y-267693580D01*
X469685060Y-264573580D02*
X473545060Y-264573580D01*
X469685060Y-267693580D02*
X469685060Y-264573580D01*
X469685060Y-264173580D02*
X470805060Y-264173580D01*
X470805060Y-264173580D02*
X470805060Y-264573580D01*
X470805060Y-264573580D02*
X469685060Y-264573580D01*
X469685060Y-264573580D02*
X469685060Y-264173580D01*
X469555060Y-267403580D02*
X469685060Y-267403580D01*
X469685060Y-267403580D02*
X469685060Y-267403580D01*
X469685060Y-267403580D02*
X469555060Y-267403580D01*
X469555060Y-267403580D02*
X469555060Y-267403580D01*
X469555060Y-264863580D02*
X469685060Y-264863580D01*
X469685060Y-264863580D02*
X469685060Y-264863580D01*
X469685060Y-264863580D02*
X469555060Y-264863580D01*
X469555060Y-264863580D02*
X469555060Y-264863580D01*
X473545060Y-264573580D02*
G75*
G02*
X473545060Y-267693580I0J-1560000D01*
G01*
%TO.C,20pin conn.*%
X467829900Y-308516020D02*
X467829900Y-309786020D01*
X466559900Y-308516020D02*
X467829900Y-308516020D01*
X417919900Y-310828949D02*
X417919900Y-311283091D01*
X418679900Y-310828949D02*
X418679900Y-311283091D01*
X417919900Y-313368949D02*
X417919900Y-313766020D01*
X418679900Y-313368949D02*
X418679900Y-313766020D01*
X417919900Y-322426020D02*
X417919900Y-316426020D01*
X418679900Y-322426020D02*
X417919900Y-322426020D01*
X418679900Y-316426020D02*
X418679900Y-322426020D01*
X419569900Y-313766020D02*
X419569900Y-316426020D01*
X420459900Y-310828949D02*
X420459900Y-311283091D01*
X421219900Y-310828949D02*
X421219900Y-311283091D01*
X420459900Y-313368949D02*
X420459900Y-313766020D01*
X421219900Y-313368949D02*
X421219900Y-313766020D01*
X420459900Y-322426020D02*
X420459900Y-316426020D01*
X421219900Y-322426020D02*
X420459900Y-322426020D01*
X421219900Y-316426020D02*
X421219900Y-322426020D01*
X422109900Y-313766020D02*
X422109900Y-316426020D01*
X422999900Y-310828949D02*
X422999900Y-311283091D01*
X423759900Y-310828949D02*
X423759900Y-311283091D01*
X422999900Y-313368949D02*
X422999900Y-313766020D01*
X423759900Y-313368949D02*
X423759900Y-313766020D01*
X422999900Y-322426020D02*
X422999900Y-316426020D01*
X423759900Y-322426020D02*
X422999900Y-322426020D01*
X423759900Y-316426020D02*
X423759900Y-322426020D01*
X424649900Y-313766020D02*
X424649900Y-316426020D01*
X425539900Y-310828949D02*
X425539900Y-311283091D01*
X426299900Y-310828949D02*
X426299900Y-311283091D01*
X425539900Y-313368949D02*
X425539900Y-313766020D01*
X426299900Y-313368949D02*
X426299900Y-313766020D01*
X425539900Y-322426020D02*
X425539900Y-316426020D01*
X426299900Y-322426020D02*
X425539900Y-322426020D01*
X426299900Y-316426020D02*
X426299900Y-322426020D01*
X427189900Y-313766020D02*
X427189900Y-316426020D01*
X428079900Y-310828949D02*
X428079900Y-311283091D01*
X428839900Y-310828949D02*
X428839900Y-311283091D01*
X428079900Y-313368949D02*
X428079900Y-313766020D01*
X428839900Y-313368949D02*
X428839900Y-313766020D01*
X428079900Y-322426020D02*
X428079900Y-316426020D01*
X428839900Y-322426020D02*
X428079900Y-322426020D01*
X428839900Y-316426020D02*
X428839900Y-322426020D01*
X429729900Y-313766020D02*
X429729900Y-316426020D01*
X430619900Y-310828949D02*
X430619900Y-311283091D01*
X431379900Y-310828949D02*
X431379900Y-311283091D01*
X430619900Y-313368949D02*
X430619900Y-313766020D01*
X431379900Y-313368949D02*
X431379900Y-313766020D01*
X430619900Y-322426020D02*
X430619900Y-316426020D01*
X431379900Y-322426020D02*
X430619900Y-322426020D01*
X431379900Y-316426020D02*
X431379900Y-322426020D01*
X432269900Y-313766020D02*
X432269900Y-316426020D01*
X433159900Y-310828949D02*
X433159900Y-311283091D01*
X433919900Y-310828949D02*
X433919900Y-311283091D01*
X433159900Y-313368949D02*
X433159900Y-313766020D01*
X433919900Y-313368949D02*
X433919900Y-313766020D01*
X433159900Y-322426020D02*
X433159900Y-316426020D01*
X433919900Y-322426020D02*
X433159900Y-322426020D01*
X433919900Y-316426020D02*
X433919900Y-322426020D01*
X434809900Y-313766020D02*
X434809900Y-316426020D01*
X435699900Y-310828949D02*
X435699900Y-311283091D01*
X436459900Y-310828949D02*
X436459900Y-311283091D01*
X435699900Y-313368949D02*
X435699900Y-313766020D01*
X436459900Y-313368949D02*
X436459900Y-313766020D01*
X435699900Y-322426020D02*
X435699900Y-316426020D01*
X436459900Y-322426020D02*
X435699900Y-322426020D01*
X436459900Y-316426020D02*
X436459900Y-322426020D01*
X437349900Y-313766020D02*
X437349900Y-316426020D01*
X438239900Y-310828949D02*
X438239900Y-311283091D01*
X438999900Y-310828949D02*
X438999900Y-311283091D01*
X438239900Y-313368949D02*
X438239900Y-313766020D01*
X438999900Y-313368949D02*
X438999900Y-313766020D01*
X438239900Y-322426020D02*
X438239900Y-316426020D01*
X438999900Y-322426020D02*
X438239900Y-322426020D01*
X438999900Y-316426020D02*
X438999900Y-322426020D01*
X439889900Y-313766020D02*
X439889900Y-316426020D01*
X440779900Y-310828949D02*
X440779900Y-311283091D01*
X441539900Y-310828949D02*
X441539900Y-311283091D01*
X440779900Y-313368949D02*
X440779900Y-313766020D01*
X441539900Y-313368949D02*
X441539900Y-313766020D01*
X440779900Y-322426020D02*
X440779900Y-316426020D01*
X441539900Y-322426020D02*
X440779900Y-322426020D01*
X441539900Y-316426020D02*
X441539900Y-322426020D01*
X442429900Y-313766020D02*
X442429900Y-316426020D01*
X443319900Y-310828949D02*
X443319900Y-311283091D01*
X444079900Y-310828949D02*
X444079900Y-311283091D01*
X443319900Y-313368949D02*
X443319900Y-313766020D01*
X444079900Y-313368949D02*
X444079900Y-313766020D01*
X443319900Y-322426020D02*
X443319900Y-316426020D01*
X444079900Y-322426020D02*
X443319900Y-322426020D01*
X444079900Y-316426020D02*
X444079900Y-322426020D01*
X444969900Y-313766020D02*
X444969900Y-316426020D01*
X445859900Y-310828949D02*
X445859900Y-311283091D01*
X446619900Y-310828949D02*
X446619900Y-311283091D01*
X445859900Y-313368949D02*
X445859900Y-313766020D01*
X446619900Y-313368949D02*
X446619900Y-313766020D01*
X445859900Y-322426020D02*
X445859900Y-316426020D01*
X446619900Y-322426020D02*
X445859900Y-322426020D01*
X446619900Y-316426020D02*
X446619900Y-322426020D01*
X447509900Y-313766020D02*
X447509900Y-316426020D01*
X448399900Y-310828949D02*
X448399900Y-311283091D01*
X449159900Y-310828949D02*
X449159900Y-311283091D01*
X448399900Y-313368949D02*
X448399900Y-313766020D01*
X449159900Y-313368949D02*
X449159900Y-313766020D01*
X448399900Y-322426020D02*
X448399900Y-316426020D01*
X449159900Y-322426020D02*
X448399900Y-322426020D01*
X449159900Y-316426020D02*
X449159900Y-322426020D01*
X450049900Y-313766020D02*
X450049900Y-316426020D01*
X450939900Y-310828949D02*
X450939900Y-311283091D01*
X451699900Y-310828949D02*
X451699900Y-311283091D01*
X450939900Y-313368949D02*
X450939900Y-313766020D01*
X451699900Y-313368949D02*
X451699900Y-313766020D01*
X450939900Y-322426020D02*
X450939900Y-316426020D01*
X451699900Y-322426020D02*
X450939900Y-322426020D01*
X451699900Y-316426020D02*
X451699900Y-322426020D01*
X452589900Y-313766020D02*
X452589900Y-316426020D01*
X453479900Y-310828949D02*
X453479900Y-311283091D01*
X454239900Y-310828949D02*
X454239900Y-311283091D01*
X453479900Y-313368949D02*
X453479900Y-313766020D01*
X454239900Y-313368949D02*
X454239900Y-313766020D01*
X453479900Y-322426020D02*
X453479900Y-316426020D01*
X454239900Y-322426020D02*
X453479900Y-322426020D01*
X454239900Y-316426020D02*
X454239900Y-322426020D01*
X455129900Y-313766020D02*
X455129900Y-316426020D01*
X456019900Y-310828949D02*
X456019900Y-311283091D01*
X456779900Y-310828949D02*
X456779900Y-311283091D01*
X456019900Y-313368949D02*
X456019900Y-313766020D01*
X456779900Y-313368949D02*
X456779900Y-313766020D01*
X456019900Y-322426020D02*
X456019900Y-316426020D01*
X456779900Y-322426020D02*
X456019900Y-322426020D01*
X456779900Y-316426020D02*
X456779900Y-322426020D01*
X457669900Y-313766020D02*
X457669900Y-316426020D01*
X458559900Y-310828949D02*
X458559900Y-311283091D01*
X459319900Y-310828949D02*
X459319900Y-311283091D01*
X458559900Y-313368949D02*
X458559900Y-313766020D01*
X459319900Y-313368949D02*
X459319900Y-313766020D01*
X458559900Y-322426020D02*
X458559900Y-316426020D01*
X459319900Y-322426020D02*
X458559900Y-322426020D01*
X459319900Y-316426020D02*
X459319900Y-322426020D01*
X460209900Y-313766020D02*
X460209900Y-316426020D01*
X461099900Y-310828949D02*
X461099900Y-311283091D01*
X461859900Y-310828949D02*
X461859900Y-311283091D01*
X461099900Y-313368949D02*
X461099900Y-313766020D01*
X461859900Y-313368949D02*
X461859900Y-313766020D01*
X461099900Y-322426020D02*
X461099900Y-316426020D01*
X461859900Y-322426020D02*
X461099900Y-322426020D01*
X461859900Y-316426020D02*
X461859900Y-322426020D01*
X462749900Y-313766020D02*
X462749900Y-316426020D01*
X463639900Y-310828949D02*
X463639900Y-311283091D01*
X464399900Y-310828949D02*
X464399900Y-311283091D01*
X463639900Y-313368949D02*
X463639900Y-313766020D01*
X464399900Y-313368949D02*
X464399900Y-313766020D01*
X463639900Y-322426020D02*
X463639900Y-316426020D01*
X464399900Y-322426020D02*
X463639900Y-322426020D01*
X464399900Y-316426020D02*
X464399900Y-322426020D01*
X465289900Y-313766020D02*
X465289900Y-316426020D01*
X466179900Y-310896020D02*
X466179900Y-311283091D01*
X466939900Y-310896020D02*
X466939900Y-311283091D01*
X466179900Y-313368949D02*
X466179900Y-313766020D01*
X466939900Y-313368949D02*
X466939900Y-313766020D01*
X466279900Y-316426020D02*
X466279900Y-322426020D01*
X466399900Y-316426020D02*
X466399900Y-322426020D01*
X466519900Y-316426020D02*
X466519900Y-322426020D01*
X466639900Y-316426020D02*
X466639900Y-322426020D01*
X466759900Y-316426020D02*
X466759900Y-322426020D01*
X466879900Y-316426020D02*
X466879900Y-322426020D01*
X466179900Y-322426020D02*
X466179900Y-316426020D01*
X466939900Y-322426020D02*
X466179900Y-322426020D01*
X466939900Y-316426020D02*
X466939900Y-322426020D01*
X467889900Y-316426020D02*
X467889900Y-313766020D01*
X416969900Y-316426020D02*
X467889900Y-316426020D01*
X416969900Y-313766020D02*
X416969900Y-316426020D01*
X467889900Y-313766020D02*
X416969900Y-313766020D01*
%TO.C,atmega164*%
X420995460Y-295047980D02*
X420995460Y-277147980D01*
X369955460Y-295047980D02*
X420995460Y-295047980D01*
X369955460Y-277147980D02*
X369955460Y-295047980D01*
X420995460Y-277147980D02*
X369955460Y-277147980D01*
X420935460Y-292557980D02*
X420935460Y-287097980D01*
X370015460Y-292557980D02*
X420935460Y-292557980D01*
X370015460Y-279637980D02*
X370015460Y-292557980D01*
X420935460Y-279637980D02*
X370015460Y-279637980D01*
X420935460Y-285097980D02*
X420935460Y-279637980D01*
X420935460Y-287097980D02*
G75*
G02*
X420935460Y-285097980I0J1000000D01*
G01*
%TO.C,RJ45*%
X462777460Y-291926780D02*
X462277460Y-291426780D01*
X461777460Y-291926780D02*
X462777460Y-291926780D01*
X462277460Y-291426780D02*
X461777460Y-291926780D01*
X458487460Y-275626780D02*
X458487460Y-291346780D01*
X458487460Y-291346780D02*
X475227460Y-291346780D01*
X458487460Y-275616780D02*
X475227460Y-275616780D01*
X475227460Y-275616780D02*
X475227460Y-291346780D01*
%TO.C,BC547B*%
X443045460Y-276467980D02*
X443045460Y-272867980D01*
X443033938Y-276506458D02*
G75*
G02*
X438595460Y-274667980I-1838478J1838478D01*
G01*
X443033938Y-272829502D02*
G75*
G03*
X438595460Y-274667980I-1838478J-1838478D01*
G01*
X450665460Y-281547980D02*
X450665460Y-277947980D01*
X450653938Y-277909502D02*
G75*
G03*
X446215460Y-279747980I-1838478J-1838478D01*
G01*
X450653938Y-281586458D02*
G75*
G02*
X446215460Y-279747980I-1838478J1838478D01*
G01*
X450665460Y-292977980D02*
X450665460Y-289377980D01*
X450653938Y-289339502D02*
G75*
G03*
X446215460Y-291177980I-1838478J-1838478D01*
G01*
X450653938Y-293016458D02*
G75*
G02*
X446215460Y-291177980I-1838478J1838478D01*
G01*
X443045460Y-287897980D02*
X443045460Y-284297980D01*
X443033938Y-287936458D02*
G75*
G02*
X438595460Y-286097980I-1838478J1838478D01*
G01*
X443033938Y-284259502D02*
G75*
G03*
X438595460Y-286097980I-1838478J-1838478D01*
G01*
%TO.C,100k\u03A9*%
X426360460Y-275920200D02*
X427130460Y-275920200D01*
X434440460Y-275920200D02*
X433670460Y-275920200D01*
X427130460Y-277290200D02*
X433670460Y-277290200D01*
X427130460Y-274550200D02*
X427130460Y-277290200D01*
X433670460Y-274550200D02*
X427130460Y-274550200D01*
X433670460Y-277290200D02*
X433670460Y-274550200D01*
%TO.C,0.1uf*%
X439276460Y-269302980D02*
X440534460Y-269302980D01*
X439276460Y-271142980D02*
X440534460Y-271142980D01*
X439276460Y-280732980D02*
X440534460Y-280732980D01*
X439276460Y-282572980D02*
X440534460Y-282572980D01*
X449436460Y-273747980D02*
X450694460Y-273747980D01*
X449436460Y-275587980D02*
X450694460Y-275587980D01*
%TO.C,10k\u03A9*%
D10*
X429268333Y-287802580D02*
X428696904Y-287802580D01*
X428982619Y-287802580D02*
X428982619Y-286802580D01*
X428887380Y-286945438D01*
X428792142Y-287040676D01*
X428696904Y-287088295D01*
X429887380Y-286802580D02*
X429982619Y-286802580D01*
X430077857Y-286850200D01*
X430125476Y-286897819D01*
X430173095Y-286993057D01*
X430220714Y-287183533D01*
X430220714Y-287421628D01*
X430173095Y-287612104D01*
X430125476Y-287707342D01*
X430077857Y-287754961D01*
X429982619Y-287802580D01*
X429887380Y-287802580D01*
X429792142Y-287754961D01*
X429744523Y-287707342D01*
X429696904Y-287612104D01*
X429649285Y-287421628D01*
X429649285Y-287183533D01*
X429696904Y-286993057D01*
X429744523Y-286897819D01*
X429792142Y-286850200D01*
X429887380Y-286802580D01*
X430649285Y-287802580D02*
X430649285Y-286802580D01*
X430744523Y-287421628D02*
X431030238Y-287802580D01*
X431030238Y-287135914D02*
X430649285Y-287516866D01*
X431411190Y-287802580D02*
X431649285Y-287802580D01*
X431649285Y-287612104D01*
X431554047Y-287564485D01*
X431458809Y-287469247D01*
X431411190Y-287326390D01*
X431411190Y-287088295D01*
X431458809Y-286945438D01*
X431554047Y-286850200D01*
X431696904Y-286802580D01*
X431887380Y-286802580D01*
X432030238Y-286850200D01*
X432125476Y-286945438D01*
X432173095Y-287088295D01*
X432173095Y-287326390D01*
X432125476Y-287469247D01*
X432030238Y-287564485D01*
X431935000Y-287612104D01*
X431935000Y-287802580D01*
X432173095Y-287802580D01*
X429233793Y-280169880D02*
X428662364Y-280169880D01*
X428948079Y-280169880D02*
X428948079Y-279169880D01*
X428852840Y-279312738D01*
X428757602Y-279407976D01*
X428662364Y-279455595D01*
X429852840Y-279169880D02*
X429948079Y-279169880D01*
X430043317Y-279217500D01*
X430090936Y-279265119D01*
X430138555Y-279360357D01*
X430186174Y-279550833D01*
X430186174Y-279788928D01*
X430138555Y-279979404D01*
X430090936Y-280074642D01*
X430043317Y-280122261D01*
X429948079Y-280169880D01*
X429852840Y-280169880D01*
X429757602Y-280122261D01*
X429709983Y-280074642D01*
X429662364Y-279979404D01*
X429614745Y-279788928D01*
X429614745Y-279550833D01*
X429662364Y-279360357D01*
X429709983Y-279265119D01*
X429757602Y-279217500D01*
X429852840Y-279169880D01*
X430614745Y-280169880D02*
X430614745Y-279169880D01*
X430709983Y-279788928D02*
X430995698Y-280169880D01*
X430995698Y-279503214D02*
X430614745Y-279884166D01*
X431376650Y-280169880D02*
X431614745Y-280169880D01*
X431614745Y-279979404D01*
X431519507Y-279931785D01*
X431424269Y-279836547D01*
X431376650Y-279693690D01*
X431376650Y-279455595D01*
X431424269Y-279312738D01*
X431519507Y-279217500D01*
X431662364Y-279169880D01*
X431852840Y-279169880D01*
X431995698Y-279217500D01*
X432090936Y-279312738D01*
X432138555Y-279455595D01*
X432138555Y-279693690D01*
X432090936Y-279836547D01*
X431995698Y-279931785D01*
X431900460Y-279979404D01*
X431900460Y-280169880D01*
X432138555Y-280169880D01*
%TO.C,100k\u03A9*%
X428760142Y-283979880D02*
X428188714Y-283979880D01*
X428474428Y-283979880D02*
X428474428Y-282979880D01*
X428379190Y-283122738D01*
X428283952Y-283217976D01*
X428188714Y-283265595D01*
X429379190Y-282979880D02*
X429474428Y-282979880D01*
X429569666Y-283027500D01*
X429617285Y-283075119D01*
X429664904Y-283170357D01*
X429712523Y-283360833D01*
X429712523Y-283598928D01*
X429664904Y-283789404D01*
X429617285Y-283884642D01*
X429569666Y-283932261D01*
X429474428Y-283979880D01*
X429379190Y-283979880D01*
X429283952Y-283932261D01*
X429236333Y-283884642D01*
X429188714Y-283789404D01*
X429141095Y-283598928D01*
X429141095Y-283360833D01*
X429188714Y-283170357D01*
X429236333Y-283075119D01*
X429283952Y-283027500D01*
X429379190Y-282979880D01*
X430331571Y-282979880D02*
X430426809Y-282979880D01*
X430522047Y-283027500D01*
X430569666Y-283075119D01*
X430617285Y-283170357D01*
X430664904Y-283360833D01*
X430664904Y-283598928D01*
X430617285Y-283789404D01*
X430569666Y-283884642D01*
X430522047Y-283932261D01*
X430426809Y-283979880D01*
X430331571Y-283979880D01*
X430236333Y-283932261D01*
X430188714Y-283884642D01*
X430141095Y-283789404D01*
X430093476Y-283598928D01*
X430093476Y-283360833D01*
X430141095Y-283170357D01*
X430188714Y-283075119D01*
X430236333Y-283027500D01*
X430331571Y-282979880D01*
X431093476Y-283979880D02*
X431093476Y-282979880D01*
X431188714Y-283598928D02*
X431474428Y-283979880D01*
X431474428Y-283313214D02*
X431093476Y-283694166D01*
X431855380Y-283979880D02*
X432093476Y-283979880D01*
X432093476Y-283789404D01*
X431998238Y-283741785D01*
X431903000Y-283646547D01*
X431855380Y-283503690D01*
X431855380Y-283265595D01*
X431903000Y-283122738D01*
X431998238Y-283027500D01*
X432141095Y-282979880D01*
X432331571Y-282979880D01*
X432474428Y-283027500D01*
X432569666Y-283122738D01*
X432617285Y-283265595D01*
X432617285Y-283503690D01*
X432569666Y-283646547D01*
X432474428Y-283741785D01*
X432379190Y-283789404D01*
X432379190Y-283979880D01*
X432617285Y-283979880D01*
%TO.C,4.7k\u03A9*%
X452395460Y-266942914D02*
X452395460Y-267609580D01*
X452157364Y-266561961D02*
X451919269Y-267276247D01*
X452538317Y-267276247D01*
X452919269Y-267514342D02*
X452966888Y-267561961D01*
X452919269Y-267609580D01*
X452871650Y-267561961D01*
X452919269Y-267514342D01*
X452919269Y-267609580D01*
X453300221Y-266609580D02*
X453966888Y-266609580D01*
X453538317Y-267609580D01*
X454347840Y-267609580D02*
X454347840Y-266609580D01*
X454443079Y-267228628D02*
X454728793Y-267609580D01*
X454728793Y-266942914D02*
X454347840Y-267323866D01*
X455109745Y-267609580D02*
X455347840Y-267609580D01*
X455347840Y-267419104D01*
X455252602Y-267371485D01*
X455157364Y-267276247D01*
X455109745Y-267133390D01*
X455109745Y-266895295D01*
X455157364Y-266752438D01*
X455252602Y-266657200D01*
X455395460Y-266609580D01*
X455585936Y-266609580D01*
X455728793Y-266657200D01*
X455824031Y-266752438D01*
X455871650Y-266895295D01*
X455871650Y-267133390D01*
X455824031Y-267276247D01*
X455728793Y-267371485D01*
X455633555Y-267419104D01*
X455633555Y-267609580D01*
X455871650Y-267609580D01*
X452395460Y-269678494D02*
X452395460Y-270345160D01*
X452157364Y-269297541D02*
X451919269Y-270011827D01*
X452538317Y-270011827D01*
X452919269Y-270249922D02*
X452966888Y-270297541D01*
X452919269Y-270345160D01*
X452871650Y-270297541D01*
X452919269Y-270249922D01*
X452919269Y-270345160D01*
X453300221Y-269345160D02*
X453966888Y-269345160D01*
X453538317Y-270345160D01*
X454347840Y-270345160D02*
X454347840Y-269345160D01*
X454443079Y-269964208D02*
X454728793Y-270345160D01*
X454728793Y-269678494D02*
X454347840Y-270059446D01*
X455109745Y-270345160D02*
X455347840Y-270345160D01*
X455347840Y-270154684D01*
X455252602Y-270107065D01*
X455157364Y-270011827D01*
X455109745Y-269868970D01*
X455109745Y-269630875D01*
X455157364Y-269488018D01*
X455252602Y-269392780D01*
X455395460Y-269345160D01*
X455585936Y-269345160D01*
X455728793Y-269392780D01*
X455824031Y-269488018D01*
X455871650Y-269630875D01*
X455871650Y-269868970D01*
X455824031Y-270011827D01*
X455728793Y-270107065D01*
X455633555Y-270154684D01*
X455633555Y-270345160D01*
X455871650Y-270345160D01*
%TO.C,20pf*%
X363857279Y-286962980D02*
X363809660Y-286915360D01*
X363762040Y-286820122D01*
X363762040Y-286582027D01*
X363809660Y-286486789D01*
X363857279Y-286439170D01*
X363952517Y-286391551D01*
X364047755Y-286391551D01*
X364190612Y-286439170D01*
X364762040Y-287010599D01*
X364762040Y-286391551D01*
X363762040Y-285772503D02*
X363762040Y-285677265D01*
X363809660Y-285582027D01*
X363857279Y-285534408D01*
X363952517Y-285486789D01*
X364142993Y-285439170D01*
X364381088Y-285439170D01*
X364571564Y-285486789D01*
X364666802Y-285534408D01*
X364714421Y-285582027D01*
X364762040Y-285677265D01*
X364762040Y-285772503D01*
X364714421Y-285867741D01*
X364666802Y-285915360D01*
X364571564Y-285962980D01*
X364381088Y-286010599D01*
X364142993Y-286010599D01*
X363952517Y-285962980D01*
X363857279Y-285915360D01*
X363809660Y-285867741D01*
X363762040Y-285772503D01*
X364095374Y-285010599D02*
X365095374Y-285010599D01*
X364142993Y-285010599D02*
X364095374Y-284915360D01*
X364095374Y-284724884D01*
X364142993Y-284629646D01*
X364190612Y-284582027D01*
X364285850Y-284534408D01*
X364571564Y-284534408D01*
X364666802Y-284582027D01*
X364714421Y-284629646D01*
X364762040Y-284724884D01*
X364762040Y-284915360D01*
X364714421Y-285010599D01*
X364095374Y-284248694D02*
X364095374Y-283867741D01*
X364762040Y-284105837D02*
X363904898Y-284105837D01*
X363809660Y-284058218D01*
X363762040Y-283962980D01*
X363762040Y-283867741D01*
X363857279Y-294365180D02*
X363809660Y-294317560D01*
X363762040Y-294222322D01*
X363762040Y-293984227D01*
X363809660Y-293888989D01*
X363857279Y-293841370D01*
X363952517Y-293793751D01*
X364047755Y-293793751D01*
X364190612Y-293841370D01*
X364762040Y-294412799D01*
X364762040Y-293793751D01*
X363762040Y-293174703D02*
X363762040Y-293079465D01*
X363809660Y-292984227D01*
X363857279Y-292936608D01*
X363952517Y-292888989D01*
X364142993Y-292841370D01*
X364381088Y-292841370D01*
X364571564Y-292888989D01*
X364666802Y-292936608D01*
X364714421Y-292984227D01*
X364762040Y-293079465D01*
X364762040Y-293174703D01*
X364714421Y-293269941D01*
X364666802Y-293317560D01*
X364571564Y-293365180D01*
X364381088Y-293412799D01*
X364142993Y-293412799D01*
X363952517Y-293365180D01*
X363857279Y-293317560D01*
X363809660Y-293269941D01*
X363762040Y-293174703D01*
X364095374Y-292412799D02*
X365095374Y-292412799D01*
X364142993Y-292412799D02*
X364095374Y-292317560D01*
X364095374Y-292127084D01*
X364142993Y-292031846D01*
X364190612Y-291984227D01*
X364285850Y-291936608D01*
X364571564Y-291936608D01*
X364666802Y-291984227D01*
X364714421Y-292031846D01*
X364762040Y-292127084D01*
X364762040Y-292317560D01*
X364714421Y-292412799D01*
X364095374Y-291650894D02*
X364095374Y-291269941D01*
X364762040Y-291508037D02*
X363904898Y-291508037D01*
X363809660Y-291460418D01*
X363762040Y-291365180D01*
X363762040Y-291269941D01*
%TO.C,0.1uf*%
X448585460Y-283645360D02*
X448680698Y-283645360D01*
X448775936Y-283692980D01*
X448823555Y-283740599D01*
X448871174Y-283835837D01*
X448918793Y-284026313D01*
X448918793Y-284264408D01*
X448871174Y-284454884D01*
X448823555Y-284550122D01*
X448775936Y-284597741D01*
X448680698Y-284645360D01*
X448585460Y-284645360D01*
X448490221Y-284597741D01*
X448442602Y-284550122D01*
X448394983Y-284454884D01*
X448347364Y-284264408D01*
X448347364Y-284026313D01*
X448394983Y-283835837D01*
X448442602Y-283740599D01*
X448490221Y-283692980D01*
X448585460Y-283645360D01*
X449347364Y-284550122D02*
X449394983Y-284597741D01*
X449347364Y-284645360D01*
X449299745Y-284597741D01*
X449347364Y-284550122D01*
X449347364Y-284645360D01*
X450347364Y-284645360D02*
X449775936Y-284645360D01*
X450061650Y-284645360D02*
X450061650Y-283645360D01*
X449966412Y-283788218D01*
X449871174Y-283883456D01*
X449775936Y-283931075D01*
X451204507Y-283978694D02*
X451204507Y-284645360D01*
X450775936Y-283978694D02*
X450775936Y-284502503D01*
X450823555Y-284597741D01*
X450918793Y-284645360D01*
X451061650Y-284645360D01*
X451156888Y-284597741D01*
X451204507Y-284550122D01*
X451537840Y-283978694D02*
X451918793Y-283978694D01*
X451680698Y-284645360D02*
X451680698Y-283788218D01*
X451728317Y-283692980D01*
X451823555Y-283645360D01*
X451918793Y-283645360D01*
X393975460Y-272850360D02*
X394070698Y-272850360D01*
X394165936Y-272897980D01*
X394213555Y-272945599D01*
X394261174Y-273040837D01*
X394308793Y-273231313D01*
X394308793Y-273469408D01*
X394261174Y-273659884D01*
X394213555Y-273755122D01*
X394165936Y-273802741D01*
X394070698Y-273850360D01*
X393975460Y-273850360D01*
X393880221Y-273802741D01*
X393832602Y-273755122D01*
X393784983Y-273659884D01*
X393737364Y-273469408D01*
X393737364Y-273231313D01*
X393784983Y-273040837D01*
X393832602Y-272945599D01*
X393880221Y-272897980D01*
X393975460Y-272850360D01*
X394737364Y-273755122D02*
X394784983Y-273802741D01*
X394737364Y-273850360D01*
X394689745Y-273802741D01*
X394737364Y-273755122D01*
X394737364Y-273850360D01*
X395737364Y-273850360D02*
X395165936Y-273850360D01*
X395451650Y-273850360D02*
X395451650Y-272850360D01*
X395356412Y-272993218D01*
X395261174Y-273088456D01*
X395165936Y-273136075D01*
X396594507Y-273183694D02*
X396594507Y-273850360D01*
X396165936Y-273183694D02*
X396165936Y-273707503D01*
X396213555Y-273802741D01*
X396308793Y-273850360D01*
X396451650Y-273850360D01*
X396546888Y-273802741D01*
X396594507Y-273755122D01*
X396927840Y-273183694D02*
X397308793Y-273183694D01*
X397070698Y-273850360D02*
X397070698Y-272993218D01*
X397118317Y-272897980D01*
X397213555Y-272850360D01*
X397308793Y-272850360D01*
X393975460Y-298250360D02*
X394070698Y-298250360D01*
X394165936Y-298297980D01*
X394213555Y-298345599D01*
X394261174Y-298440837D01*
X394308793Y-298631313D01*
X394308793Y-298869408D01*
X394261174Y-299059884D01*
X394213555Y-299155122D01*
X394165936Y-299202741D01*
X394070698Y-299250360D01*
X393975460Y-299250360D01*
X393880221Y-299202741D01*
X393832602Y-299155122D01*
X393784983Y-299059884D01*
X393737364Y-298869408D01*
X393737364Y-298631313D01*
X393784983Y-298440837D01*
X393832602Y-298345599D01*
X393880221Y-298297980D01*
X393975460Y-298250360D01*
X394737364Y-299155122D02*
X394784983Y-299202741D01*
X394737364Y-299250360D01*
X394689745Y-299202741D01*
X394737364Y-299155122D01*
X394737364Y-299250360D01*
X395737364Y-299250360D02*
X395165936Y-299250360D01*
X395451650Y-299250360D02*
X395451650Y-298250360D01*
X395356412Y-298393218D01*
X395261174Y-298488456D01*
X395165936Y-298536075D01*
X396594507Y-298583694D02*
X396594507Y-299250360D01*
X396165936Y-298583694D02*
X396165936Y-299107503D01*
X396213555Y-299202741D01*
X396308793Y-299250360D01*
X396451650Y-299250360D01*
X396546888Y-299202741D01*
X396594507Y-299155122D01*
X396927840Y-298583694D02*
X397308793Y-298583694D01*
X397070698Y-299250360D02*
X397070698Y-298393218D01*
X397118317Y-298297980D01*
X397213555Y-298250360D01*
X397308793Y-298250360D01*
%TO.C,atmega164*%
X391975460Y-286550360D02*
X391975460Y-286026551D01*
X391927840Y-285931313D01*
X391832602Y-285883694D01*
X391642126Y-285883694D01*
X391546888Y-285931313D01*
X391975460Y-286502741D02*
X391880221Y-286550360D01*
X391642126Y-286550360D01*
X391546888Y-286502741D01*
X391499269Y-286407503D01*
X391499269Y-286312265D01*
X391546888Y-286217027D01*
X391642126Y-286169408D01*
X391880221Y-286169408D01*
X391975460Y-286121789D01*
X392308793Y-285883694D02*
X392689745Y-285883694D01*
X392451650Y-285550360D02*
X392451650Y-286407503D01*
X392499269Y-286502741D01*
X392594507Y-286550360D01*
X392689745Y-286550360D01*
X393023079Y-286550360D02*
X393023079Y-285883694D01*
X393023079Y-285978932D02*
X393070698Y-285931313D01*
X393165936Y-285883694D01*
X393308793Y-285883694D01*
X393404031Y-285931313D01*
X393451650Y-286026551D01*
X393451650Y-286550360D01*
X393451650Y-286026551D02*
X393499269Y-285931313D01*
X393594507Y-285883694D01*
X393737364Y-285883694D01*
X393832602Y-285931313D01*
X393880221Y-286026551D01*
X393880221Y-286550360D01*
X394737364Y-286502741D02*
X394642126Y-286550360D01*
X394451650Y-286550360D01*
X394356412Y-286502741D01*
X394308793Y-286407503D01*
X394308793Y-286026551D01*
X394356412Y-285931313D01*
X394451650Y-285883694D01*
X394642126Y-285883694D01*
X394737364Y-285931313D01*
X394784983Y-286026551D01*
X394784983Y-286121789D01*
X394308793Y-286217027D01*
X395642126Y-285883694D02*
X395642126Y-286693218D01*
X395594507Y-286788456D01*
X395546888Y-286836075D01*
X395451650Y-286883694D01*
X395308793Y-286883694D01*
X395213555Y-286836075D01*
X395642126Y-286502741D02*
X395546888Y-286550360D01*
X395356412Y-286550360D01*
X395261174Y-286502741D01*
X395213555Y-286455122D01*
X395165936Y-286359884D01*
X395165936Y-286074170D01*
X395213555Y-285978932D01*
X395261174Y-285931313D01*
X395356412Y-285883694D01*
X395546888Y-285883694D01*
X395642126Y-285931313D01*
X396546888Y-286550360D02*
X396546888Y-286026551D01*
X396499269Y-285931313D01*
X396404031Y-285883694D01*
X396213555Y-285883694D01*
X396118317Y-285931313D01*
X396546888Y-286502741D02*
X396451650Y-286550360D01*
X396213555Y-286550360D01*
X396118317Y-286502741D01*
X396070698Y-286407503D01*
X396070698Y-286312265D01*
X396118317Y-286217027D01*
X396213555Y-286169408D01*
X396451650Y-286169408D01*
X396546888Y-286121789D01*
X397546888Y-286550360D02*
X396975460Y-286550360D01*
X397261174Y-286550360D02*
X397261174Y-285550360D01*
X397165936Y-285693218D01*
X397070698Y-285788456D01*
X396975460Y-285836075D01*
X398404031Y-285550360D02*
X398213555Y-285550360D01*
X398118317Y-285597980D01*
X398070698Y-285645599D01*
X397975460Y-285788456D01*
X397927840Y-285978932D01*
X397927840Y-286359884D01*
X397975460Y-286455122D01*
X398023079Y-286502741D01*
X398118317Y-286550360D01*
X398308793Y-286550360D01*
X398404031Y-286502741D01*
X398451650Y-286455122D01*
X398499269Y-286359884D01*
X398499269Y-286121789D01*
X398451650Y-286026551D01*
X398404031Y-285978932D01*
X398308793Y-285931313D01*
X398118317Y-285931313D01*
X398023079Y-285978932D01*
X397975460Y-286026551D01*
X397927840Y-286121789D01*
X399356412Y-285883694D02*
X399356412Y-286550360D01*
X399118317Y-285502741D02*
X398880221Y-286217027D01*
X399499269Y-286217027D01*
%TO.C,BC547B*%
D12*
X443685460Y-276317980D02*
X443718793Y-276217980D01*
X443752126Y-276184646D01*
X443818793Y-276151313D01*
X443918793Y-276151313D01*
X443985460Y-276184646D01*
X444018793Y-276217980D01*
X444052126Y-276284646D01*
X444052126Y-276551313D01*
X443352126Y-276551313D01*
X443352126Y-276317980D01*
X443385460Y-276251313D01*
X443418793Y-276217980D01*
X443485460Y-276184646D01*
X443552126Y-276184646D01*
X443618793Y-276217980D01*
X443652126Y-276251313D01*
X443685460Y-276317980D01*
X443685460Y-276551313D01*
X443985460Y-275451313D02*
X444018793Y-275484646D01*
X444052126Y-275584646D01*
X444052126Y-275651313D01*
X444018793Y-275751313D01*
X443952126Y-275817980D01*
X443885460Y-275851313D01*
X443752126Y-275884646D01*
X443652126Y-275884646D01*
X443518793Y-275851313D01*
X443452126Y-275817980D01*
X443385460Y-275751313D01*
X443352126Y-275651313D01*
X443352126Y-275584646D01*
X443385460Y-275484646D01*
X443418793Y-275451313D01*
X443352126Y-274817980D02*
X443352126Y-275151313D01*
X443685460Y-275184646D01*
X443652126Y-275151313D01*
X443618793Y-275084646D01*
X443618793Y-274917980D01*
X443652126Y-274851313D01*
X443685460Y-274817980D01*
X443752126Y-274784646D01*
X443918793Y-274784646D01*
X443985460Y-274817980D01*
X444018793Y-274851313D01*
X444052126Y-274917980D01*
X444052126Y-275084646D01*
X444018793Y-275151313D01*
X443985460Y-275184646D01*
X443585460Y-274184646D02*
X444052126Y-274184646D01*
X443318793Y-274351313D02*
X443818793Y-274517980D01*
X443818793Y-274084646D01*
X443352126Y-273884646D02*
X443352126Y-273417980D01*
X444052126Y-273717980D01*
X443685460Y-272917980D02*
X443718793Y-272817980D01*
X443752126Y-272784646D01*
X443818793Y-272751313D01*
X443918793Y-272751313D01*
X443985460Y-272784646D01*
X444018793Y-272817980D01*
X444052126Y-272884646D01*
X444052126Y-273151313D01*
X443352126Y-273151313D01*
X443352126Y-272917980D01*
X443385460Y-272851313D01*
X443418793Y-272817980D01*
X443485460Y-272784646D01*
X443552126Y-272784646D01*
X443618793Y-272817980D01*
X443652126Y-272851313D01*
X443685460Y-272917980D01*
X443685460Y-273151313D01*
X451305460Y-281397980D02*
X451338793Y-281297980D01*
X451372126Y-281264646D01*
X451438793Y-281231313D01*
X451538793Y-281231313D01*
X451605460Y-281264646D01*
X451638793Y-281297980D01*
X451672126Y-281364646D01*
X451672126Y-281631313D01*
X450972126Y-281631313D01*
X450972126Y-281397980D01*
X451005460Y-281331313D01*
X451038793Y-281297980D01*
X451105460Y-281264646D01*
X451172126Y-281264646D01*
X451238793Y-281297980D01*
X451272126Y-281331313D01*
X451305460Y-281397980D01*
X451305460Y-281631313D01*
X451605460Y-280531313D02*
X451638793Y-280564646D01*
X451672126Y-280664646D01*
X451672126Y-280731313D01*
X451638793Y-280831313D01*
X451572126Y-280897980D01*
X451505460Y-280931313D01*
X451372126Y-280964646D01*
X451272126Y-280964646D01*
X451138793Y-280931313D01*
X451072126Y-280897980D01*
X451005460Y-280831313D01*
X450972126Y-280731313D01*
X450972126Y-280664646D01*
X451005460Y-280564646D01*
X451038793Y-280531313D01*
X450972126Y-279897980D02*
X450972126Y-280231313D01*
X451305460Y-280264646D01*
X451272126Y-280231313D01*
X451238793Y-280164646D01*
X451238793Y-279997980D01*
X451272126Y-279931313D01*
X451305460Y-279897980D01*
X451372126Y-279864646D01*
X451538793Y-279864646D01*
X451605460Y-279897980D01*
X451638793Y-279931313D01*
X451672126Y-279997980D01*
X451672126Y-280164646D01*
X451638793Y-280231313D01*
X451605460Y-280264646D01*
X451205460Y-279264646D02*
X451672126Y-279264646D01*
X450938793Y-279431313D02*
X451438793Y-279597980D01*
X451438793Y-279164646D01*
X450972126Y-278964646D02*
X450972126Y-278497980D01*
X451672126Y-278797980D01*
X451305460Y-277997980D02*
X451338793Y-277897980D01*
X451372126Y-277864646D01*
X451438793Y-277831313D01*
X451538793Y-277831313D01*
X451605460Y-277864646D01*
X451638793Y-277897980D01*
X451672126Y-277964646D01*
X451672126Y-278231313D01*
X450972126Y-278231313D01*
X450972126Y-277997980D01*
X451005460Y-277931313D01*
X451038793Y-277897980D01*
X451105460Y-277864646D01*
X451172126Y-277864646D01*
X451238793Y-277897980D01*
X451272126Y-277931313D01*
X451305460Y-277997980D01*
X451305460Y-278231313D01*
X451305460Y-292827980D02*
X451338793Y-292727980D01*
X451372126Y-292694646D01*
X451438793Y-292661313D01*
X451538793Y-292661313D01*
X451605460Y-292694646D01*
X451638793Y-292727980D01*
X451672126Y-292794646D01*
X451672126Y-293061313D01*
X450972126Y-293061313D01*
X450972126Y-292827980D01*
X451005460Y-292761313D01*
X451038793Y-292727980D01*
X451105460Y-292694646D01*
X451172126Y-292694646D01*
X451238793Y-292727980D01*
X451272126Y-292761313D01*
X451305460Y-292827980D01*
X451305460Y-293061313D01*
X451605460Y-291961313D02*
X451638793Y-291994646D01*
X451672126Y-292094646D01*
X451672126Y-292161313D01*
X451638793Y-292261313D01*
X451572126Y-292327980D01*
X451505460Y-292361313D01*
X451372126Y-292394646D01*
X451272126Y-292394646D01*
X451138793Y-292361313D01*
X451072126Y-292327980D01*
X451005460Y-292261313D01*
X450972126Y-292161313D01*
X450972126Y-292094646D01*
X451005460Y-291994646D01*
X451038793Y-291961313D01*
X450972126Y-291327980D02*
X450972126Y-291661313D01*
X451305460Y-291694646D01*
X451272126Y-291661313D01*
X451238793Y-291594646D01*
X451238793Y-291427980D01*
X451272126Y-291361313D01*
X451305460Y-291327980D01*
X451372126Y-291294646D01*
X451538793Y-291294646D01*
X451605460Y-291327980D01*
X451638793Y-291361313D01*
X451672126Y-291427980D01*
X451672126Y-291594646D01*
X451638793Y-291661313D01*
X451605460Y-291694646D01*
X451205460Y-290694646D02*
X451672126Y-290694646D01*
X450938793Y-290861313D02*
X451438793Y-291027980D01*
X451438793Y-290594646D01*
X450972126Y-290394646D02*
X450972126Y-289927980D01*
X451672126Y-290227980D01*
X451305460Y-289427980D02*
X451338793Y-289327980D01*
X451372126Y-289294646D01*
X451438793Y-289261313D01*
X451538793Y-289261313D01*
X451605460Y-289294646D01*
X451638793Y-289327980D01*
X451672126Y-289394646D01*
X451672126Y-289661313D01*
X450972126Y-289661313D01*
X450972126Y-289427980D01*
X451005460Y-289361313D01*
X451038793Y-289327980D01*
X451105460Y-289294646D01*
X451172126Y-289294646D01*
X451238793Y-289327980D01*
X451272126Y-289361313D01*
X451305460Y-289427980D01*
X451305460Y-289661313D01*
X443685460Y-287747980D02*
X443718793Y-287647980D01*
X443752126Y-287614646D01*
X443818793Y-287581313D01*
X443918793Y-287581313D01*
X443985460Y-287614646D01*
X444018793Y-287647980D01*
X444052126Y-287714646D01*
X444052126Y-287981313D01*
X443352126Y-287981313D01*
X443352126Y-287747980D01*
X443385460Y-287681313D01*
X443418793Y-287647980D01*
X443485460Y-287614646D01*
X443552126Y-287614646D01*
X443618793Y-287647980D01*
X443652126Y-287681313D01*
X443685460Y-287747980D01*
X443685460Y-287981313D01*
X443985460Y-286881313D02*
X444018793Y-286914646D01*
X444052126Y-287014646D01*
X444052126Y-287081313D01*
X444018793Y-287181313D01*
X443952126Y-287247980D01*
X443885460Y-287281313D01*
X443752126Y-287314646D01*
X443652126Y-287314646D01*
X443518793Y-287281313D01*
X443452126Y-287247980D01*
X443385460Y-287181313D01*
X443352126Y-287081313D01*
X443352126Y-287014646D01*
X443385460Y-286914646D01*
X443418793Y-286881313D01*
X443352126Y-286247980D02*
X443352126Y-286581313D01*
X443685460Y-286614646D01*
X443652126Y-286581313D01*
X443618793Y-286514646D01*
X443618793Y-286347980D01*
X443652126Y-286281313D01*
X443685460Y-286247980D01*
X443752126Y-286214646D01*
X443918793Y-286214646D01*
X443985460Y-286247980D01*
X444018793Y-286281313D01*
X444052126Y-286347980D01*
X444052126Y-286514646D01*
X444018793Y-286581313D01*
X443985460Y-286614646D01*
X443585460Y-285614646D02*
X444052126Y-285614646D01*
X443318793Y-285781313D02*
X443818793Y-285947980D01*
X443818793Y-285514646D01*
X443352126Y-285314646D02*
X443352126Y-284847980D01*
X444052126Y-285147980D01*
X443685460Y-284347980D02*
X443718793Y-284247980D01*
X443752126Y-284214646D01*
X443818793Y-284181313D01*
X443918793Y-284181313D01*
X443985460Y-284214646D01*
X444018793Y-284247980D01*
X444052126Y-284314646D01*
X444052126Y-284581313D01*
X443352126Y-284581313D01*
X443352126Y-284347980D01*
X443385460Y-284281313D01*
X443418793Y-284247980D01*
X443485460Y-284214646D01*
X443552126Y-284214646D01*
X443618793Y-284247980D01*
X443652126Y-284281313D01*
X443685460Y-284347980D01*
X443685460Y-284581313D01*
%TO.C,100k\u03A9*%
D10*
X428757602Y-276372580D02*
X428186174Y-276372580D01*
X428471888Y-276372580D02*
X428471888Y-275372580D01*
X428376650Y-275515438D01*
X428281412Y-275610676D01*
X428186174Y-275658295D01*
X429376650Y-275372580D02*
X429471888Y-275372580D01*
X429567126Y-275420200D01*
X429614745Y-275467819D01*
X429662364Y-275563057D01*
X429709983Y-275753533D01*
X429709983Y-275991628D01*
X429662364Y-276182104D01*
X429614745Y-276277342D01*
X429567126Y-276324961D01*
X429471888Y-276372580D01*
X429376650Y-276372580D01*
X429281412Y-276324961D01*
X429233793Y-276277342D01*
X429186174Y-276182104D01*
X429138555Y-275991628D01*
X429138555Y-275753533D01*
X429186174Y-275563057D01*
X429233793Y-275467819D01*
X429281412Y-275420200D01*
X429376650Y-275372580D01*
X430329031Y-275372580D02*
X430424269Y-275372580D01*
X430519507Y-275420200D01*
X430567126Y-275467819D01*
X430614745Y-275563057D01*
X430662364Y-275753533D01*
X430662364Y-275991628D01*
X430614745Y-276182104D01*
X430567126Y-276277342D01*
X430519507Y-276324961D01*
X430424269Y-276372580D01*
X430329031Y-276372580D01*
X430233793Y-276324961D01*
X430186174Y-276277342D01*
X430138555Y-276182104D01*
X430090936Y-275991628D01*
X430090936Y-275753533D01*
X430138555Y-275563057D01*
X430186174Y-275467819D01*
X430233793Y-275420200D01*
X430329031Y-275372580D01*
X431090936Y-276372580D02*
X431090936Y-275372580D01*
X431186174Y-275991628D02*
X431471888Y-276372580D01*
X431471888Y-275705914D02*
X431090936Y-276086866D01*
X431852840Y-276372580D02*
X432090936Y-276372580D01*
X432090936Y-276182104D01*
X431995698Y-276134485D01*
X431900460Y-276039247D01*
X431852840Y-275896390D01*
X431852840Y-275658295D01*
X431900460Y-275515438D01*
X431995698Y-275420200D01*
X432138555Y-275372580D01*
X432329031Y-275372580D01*
X432471888Y-275420200D01*
X432567126Y-275515438D01*
X432614745Y-275658295D01*
X432614745Y-275896390D01*
X432567126Y-276039247D01*
X432471888Y-276134485D01*
X432376650Y-276182104D01*
X432376650Y-276372580D01*
X432614745Y-276372580D01*
%TO.C,0.1uf*%
X438425460Y-267770360D02*
X438520698Y-267770360D01*
X438615936Y-267817980D01*
X438663555Y-267865599D01*
X438711174Y-267960837D01*
X438758793Y-268151313D01*
X438758793Y-268389408D01*
X438711174Y-268579884D01*
X438663555Y-268675122D01*
X438615936Y-268722741D01*
X438520698Y-268770360D01*
X438425460Y-268770360D01*
X438330221Y-268722741D01*
X438282602Y-268675122D01*
X438234983Y-268579884D01*
X438187364Y-268389408D01*
X438187364Y-268151313D01*
X438234983Y-267960837D01*
X438282602Y-267865599D01*
X438330221Y-267817980D01*
X438425460Y-267770360D01*
X439187364Y-268675122D02*
X439234983Y-268722741D01*
X439187364Y-268770360D01*
X439139745Y-268722741D01*
X439187364Y-268675122D01*
X439187364Y-268770360D01*
X440187364Y-268770360D02*
X439615936Y-268770360D01*
X439901650Y-268770360D02*
X439901650Y-267770360D01*
X439806412Y-267913218D01*
X439711174Y-268008456D01*
X439615936Y-268056075D01*
X441044507Y-268103694D02*
X441044507Y-268770360D01*
X440615936Y-268103694D02*
X440615936Y-268627503D01*
X440663555Y-268722741D01*
X440758793Y-268770360D01*
X440901650Y-268770360D01*
X440996888Y-268722741D01*
X441044507Y-268675122D01*
X441377840Y-268103694D02*
X441758793Y-268103694D01*
X441520698Y-268770360D02*
X441520698Y-267913218D01*
X441568317Y-267817980D01*
X441663555Y-267770360D01*
X441758793Y-267770360D01*
X438425460Y-279200360D02*
X438520698Y-279200360D01*
X438615936Y-279247980D01*
X438663555Y-279295599D01*
X438711174Y-279390837D01*
X438758793Y-279581313D01*
X438758793Y-279819408D01*
X438711174Y-280009884D01*
X438663555Y-280105122D01*
X438615936Y-280152741D01*
X438520698Y-280200360D01*
X438425460Y-280200360D01*
X438330221Y-280152741D01*
X438282602Y-280105122D01*
X438234983Y-280009884D01*
X438187364Y-279819408D01*
X438187364Y-279581313D01*
X438234983Y-279390837D01*
X438282602Y-279295599D01*
X438330221Y-279247980D01*
X438425460Y-279200360D01*
X439187364Y-280105122D02*
X439234983Y-280152741D01*
X439187364Y-280200360D01*
X439139745Y-280152741D01*
X439187364Y-280105122D01*
X439187364Y-280200360D01*
X440187364Y-280200360D02*
X439615936Y-280200360D01*
X439901650Y-280200360D02*
X439901650Y-279200360D01*
X439806412Y-279343218D01*
X439711174Y-279438456D01*
X439615936Y-279486075D01*
X441044507Y-279533694D02*
X441044507Y-280200360D01*
X440615936Y-279533694D02*
X440615936Y-280057503D01*
X440663555Y-280152741D01*
X440758793Y-280200360D01*
X440901650Y-280200360D01*
X440996888Y-280152741D01*
X441044507Y-280105122D01*
X441377840Y-279533694D02*
X441758793Y-279533694D01*
X441520698Y-280200360D02*
X441520698Y-279343218D01*
X441568317Y-279247980D01*
X441663555Y-279200360D01*
X441758793Y-279200360D01*
X448585460Y-272215360D02*
X448680698Y-272215360D01*
X448775936Y-272262980D01*
X448823555Y-272310599D01*
X448871174Y-272405837D01*
X448918793Y-272596313D01*
X448918793Y-272834408D01*
X448871174Y-273024884D01*
X448823555Y-273120122D01*
X448775936Y-273167741D01*
X448680698Y-273215360D01*
X448585460Y-273215360D01*
X448490221Y-273167741D01*
X448442602Y-273120122D01*
X448394983Y-273024884D01*
X448347364Y-272834408D01*
X448347364Y-272596313D01*
X448394983Y-272405837D01*
X448442602Y-272310599D01*
X448490221Y-272262980D01*
X448585460Y-272215360D01*
X449347364Y-273120122D02*
X449394983Y-273167741D01*
X449347364Y-273215360D01*
X449299745Y-273167741D01*
X449347364Y-273120122D01*
X449347364Y-273215360D01*
X450347364Y-273215360D02*
X449775936Y-273215360D01*
X450061650Y-273215360D02*
X450061650Y-272215360D01*
X449966412Y-272358218D01*
X449871174Y-272453456D01*
X449775936Y-272501075D01*
X451204507Y-272548694D02*
X451204507Y-273215360D01*
X450775936Y-272548694D02*
X450775936Y-273072503D01*
X450823555Y-273167741D01*
X450918793Y-273215360D01*
X451061650Y-273215360D01*
X451156888Y-273167741D01*
X451204507Y-273120122D01*
X451537840Y-272548694D02*
X451918793Y-272548694D01*
X451680698Y-273215360D02*
X451680698Y-272358218D01*
X451728317Y-272262980D01*
X451823555Y-272215360D01*
X451918793Y-272215360D01*
%TD*%
M02*
