%TF.GenerationSoftware,KiCad,Pcbnew,(5.1.10)-1*%
%TF.CreationDate,2022-06-26T20:44:53-06:00*%
%TF.ProjectId,network_card,6e657477-6f72-46b5-9f63-6172642e6b69,rev?*%
%TF.SameCoordinates,Original*%
%TF.FileFunction,Soldermask,Top*%
%TF.FilePolarity,Negative*%
%FSLAX46Y46*%
G04 Gerber Fmt 4.6, Leading zero omitted, Abs format (unit mm)*
G04 Created by KiCad (PCBNEW (5.1.10)-1) date 2022-06-26 20:44:53*
%MOMM*%
%LPD*%
G01*
G04 APERTURE LIST*
%ADD10C,0.200000*%
%ADD11C,0.450000*%
%ADD12C,0.250000*%
%ADD13C,1.800000*%
%ADD14R,1.800000X1.800000*%
%ADD15O,1.600000X1.600000*%
%ADD16C,1.600000*%
%ADD17R,1.700000X1.700000*%
%ADD18O,1.700000X1.700000*%
%ADD19C,1.500000*%
%ADD20R,1.600000X1.600000*%
%ADD21C,3.650000*%
%ADD22R,1.500000X1.500000*%
%ADD23C,1.300000*%
%ADD24C,0.100000*%
G04 APERTURE END LIST*
D10*
X352793095Y-267152380D02*
X352793095Y-266152380D01*
X353031190Y-266152380D01*
X353174047Y-266200000D01*
X353269285Y-266295238D01*
X353316904Y-266390476D01*
X353364523Y-266580952D01*
X353364523Y-266723809D01*
X353316904Y-266914285D01*
X353269285Y-267009523D01*
X353174047Y-267104761D01*
X353031190Y-267152380D01*
X352793095Y-267152380D01*
X354221666Y-266485714D02*
X354221666Y-267152380D01*
X353793095Y-266485714D02*
X353793095Y-267009523D01*
X353840714Y-267104761D01*
X353935952Y-267152380D01*
X354078809Y-267152380D01*
X354174047Y-267104761D01*
X354221666Y-267057142D01*
X355126428Y-267152380D02*
X355126428Y-266628571D01*
X355078809Y-266533333D01*
X354983571Y-266485714D01*
X354793095Y-266485714D01*
X354697857Y-266533333D01*
X355126428Y-267104761D02*
X355031190Y-267152380D01*
X354793095Y-267152380D01*
X354697857Y-267104761D01*
X354650238Y-267009523D01*
X354650238Y-266914285D01*
X354697857Y-266819047D01*
X354793095Y-266771428D01*
X355031190Y-266771428D01*
X355126428Y-266723809D01*
X355745476Y-267152380D02*
X355650238Y-267104761D01*
X355602619Y-267009523D01*
X355602619Y-266152380D01*
X356888333Y-266152380D02*
X356888333Y-266961904D01*
X356935952Y-267057142D01*
X356983571Y-267104761D01*
X357078809Y-267152380D01*
X357269285Y-267152380D01*
X357364523Y-267104761D01*
X357412142Y-267057142D01*
X357459761Y-266961904D01*
X357459761Y-266152380D01*
X358364523Y-267152380D02*
X358364523Y-266628571D01*
X358316904Y-266533333D01*
X358221666Y-266485714D01*
X358031190Y-266485714D01*
X357935952Y-266533333D01*
X358364523Y-267104761D02*
X358269285Y-267152380D01*
X358031190Y-267152380D01*
X357935952Y-267104761D01*
X357888333Y-267009523D01*
X357888333Y-266914285D01*
X357935952Y-266819047D01*
X358031190Y-266771428D01*
X358269285Y-266771428D01*
X358364523Y-266723809D01*
X358840714Y-267152380D02*
X358840714Y-266485714D01*
X358840714Y-266676190D02*
X358888333Y-266580952D01*
X358935952Y-266533333D01*
X359031190Y-266485714D01*
X359126428Y-266485714D01*
X359316904Y-266485714D02*
X359697857Y-266485714D01*
X359459761Y-266152380D02*
X359459761Y-267009523D01*
X359507380Y-267104761D01*
X359602619Y-267152380D01*
X359697857Y-267152380D01*
X361364523Y-267057142D02*
X361316904Y-267104761D01*
X361174047Y-267152380D01*
X361078809Y-267152380D01*
X360935952Y-267104761D01*
X360840714Y-267009523D01*
X360793095Y-266914285D01*
X360745476Y-266723809D01*
X360745476Y-266580952D01*
X360793095Y-266390476D01*
X360840714Y-266295238D01*
X360935952Y-266200000D01*
X361078809Y-266152380D01*
X361174047Y-266152380D01*
X361316904Y-266200000D01*
X361364523Y-266247619D01*
X361935952Y-267152380D02*
X361840714Y-267104761D01*
X361793095Y-267009523D01*
X361793095Y-266152380D01*
X362316904Y-267152380D02*
X362316904Y-266485714D01*
X362316904Y-266152380D02*
X362269285Y-266200000D01*
X362316904Y-266247619D01*
X362364523Y-266200000D01*
X362316904Y-266152380D01*
X362316904Y-266247619D01*
X363174047Y-267104761D02*
X363078809Y-267152380D01*
X362888333Y-267152380D01*
X362793095Y-267104761D01*
X362745476Y-267009523D01*
X362745476Y-266628571D01*
X362793095Y-266533333D01*
X362888333Y-266485714D01*
X363078809Y-266485714D01*
X363174047Y-266533333D01*
X363221666Y-266628571D01*
X363221666Y-266723809D01*
X362745476Y-266819047D01*
X363650238Y-266485714D02*
X363650238Y-267152380D01*
X363650238Y-266580952D02*
X363697857Y-266533333D01*
X363793095Y-266485714D01*
X363935952Y-266485714D01*
X364031190Y-266533333D01*
X364078809Y-266628571D01*
X364078809Y-267152380D01*
X364412142Y-266485714D02*
X364793095Y-266485714D01*
X364555000Y-266152380D02*
X364555000Y-267009523D01*
X364602619Y-267104761D01*
X364697857Y-267152380D01*
X364793095Y-267152380D01*
D11*
X351288690Y-265064761D02*
X351288690Y-263064761D01*
X352431547Y-265064761D01*
X352431547Y-263064761D01*
X354145833Y-264969523D02*
X353955357Y-265064761D01*
X353574404Y-265064761D01*
X353383928Y-264969523D01*
X353288690Y-264779047D01*
X353288690Y-264017142D01*
X353383928Y-263826666D01*
X353574404Y-263731428D01*
X353955357Y-263731428D01*
X354145833Y-263826666D01*
X354241071Y-264017142D01*
X354241071Y-264207619D01*
X353288690Y-264398095D01*
X354812500Y-263731428D02*
X355574404Y-263731428D01*
X355098214Y-263064761D02*
X355098214Y-264779047D01*
X355193452Y-264969523D01*
X355383928Y-265064761D01*
X355574404Y-265064761D01*
X356050595Y-263731428D02*
X356431547Y-265064761D01*
X356812500Y-264112380D01*
X357193452Y-265064761D01*
X357574404Y-263731428D01*
X358622023Y-265064761D02*
X358431547Y-264969523D01*
X358336309Y-264874285D01*
X358241071Y-264683809D01*
X358241071Y-264112380D01*
X358336309Y-263921904D01*
X358431547Y-263826666D01*
X358622023Y-263731428D01*
X358907738Y-263731428D01*
X359098214Y-263826666D01*
X359193452Y-263921904D01*
X359288690Y-264112380D01*
X359288690Y-264683809D01*
X359193452Y-264874285D01*
X359098214Y-264969523D01*
X358907738Y-265064761D01*
X358622023Y-265064761D01*
X360145833Y-265064761D02*
X360145833Y-263731428D01*
X360145833Y-264112380D02*
X360241071Y-263921904D01*
X360336309Y-263826666D01*
X360526785Y-263731428D01*
X360717261Y-263731428D01*
X361383928Y-265064761D02*
X361383928Y-263064761D01*
X361574404Y-264302857D02*
X362145833Y-265064761D01*
X362145833Y-263731428D02*
X361383928Y-264493333D01*
X365669642Y-264874285D02*
X365574404Y-264969523D01*
X365288690Y-265064761D01*
X365098214Y-265064761D01*
X364812500Y-264969523D01*
X364622023Y-264779047D01*
X364526785Y-264588571D01*
X364431547Y-264207619D01*
X364431547Y-263921904D01*
X364526785Y-263540952D01*
X364622023Y-263350476D01*
X364812500Y-263160000D01*
X365098214Y-263064761D01*
X365288690Y-263064761D01*
X365574404Y-263160000D01*
X365669642Y-263255238D01*
X366812500Y-265064761D02*
X366622023Y-264969523D01*
X366526785Y-264874285D01*
X366431547Y-264683809D01*
X366431547Y-264112380D01*
X366526785Y-263921904D01*
X366622023Y-263826666D01*
X366812500Y-263731428D01*
X367098214Y-263731428D01*
X367288690Y-263826666D01*
X367383928Y-263921904D01*
X367479166Y-264112380D01*
X367479166Y-264683809D01*
X367383928Y-264874285D01*
X367288690Y-264969523D01*
X367098214Y-265064761D01*
X366812500Y-265064761D01*
X368336309Y-263731428D02*
X368336309Y-265064761D01*
X368336309Y-263921904D02*
X368431547Y-263826666D01*
X368622023Y-263731428D01*
X368907738Y-263731428D01*
X369098214Y-263826666D01*
X369193452Y-264017142D01*
X369193452Y-265064761D01*
X369860119Y-263731428D02*
X370622023Y-263731428D01*
X370145833Y-263064761D02*
X370145833Y-264779047D01*
X370241071Y-264969523D01*
X370431547Y-265064761D01*
X370622023Y-265064761D01*
X371288690Y-265064761D02*
X371288690Y-263731428D01*
X371288690Y-264112380D02*
X371383928Y-263921904D01*
X371479166Y-263826666D01*
X371669642Y-263731428D01*
X371860119Y-263731428D01*
X372812500Y-265064761D02*
X372622023Y-264969523D01*
X372526785Y-264874285D01*
X372431547Y-264683809D01*
X372431547Y-264112380D01*
X372526785Y-263921904D01*
X372622023Y-263826666D01*
X372812500Y-263731428D01*
X373098214Y-263731428D01*
X373288690Y-263826666D01*
X373383928Y-263921904D01*
X373479166Y-264112380D01*
X373479166Y-264683809D01*
X373383928Y-264874285D01*
X373288690Y-264969523D01*
X373098214Y-265064761D01*
X372812500Y-265064761D01*
X374622023Y-265064761D02*
X374431547Y-264969523D01*
X374336309Y-264779047D01*
X374336309Y-263064761D01*
X375669642Y-265064761D02*
X375479166Y-264969523D01*
X375383928Y-264779047D01*
X375383928Y-263064761D01*
X377193452Y-264969523D02*
X377002976Y-265064761D01*
X376622023Y-265064761D01*
X376431547Y-264969523D01*
X376336309Y-264779047D01*
X376336309Y-264017142D01*
X376431547Y-263826666D01*
X376622023Y-263731428D01*
X377002976Y-263731428D01*
X377193452Y-263826666D01*
X377288690Y-264017142D01*
X377288690Y-264207619D01*
X376336309Y-264398095D01*
X378145833Y-265064761D02*
X378145833Y-263731428D01*
X378145833Y-264112380D02*
X378241071Y-263921904D01*
X378336309Y-263826666D01*
X378526785Y-263731428D01*
X378717261Y-263731428D01*
D10*
X353364523Y-309697380D02*
X353031190Y-309221190D01*
X352793095Y-309697380D02*
X352793095Y-308697380D01*
X353174047Y-308697380D01*
X353269285Y-308745000D01*
X353316904Y-308792619D01*
X353364523Y-308887857D01*
X353364523Y-309030714D01*
X353316904Y-309125952D01*
X353269285Y-309173571D01*
X353174047Y-309221190D01*
X352793095Y-309221190D01*
X354174047Y-309649761D02*
X354078809Y-309697380D01*
X353888333Y-309697380D01*
X353793095Y-309649761D01*
X353745476Y-309554523D01*
X353745476Y-309173571D01*
X353793095Y-309078333D01*
X353888333Y-309030714D01*
X354078809Y-309030714D01*
X354174047Y-309078333D01*
X354221666Y-309173571D01*
X354221666Y-309268809D01*
X353745476Y-309364047D01*
X354555000Y-309030714D02*
X354793095Y-309697380D01*
X355031190Y-309030714D01*
X355935952Y-309697380D02*
X355364523Y-309697380D01*
X355650238Y-309697380D02*
X355650238Y-308697380D01*
X355555000Y-308840238D01*
X355459761Y-308935476D01*
X355364523Y-308983095D01*
%TO.C,TX*%
D12*
X471932142Y-273498571D02*
X472789285Y-273498571D01*
X472360714Y-274998571D02*
X472360714Y-273498571D01*
X473146428Y-273498571D02*
X474146428Y-274998571D01*
X474146428Y-273498571D02*
X473146428Y-274998571D01*
%TO.C,RX*%
X472825000Y-269588371D02*
X472325000Y-268874085D01*
X471967857Y-269588371D02*
X471967857Y-268088371D01*
X472539285Y-268088371D01*
X472682142Y-268159800D01*
X472753571Y-268231228D01*
X472825000Y-268374085D01*
X472825000Y-268588371D01*
X472753571Y-268731228D01*
X472682142Y-268802657D01*
X472539285Y-268874085D01*
X471967857Y-268874085D01*
X473325000Y-268088371D02*
X474325000Y-269588371D01*
X474325000Y-268088371D02*
X473325000Y-269588371D01*
%TO.C,RJ45*%
X470139745Y-294396551D02*
X469639745Y-293682265D01*
X469282602Y-294396551D02*
X469282602Y-292896551D01*
X469854031Y-292896551D01*
X469996888Y-292967980D01*
X470068317Y-293039408D01*
X470139745Y-293182265D01*
X470139745Y-293396551D01*
X470068317Y-293539408D01*
X469996888Y-293610837D01*
X469854031Y-293682265D01*
X469282602Y-293682265D01*
X471211174Y-292896551D02*
X471211174Y-293967980D01*
X471139745Y-294182265D01*
X470996888Y-294325122D01*
X470782602Y-294396551D01*
X470639745Y-294396551D01*
X472568317Y-293396551D02*
X472568317Y-294396551D01*
X472211174Y-292825122D02*
X471854031Y-293896551D01*
X472782602Y-293896551D01*
X474068317Y-292896551D02*
X473354031Y-292896551D01*
X473282602Y-293610837D01*
X473354031Y-293539408D01*
X473496888Y-293467980D01*
X473854031Y-293467980D01*
X473996888Y-293539408D01*
X474068317Y-293610837D01*
X474139745Y-293753694D01*
X474139745Y-294110837D01*
X474068317Y-294253694D01*
X473996888Y-294325122D01*
X473854031Y-294396551D01*
X473496888Y-294396551D01*
X473354031Y-294325122D01*
X473282602Y-294253694D01*
%TD*%
D13*
%TO.C,TX*%
X468475060Y-272770600D03*
D14*
X468475060Y-270230600D03*
%TD*%
D15*
%TO.C,4.7k\u03A9*%
X448815460Y-267157200D03*
D16*
X458975460Y-267157200D03*
%TD*%
D17*
%TO.C,ISP*%
X359280460Y-270857980D03*
D18*
X361820460Y-270857980D03*
X359280460Y-273397980D03*
X361820460Y-273397980D03*
X359280460Y-275937980D03*
X361820460Y-275937980D03*
%TD*%
D16*
%TO.C,4.7k\u03A9*%
X458975460Y-269892780D03*
D15*
X448815460Y-269892780D03*
%TD*%
D16*
%TO.C,20pf*%
X362455460Y-284232980D03*
X362455460Y-286732980D03*
%TD*%
D19*
%TO.C, *%
X358010460Y-291632980D03*
X358010460Y-286732980D03*
%TD*%
D16*
%TO.C,20pf*%
X362455460Y-294135180D03*
X362455460Y-291635180D03*
%TD*%
%TO.C,0.1uf*%
X448815460Y-286097980D03*
X451315460Y-286097980D03*
%TD*%
%TO.C,0.1uf*%
X394205460Y-275302980D03*
X396705460Y-275302980D03*
%TD*%
%TO.C,0.1uf*%
X394205460Y-296892980D03*
X396705460Y-296892980D03*
%TD*%
D13*
%TO.C,RX*%
X468475060Y-267403580D03*
D14*
X468475060Y-264863580D03*
%TD*%
D18*
%TO.C,20pin conn.*%
X418299900Y-312326020D03*
X418299900Y-309786020D03*
X420839900Y-312326020D03*
X420839900Y-309786020D03*
X423379900Y-312326020D03*
X423379900Y-309786020D03*
X425919900Y-312326020D03*
X425919900Y-309786020D03*
X428459900Y-312326020D03*
X428459900Y-309786020D03*
D17*
X430999900Y-312326020D03*
X430999900Y-309786020D03*
D18*
X433539900Y-312326020D03*
X433539900Y-309786020D03*
X436079900Y-312326020D03*
X436079900Y-309786020D03*
X438619900Y-312326020D03*
X438619900Y-309786020D03*
X441159900Y-312326020D03*
X441159900Y-309786020D03*
X443699900Y-312326020D03*
X443699900Y-309786020D03*
X446239900Y-312326020D03*
X446239900Y-309786020D03*
X448779900Y-312326020D03*
X448779900Y-309786020D03*
X451319900Y-312326020D03*
X451319900Y-309786020D03*
D17*
X453859900Y-312326020D03*
X453859900Y-309786020D03*
D18*
X456399900Y-312326020D03*
X456399900Y-309786020D03*
X458939900Y-312326020D03*
X458939900Y-309786020D03*
X461479900Y-312326020D03*
X461479900Y-309786020D03*
X464019900Y-312326020D03*
X464019900Y-309786020D03*
D17*
X466559900Y-312326020D03*
X466559900Y-309786020D03*
%TD*%
D20*
%TO.C,atmega164*%
X419605460Y-278477980D03*
D15*
X371345460Y-293717980D03*
X417065460Y-278477980D03*
X373885460Y-293717980D03*
X414525460Y-278477980D03*
X376425460Y-293717980D03*
X411985460Y-278477980D03*
X378965460Y-293717980D03*
X409445460Y-278477980D03*
X381505460Y-293717980D03*
X406905460Y-278477980D03*
X384045460Y-293717980D03*
X404365460Y-278477980D03*
X386585460Y-293717980D03*
X401825460Y-278477980D03*
X389125460Y-293717980D03*
X399285460Y-278477980D03*
X391665460Y-293717980D03*
X396745460Y-278477980D03*
X394205460Y-293717980D03*
X394205460Y-278477980D03*
X396745460Y-293717980D03*
X391665460Y-278477980D03*
X399285460Y-293717980D03*
X389125460Y-278477980D03*
X401825460Y-293717980D03*
X386585460Y-278477980D03*
X404365460Y-293717980D03*
X384045460Y-278477980D03*
X406905460Y-293717980D03*
X381505460Y-278477980D03*
X409445460Y-293717980D03*
X378965460Y-278477980D03*
X411985460Y-293717980D03*
X376425460Y-278477980D03*
X414525460Y-293717980D03*
X373885460Y-278477980D03*
X417065460Y-293717980D03*
X371345460Y-278477980D03*
X419605460Y-293717980D03*
%TD*%
D21*
%TO.C,RJ45*%
X468627460Y-277766780D03*
X468627460Y-289196780D03*
D22*
X462277460Y-287926780D03*
D19*
X459737460Y-286656780D03*
X462277460Y-285386780D03*
X459737460Y-284116780D03*
X462277460Y-282846780D03*
X459737460Y-281576780D03*
X462277460Y-280306780D03*
X459737460Y-279036780D03*
%TD*%
D23*
%TO.C,BC547B*%
X439925460Y-274667980D03*
X441195460Y-273397980D03*
D24*
G36*
X442114699Y-275937980D02*
G01*
X441195460Y-276857219D01*
X440276221Y-275937980D01*
X441195460Y-275018741D01*
X442114699Y-275937980D01*
G37*
%TD*%
%TO.C,BC547B*%
G36*
X449734699Y-281017980D02*
G01*
X448815460Y-281937219D01*
X447896221Y-281017980D01*
X448815460Y-280098741D01*
X449734699Y-281017980D01*
G37*
D23*
X448815460Y-278477980D03*
X447545460Y-279747980D03*
%TD*%
D24*
%TO.C,BC547B*%
G36*
X449734699Y-292447980D02*
G01*
X448815460Y-293367219D01*
X447896221Y-292447980D01*
X448815460Y-291528741D01*
X449734699Y-292447980D01*
G37*
D23*
X448815460Y-289907980D03*
X447545460Y-291177980D03*
%TD*%
%TO.C,BC547B*%
X439925460Y-286097980D03*
X441195460Y-284827980D03*
D24*
G36*
X442114699Y-287367980D02*
G01*
X441195460Y-288287219D01*
X440276221Y-287367980D01*
X441195460Y-286448741D01*
X442114699Y-287367980D01*
G37*
%TD*%
D15*
%TO.C,100k\u03A9*%
X425320460Y-275937980D03*
D16*
X435480460Y-275937980D03*
%TD*%
D15*
%TO.C,100k\u03A9*%
X425320460Y-287367980D03*
D16*
X435480460Y-287367980D03*
%TD*%
%TO.C,0.1uf*%
X438655460Y-270222980D03*
X441155460Y-270222980D03*
%TD*%
%TO.C,0.1uf*%
X441155460Y-281652980D03*
X438655460Y-281652980D03*
%TD*%
%TO.C,0.1uf*%
X451315460Y-274667980D03*
X448815460Y-274667980D03*
%TD*%
M02*
