%TF.GenerationSoftware,KiCad,Pcbnew,(5.1.10)-1*%
%TF.CreationDate,2022-06-26T20:44:53-06:00*%
%TF.ProjectId,network_card,6e657477-6f72-46b5-9f63-6172642e6b69,rev?*%
%TF.SameCoordinates,Original*%
%TF.FileFunction,Copper,L1,Top*%
%TF.FilePolarity,Positive*%
%FSLAX46Y46*%
G04 Gerber Fmt 4.6, Leading zero omitted, Abs format (unit mm)*
G04 Created by KiCad (PCBNEW (5.1.10)-1) date 2022-06-26 20:44:53*
%MOMM*%
%LPD*%
G01*
G04 APERTURE LIST*
%TA.AperFunction,ComponentPad*%
%ADD10C,1.800000*%
%TD*%
%TA.AperFunction,ComponentPad*%
%ADD11R,1.800000X1.800000*%
%TD*%
%TA.AperFunction,ComponentPad*%
%ADD12O,1.600000X1.600000*%
%TD*%
%TA.AperFunction,ComponentPad*%
%ADD13C,1.600000*%
%TD*%
%TA.AperFunction,ComponentPad*%
%ADD14R,1.700000X1.700000*%
%TD*%
%TA.AperFunction,ComponentPad*%
%ADD15O,1.700000X1.700000*%
%TD*%
%TA.AperFunction,ComponentPad*%
%ADD16C,1.500000*%
%TD*%
%TA.AperFunction,ComponentPad*%
%ADD17R,1.600000X1.600000*%
%TD*%
%TA.AperFunction,WasherPad*%
%ADD18C,3.650000*%
%TD*%
%TA.AperFunction,ComponentPad*%
%ADD19R,1.500000X1.500000*%
%TD*%
%TA.AperFunction,ComponentPad*%
%ADD20C,1.300000*%
%TD*%
%TA.AperFunction,ComponentPad*%
%ADD21C,0.100000*%
%TD*%
%TA.AperFunction,Conductor*%
%ADD22C,0.250000*%
%TD*%
%TA.AperFunction,Conductor*%
%ADD23C,1.600000*%
%TD*%
%TA.AperFunction,Conductor*%
%ADD24C,2.500000*%
%TD*%
%TA.AperFunction,Conductor*%
%ADD25C,1.000000*%
%TD*%
G04 APERTURE END LIST*
D10*
%TO.P,TX,2*%
%TO.N,N/C*%
X468475060Y-272770600D03*
D11*
%TO.P,TX,1*%
X468475060Y-270230600D03*
%TD*%
D12*
%TO.P,4.7k\u03A9,2*%
%TO.N,N/C*%
X448815460Y-267157200D03*
D13*
%TO.P,4.7k\u03A9,1*%
X458975460Y-267157200D03*
%TD*%
D14*
%TO.P,ISP,1*%
%TO.N,N/C*%
X359280460Y-270857980D03*
D15*
%TO.P,ISP,2*%
X361820460Y-270857980D03*
%TO.P,ISP,3*%
X359280460Y-273397980D03*
%TO.P,ISP,4*%
X361820460Y-273397980D03*
%TO.P,ISP,5*%
X359280460Y-275937980D03*
%TO.P,ISP,6*%
X361820460Y-275937980D03*
%TD*%
D13*
%TO.P,4.7k\u03A9,1*%
%TO.N,N/C*%
X458975460Y-269892780D03*
D12*
%TO.P,4.7k\u03A9,2*%
X448815460Y-269892780D03*
%TD*%
D13*
%TO.P,20pf,2*%
%TO.N,N/C*%
X362455460Y-284232980D03*
%TO.P,20pf,1*%
X362455460Y-286732980D03*
%TD*%
D16*
%TO.P, ,2*%
%TO.N,N/C*%
X358010460Y-291632980D03*
%TO.P, ,1*%
X358010460Y-286732980D03*
%TD*%
D13*
%TO.P,20pf,1*%
%TO.N,N/C*%
X362455460Y-294135180D03*
%TO.P,20pf,2*%
X362455460Y-291635180D03*
%TD*%
%TO.P,0.1uf,1*%
%TO.N,N/C*%
X448815460Y-286097980D03*
%TO.P,0.1uf,2*%
X451315460Y-286097980D03*
%TD*%
%TO.P,0.1uf,1*%
%TO.N,N/C*%
X394205460Y-275302980D03*
%TO.P,0.1uf,2*%
X396705460Y-275302980D03*
%TD*%
%TO.P,0.1uf,1*%
%TO.N,N/C*%
X394205460Y-296892980D03*
%TO.P,0.1uf,2*%
X396705460Y-296892980D03*
%TD*%
D10*
%TO.P,RX,2*%
%TO.N,N/C*%
X468475060Y-267403580D03*
D11*
%TO.P,RX,1*%
X468475060Y-264863580D03*
%TD*%
D15*
%TO.P,20pin conn.,40*%
%TO.N,N/C*%
X418299900Y-312326020D03*
%TO.P,20pin conn.,39*%
X418299900Y-309786020D03*
%TO.P,20pin conn.,38*%
X420839900Y-312326020D03*
%TO.P,20pin conn.,37*%
X420839900Y-309786020D03*
%TO.P,20pin conn.,36*%
X423379900Y-312326020D03*
%TO.P,20pin conn.,35*%
X423379900Y-309786020D03*
%TO.P,20pin conn.,34*%
X425919900Y-312326020D03*
%TO.P,20pin conn.,33*%
X425919900Y-309786020D03*
%TO.P,20pin conn.,32*%
X428459900Y-312326020D03*
%TO.P,20pin conn.,31*%
X428459900Y-309786020D03*
D14*
%TO.P,20pin conn.,30*%
X430999900Y-312326020D03*
%TO.P,20pin conn.,29*%
X430999900Y-309786020D03*
D15*
%TO.P,20pin conn.,28*%
X433539900Y-312326020D03*
%TO.P,20pin conn.,27*%
X433539900Y-309786020D03*
%TO.P,20pin conn.,26*%
X436079900Y-312326020D03*
%TO.P,20pin conn.,25*%
X436079900Y-309786020D03*
%TO.P,20pin conn.,24*%
X438619900Y-312326020D03*
%TO.P,20pin conn.,23*%
X438619900Y-309786020D03*
%TO.P,20pin conn.,22*%
X441159900Y-312326020D03*
%TO.P,20pin conn.,21*%
X441159900Y-309786020D03*
%TO.P,20pin conn.,20*%
X443699900Y-312326020D03*
%TO.P,20pin conn.,19*%
X443699900Y-309786020D03*
%TO.P,20pin conn.,18*%
X446239900Y-312326020D03*
%TO.P,20pin conn.,17*%
X446239900Y-309786020D03*
%TO.P,20pin conn.,16*%
X448779900Y-312326020D03*
%TO.P,20pin conn.,15*%
X448779900Y-309786020D03*
%TO.P,20pin conn.,14*%
X451319900Y-312326020D03*
%TO.P,20pin conn.,13*%
X451319900Y-309786020D03*
D14*
%TO.P,20pin conn.,12*%
X453859900Y-312326020D03*
%TO.P,20pin conn.,11*%
X453859900Y-309786020D03*
D15*
%TO.P,20pin conn.,10*%
X456399900Y-312326020D03*
%TO.P,20pin conn.,9*%
X456399900Y-309786020D03*
%TO.P,20pin conn.,8*%
X458939900Y-312326020D03*
%TO.P,20pin conn.,7*%
X458939900Y-309786020D03*
%TO.P,20pin conn.,6*%
X461479900Y-312326020D03*
%TO.P,20pin conn.,5*%
X461479900Y-309786020D03*
%TO.P,20pin conn.,4*%
X464019900Y-312326020D03*
%TO.P,20pin conn.,3*%
X464019900Y-309786020D03*
D14*
%TO.P,20pin conn.,2*%
X466559900Y-312326020D03*
%TO.P,20pin conn.,1*%
X466559900Y-309786020D03*
%TD*%
D17*
%TO.P,atmega164,1*%
%TO.N,N/C*%
X419605460Y-278477980D03*
D12*
%TO.P,atmega164,21*%
X371345460Y-293717980D03*
%TO.P,atmega164,2*%
X417065460Y-278477980D03*
%TO.P,atmega164,22*%
X373885460Y-293717980D03*
%TO.P,atmega164,3*%
X414525460Y-278477980D03*
%TO.P,atmega164,23*%
X376425460Y-293717980D03*
%TO.P,atmega164,4*%
X411985460Y-278477980D03*
%TO.P,atmega164,24*%
X378965460Y-293717980D03*
%TO.P,atmega164,5*%
X409445460Y-278477980D03*
%TO.P,atmega164,25*%
X381505460Y-293717980D03*
%TO.P,atmega164,6*%
X406905460Y-278477980D03*
%TO.P,atmega164,26*%
X384045460Y-293717980D03*
%TO.P,atmega164,7*%
X404365460Y-278477980D03*
%TO.P,atmega164,27*%
X386585460Y-293717980D03*
%TO.P,atmega164,8*%
X401825460Y-278477980D03*
%TO.P,atmega164,28*%
X389125460Y-293717980D03*
%TO.P,atmega164,9*%
X399285460Y-278477980D03*
%TO.P,atmega164,29*%
X391665460Y-293717980D03*
%TO.P,atmega164,10*%
X396745460Y-278477980D03*
%TO.P,atmega164,30*%
X394205460Y-293717980D03*
%TO.P,atmega164,11*%
X394205460Y-278477980D03*
%TO.P,atmega164,31*%
X396745460Y-293717980D03*
%TO.P,atmega164,12*%
X391665460Y-278477980D03*
%TO.P,atmega164,32*%
X399285460Y-293717980D03*
%TO.P,atmega164,13*%
X389125460Y-278477980D03*
%TO.P,atmega164,33*%
X401825460Y-293717980D03*
%TO.P,atmega164,14*%
X386585460Y-278477980D03*
%TO.P,atmega164,34*%
X404365460Y-293717980D03*
%TO.P,atmega164,15*%
X384045460Y-278477980D03*
%TO.P,atmega164,35*%
X406905460Y-293717980D03*
%TO.P,atmega164,16*%
X381505460Y-278477980D03*
%TO.P,atmega164,36*%
X409445460Y-293717980D03*
%TO.P,atmega164,17*%
X378965460Y-278477980D03*
%TO.P,atmega164,37*%
X411985460Y-293717980D03*
%TO.P,atmega164,18*%
X376425460Y-278477980D03*
%TO.P,atmega164,38*%
X414525460Y-293717980D03*
%TO.P,atmega164,19*%
X373885460Y-278477980D03*
%TO.P,atmega164,39*%
X417065460Y-293717980D03*
%TO.P,atmega164,20*%
X371345460Y-278477980D03*
%TO.P,atmega164,40*%
X419605460Y-293717980D03*
%TD*%
D18*
%TO.P,RJ45,*%
%TO.N,*%
X468627460Y-277766780D03*
X468627460Y-289196780D03*
D19*
%TO.P,RJ45,1*%
%TO.N,N/C*%
X462277460Y-287926780D03*
D16*
%TO.P,RJ45,2*%
X459737460Y-286656780D03*
%TO.P,RJ45,3*%
X462277460Y-285386780D03*
%TO.P,RJ45,4*%
X459737460Y-284116780D03*
%TO.P,RJ45,5*%
X462277460Y-282846780D03*
%TO.P,RJ45,6*%
X459737460Y-281576780D03*
%TO.P,RJ45,7*%
X462277460Y-280306780D03*
%TO.P,RJ45,8*%
X459737460Y-279036780D03*
%TD*%
D20*
%TO.P,BC547B,2*%
%TO.N,N/C*%
X439925460Y-274667980D03*
%TO.P,BC547B,3*%
X441195460Y-273397980D03*
%TA.AperFunction,ComponentPad*%
D21*
%TO.P,BC547B,1*%
G36*
X442114699Y-275937980D02*
G01*
X441195460Y-276857219D01*
X440276221Y-275937980D01*
X441195460Y-275018741D01*
X442114699Y-275937980D01*
G37*
%TD.AperFunction*%
%TD*%
%TA.AperFunction,ComponentPad*%
%TO.P,BC547B,1*%
%TO.N,N/C*%
G36*
X449734699Y-281017980D02*
G01*
X448815460Y-281937219D01*
X447896221Y-281017980D01*
X448815460Y-280098741D01*
X449734699Y-281017980D01*
G37*
%TD.AperFunction*%
D20*
%TO.P,BC547B,3*%
X448815460Y-278477980D03*
%TO.P,BC547B,2*%
X447545460Y-279747980D03*
%TD*%
%TA.AperFunction,ComponentPad*%
D21*
%TO.P,BC547B,1*%
%TO.N,N/C*%
G36*
X449734699Y-292447980D02*
G01*
X448815460Y-293367219D01*
X447896221Y-292447980D01*
X448815460Y-291528741D01*
X449734699Y-292447980D01*
G37*
%TD.AperFunction*%
D20*
%TO.P,BC547B,3*%
X448815460Y-289907980D03*
%TO.P,BC547B,2*%
X447545460Y-291177980D03*
%TD*%
%TO.P,BC547B,2*%
%TO.N,N/C*%
X439925460Y-286097980D03*
%TO.P,BC547B,3*%
X441195460Y-284827980D03*
%TA.AperFunction,ComponentPad*%
D21*
%TO.P,BC547B,1*%
G36*
X442114699Y-287367980D02*
G01*
X441195460Y-288287219D01*
X440276221Y-287367980D01*
X441195460Y-286448741D01*
X442114699Y-287367980D01*
G37*
%TD.AperFunction*%
%TD*%
D12*
%TO.P,100k\u03A9,2*%
%TO.N,N/C*%
X425320460Y-275937980D03*
D13*
%TO.P,100k\u03A9,1*%
X435480460Y-275937980D03*
%TD*%
D12*
%TO.P,100k\u03A9,2*%
%TO.N,N/C*%
X425320460Y-287367980D03*
D13*
%TO.P,100k\u03A9,1*%
X435480460Y-287367980D03*
%TD*%
%TO.P,0.1uf,1*%
%TO.N,N/C*%
X438655460Y-270222980D03*
%TO.P,0.1uf,2*%
X441155460Y-270222980D03*
%TD*%
%TO.P,0.1uf,2*%
%TO.N,N/C*%
X441155460Y-281652980D03*
%TO.P,0.1uf,1*%
X438655460Y-281652980D03*
%TD*%
%TO.P,0.1uf,2*%
%TO.N,N/C*%
X451315460Y-274667980D03*
%TO.P,0.1uf,1*%
X448815460Y-274667980D03*
%TD*%
D22*
%TO.N,*%
X409445460Y-301337980D02*
X401825460Y-293717980D01*
X450720460Y-300067980D02*
X413255460Y-300067980D01*
X456399900Y-308287420D02*
X449450460Y-301337980D01*
X458939900Y-308287420D02*
X450720460Y-300067980D01*
X456399900Y-309786020D02*
X456399900Y-308287420D01*
X404365460Y-293717980D02*
X411350460Y-300702980D01*
X411350460Y-300702980D02*
X450085460Y-300702980D01*
X457705460Y-308322980D02*
X457705460Y-311020460D01*
X457705460Y-311020460D02*
X456399900Y-312326020D01*
X458939900Y-309786020D02*
X458939900Y-308287420D01*
X449450460Y-301337980D02*
X409445460Y-301337980D01*
X460245460Y-311020460D02*
X460245460Y-308322980D01*
X451355460Y-299432980D02*
X415160460Y-299432980D01*
X460245460Y-308322980D02*
X451355460Y-299432980D01*
X458939900Y-312326020D02*
X460245460Y-311020460D01*
X450085460Y-300702980D02*
X457705460Y-308322980D01*
X413255460Y-300067980D02*
X406905460Y-293717980D01*
X415160460Y-299432980D02*
X409445460Y-293717980D01*
X461479900Y-309786020D02*
X461479900Y-308287420D01*
X461479900Y-308287420D02*
X451990460Y-298797980D01*
X451990460Y-298797980D02*
X417065460Y-298797980D01*
X417065460Y-298797980D02*
X411985460Y-293717980D01*
X461479900Y-312326020D02*
X462785460Y-311020460D01*
X462785460Y-311020460D02*
X462785460Y-308322980D01*
X462785460Y-308322980D02*
X452625460Y-298162980D01*
X452625460Y-298162980D02*
X418970460Y-298162980D01*
X418970460Y-298162980D02*
X414525460Y-293717980D01*
X464019900Y-309786020D02*
X464019900Y-308287420D01*
X464019900Y-308287420D02*
X453260460Y-297527980D01*
X453260460Y-297527980D02*
X420875460Y-297527980D01*
X420875460Y-297527980D02*
X417065460Y-293717980D01*
X464019900Y-312326020D02*
X465325460Y-311020460D01*
X465325460Y-311020460D02*
X465325460Y-308322980D01*
X465325460Y-308322980D02*
X453895460Y-296892980D01*
X453895460Y-296892980D02*
X422780460Y-296892980D01*
X422780460Y-296892980D02*
X419605460Y-293717980D01*
D23*
X432618490Y-314986010D02*
X465003490Y-314986010D01*
D22*
X446239900Y-312326020D02*
X447545460Y-311020460D01*
X447545460Y-311020460D02*
X447545460Y-308322980D01*
X447545460Y-308322980D02*
X443735460Y-304512980D01*
X443735460Y-304512980D02*
X388490460Y-304512980D01*
X388490460Y-304512980D02*
X384045460Y-300067980D01*
X384045460Y-300067980D02*
X384045460Y-293717980D01*
X425919900Y-309786020D02*
X424456860Y-308322980D01*
X424456860Y-308322980D02*
X377060460Y-308322980D01*
X377060460Y-308322980D02*
X368805460Y-300067980D01*
X368805460Y-300067980D02*
X368805460Y-281017980D01*
X368805460Y-281017980D02*
X365630460Y-277842980D01*
X365630460Y-277842980D02*
X360550460Y-277842980D01*
X360550460Y-277842980D02*
X359280460Y-276572980D01*
X359280460Y-276572980D02*
X359280460Y-275937980D01*
X428459900Y-309786020D02*
X426361860Y-307687980D01*
X426361860Y-307687980D02*
X378330460Y-307687980D01*
X378330460Y-307687980D02*
X370075460Y-299432980D01*
X370075460Y-299432980D02*
X370075460Y-286097980D01*
X370075460Y-286097980D02*
X371345460Y-284827980D01*
X371345460Y-284827980D02*
X371345460Y-278477980D01*
X428459900Y-312326020D02*
X429765460Y-311020460D01*
X429765460Y-311020460D02*
X429765460Y-308957980D01*
X429765460Y-308957980D02*
X427860460Y-307052980D01*
X427860460Y-307052980D02*
X379600460Y-307052980D01*
X379600460Y-307052980D02*
X371345460Y-298797980D01*
X371345460Y-298797980D02*
X371345460Y-293717980D01*
D23*
X409886249Y-309906010D02*
X411663490Y-309906010D01*
X411663490Y-309906010D02*
X416743490Y-314986010D01*
X416743490Y-314986010D02*
X416752430Y-314986010D01*
X364360460Y-303877980D02*
X370388490Y-309906010D01*
X370388490Y-309906010D02*
X371667430Y-309906010D01*
X368170460Y-308957980D02*
X368170460Y-309592980D01*
X368170460Y-309592980D02*
X367857430Y-309906010D01*
X366900460Y-307687980D02*
X366900460Y-309584040D01*
X366900460Y-309584040D02*
X366578490Y-309906010D01*
X365630460Y-306417980D02*
X365630460Y-309584040D01*
X365630460Y-309584040D02*
X365308490Y-309906010D01*
X364360460Y-305147980D02*
X364360460Y-309584040D01*
X364360460Y-309584040D02*
X364038490Y-309906010D01*
X363090460Y-303877980D02*
X363090460Y-309584040D01*
X363090460Y-309584040D02*
X362768490Y-309906010D01*
X361820460Y-302607980D02*
X361820460Y-309592980D01*
X361820460Y-309592980D02*
X361507430Y-309906010D01*
X360550460Y-301337980D02*
X360550460Y-309584040D01*
X360550460Y-309584040D02*
X360228490Y-309906010D01*
X359280460Y-300067980D02*
X359280460Y-309584040D01*
X359280460Y-309584040D02*
X358958490Y-309906010D01*
X358010460Y-298797980D02*
X358010460Y-309592980D01*
X358010460Y-309592980D02*
X357697430Y-309906010D01*
X356740460Y-297527980D02*
X356740460Y-308949040D01*
X356740460Y-308949040D02*
X357697430Y-309906010D01*
X355470460Y-296257980D02*
X355470460Y-309584040D01*
X355470460Y-309584040D02*
X355148490Y-309906010D01*
X354200460Y-293717980D02*
X354200460Y-308949040D01*
X354200460Y-308949040D02*
X353243490Y-309906010D01*
X353243490Y-309906010D02*
X352930460Y-309592980D01*
X352930460Y-309592980D02*
X352930460Y-263237980D01*
X351660460Y-263237980D02*
X351660460Y-309592980D01*
X351660460Y-309592980D02*
X351973490Y-309906010D01*
X350270470Y-309906010D02*
X350270470Y-263357970D01*
X350270470Y-263357970D02*
X350390460Y-263237980D01*
X416752430Y-314986010D02*
X414966248Y-314986010D01*
X414966248Y-314986010D02*
X409886249Y-309906010D01*
X409886249Y-309906010D02*
X350270470Y-309906010D01*
D24*
X378460000Y-268317980D02*
X382270000Y-264507980D01*
X384045460Y-264507980D02*
X464690460Y-264507980D01*
X357375460Y-264507980D02*
X382140460Y-264507980D01*
X356105460Y-265777980D02*
X380870460Y-265777980D01*
X353565460Y-271492980D02*
X358645460Y-266412980D01*
D25*
X448815460Y-274667980D02*
X448815460Y-278477980D01*
X448815460Y-286097980D02*
X448815460Y-289907980D01*
D24*
X355787960Y-264190480D02*
X354200460Y-265777980D01*
D23*
X354200460Y-263872980D02*
X354200460Y-265777980D01*
X354200460Y-265777980D02*
X354200460Y-268317980D01*
X354200460Y-268317980D02*
X354200460Y-281652980D01*
X466559900Y-312326020D02*
X466559900Y-313429600D01*
X466559900Y-313429600D02*
X465003490Y-314986010D01*
X466595460Y-296186860D02*
X466559900Y-296222420D01*
X466559900Y-312326020D02*
X466559900Y-312732420D01*
X466559900Y-312732420D02*
X467865460Y-314037980D01*
X466559900Y-309786020D02*
X466559900Y-312326020D01*
D24*
X363090460Y-296257980D02*
X363725460Y-295622980D01*
X361820460Y-294987980D02*
X363090460Y-296257980D01*
X359915460Y-294987980D02*
X363725460Y-298797980D01*
X358010460Y-295622980D02*
X363725460Y-301337980D01*
D23*
X356740460Y-296257980D02*
X364360460Y-303877980D01*
X364360460Y-292656580D02*
X364360460Y-303877980D01*
X355192960Y-285820480D02*
X354280460Y-286732980D01*
X356780460Y-284232980D02*
X355192960Y-285820480D01*
X356780460Y-294175180D02*
X354944360Y-292339080D01*
X354944360Y-292339080D02*
X354200460Y-291595180D01*
X355192960Y-285820480D02*
X355192960Y-292090480D01*
X355192960Y-292090480D02*
X354944360Y-292339080D01*
X364360460Y-290542980D02*
X364360460Y-288002980D01*
X362455460Y-294135180D02*
X362881860Y-294135180D01*
X362881860Y-294135180D02*
X364360460Y-292656580D01*
X364360460Y-292656580D02*
X364360460Y-290542980D01*
X364360460Y-290542980D02*
X363090460Y-289272980D01*
X354200460Y-289272980D02*
X363090460Y-289272980D01*
X363090460Y-289272980D02*
X364360460Y-288002980D01*
X364360460Y-288002980D02*
X364360460Y-285462980D01*
X363090460Y-284192980D02*
X362495460Y-284192980D01*
X364360460Y-285462980D02*
X363090460Y-284192980D01*
X362495460Y-284192980D02*
X362455460Y-284232980D01*
X354200460Y-289272980D02*
X354200460Y-293717980D01*
X354200460Y-286732980D02*
X354200460Y-289272980D01*
X356918260Y-294175180D02*
X355470460Y-294175180D01*
X354200460Y-293717980D02*
X356740460Y-296257980D01*
X362455460Y-294175180D02*
X356918260Y-294175180D01*
X356918260Y-294175180D02*
X356918260Y-296080180D01*
X362455460Y-284232980D02*
X355470460Y-284232980D01*
X356780460Y-284232980D02*
X354200460Y-281652980D01*
X354200460Y-281652980D02*
X354200460Y-286732980D01*
X354280460Y-286732980D02*
X354200460Y-286732980D01*
X432618490Y-314986010D02*
X416752430Y-314986010D01*
X431670460Y-314037980D02*
X432618490Y-314986010D01*
X430999900Y-313367420D02*
X431670460Y-314037980D01*
X430999900Y-313367420D02*
X429381310Y-314986010D01*
X430999900Y-309786020D02*
X430999900Y-313367420D01*
D22*
X396745460Y-293717980D02*
X399285460Y-293717980D01*
D23*
X394205460Y-284827980D02*
X396745460Y-287367980D01*
X396745460Y-287367980D02*
X396745460Y-293717980D01*
D25*
X441155460Y-281652980D02*
X441155460Y-284787980D01*
X441155460Y-284787980D02*
X441195460Y-284827980D01*
X441155460Y-270222980D02*
X441155460Y-273357980D01*
X441155460Y-273357980D02*
X441195460Y-273397980D01*
D23*
X471675460Y-312767980D02*
X471893521Y-312986041D01*
X471675460Y-263237980D02*
X471675460Y-312767980D01*
X472945460Y-311497980D02*
X473163521Y-311716041D01*
X472945460Y-263237980D02*
X472945460Y-311497980D01*
X414525460Y-287367980D02*
X396745460Y-287367980D01*
X425320460Y-275937980D02*
X425320460Y-276572980D01*
D24*
X417065460Y-286097980D02*
X424050460Y-286097980D01*
X424050460Y-279112980D02*
X418970460Y-284192980D01*
X418970460Y-284192980D02*
X422145460Y-284192980D01*
X425320460Y-287367980D02*
X425320460Y-275937980D01*
X423415460Y-284827980D02*
X423415460Y-280382980D01*
X422145460Y-285462980D02*
X422145460Y-281017980D01*
D23*
X432940460Y-294987980D02*
X429130460Y-291177980D01*
X471675460Y-298797980D02*
X459610460Y-298797980D01*
X460880460Y-276572980D02*
X467865460Y-276572980D01*
X466559900Y-306453540D02*
X466559900Y-306382420D01*
X469770460Y-296892980D02*
X457705460Y-296892980D01*
X422145460Y-291177980D02*
X425955460Y-294987980D01*
X466559900Y-306453540D02*
X466559900Y-314866020D01*
X431035460Y-291812980D02*
X438655460Y-291812980D01*
X466595460Y-294352980D02*
X454530460Y-294352980D01*
X418335460Y-287367980D02*
X422145460Y-291177980D01*
X474215460Y-301337980D02*
X462150460Y-301337980D01*
X429130460Y-291177980D02*
X425320460Y-287367980D01*
X429130460Y-291177980D02*
X422145460Y-291177980D01*
X466559900Y-296222420D02*
X466559900Y-306453540D01*
X466595460Y-273397980D02*
X466595460Y-279112980D01*
X438655460Y-290542980D02*
X443100460Y-294987980D01*
X432305460Y-293082980D02*
X439925460Y-293082980D01*
X457705460Y-274032980D02*
X458975460Y-274032980D01*
X455295000Y-273050000D02*
X455295000Y-267970000D01*
X425955460Y-294987980D02*
X432940460Y-294987980D01*
X466595460Y-279112980D02*
X466595460Y-288002980D01*
X458975460Y-274032980D02*
X465960460Y-274032980D01*
X418335460Y-287367980D02*
X425320460Y-287367980D01*
X421510460Y-290542980D02*
X438655460Y-290542980D01*
X455930000Y-266700000D02*
X457835000Y-264795000D01*
X443100460Y-294987980D02*
X432940460Y-294987980D01*
X414525460Y-287367980D02*
X418335460Y-287367980D01*
X456565000Y-271492980D02*
X458470000Y-273397980D01*
X455165460Y-294987980D02*
X451990460Y-294987980D01*
X464690460Y-290542980D02*
X467230460Y-290542980D01*
X394205460Y-278477980D02*
X394205460Y-283557980D01*
X430400460Y-292447980D02*
X423415460Y-292447980D01*
X425320460Y-276572980D02*
X415795460Y-286097980D01*
X463420460Y-291812980D02*
X465960460Y-291812980D01*
X463420460Y-302607980D02*
X465960460Y-302607980D01*
X433575460Y-293717980D02*
X441195460Y-293717980D01*
X394840460Y-284192980D02*
X394205460Y-283557980D01*
X461515460Y-293082980D02*
X466595460Y-288002980D01*
X394205460Y-283557980D02*
X394205460Y-284827980D01*
X415795460Y-286097980D02*
X414525460Y-287367980D01*
X466595460Y-288002980D02*
X466595460Y-296186860D01*
X415795460Y-286097980D02*
X396745460Y-286097980D01*
X472945460Y-300067980D02*
X460880460Y-300067980D01*
X451990460Y-294987980D02*
X453895460Y-293082980D01*
X468500460Y-295622980D02*
X456435460Y-295622980D01*
X464690460Y-303877980D02*
X467230460Y-303877980D01*
X462785460Y-293082980D02*
X465325460Y-293082980D01*
X470405460Y-298162980D02*
X458340460Y-298162980D01*
X451990460Y-294987980D02*
X443100460Y-294987980D01*
X463420460Y-303242980D02*
X455165460Y-294987980D01*
X453895460Y-293082980D02*
X461515460Y-293082980D01*
X396745460Y-286097980D02*
X394840460Y-284192980D01*
X466559900Y-306382420D02*
X463420460Y-303242980D01*
X427225460Y-289272980D02*
X420240460Y-289272980D01*
X431670460Y-293717980D02*
X424685460Y-293717980D01*
X464055460Y-277842980D02*
X471040460Y-277842980D01*
X425955460Y-288002980D02*
X418970460Y-288002980D01*
X462785460Y-276572980D02*
X457705460Y-276572980D01*
X455165460Y-269587980D02*
X448815460Y-263237980D01*
X466595460Y-280382980D02*
X462785460Y-276572980D01*
X457070460Y-275302980D02*
X465960460Y-275302980D01*
X457070460Y-273397980D02*
X457705460Y-274032980D01*
D22*
X378965460Y-277207980D02*
X378965460Y-278477980D01*
X386298440Y-269875000D02*
X378965460Y-277207980D01*
X435132480Y-269875000D02*
X386298440Y-269875000D01*
X439925460Y-274667980D02*
X435132480Y-269875000D01*
X381505460Y-277207980D02*
X381505460Y-278477980D01*
X433227480Y-271145000D02*
X387568440Y-271145000D01*
X443100460Y-281017980D02*
X433227480Y-271145000D01*
X387568440Y-271145000D02*
X381505460Y-277207980D01*
X448815460Y-281017980D02*
X443100460Y-281017980D01*
X436115460Y-279747980D02*
X436115460Y-282287980D01*
X428782480Y-272415000D02*
X436115460Y-279747980D01*
X388838440Y-272415000D02*
X428782480Y-272415000D01*
X436115460Y-282287980D02*
X439925460Y-286097980D01*
X384045460Y-277207980D02*
X388838440Y-272415000D01*
X384045460Y-278477980D02*
X384045460Y-277207980D01*
X445640460Y-292447980D02*
X448815460Y-292447980D01*
X443735460Y-292447980D02*
X445640460Y-292447980D01*
X433575460Y-282287980D02*
X443735460Y-292447980D01*
X433575460Y-279747980D02*
X433575460Y-282287980D01*
X427512480Y-273685000D02*
X433575460Y-279747980D01*
X390108440Y-273685000D02*
X427512480Y-273685000D01*
X386585460Y-277207980D02*
X390108440Y-273685000D01*
X386585460Y-278477980D02*
X386585460Y-277207980D01*
X447715640Y-279577800D02*
X447545460Y-279747980D01*
X450550280Y-279577800D02*
X447715640Y-279577800D01*
X457629260Y-286656780D02*
X450550280Y-279577800D01*
X459737460Y-286656780D02*
X457629260Y-286656780D01*
X447715640Y-291007800D02*
X447545460Y-291177980D01*
X456435460Y-289907980D02*
X455335640Y-291007800D01*
X460296260Y-289907980D02*
X456435460Y-289907980D01*
X455335640Y-291007800D02*
X447715640Y-291007800D01*
X462277460Y-287926780D02*
X460296260Y-289907980D01*
D23*
X452198740Y-271066260D02*
X456326240Y-275193760D01*
X452198740Y-265986260D02*
X452198740Y-271066260D01*
X455800460Y-269587980D02*
X452198740Y-265986260D01*
X457705460Y-276572980D02*
X456326240Y-275193760D01*
X452198740Y-265986260D02*
X449450460Y-263237980D01*
X452755000Y-270510000D02*
X455642980Y-273397980D01*
X452755000Y-269240000D02*
X455642980Y-272127980D01*
X453390000Y-265430000D02*
X456277980Y-268317980D01*
X454025000Y-264795000D02*
X455930000Y-266700000D01*
X456565000Y-271780000D02*
X456565000Y-265430000D01*
X350390460Y-263237980D02*
X466377020Y-263237980D01*
X469135460Y-273050000D02*
X468500460Y-272415000D01*
X468178490Y-314986010D02*
X469135460Y-314029040D01*
X469135460Y-314029040D02*
X469135460Y-273050000D01*
X467865460Y-314672980D02*
X468178490Y-314986010D01*
X467865460Y-273397980D02*
X467865460Y-314672980D01*
X470405460Y-314037980D02*
X470623521Y-314256041D01*
X470405460Y-272920460D02*
X470405460Y-314037980D01*
X471040460Y-272285460D02*
X470405460Y-272920460D01*
X471040460Y-263237980D02*
X471040460Y-272285460D01*
X474215460Y-263237980D02*
X471040460Y-263237980D01*
X474215460Y-310664102D02*
X474215460Y-263237980D01*
X469893552Y-314986010D02*
X474215460Y-310664102D01*
X465003490Y-314986010D02*
X469893552Y-314986010D01*
X471675460Y-270639540D02*
X469265000Y-273050000D01*
X468152480Y-272762980D02*
X468500460Y-272415000D01*
X457070460Y-272762980D02*
X468152480Y-272762980D01*
X456435460Y-272127980D02*
X457070460Y-272762980D01*
X456435460Y-274032980D02*
X456435460Y-272127980D01*
X455800460Y-274667980D02*
X456435460Y-274032980D01*
X456326240Y-275193760D02*
X455800460Y-274667980D01*
D25*
X471797380Y-262938260D02*
X466082380Y-262938260D01*
D23*
X465107020Y-264795000D02*
X466377020Y-263525000D01*
D25*
X466316060Y-264012680D02*
X467342220Y-262986520D01*
D23*
X447040000Y-265430000D02*
X449232020Y-263237980D01*
X379730000Y-265430000D02*
X447040000Y-265430000D01*
D22*
X445152780Y-269892780D02*
X448815460Y-269892780D01*
X443865000Y-268605000D02*
X445152780Y-269892780D01*
X385028440Y-268605000D02*
X443865000Y-268605000D01*
X376425460Y-277207980D02*
X385028440Y-268605000D01*
X376425460Y-278477980D02*
X376425460Y-277207980D01*
X383540000Y-267335000D02*
X448637660Y-267335000D01*
X373885460Y-276989540D02*
X383540000Y-267335000D01*
X448637660Y-267335000D02*
X448815460Y-267157200D01*
X373885460Y-278477980D02*
X373885460Y-276989540D01*
D24*
X355470460Y-268317980D02*
X378460000Y-268317980D01*
X379442980Y-267047980D02*
X379586490Y-267191490D01*
X355470460Y-267047980D02*
X379442980Y-267047980D01*
D25*
X471170000Y-265430000D02*
X469265000Y-267335000D01*
X469265000Y-267403580D02*
X470971880Y-269110460D01*
X468475060Y-267403580D02*
X470684860Y-267403580D01*
D22*
X467926420Y-264863580D02*
X468475060Y-264863580D01*
X465632800Y-267157200D02*
X467926420Y-264863580D01*
X458975460Y-267157200D02*
X465632800Y-267157200D01*
X459331060Y-270230600D02*
X458975460Y-269875000D01*
X468475060Y-270230600D02*
X459331060Y-270230600D01*
X381505460Y-292229540D02*
X381505460Y-293717980D01*
X384531870Y-291465000D02*
X382270000Y-291465000D01*
X385315460Y-292248590D02*
X384531870Y-291465000D01*
X382270000Y-291465000D02*
X381505460Y-292229540D01*
X385315460Y-298797980D02*
X385315460Y-292248590D01*
X390395460Y-303877980D02*
X385315460Y-298797980D01*
X444370460Y-303877980D02*
X390395460Y-303877980D01*
X448779900Y-308287420D02*
X444370460Y-303877980D01*
X448779900Y-309786020D02*
X448779900Y-308287420D01*
X386585460Y-291335460D02*
X386585460Y-293717980D01*
X385445000Y-290195000D02*
X386585460Y-291335460D01*
X380235460Y-291594540D02*
X381635000Y-290195000D01*
X380235460Y-299432980D02*
X380235460Y-291594540D01*
X385950460Y-305147980D02*
X380235460Y-299432980D01*
X381635000Y-290195000D02*
X385445000Y-290195000D01*
X443100460Y-305147980D02*
X385950460Y-305147980D01*
X446239900Y-308287420D02*
X443100460Y-305147980D01*
X446239900Y-309786020D02*
X446239900Y-308287420D01*
X450085460Y-311020460D02*
X448779900Y-312326020D01*
X450085460Y-308322980D02*
X450085460Y-311020460D01*
X392300460Y-303242980D02*
X445005460Y-303242980D01*
X387855460Y-298797980D02*
X392300460Y-303242980D01*
X387855460Y-290700460D02*
X387855460Y-298797980D01*
X445005460Y-303242980D02*
X450085460Y-308322980D01*
X386080000Y-288925000D02*
X387855460Y-290700460D01*
X381000000Y-288925000D02*
X386080000Y-288925000D01*
X378965460Y-290959540D02*
X381000000Y-288925000D01*
X378965460Y-293717980D02*
X378965460Y-290959540D01*
X445005460Y-311020460D02*
X443699900Y-312326020D01*
X445005460Y-308322980D02*
X445005460Y-311020460D01*
X377695460Y-300067980D02*
X383410460Y-305782980D01*
X383410460Y-305782980D02*
X442465460Y-305782980D01*
X377695460Y-290324540D02*
X377695460Y-300067980D01*
X380365000Y-287655000D02*
X377695460Y-290324540D01*
X389125460Y-290065460D02*
X386715000Y-287655000D01*
X442465460Y-305782980D02*
X445005460Y-308322980D01*
X386715000Y-287655000D02*
X380365000Y-287655000D01*
X389125460Y-293717980D02*
X389125460Y-290065460D01*
X376425460Y-289689540D02*
X376425460Y-293717980D01*
X387508750Y-286385000D02*
X379730000Y-286385000D01*
X390395460Y-289271710D02*
X387508750Y-286385000D01*
X390395460Y-298797980D02*
X390395460Y-289271710D01*
X394205460Y-302607980D02*
X390395460Y-298797980D01*
X445640460Y-302607980D02*
X394205460Y-302607980D01*
X451319900Y-308287420D02*
X445640460Y-302607980D01*
X379730000Y-286385000D02*
X376425460Y-289689540D01*
X451319900Y-309786020D02*
X451319900Y-308287420D01*
X391665460Y-288795460D02*
X391665460Y-293717980D01*
X379095000Y-285115000D02*
X387985000Y-285115000D01*
X375155460Y-289054540D02*
X379095000Y-285115000D01*
X375155460Y-300702980D02*
X375155460Y-289054540D01*
X387985000Y-285115000D02*
X391665460Y-288795460D01*
X380870460Y-306417980D02*
X375155460Y-300702980D01*
X443699900Y-308287420D02*
X441830460Y-306417980D01*
X441830460Y-306417980D02*
X380870460Y-306417980D01*
X443699900Y-309786020D02*
X443699900Y-308287420D01*
X373885460Y-288419540D02*
X373885460Y-293717980D01*
X392935460Y-288160460D02*
X388620000Y-283845000D01*
X378460000Y-283845000D02*
X373885460Y-288419540D01*
X392935460Y-299432980D02*
X392935460Y-288160460D01*
X388620000Y-283845000D02*
X378460000Y-283845000D01*
X395475460Y-301972980D02*
X392935460Y-299432980D01*
X446275460Y-301972980D02*
X395475460Y-301972980D01*
X452625460Y-311020460D02*
X452625460Y-308322980D01*
X452625460Y-308322980D02*
X446275460Y-301972980D01*
X451319900Y-312326020D02*
X452625460Y-311020460D01*
X355269800Y-274701000D02*
X354860860Y-275109940D01*
X355269800Y-274701000D02*
X355269800Y-274675600D01*
X355269800Y-274675600D02*
X354736400Y-274142200D01*
X360558080Y-274675600D02*
X354959920Y-274675600D01*
X361820460Y-275937980D02*
X360558080Y-274675600D01*
X443517020Y-287367980D02*
X441195460Y-287367980D01*
X446692020Y-284192980D02*
X443517020Y-287367980D01*
X451990460Y-284192980D02*
X446692020Y-284192980D01*
X456435460Y-288637980D02*
X451990460Y-284192980D01*
X459915260Y-288637980D02*
X456435460Y-288637980D01*
X461007460Y-287545780D02*
X459915260Y-288637980D01*
X461007460Y-286656780D02*
X461007460Y-287545780D01*
X462277460Y-285386780D02*
X461007460Y-286656780D01*
X443834520Y-275937980D02*
X441195460Y-275937980D01*
X447009520Y-272762980D02*
X443834520Y-275937980D01*
X451573900Y-272762980D02*
X447009520Y-272762980D01*
X453260460Y-274449540D02*
X451573900Y-272762980D01*
X453260460Y-277842980D02*
X453260460Y-274449540D01*
X456994260Y-281576780D02*
X453260460Y-277842980D01*
X459737460Y-281576780D02*
X456994260Y-281576780D01*
D25*
X470115900Y-263105900D02*
X471170000Y-264160000D01*
%TD*%
M02*
