%TF.GenerationSoftware,KiCad,Pcbnew,(5.1.10)-1*%
%TF.CreationDate,2022-06-26T20:44:53-06:00*%
%TF.ProjectId,network_card,6e657477-6f72-46b5-9f63-6172642e6b69,rev?*%
%TF.SameCoordinates,Original*%
%TF.FileFunction,Copper,L2,Bot*%
%TF.FilePolarity,Positive*%
%FSLAX46Y46*%
G04 Gerber Fmt 4.6, Leading zero omitted, Abs format (unit mm)*
G04 Created by KiCad (PCBNEW (5.1.10)-1) date 2022-06-26 20:44:53*
%MOMM*%
%LPD*%
G01*
G04 APERTURE LIST*
%TA.AperFunction,ComponentPad*%
%ADD10C,1.800000*%
%TD*%
%TA.AperFunction,ComponentPad*%
%ADD11R,1.800000X1.800000*%
%TD*%
%TA.AperFunction,ComponentPad*%
%ADD12O,1.600000X1.600000*%
%TD*%
%TA.AperFunction,ComponentPad*%
%ADD13C,1.600000*%
%TD*%
%TA.AperFunction,ComponentPad*%
%ADD14R,1.700000X1.700000*%
%TD*%
%TA.AperFunction,ComponentPad*%
%ADD15O,1.700000X1.700000*%
%TD*%
%TA.AperFunction,ComponentPad*%
%ADD16C,1.500000*%
%TD*%
%TA.AperFunction,ComponentPad*%
%ADD17R,1.600000X1.600000*%
%TD*%
%TA.AperFunction,WasherPad*%
%ADD18C,3.650000*%
%TD*%
%TA.AperFunction,ComponentPad*%
%ADD19R,1.500000X1.500000*%
%TD*%
%TA.AperFunction,ComponentPad*%
%ADD20C,1.300000*%
%TD*%
%TA.AperFunction,ComponentPad*%
%ADD21C,0.100000*%
%TD*%
%TA.AperFunction,Conductor*%
%ADD22C,1.600000*%
%TD*%
%TA.AperFunction,Conductor*%
%ADD23C,1.000000*%
%TD*%
%TA.AperFunction,Conductor*%
%ADD24C,2.500000*%
%TD*%
%TA.AperFunction,Conductor*%
%ADD25C,0.250000*%
%TD*%
G04 APERTURE END LIST*
D10*
%TO.P,TX,2*%
%TO.N,N/C*%
X468475060Y-272770600D03*
D11*
%TO.P,TX,1*%
X468475060Y-270230600D03*
%TD*%
D12*
%TO.P,4.7k\u03A9,2*%
%TO.N,N/C*%
X448815460Y-267157200D03*
D13*
%TO.P,4.7k\u03A9,1*%
X458975460Y-267157200D03*
%TD*%
D14*
%TO.P,ISP,1*%
%TO.N,N/C*%
X359280460Y-270857980D03*
D15*
%TO.P,ISP,2*%
X361820460Y-270857980D03*
%TO.P,ISP,3*%
X359280460Y-273397980D03*
%TO.P,ISP,4*%
X361820460Y-273397980D03*
%TO.P,ISP,5*%
X359280460Y-275937980D03*
%TO.P,ISP,6*%
X361820460Y-275937980D03*
%TD*%
D13*
%TO.P,4.7k\u03A9,1*%
%TO.N,N/C*%
X458975460Y-269892780D03*
D12*
%TO.P,4.7k\u03A9,2*%
X448815460Y-269892780D03*
%TD*%
D13*
%TO.P,20pf,2*%
%TO.N,N/C*%
X362455460Y-284232980D03*
%TO.P,20pf,1*%
X362455460Y-286732980D03*
%TD*%
D16*
%TO.P, ,2*%
%TO.N,N/C*%
X358010460Y-291632980D03*
%TO.P, ,1*%
X358010460Y-286732980D03*
%TD*%
D13*
%TO.P,20pf,1*%
%TO.N,N/C*%
X362455460Y-294135180D03*
%TO.P,20pf,2*%
X362455460Y-291635180D03*
%TD*%
%TO.P,0.1uf,1*%
%TO.N,N/C*%
X448815460Y-286097980D03*
%TO.P,0.1uf,2*%
X451315460Y-286097980D03*
%TD*%
%TO.P,0.1uf,1*%
%TO.N,N/C*%
X394205460Y-275302980D03*
%TO.P,0.1uf,2*%
X396705460Y-275302980D03*
%TD*%
%TO.P,0.1uf,1*%
%TO.N,N/C*%
X394205460Y-296892980D03*
%TO.P,0.1uf,2*%
X396705460Y-296892980D03*
%TD*%
D10*
%TO.P,RX,2*%
%TO.N,N/C*%
X468475060Y-267403580D03*
D11*
%TO.P,RX,1*%
X468475060Y-264863580D03*
%TD*%
D15*
%TO.P,20pin conn.,40*%
%TO.N,N/C*%
X418299900Y-312326020D03*
%TO.P,20pin conn.,39*%
X418299900Y-309786020D03*
%TO.P,20pin conn.,38*%
X420839900Y-312326020D03*
%TO.P,20pin conn.,37*%
X420839900Y-309786020D03*
%TO.P,20pin conn.,36*%
X423379900Y-312326020D03*
%TO.P,20pin conn.,35*%
X423379900Y-309786020D03*
%TO.P,20pin conn.,34*%
X425919900Y-312326020D03*
%TO.P,20pin conn.,33*%
X425919900Y-309786020D03*
%TO.P,20pin conn.,32*%
X428459900Y-312326020D03*
%TO.P,20pin conn.,31*%
X428459900Y-309786020D03*
D14*
%TO.P,20pin conn.,30*%
X430999900Y-312326020D03*
%TO.P,20pin conn.,29*%
X430999900Y-309786020D03*
D15*
%TO.P,20pin conn.,28*%
X433539900Y-312326020D03*
%TO.P,20pin conn.,27*%
X433539900Y-309786020D03*
%TO.P,20pin conn.,26*%
X436079900Y-312326020D03*
%TO.P,20pin conn.,25*%
X436079900Y-309786020D03*
%TO.P,20pin conn.,24*%
X438619900Y-312326020D03*
%TO.P,20pin conn.,23*%
X438619900Y-309786020D03*
%TO.P,20pin conn.,22*%
X441159900Y-312326020D03*
%TO.P,20pin conn.,21*%
X441159900Y-309786020D03*
%TO.P,20pin conn.,20*%
X443699900Y-312326020D03*
%TO.P,20pin conn.,19*%
X443699900Y-309786020D03*
%TO.P,20pin conn.,18*%
X446239900Y-312326020D03*
%TO.P,20pin conn.,17*%
X446239900Y-309786020D03*
%TO.P,20pin conn.,16*%
X448779900Y-312326020D03*
%TO.P,20pin conn.,15*%
X448779900Y-309786020D03*
%TO.P,20pin conn.,14*%
X451319900Y-312326020D03*
%TO.P,20pin conn.,13*%
X451319900Y-309786020D03*
D14*
%TO.P,20pin conn.,12*%
X453859900Y-312326020D03*
%TO.P,20pin conn.,11*%
X453859900Y-309786020D03*
D15*
%TO.P,20pin conn.,10*%
X456399900Y-312326020D03*
%TO.P,20pin conn.,9*%
X456399900Y-309786020D03*
%TO.P,20pin conn.,8*%
X458939900Y-312326020D03*
%TO.P,20pin conn.,7*%
X458939900Y-309786020D03*
%TO.P,20pin conn.,6*%
X461479900Y-312326020D03*
%TO.P,20pin conn.,5*%
X461479900Y-309786020D03*
%TO.P,20pin conn.,4*%
X464019900Y-312326020D03*
%TO.P,20pin conn.,3*%
X464019900Y-309786020D03*
D14*
%TO.P,20pin conn.,2*%
X466559900Y-312326020D03*
%TO.P,20pin conn.,1*%
X466559900Y-309786020D03*
%TD*%
D17*
%TO.P,atmega164,1*%
%TO.N,N/C*%
X419605460Y-278477980D03*
D12*
%TO.P,atmega164,21*%
X371345460Y-293717980D03*
%TO.P,atmega164,2*%
X417065460Y-278477980D03*
%TO.P,atmega164,22*%
X373885460Y-293717980D03*
%TO.P,atmega164,3*%
X414525460Y-278477980D03*
%TO.P,atmega164,23*%
X376425460Y-293717980D03*
%TO.P,atmega164,4*%
X411985460Y-278477980D03*
%TO.P,atmega164,24*%
X378965460Y-293717980D03*
%TO.P,atmega164,5*%
X409445460Y-278477980D03*
%TO.P,atmega164,25*%
X381505460Y-293717980D03*
%TO.P,atmega164,6*%
X406905460Y-278477980D03*
%TO.P,atmega164,26*%
X384045460Y-293717980D03*
%TO.P,atmega164,7*%
X404365460Y-278477980D03*
%TO.P,atmega164,27*%
X386585460Y-293717980D03*
%TO.P,atmega164,8*%
X401825460Y-278477980D03*
%TO.P,atmega164,28*%
X389125460Y-293717980D03*
%TO.P,atmega164,9*%
X399285460Y-278477980D03*
%TO.P,atmega164,29*%
X391665460Y-293717980D03*
%TO.P,atmega164,10*%
X396745460Y-278477980D03*
%TO.P,atmega164,30*%
X394205460Y-293717980D03*
%TO.P,atmega164,11*%
X394205460Y-278477980D03*
%TO.P,atmega164,31*%
X396745460Y-293717980D03*
%TO.P,atmega164,12*%
X391665460Y-278477980D03*
%TO.P,atmega164,32*%
X399285460Y-293717980D03*
%TO.P,atmega164,13*%
X389125460Y-278477980D03*
%TO.P,atmega164,33*%
X401825460Y-293717980D03*
%TO.P,atmega164,14*%
X386585460Y-278477980D03*
%TO.P,atmega164,34*%
X404365460Y-293717980D03*
%TO.P,atmega164,15*%
X384045460Y-278477980D03*
%TO.P,atmega164,35*%
X406905460Y-293717980D03*
%TO.P,atmega164,16*%
X381505460Y-278477980D03*
%TO.P,atmega164,36*%
X409445460Y-293717980D03*
%TO.P,atmega164,17*%
X378965460Y-278477980D03*
%TO.P,atmega164,37*%
X411985460Y-293717980D03*
%TO.P,atmega164,18*%
X376425460Y-278477980D03*
%TO.P,atmega164,38*%
X414525460Y-293717980D03*
%TO.P,atmega164,19*%
X373885460Y-278477980D03*
%TO.P,atmega164,39*%
X417065460Y-293717980D03*
%TO.P,atmega164,20*%
X371345460Y-278477980D03*
%TO.P,atmega164,40*%
X419605460Y-293717980D03*
%TD*%
D18*
%TO.P,RJ45,*%
%TO.N,*%
X468627460Y-277766780D03*
X468627460Y-289196780D03*
D19*
%TO.P,RJ45,1*%
%TO.N,N/C*%
X462277460Y-287926780D03*
D16*
%TO.P,RJ45,2*%
X459737460Y-286656780D03*
%TO.P,RJ45,3*%
X462277460Y-285386780D03*
%TO.P,RJ45,4*%
X459737460Y-284116780D03*
%TO.P,RJ45,5*%
X462277460Y-282846780D03*
%TO.P,RJ45,6*%
X459737460Y-281576780D03*
%TO.P,RJ45,7*%
X462277460Y-280306780D03*
%TO.P,RJ45,8*%
X459737460Y-279036780D03*
%TD*%
D20*
%TO.P,BC547B,2*%
%TO.N,N/C*%
X439925460Y-274667980D03*
%TO.P,BC547B,3*%
X441195460Y-273397980D03*
%TA.AperFunction,ComponentPad*%
D21*
%TO.P,BC547B,1*%
G36*
X442114699Y-275937980D02*
G01*
X441195460Y-276857219D01*
X440276221Y-275937980D01*
X441195460Y-275018741D01*
X442114699Y-275937980D01*
G37*
%TD.AperFunction*%
%TD*%
%TA.AperFunction,ComponentPad*%
%TO.P,BC547B,1*%
%TO.N,N/C*%
G36*
X449734699Y-281017980D02*
G01*
X448815460Y-281937219D01*
X447896221Y-281017980D01*
X448815460Y-280098741D01*
X449734699Y-281017980D01*
G37*
%TD.AperFunction*%
D20*
%TO.P,BC547B,3*%
X448815460Y-278477980D03*
%TO.P,BC547B,2*%
X447545460Y-279747980D03*
%TD*%
%TA.AperFunction,ComponentPad*%
D21*
%TO.P,BC547B,1*%
%TO.N,N/C*%
G36*
X449734699Y-292447980D02*
G01*
X448815460Y-293367219D01*
X447896221Y-292447980D01*
X448815460Y-291528741D01*
X449734699Y-292447980D01*
G37*
%TD.AperFunction*%
D20*
%TO.P,BC547B,3*%
X448815460Y-289907980D03*
%TO.P,BC547B,2*%
X447545460Y-291177980D03*
%TD*%
%TO.P,BC547B,2*%
%TO.N,N/C*%
X439925460Y-286097980D03*
%TO.P,BC547B,3*%
X441195460Y-284827980D03*
%TA.AperFunction,ComponentPad*%
D21*
%TO.P,BC547B,1*%
G36*
X442114699Y-287367980D02*
G01*
X441195460Y-288287219D01*
X440276221Y-287367980D01*
X441195460Y-286448741D01*
X442114699Y-287367980D01*
G37*
%TD.AperFunction*%
%TD*%
D12*
%TO.P,100k\u03A9,2*%
%TO.N,N/C*%
X425320460Y-275937980D03*
D13*
%TO.P,100k\u03A9,1*%
X435480460Y-275937980D03*
%TD*%
D12*
%TO.P,100k\u03A9,2*%
%TO.N,N/C*%
X425320460Y-287367980D03*
D13*
%TO.P,100k\u03A9,1*%
X435480460Y-287367980D03*
%TD*%
%TO.P,0.1uf,1*%
%TO.N,N/C*%
X438655460Y-270222980D03*
%TO.P,0.1uf,2*%
X441155460Y-270222980D03*
%TD*%
%TO.P,0.1uf,2*%
%TO.N,N/C*%
X441155460Y-281652980D03*
%TO.P,0.1uf,1*%
X438655460Y-281652980D03*
%TD*%
%TO.P,0.1uf,2*%
%TO.N,N/C*%
X451315460Y-274667980D03*
%TO.P,0.1uf,1*%
X448815460Y-274667980D03*
%TD*%
D22*
%TO.N,*%
X440560460Y-267682980D02*
X438655460Y-269587980D01*
X438655460Y-269587980D02*
X438655460Y-270222980D01*
X465325460Y-296257980D02*
X465325460Y-300067980D01*
X457070460Y-289907980D02*
X464690460Y-297527980D01*
X457070460Y-288002980D02*
X457070460Y-289907980D01*
X459610460Y-290542980D02*
X465325460Y-296257980D01*
X457070460Y-288002980D02*
X459610460Y-290542980D01*
X459610460Y-290542980D02*
X461515460Y-290542980D01*
X457070460Y-285462980D02*
X457070460Y-288002980D01*
X457835000Y-284480000D02*
X456488800Y-285826200D01*
X459737460Y-284116780D02*
X458416660Y-284116780D01*
X463420460Y-282922980D02*
X464690460Y-284192980D01*
X463420460Y-281449780D02*
X463420460Y-281652980D01*
X463420460Y-281652980D02*
X464614260Y-282846780D01*
X462277460Y-280306780D02*
X463420460Y-281449780D01*
X462277460Y-282846780D02*
X464614260Y-282846780D01*
X464614260Y-282846780D02*
X465325460Y-283557980D01*
X462277460Y-281779980D02*
X462277460Y-280306780D01*
X462277460Y-282846780D02*
X462277460Y-281779980D01*
X462277460Y-281779980D02*
X462277460Y-282160980D01*
X462277460Y-282160980D02*
X461591660Y-282846780D01*
X460321660Y-284116780D02*
X461591660Y-282846780D01*
X461591660Y-282846780D02*
X462277460Y-282846780D01*
X459737460Y-284116780D02*
X460321660Y-284116780D01*
X462785460Y-290542980D02*
X461515460Y-290542980D01*
X471675460Y-290542980D02*
X462785460Y-290542980D01*
X462785460Y-290542980D02*
X463420460Y-290542980D01*
X463420460Y-290542980D02*
X465325460Y-288637980D01*
X466559900Y-296222420D02*
X466559900Y-295587420D01*
X466559900Y-295587420D02*
X461515460Y-290542980D01*
X472945460Y-291812980D02*
X462785460Y-291812980D01*
X463420460Y-279112980D02*
X460880460Y-276572980D01*
D23*
X461197960Y-276890480D02*
X462277460Y-277969980D01*
X444370460Y-272762980D02*
X441830460Y-270222980D01*
X441830460Y-270222980D02*
X441155460Y-270222980D01*
X441155460Y-270222980D02*
X441155460Y-270817980D01*
X441155460Y-270817980D02*
X443735460Y-273397980D01*
X443735460Y-270857980D02*
X445640460Y-272762980D01*
X443100460Y-270857980D02*
X445005460Y-272762980D01*
X441830460Y-269587980D02*
X443735460Y-269587980D01*
X443735460Y-269587980D02*
X444370460Y-270222980D01*
X441195460Y-270222980D02*
X441830460Y-269587980D01*
X444370460Y-270222980D02*
X446910460Y-272762980D01*
X441195460Y-270222980D02*
X444370460Y-270222980D01*
X443735460Y-272762980D02*
X441195460Y-270222980D01*
D22*
X446275460Y-273397980D02*
X446910460Y-274032980D01*
D23*
X446910460Y-272762980D02*
X444370460Y-272762980D01*
X448815460Y-274667980D02*
X446910460Y-272762980D01*
X447545460Y-286097980D02*
X448815460Y-286097980D01*
X446275460Y-286097980D02*
X447545460Y-286097980D01*
X445640460Y-282922980D02*
X445640460Y-284192980D01*
X445640460Y-284192980D02*
X445640460Y-284827980D01*
X447545460Y-286097980D02*
X445640460Y-284192980D01*
X445640460Y-278477980D02*
X445640460Y-282922980D01*
X448815460Y-286097980D02*
X445640460Y-282922980D01*
X441195460Y-281652980D02*
X443735460Y-279112980D01*
D22*
X443735460Y-283557980D02*
X443735460Y-289272980D01*
X443735460Y-289272980D02*
X443417960Y-289590480D01*
X445005460Y-289907980D02*
X448815460Y-286097980D01*
D23*
X445640460Y-289272980D02*
X445957960Y-289272980D01*
X445957960Y-289272980D02*
X448815460Y-286415480D01*
X448815460Y-286415480D02*
X448815460Y-286097980D01*
X447227960Y-287367980D02*
X447545460Y-287685480D01*
X446910460Y-287367980D02*
X446592960Y-287685480D01*
X445640460Y-285462980D02*
X446275460Y-286097980D01*
X448180460Y-275302980D02*
X447545460Y-275302980D01*
X447545460Y-275302980D02*
X447227960Y-274985480D01*
X446275460Y-277207980D02*
X445322960Y-276255480D01*
X445640460Y-274667980D02*
X445640460Y-277842980D01*
X443735460Y-273397980D02*
X446910460Y-276572980D01*
X447545460Y-275937980D02*
X446592960Y-274985480D01*
X444687960Y-279430480D02*
X448815460Y-275302980D01*
X448815460Y-275302980D02*
X448815460Y-274667980D01*
X444370460Y-272762980D02*
X446275460Y-274667980D01*
X446275460Y-274667980D02*
X448815460Y-274667980D01*
X443735460Y-273397980D02*
X443735460Y-274667980D01*
X443735460Y-274667980D02*
X443735460Y-277842980D01*
X445640460Y-286732980D02*
X448180460Y-286732980D01*
X441830460Y-282287980D02*
X443735460Y-284192980D01*
X441195460Y-281652980D02*
X441830460Y-282287980D01*
X442465460Y-281652980D02*
X443100460Y-281017980D01*
X442465460Y-280382980D02*
X443735460Y-280382980D01*
X441195460Y-281652980D02*
X441830460Y-281017980D01*
D22*
X445957960Y-288320480D02*
X446592960Y-287685480D01*
D23*
X442465460Y-281652980D02*
X443735460Y-282922980D01*
D22*
X442465460Y-290542980D02*
X443417960Y-289590480D01*
X443417960Y-289590480D02*
X445005460Y-288002980D01*
X453859900Y-309786020D02*
X453859900Y-309557420D01*
X396745460Y-286097980D02*
X396745460Y-288002980D01*
X396745460Y-288002980D02*
X396745460Y-289272980D01*
X395475460Y-289272980D02*
X396745460Y-288002980D01*
X395475460Y-290542980D02*
X395475460Y-289272980D01*
X422145460Y-290542980D02*
X398015460Y-290542980D01*
X398015460Y-290542980D02*
X394840460Y-290542980D01*
X396745460Y-289272980D02*
X398015460Y-290542980D01*
X394840460Y-288002980D02*
X396745460Y-286097980D01*
X396745460Y-286097980D02*
X396745460Y-284827980D01*
X394840460Y-289907980D02*
X394205460Y-289272980D01*
X396110460Y-291177980D02*
X394840460Y-289907980D01*
X394840460Y-289907980D02*
X394840460Y-288002980D01*
X396745460Y-278477980D02*
X396745460Y-284827980D01*
X394205460Y-293717980D02*
X394205460Y-287367980D01*
X394205460Y-287367980D02*
X396745460Y-284827980D01*
D23*
X394205460Y-293717980D02*
X394205460Y-293082980D01*
X394205460Y-293082980D02*
X394205460Y-287367980D01*
D22*
X395475460Y-291177980D02*
X394205460Y-292447980D01*
X442465460Y-291177980D02*
X395475460Y-291177980D01*
X354200460Y-268317980D02*
X354200460Y-268952980D01*
X352930460Y-268317980D02*
X352930460Y-270857980D01*
D24*
X357375460Y-267047980D02*
X351025460Y-267047980D01*
D23*
X356105460Y-293082980D02*
X356105460Y-290542980D01*
X357375460Y-289272980D02*
X356105460Y-290542980D01*
X356105460Y-290542980D02*
X356105460Y-289272980D01*
X356105460Y-289272980D02*
X357375460Y-289272980D01*
X356105460Y-289272980D02*
X356105460Y-288002980D01*
X356105460Y-288002980D02*
X356105460Y-285462980D01*
X357375460Y-289272980D02*
X356105460Y-288002980D01*
X362455460Y-294135180D02*
X357157660Y-294135180D01*
X357157660Y-294135180D02*
X356105460Y-293082980D01*
X356105460Y-285462980D02*
X357335460Y-284232980D01*
X357335460Y-284232980D02*
X362455460Y-284232980D01*
D22*
X445005460Y-289907980D02*
X445005460Y-288637980D01*
X445005460Y-288637980D02*
X445005460Y-284827980D01*
X445005460Y-292447980D02*
X445005460Y-289907980D01*
X445005460Y-290542980D02*
X443100460Y-290542980D01*
X445005460Y-292447980D02*
X443100460Y-290542980D01*
X434845460Y-269587980D02*
X432940460Y-267682980D01*
X439290460Y-268952980D02*
X434845460Y-268952980D01*
D25*
X410715460Y-290542980D02*
X410715460Y-277207980D01*
X410715460Y-277207980D02*
X404365460Y-270857980D01*
X404365460Y-270857980D02*
X361820460Y-270857980D01*
X404365460Y-278477980D02*
X404365460Y-275302980D01*
X404365460Y-275302980D02*
X400555460Y-271492980D01*
X400555460Y-271492980D02*
X363725460Y-271492980D01*
X360550460Y-272127980D02*
X359280460Y-270857980D01*
X363725460Y-271492980D02*
X363090460Y-272127980D01*
X363090460Y-272127980D02*
X360550460Y-272127980D01*
X406905460Y-278477980D02*
X406905460Y-279747980D01*
X406905460Y-279747980D02*
X406270460Y-280382980D01*
X406270460Y-280382980D02*
X403730460Y-280382980D01*
X403730460Y-280382980D02*
X403095460Y-279747980D01*
X403095460Y-275937980D02*
X399285460Y-272127980D01*
X399285460Y-272127980D02*
X364995460Y-272127980D01*
X403095460Y-279747980D02*
X403095460Y-275937980D01*
X364995460Y-272127980D02*
X363725460Y-273397980D01*
X363725460Y-273397980D02*
X363090460Y-273397980D01*
X363090460Y-273397980D02*
X361820460Y-273397980D01*
X399285460Y-278477980D02*
X399285460Y-275620480D01*
X399285460Y-275620480D02*
X397697960Y-274032980D01*
X366900460Y-274032980D02*
X363725460Y-277207980D01*
X397697960Y-274032980D02*
X366900460Y-274032980D01*
X363725460Y-277207980D02*
X360550460Y-277207980D01*
X360550460Y-277207980D02*
X359280460Y-275937980D01*
X401825460Y-278477980D02*
X401825460Y-276572980D01*
X360550460Y-274667980D02*
X359280460Y-273397980D01*
X401825460Y-276572980D02*
X398015460Y-272762980D01*
X398015460Y-272762980D02*
X365630460Y-272762980D01*
X365630460Y-272762980D02*
X363725460Y-274667980D01*
X363725460Y-274667980D02*
X360550460Y-274667980D01*
X358010460Y-286732980D02*
X362455460Y-286732980D01*
X362455460Y-291635180D02*
X358012660Y-291635180D01*
X358012660Y-291635180D02*
X358010460Y-291632980D01*
D22*
X469770460Y-276572980D02*
X471040460Y-277842980D01*
X471040460Y-277842980D02*
X471040460Y-290542980D01*
X474215460Y-295622980D02*
X474215460Y-294352980D01*
X474215460Y-294352980D02*
X474215460Y-293082980D01*
X474215460Y-294352980D02*
X465325460Y-294352980D01*
X474215460Y-293082980D02*
X464055460Y-293082980D01*
X469448490Y-314986010D02*
X469893552Y-314986010D01*
X469893552Y-314986010D02*
X474215460Y-310664102D01*
X466595460Y-314986010D02*
X469893552Y-314986010D01*
X466559900Y-314950450D02*
X466595460Y-314986010D01*
X466559900Y-312326020D02*
X466559900Y-314950450D01*
D23*
X395475460Y-290542980D02*
X394205460Y-291812980D01*
X446592960Y-287685480D02*
X443735460Y-284827980D01*
D22*
X445005460Y-289907980D02*
X445005460Y-289272980D01*
D23*
X445005460Y-274667980D02*
X445005460Y-284827980D01*
X445005460Y-284827980D02*
X445005460Y-286097980D01*
X425320460Y-277842980D02*
X426272960Y-276890480D01*
X426272960Y-276890480D02*
X427225460Y-275937980D01*
X425320460Y-275937980D02*
X426272960Y-276890480D01*
X425320460Y-277842980D02*
X425320460Y-275937980D01*
X394205460Y-293717980D02*
X394205460Y-296892980D01*
X396745460Y-293717980D02*
X396745460Y-296852980D01*
X396745460Y-296852980D02*
X396705460Y-296892980D01*
X396705460Y-275302980D02*
X396705460Y-278437980D01*
X396705460Y-278437980D02*
X396745460Y-278477980D01*
X394205460Y-275302980D02*
X394205460Y-278477980D01*
X425320460Y-287367980D02*
X425320460Y-285462980D01*
X425320460Y-285462980D02*
X425320460Y-282922980D01*
D22*
X458340460Y-279112980D02*
X460880460Y-276572980D01*
X461515460Y-279112980D02*
X458975460Y-279112980D01*
D23*
X443735460Y-277842980D02*
X443735460Y-280382980D01*
X443735460Y-280382980D02*
X443735460Y-284827980D01*
X459737460Y-279036780D02*
X459661260Y-279112980D01*
D22*
X460245460Y-279112980D02*
X451939660Y-279112980D01*
D23*
X451990460Y-277842980D02*
X451990460Y-280382980D01*
X453260460Y-279112980D02*
X451355460Y-281017980D01*
X451315460Y-274667980D02*
X451315460Y-277247980D01*
X451315460Y-277247980D02*
X451315460Y-286097980D01*
X453260460Y-279112980D02*
X451471660Y-277324180D01*
X446275460Y-274667980D02*
X445005460Y-274667980D01*
X445640460Y-285462980D02*
X445640460Y-286732980D01*
X445640460Y-284827980D02*
X445640460Y-285462980D01*
X434845460Y-270222980D02*
X438655460Y-270222980D01*
X426590460Y-281652980D02*
X425955460Y-281652980D01*
X426590460Y-281652980D02*
X425320460Y-282922980D01*
X426590460Y-281652980D02*
X425320460Y-280382980D01*
D25*
X435480460Y-287367980D02*
X441195460Y-287367980D01*
X441195460Y-275937980D02*
X435480460Y-275937980D01*
D23*
X444370460Y-274032980D02*
X444370460Y-285462980D01*
X443735460Y-281652980D02*
X441195460Y-281652980D01*
D22*
X460245460Y-277842980D02*
X462150460Y-279747980D01*
X463496660Y-280382980D02*
X465325460Y-282211780D01*
X463420460Y-280306780D02*
X465249260Y-278477980D01*
X462277460Y-280306780D02*
X463496660Y-280306780D01*
D24*
X465325460Y-283557980D02*
X465325460Y-287367980D01*
X465325460Y-287367980D02*
X465325460Y-288637980D01*
X465325460Y-277842980D02*
X465325460Y-283557980D01*
X466595460Y-277842980D02*
X466595460Y-289272980D01*
D22*
X463420460Y-277842980D02*
X465325460Y-277842980D01*
D24*
X468500460Y-277842980D02*
X468500460Y-289272980D01*
X469770460Y-277842980D02*
X469770460Y-289272980D01*
D22*
X467865460Y-295622980D02*
X467865460Y-314672980D01*
X474215460Y-295622980D02*
X467865460Y-295622980D01*
X469135460Y-295622980D02*
X469135460Y-314672980D01*
X470405460Y-295622980D02*
X470405460Y-313402980D01*
X471675460Y-293717980D02*
X471675460Y-312767980D01*
X472945460Y-292447980D02*
X472945460Y-311497980D01*
X474215460Y-310227980D02*
X474215460Y-295622980D01*
X443735460Y-293082980D02*
X441830460Y-291177980D01*
X443735460Y-297527980D02*
X443735460Y-293082980D01*
X453895460Y-310156860D02*
X453895460Y-305782980D01*
X453859900Y-312097420D02*
X453895460Y-312061860D01*
X445005460Y-296892980D02*
X445005460Y-292447980D01*
X453859900Y-305747420D02*
X445005460Y-296892980D01*
X453859900Y-312326020D02*
X453859900Y-305747420D01*
X453859900Y-309209440D02*
X452625460Y-307975000D01*
X452625460Y-307975000D02*
X452625460Y-306070000D01*
X452625460Y-306417980D02*
X443735460Y-297527980D01*
X453895460Y-307687980D02*
X452625460Y-306417980D01*
X425320460Y-275937980D02*
X423415460Y-274032980D01*
X423415460Y-274032980D02*
X416430460Y-267047980D01*
D24*
X416430460Y-267047980D02*
X357375460Y-267047980D01*
D22*
X425320460Y-275937980D02*
X429130460Y-275937980D01*
D24*
X425955460Y-274667980D02*
X428495460Y-274667980D01*
X428495460Y-274667980D02*
X432940460Y-270222980D01*
X432940460Y-270222980D02*
X431670460Y-268952980D01*
X431670460Y-268952980D02*
X419605460Y-268952980D01*
X419605460Y-268952980D02*
X424050460Y-273397980D01*
X424050460Y-273397980D02*
X427860460Y-273397980D01*
X427860460Y-273397980D02*
X430400460Y-270857980D01*
X430400460Y-270857980D02*
X423415460Y-270857980D01*
X430400460Y-271492980D02*
X423415460Y-271492980D01*
D22*
X426590460Y-274667980D02*
X426590460Y-286097980D01*
X429130460Y-275302980D02*
X429130460Y-286732980D01*
X431670460Y-274667980D02*
X431670460Y-286097980D01*
X435480460Y-281017980D02*
X435480460Y-284192980D01*
X435480460Y-284827980D02*
X434210460Y-284827980D01*
X438655460Y-281652980D02*
X435480460Y-284827980D01*
X432940460Y-279112980D02*
X432940460Y-284827980D01*
X434210460Y-279112980D02*
X434210460Y-284827980D01*
X429130460Y-275937980D02*
X432305460Y-272762980D01*
X432305460Y-272762980D02*
X432305460Y-277207980D01*
X432305460Y-272762980D02*
X434845460Y-270222980D01*
X438655460Y-281652980D02*
X436750460Y-281652980D01*
X436750460Y-281652980D02*
X436115460Y-282287980D01*
X432305460Y-277207980D02*
X436750460Y-281652980D01*
X430400460Y-275302980D02*
X430400460Y-286732980D01*
X427860460Y-275302980D02*
X427860460Y-286732980D01*
X443100460Y-290542980D02*
X431670460Y-290542980D01*
X431670460Y-290542980D02*
X422145460Y-290542980D01*
X464055460Y-298797980D02*
X465325460Y-300067980D01*
X451315460Y-286057980D02*
X464055460Y-298797980D01*
X451315460Y-274667980D02*
X451315460Y-286057980D01*
X455800460Y-289272980D02*
X455800460Y-279787980D01*
X454530460Y-288002980D02*
X454530460Y-278517980D01*
X453260460Y-286732980D02*
X453260460Y-277247980D01*
X452625460Y-285462980D02*
X452625460Y-275977980D01*
X456047480Y-279400000D02*
X451315460Y-274667980D01*
X458470000Y-279400000D02*
X456047480Y-279400000D01*
X457070460Y-280799540D02*
X458470000Y-279400000D01*
X457070460Y-289907980D02*
X457070460Y-280799540D01*
X460245460Y-277842980D02*
X451939660Y-277842980D01*
X460880460Y-276572980D02*
X452574660Y-276572980D01*
X456565000Y-282575000D02*
X457835000Y-283845000D01*
X460880460Y-279112980D02*
X462785460Y-281017980D01*
X471040460Y-264507980D02*
X471040460Y-267047980D01*
X472945460Y-263237980D02*
X472945460Y-293082980D01*
X472310460Y-263237980D02*
X472310460Y-293082980D01*
X471040460Y-263237980D02*
X471040460Y-264507980D01*
D24*
X445482980Y-265777980D02*
X351660460Y-265777980D01*
X444787020Y-267047980D02*
X416430460Y-267047980D01*
D22*
X444787020Y-267047980D02*
X444847980Y-267047980D01*
X474215460Y-263237980D02*
X471170000Y-263237980D01*
X474215460Y-295622980D02*
X474215460Y-263237980D01*
D23*
X471170000Y-272415000D02*
X467360000Y-276225000D01*
X471805000Y-273050000D02*
X467995000Y-276860000D01*
X471805000Y-273685000D02*
X467995000Y-277495000D01*
X471157300Y-262938260D02*
X465442300Y-262938260D01*
D25*
X468475060Y-264863580D02*
X468500460Y-264838180D01*
X458975460Y-269875000D02*
X458975460Y-270222980D01*
D23*
X466178900Y-262958580D02*
X465607400Y-263530080D01*
X470118440Y-262966200D02*
X471083640Y-263931400D01*
X465107020Y-276138640D02*
X465107020Y-276572980D01*
X468475060Y-272770600D02*
X465107020Y-276138640D01*
D22*
X465107020Y-276572980D02*
X469770460Y-276572980D01*
X460880460Y-276572980D02*
X465107020Y-276572980D01*
D23*
X470814400Y-272770600D02*
X471170000Y-272415000D01*
X468475060Y-272770600D02*
X470814400Y-272770600D01*
X469745060Y-272770600D02*
X466377020Y-276138640D01*
X469265000Y-267403580D02*
X470971880Y-269110460D01*
D22*
X471040460Y-269110460D02*
X471040460Y-290542980D01*
X471040460Y-267047980D02*
X471040460Y-269110460D01*
D23*
X471170000Y-265430000D02*
X469265000Y-267335000D01*
X470684860Y-267403580D02*
X471040460Y-267047980D01*
X468475060Y-267403580D02*
X470684860Y-267403580D01*
X425320460Y-282922980D02*
X425320460Y-277842980D01*
D22*
X436750460Y-281652980D02*
X425320460Y-281652980D01*
X425320460Y-275937980D02*
X425320460Y-287367980D01*
X434210460Y-284827980D02*
X431670460Y-287367980D01*
X431670460Y-287367980D02*
X425320460Y-287367980D01*
D23*
X357375460Y-289272980D02*
X363507020Y-289272980D01*
D25*
X389125460Y-280382980D02*
X389125460Y-278477980D01*
X387855460Y-281652980D02*
X389125460Y-280382980D01*
X371762020Y-281652980D02*
X387855460Y-281652980D01*
X366682020Y-286732980D02*
X371762020Y-281652980D01*
X362455460Y-286732980D02*
X366682020Y-286732980D01*
D23*
X364271560Y-289560000D02*
X367030000Y-289560000D01*
D25*
X392082020Y-275302980D02*
X394205460Y-275302980D01*
X390525000Y-276860000D02*
X392082020Y-275302980D01*
X366682020Y-289272980D02*
X367317020Y-289272980D01*
X368129820Y-291635180D02*
X362455460Y-291635180D01*
X376207020Y-283557980D02*
X368129820Y-291635180D01*
X388272020Y-283557980D02*
X376207020Y-283557980D01*
X391665460Y-280164540D02*
X388272020Y-283557980D01*
X391665460Y-278477980D02*
X391665460Y-280164540D01*
D23*
X364360460Y-290542980D02*
X367317020Y-290542980D01*
X363090460Y-289272980D02*
X364360460Y-290542980D01*
X364360460Y-288002980D02*
X363090460Y-289272980D01*
X367317020Y-288002980D02*
X364360460Y-288002980D01*
X372745000Y-282575000D02*
X367317020Y-288002980D01*
X367317020Y-290542980D02*
X374650000Y-283210000D01*
X374015000Y-282575000D02*
X372745000Y-282575000D01*
X374650000Y-283210000D02*
X374015000Y-282575000D01*
X367952020Y-289272980D02*
X374015000Y-283210000D01*
X363636560Y-289272980D02*
X367952020Y-289272980D01*
X367665000Y-288925000D02*
X373380000Y-283210000D01*
X364271560Y-288925000D02*
X367665000Y-288925000D01*
D25*
X375285000Y-282575000D02*
X374650000Y-283210000D01*
X374015000Y-282575000D02*
X375285000Y-282575000D01*
X375031000Y-282702000D02*
X374777000Y-282702000D01*
X394205460Y-278894540D02*
X394205460Y-278477980D01*
X388620000Y-284480000D02*
X394205460Y-278894540D01*
X376555000Y-284480000D02*
X388620000Y-284480000D01*
X368300000Y-292735000D02*
X376555000Y-284480000D01*
X363855640Y-292735000D02*
X368300000Y-292735000D01*
X362455460Y-294135180D02*
X363855640Y-292735000D01*
X390177020Y-275302980D02*
X394205460Y-275302980D01*
X388620000Y-276860000D02*
X390177020Y-275302980D01*
X390525000Y-276860000D02*
X388620000Y-276860000D01*
X390573260Y-276705060D02*
X388848600Y-276705060D01*
X390753600Y-276542500D02*
X389028940Y-276542500D01*
X390900920Y-276367240D02*
X389176260Y-276367240D01*
X391086340Y-276209760D02*
X389361680Y-276209760D01*
X391253980Y-276082760D02*
X389529320Y-276082760D01*
X391353040Y-275920200D02*
X389628380Y-275920200D01*
X391556240Y-275765260D02*
X389831580Y-275765260D01*
X391693400Y-275605240D02*
X389968740Y-275605240D01*
X391833100Y-275455380D02*
X390108440Y-275455380D01*
X387855460Y-277624540D02*
X388620000Y-276860000D01*
X387855460Y-279529540D02*
X387855460Y-277624540D01*
X386715000Y-280670000D02*
X387855460Y-279529540D01*
X371475000Y-280670000D02*
X386715000Y-280670000D01*
X367912020Y-284232980D02*
X371475000Y-280670000D01*
X362455460Y-284232980D02*
X367912020Y-284232980D01*
X390405620Y-276979380D02*
X390525000Y-276860000D01*
X390405620Y-280154380D02*
X390405620Y-276979380D01*
X387985000Y-282575000D02*
X390405620Y-280154380D01*
X375285000Y-282575000D02*
X387985000Y-282575000D01*
X424685460Y-311091580D02*
X425919900Y-312326020D01*
X424685460Y-308322980D02*
X424685460Y-311091580D01*
X354835460Y-272127980D02*
X354835460Y-294194230D01*
X360709210Y-300067980D02*
X416430460Y-300067980D01*
X357723440Y-269240000D02*
X354835460Y-272127980D01*
X406557480Y-269240000D02*
X357723440Y-269240000D01*
X414525460Y-277207980D02*
X406557480Y-269240000D01*
X416430460Y-300067980D02*
X424685460Y-308322980D01*
X354835460Y-294194230D02*
X360709210Y-300067980D01*
X414525460Y-278477980D02*
X414525460Y-277207980D01*
D22*
X465325460Y-307845460D02*
X466559900Y-309079900D01*
X465325460Y-300067980D02*
X465325460Y-307845460D01*
D24*
X447040000Y-263872980D02*
X351025460Y-263872980D01*
D22*
X445135000Y-267335000D02*
X448945000Y-263525000D01*
X351660460Y-268317980D02*
X351660460Y-309245000D01*
D24*
X353060000Y-307340000D02*
X409575000Y-307340000D01*
X352425000Y-308610000D02*
X408940000Y-308610000D01*
X412115000Y-304165000D02*
X412750000Y-303530000D01*
X352425000Y-304165000D02*
X412115000Y-304165000D01*
X410845000Y-306070000D02*
X411480000Y-305435000D01*
X352425000Y-306070000D02*
X410845000Y-306070000D01*
D22*
X359410000Y-303530000D02*
X352425000Y-296545000D01*
X359410000Y-304800000D02*
X352425000Y-297815000D01*
X358775000Y-306070000D02*
X351790000Y-299085000D01*
X358775000Y-307340000D02*
X351790000Y-300355000D01*
X358140000Y-307975000D02*
X351155000Y-300990000D01*
X414846258Y-314866020D02*
X409886250Y-309906012D01*
X466559900Y-294388540D02*
X466559900Y-314866020D01*
X466595460Y-294352980D02*
X466559900Y-294388540D01*
X350390460Y-309880000D02*
X409575000Y-309880000D01*
X350390460Y-263872980D02*
X350390460Y-309880000D01*
X351025460Y-263237980D02*
X350390460Y-263872980D01*
X465455000Y-263237980D02*
X351025460Y-263237980D01*
X415481258Y-314231020D02*
X410521250Y-309271012D01*
X417195000Y-314674762D02*
X411156250Y-308636012D01*
X412115000Y-304165000D02*
X412115000Y-311150000D01*
X413385000Y-304165000D02*
X413385000Y-311150000D01*
X353169220Y-271254220D02*
X357375460Y-267047980D01*
X353060000Y-271363440D02*
X353169220Y-271254220D01*
X353060000Y-295910000D02*
X353060000Y-271363440D01*
X360045000Y-302895000D02*
X353060000Y-295910000D01*
X413385000Y-302895000D02*
X360045000Y-302895000D01*
X413385000Y-305435000D02*
X413385000Y-302895000D01*
X408940000Y-309880000D02*
X413385000Y-305435000D01*
X408940000Y-308610000D02*
X408940000Y-309880000D01*
X430999900Y-313667140D02*
X429801020Y-314866020D01*
X430999900Y-309786020D02*
X430999900Y-313667140D01*
X429801020Y-314866020D02*
X414846258Y-314866020D01*
X432198780Y-314866020D02*
X430999900Y-313667140D01*
X432341020Y-314866020D02*
X432198780Y-314866020D01*
X466559900Y-314866020D02*
X432341020Y-314866020D01*
X432341020Y-314866020D02*
X429801020Y-314866020D01*
%TD*%
M02*
