M48
; DRILL file {KiCad 7.0.10} date Sun Mar  3 15:09:24 2024
; FORMAT={-:-/ absolute / inch / decimal}
; #@! TF.CreationDate,2024-03-03T15:09:24-07:00
; #@! TF.GenerationSoftware,Kicad,Pcbnew,7.0.10
; #@! TF.FileFunction,Plated,1,2,PTH
FMAT,2
INCH
; #@! TA.AperFunction,Plated,PTH,ViaDrill
T1C0.0157
; #@! TA.AperFunction,Plated,PTH,ComponentDrill
T2C0.0295
; #@! TA.AperFunction,Plated,PTH,ComponentDrill
T3C0.0315
; #@! TA.AperFunction,Plated,PTH,ComponentDrill
T4C0.0354
; #@! TA.AperFunction,Plated,PTH,ComponentDrill
T5C0.0394
%
G90
G05
T1
X14.35Y-10.95
X14.42Y-10.89
X14.65Y-11.45
X14.89Y-10.85
X15.09Y-10.65
X15.125Y-10.85
X15.325Y-10.524
X15.37Y-10.85
X15.45Y-10.675
X15.575Y-10.524
X15.575Y-10.85
X15.7Y-10.675
X15.825Y-10.524
X15.825Y-10.85
X15.95Y-10.675
X16.1Y-10.524
X16.1Y-10.85
X16.225Y-10.675
X16.375Y-10.524
X16.375Y-10.85
X16.5Y-10.675
X16.65Y-10.524
X16.65Y-10.85
X16.775Y-10.675
X16.925Y-10.524
X17.0Y-10.65
X17.1Y-10.75
X17.375Y-10.95
X17.799Y-10.957
X17.85Y-11.15
X17.967Y-11.055
X17.975Y-11.275
T2
X17.3199Y-10.8137
X17.3199Y-11.2637
X17.3699Y-10.7637
X17.3699Y-10.8637
X17.3699Y-11.2137
X17.3699Y-11.3137
X17.6199Y-11.0137
X17.6199Y-11.4637
X17.6699Y-10.9637
X17.6699Y-11.0637
X17.6699Y-11.4137
X17.6699Y-11.5137
T3
X14.0949Y-11.2887
X14.0949Y-11.4816
X14.2699Y-11.1903
X14.2699Y-11.2887
X14.2699Y-11.4817
X14.2699Y-11.5801
X14.6199Y-10.9637
X14.6199Y-11.5637
X14.7199Y-10.9637
X14.7199Y-11.5637
X14.8199Y-10.9637
X14.8199Y-11.5637
X14.9199Y-10.9637
X14.9199Y-11.5637
X15.0199Y-10.9637
X15.0199Y-11.5637
X15.1199Y-10.9637
X15.1199Y-11.5637
X15.2199Y-10.9637
X15.2199Y-11.5637
X15.3199Y-10.9637
X15.3199Y-11.5637
X15.4199Y-10.9637
X15.4199Y-11.5637
X15.5199Y-10.9637
X15.5199Y-11.5637
X15.5199Y-11.6887
X15.6183Y-11.6887
X15.6199Y-10.9637
X15.6199Y-11.5637
X15.7199Y-10.9637
X15.7199Y-11.5637
X15.8199Y-10.9637
X15.8199Y-11.5637
X15.9199Y-10.9637
X15.9199Y-11.5637
X16.0199Y-10.9637
X16.0199Y-11.5637
X16.1199Y-10.9637
X16.1199Y-11.5637
X16.2199Y-10.9637
X16.2199Y-11.5637
X16.3199Y-10.9637
X16.3199Y-11.5637
X16.4199Y-10.9637
X16.4199Y-11.5637
X16.5199Y-10.9637
X16.5199Y-11.5637
X16.7449Y-10.863
X16.7449Y-11.0125
X16.745Y-11.1625
X16.7463Y-11.313
X16.8008Y-11.6
X16.8992Y-11.6
X17.1008Y-11.6
X17.1449Y-10.863
X17.1449Y-11.0125
X17.145Y-11.1625
X17.1463Y-11.313
X17.1992Y-11.6
X17.2699Y-10.6387
X17.2699Y-11.0887
X17.3683Y-10.6387
X17.3683Y-11.0887
X17.6699Y-10.518
X17.6699Y-10.6257
X17.6699Y-10.8137
X17.6699Y-11.2637
X17.7683Y-10.8137
X17.7683Y-11.2637
X18.0699Y-10.518
X18.0699Y-10.6257
T4
X18.0999Y-10.9857
X18.0999Y-11.0857
X18.0999Y-11.1857
X18.0999Y-11.2857
X18.1999Y-11.0357
X18.1999Y-11.1357
X18.1999Y-11.2357
X18.1999Y-11.3357
X18.4439Y-10.4277
X18.4439Y-10.5277
X18.4439Y-10.639
X18.4439Y-10.739
T5
X16.4685Y-12.1963
X16.4685Y-12.2963
X16.5685Y-12.1963
X16.5685Y-12.2963
X16.6685Y-12.1963
X16.6685Y-12.2963
X16.7685Y-12.1963
X16.7685Y-12.2963
X16.8685Y-12.1963
X16.8685Y-12.2963
X16.9685Y-12.1963
X16.9685Y-12.2963
X17.0685Y-12.1963
X17.0685Y-12.2963
X17.1685Y-12.1963
X17.1685Y-12.2963
X17.2685Y-12.1963
X17.2685Y-12.2963
X17.3685Y-12.1963
X17.3685Y-12.2963
X17.4685Y-12.1963
X17.4685Y-12.2963
X17.5685Y-12.1963
X17.5685Y-12.2963
X17.6685Y-12.1963
X17.6685Y-12.2963
X17.7685Y-12.1963
X17.7685Y-12.2963
X17.8685Y-12.1963
X17.8685Y-12.2963
X17.9685Y-12.1963
X17.9685Y-12.2963
X18.0685Y-12.1963
X18.0685Y-12.2963
X18.1685Y-12.1963
X18.1685Y-12.2963
X18.2685Y-12.1963
X18.2685Y-12.2963
X18.3685Y-12.1963
X18.3685Y-12.2963
M30
