%TF.GenerationSoftware,KiCad,Pcbnew,7.0.10*%
%TF.CreationDate,2024-03-03T15:09:26-07:00*%
%TF.ProjectId,networkv3,6e657477-6f72-46b7-9633-2e6b69636164,rev?*%
%TF.SameCoordinates,Original*%
%TF.FileFunction,Legend,Top*%
%TF.FilePolarity,Positive*%
%FSLAX46Y46*%
G04 Gerber Fmt 4.6, Leading zero omitted, Abs format (unit mm)*
G04 Created by KiCad (PCBNEW 7.0.10) date 2024-03-03 15:09:26*
%MOMM*%
%LPD*%
G01*
G04 APERTURE LIST*
%ADD10C,0.150000*%
%ADD11C,0.200000*%
%ADD12C,0.125000*%
%ADD13C,0.120000*%
%ADD14C,3.650000*%
G04 APERTURE END LIST*
D10*
X354625592Y-290567856D02*
X354589878Y-290532142D01*
X354589878Y-290532142D02*
X354554164Y-290460714D01*
X354554164Y-290460714D02*
X354554164Y-290282142D01*
X354554164Y-290282142D02*
X354589878Y-290210714D01*
X354589878Y-290210714D02*
X354625592Y-290174999D01*
X354625592Y-290174999D02*
X354697021Y-290139285D01*
X354697021Y-290139285D02*
X354768450Y-290139285D01*
X354768450Y-290139285D02*
X354875592Y-290174999D01*
X354875592Y-290174999D02*
X355304164Y-290603571D01*
X355304164Y-290603571D02*
X355304164Y-290139285D01*
X354554164Y-289674999D02*
X354554164Y-289603570D01*
X354554164Y-289603570D02*
X354589878Y-289532142D01*
X354589878Y-289532142D02*
X354625592Y-289496428D01*
X354625592Y-289496428D02*
X354697021Y-289460713D01*
X354697021Y-289460713D02*
X354839878Y-289424999D01*
X354839878Y-289424999D02*
X355018450Y-289424999D01*
X355018450Y-289424999D02*
X355161307Y-289460713D01*
X355161307Y-289460713D02*
X355232735Y-289496428D01*
X355232735Y-289496428D02*
X355268450Y-289532142D01*
X355268450Y-289532142D02*
X355304164Y-289603570D01*
X355304164Y-289603570D02*
X355304164Y-289674999D01*
X355304164Y-289674999D02*
X355268450Y-289746428D01*
X355268450Y-289746428D02*
X355232735Y-289782142D01*
X355232735Y-289782142D02*
X355161307Y-289817856D01*
X355161307Y-289817856D02*
X355018450Y-289853570D01*
X355018450Y-289853570D02*
X354839878Y-289853570D01*
X354839878Y-289853570D02*
X354697021Y-289817856D01*
X354697021Y-289817856D02*
X354625592Y-289782142D01*
X354625592Y-289782142D02*
X354589878Y-289746428D01*
X354589878Y-289746428D02*
X354554164Y-289674999D01*
X355304164Y-289103570D02*
X354554164Y-289103570D01*
X354554164Y-289103570D02*
X355089878Y-288853570D01*
X355089878Y-288853570D02*
X354554164Y-288603570D01*
X354554164Y-288603570D02*
X355304164Y-288603570D01*
X355304164Y-288246427D02*
X354554164Y-288246427D01*
X355304164Y-287924999D02*
X354911307Y-287924999D01*
X354911307Y-287924999D02*
X354839878Y-287960713D01*
X354839878Y-287960713D02*
X354804164Y-288032141D01*
X354804164Y-288032141D02*
X354804164Y-288139284D01*
X354804164Y-288139284D02*
X354839878Y-288210713D01*
X354839878Y-288210713D02*
X354875592Y-288246427D01*
X354804164Y-287639285D02*
X354804164Y-287246428D01*
X354804164Y-287246428D02*
X355304164Y-287639285D01*
X355304164Y-287639285D02*
X355304164Y-287246428D01*
D11*
G36*
X352940676Y-304964800D02*
G01*
X352961066Y-304965758D01*
X352980859Y-304967356D01*
X353000054Y-304969592D01*
X353018651Y-304972468D01*
X353036651Y-304975983D01*
X353054054Y-304980136D01*
X353070858Y-304984929D01*
X353087065Y-304990361D01*
X353102675Y-304996432D01*
X353117687Y-305003142D01*
X353132101Y-305010491D01*
X353145918Y-305018479D01*
X353159137Y-305027106D01*
X353171758Y-305036372D01*
X353183782Y-305046277D01*
X353195141Y-305056641D01*
X353205767Y-305067284D01*
X353215660Y-305078207D01*
X353224820Y-305089408D01*
X353233248Y-305100889D01*
X353240942Y-305112649D01*
X353247904Y-305124688D01*
X353254133Y-305137007D01*
X353259629Y-305149604D01*
X353264393Y-305162481D01*
X353268423Y-305175637D01*
X353271721Y-305189072D01*
X353274286Y-305202786D01*
X353276118Y-305216780D01*
X353277217Y-305231052D01*
X353277583Y-305245604D01*
X353277196Y-305259153D01*
X353276033Y-305272476D01*
X353274094Y-305285574D01*
X353271381Y-305298445D01*
X353267892Y-305311091D01*
X353263627Y-305323512D01*
X353258587Y-305335706D01*
X353252772Y-305347675D01*
X353246182Y-305359418D01*
X353238816Y-305370936D01*
X353233475Y-305378488D01*
X353224864Y-305389572D01*
X353215468Y-305400421D01*
X353205287Y-305411034D01*
X353194321Y-305421411D01*
X353182570Y-305431553D01*
X353170033Y-305441459D01*
X353156712Y-305451129D01*
X353147394Y-305457445D01*
X353137728Y-305463657D01*
X353127713Y-305469764D01*
X353117349Y-305475766D01*
X353106636Y-305481663D01*
X353101148Y-305484573D01*
X353110789Y-305492364D01*
X353120552Y-305500558D01*
X353130437Y-305509153D01*
X353140446Y-305518152D01*
X353150577Y-305527553D01*
X353160831Y-305537356D01*
X353171207Y-305547561D01*
X353181706Y-305558169D01*
X353192328Y-305569179D01*
X353203072Y-305580592D01*
X353210304Y-305588424D01*
X353219699Y-305599255D01*
X353227261Y-305608311D01*
X353235265Y-305618168D01*
X353243711Y-305628824D01*
X353252598Y-305640280D01*
X353261926Y-305652536D01*
X353271697Y-305665591D01*
X353278456Y-305674740D01*
X353285411Y-305684244D01*
X353292563Y-305694103D01*
X353299910Y-305704318D01*
X353307455Y-305714888D01*
X353322155Y-305715123D01*
X353335546Y-305715830D01*
X353347629Y-305717008D01*
X353360892Y-305719142D01*
X353372111Y-305722013D01*
X353382874Y-305726430D01*
X353388414Y-305729963D01*
X353398628Y-305739287D01*
X353407110Y-305748938D01*
X353413862Y-305758916D01*
X353418882Y-305769221D01*
X353422622Y-305782019D01*
X353423868Y-305795289D01*
X353423005Y-305808313D01*
X353420414Y-305820375D01*
X353416095Y-305831475D01*
X353410049Y-305841613D01*
X353402276Y-305850790D01*
X353399301Y-305853635D01*
X353389006Y-305861130D01*
X353378612Y-305866191D01*
X353366569Y-305870176D01*
X353352876Y-305873083D01*
X353340734Y-305874634D01*
X353327537Y-305875496D01*
X353316946Y-305875690D01*
X353225100Y-305875690D01*
X353212934Y-305858269D01*
X353200899Y-305841288D01*
X353188995Y-305824747D01*
X353177222Y-305808645D01*
X353165580Y-305792983D01*
X353154068Y-305777760D01*
X353142688Y-305762976D01*
X353131438Y-305748632D01*
X353120319Y-305734728D01*
X353109331Y-305721263D01*
X353098474Y-305708237D01*
X353087748Y-305695651D01*
X353077153Y-305683505D01*
X353066688Y-305671798D01*
X353056355Y-305660530D01*
X353046152Y-305649702D01*
X353036080Y-305639313D01*
X353026139Y-305629364D01*
X353016329Y-305619854D01*
X353006649Y-305610784D01*
X352997101Y-305602153D01*
X352987683Y-305593962D01*
X352978396Y-305586210D01*
X352969241Y-305578897D01*
X352960216Y-305572024D01*
X352942558Y-305559597D01*
X352925424Y-305548928D01*
X352908813Y-305540016D01*
X352900704Y-305536219D01*
X352741299Y-305536219D01*
X352741299Y-305714888D01*
X352799645Y-305714888D01*
X352813638Y-305715237D01*
X352826585Y-305716284D01*
X352838485Y-305718028D01*
X352851887Y-305721191D01*
X352863653Y-305725444D01*
X352873784Y-305730787D01*
X352882279Y-305737221D01*
X352890723Y-305745983D01*
X352897420Y-305755725D01*
X352902370Y-305766449D01*
X352905572Y-305778155D01*
X352907028Y-305790842D01*
X352907125Y-305795289D01*
X352906252Y-305808313D01*
X352903631Y-305820375D01*
X352899264Y-305831475D01*
X352893149Y-305841613D01*
X352885288Y-305850790D01*
X352882279Y-305853635D01*
X352871889Y-305861130D01*
X352861431Y-305866191D01*
X352849337Y-305870176D01*
X352835608Y-305873083D01*
X352823446Y-305874634D01*
X352810238Y-305875496D01*
X352799645Y-305875690D01*
X352555372Y-305875690D01*
X352541374Y-305875345D01*
X352528414Y-305874311D01*
X352516493Y-305872588D01*
X352503051Y-305869465D01*
X352491231Y-305865265D01*
X352481034Y-305859989D01*
X352472458Y-305853635D01*
X352464109Y-305844779D01*
X352457488Y-305834961D01*
X352452594Y-305824182D01*
X352449427Y-305812440D01*
X352447987Y-305799737D01*
X352447891Y-305795289D01*
X352448775Y-305782275D01*
X352451425Y-305770242D01*
X352455841Y-305759191D01*
X352462024Y-305749121D01*
X352469974Y-305740033D01*
X352473017Y-305737221D01*
X352483567Y-305729631D01*
X352494084Y-305724506D01*
X352506168Y-305720471D01*
X352519820Y-305717527D01*
X352531870Y-305715957D01*
X352544923Y-305715084D01*
X352555372Y-305714888D01*
X352580497Y-305714888D01*
X352580497Y-305125282D01*
X352741299Y-305125282D01*
X352741299Y-305375418D01*
X352866925Y-305375418D01*
X352879931Y-305375243D01*
X352892672Y-305374721D01*
X352905148Y-305373850D01*
X352917359Y-305372630D01*
X352929305Y-305371062D01*
X352940986Y-305369146D01*
X352952402Y-305366881D01*
X352963553Y-305364268D01*
X352974438Y-305361307D01*
X352988541Y-305356816D01*
X352991993Y-305355597D01*
X353005387Y-305350549D01*
X353017933Y-305345458D01*
X353029629Y-305340323D01*
X353040477Y-305335143D01*
X353050475Y-305329919D01*
X353062486Y-305322885D01*
X353072988Y-305315773D01*
X353081980Y-305308582D01*
X353091098Y-305299483D01*
X353098497Y-305290256D01*
X353105721Y-305279238D01*
X353111138Y-305268278D01*
X353114750Y-305257378D01*
X353116681Y-305244735D01*
X353116782Y-305241137D01*
X353115589Y-305227939D01*
X353112011Y-305215041D01*
X353106047Y-305202443D01*
X353099559Y-305192581D01*
X353091543Y-305182910D01*
X353082001Y-305173431D01*
X353070933Y-305164145D01*
X353067927Y-305161853D01*
X353058424Y-305155317D01*
X353048131Y-305149424D01*
X353037048Y-305144174D01*
X353025175Y-305139567D01*
X353012512Y-305135603D01*
X352999058Y-305132282D01*
X352984815Y-305129603D01*
X352969781Y-305127567D01*
X352953958Y-305126175D01*
X352937344Y-305125425D01*
X352925830Y-305125282D01*
X352741299Y-305125282D01*
X352580497Y-305125282D01*
X352555372Y-305125282D01*
X352541374Y-305124937D01*
X352528414Y-305123903D01*
X352516493Y-305122180D01*
X352503051Y-305119057D01*
X352491231Y-305114858D01*
X352481034Y-305109581D01*
X352472458Y-305103227D01*
X352464109Y-305094371D01*
X352457488Y-305084553D01*
X352452594Y-305073774D01*
X352449427Y-305062032D01*
X352447987Y-305049329D01*
X352447891Y-305044881D01*
X352448755Y-305031867D01*
X352451346Y-305019834D01*
X352455665Y-305008783D01*
X352461710Y-304998713D01*
X352469483Y-304989625D01*
X352472458Y-304986814D01*
X352482944Y-304979224D01*
X352493466Y-304974098D01*
X352505610Y-304970063D01*
X352519376Y-304967119D01*
X352531557Y-304965549D01*
X352544776Y-304964676D01*
X352555372Y-304964480D01*
X352919688Y-304964480D01*
X352940676Y-304964800D01*
G37*
G36*
X353702479Y-305482619D02*
G01*
X353702479Y-305714888D01*
X354113138Y-305714888D01*
X354113138Y-305625554D01*
X354113487Y-305611626D01*
X354114534Y-305598736D01*
X354116279Y-305586884D01*
X354119441Y-305573530D01*
X354123694Y-305561797D01*
X354129037Y-305551687D01*
X354135471Y-305543199D01*
X354144422Y-305534755D01*
X354154315Y-305528058D01*
X354165151Y-305523108D01*
X354176928Y-305519905D01*
X354189648Y-305518449D01*
X354194097Y-305518352D01*
X354206836Y-305519226D01*
X354218673Y-305521846D01*
X354229606Y-305526214D01*
X354239637Y-305532328D01*
X354248764Y-305540190D01*
X354251606Y-305543199D01*
X354259291Y-305553579D01*
X354264480Y-305564014D01*
X354268566Y-305576071D01*
X354271547Y-305589750D01*
X354273137Y-305601861D01*
X354274020Y-305615010D01*
X354274219Y-305625554D01*
X354274219Y-305875690D01*
X353516553Y-305875690D01*
X353502555Y-305875345D01*
X353489595Y-305874311D01*
X353477674Y-305872588D01*
X353464232Y-305869465D01*
X353452412Y-305865265D01*
X353442215Y-305859989D01*
X353433639Y-305853635D01*
X353425195Y-305844779D01*
X353418499Y-305834961D01*
X353413549Y-305824182D01*
X353410346Y-305812440D01*
X353408890Y-305799737D01*
X353408793Y-305795289D01*
X353409676Y-305782275D01*
X353412326Y-305770242D01*
X353416743Y-305759191D01*
X353422926Y-305749121D01*
X353430876Y-305740033D01*
X353433918Y-305737221D01*
X353444479Y-305729631D01*
X353455019Y-305724506D01*
X353467140Y-305720471D01*
X353480842Y-305717527D01*
X353492942Y-305715957D01*
X353506054Y-305715084D01*
X353516553Y-305714888D01*
X353541678Y-305714888D01*
X353541678Y-305125282D01*
X353516553Y-305125282D01*
X353502555Y-305124937D01*
X353489595Y-305123903D01*
X353477674Y-305122180D01*
X353464232Y-305119057D01*
X353452412Y-305114858D01*
X353442215Y-305109581D01*
X353433639Y-305103227D01*
X353425195Y-305094371D01*
X353418499Y-305084553D01*
X353413549Y-305073774D01*
X353410346Y-305062032D01*
X353408890Y-305049329D01*
X353408793Y-305044881D01*
X353409667Y-305031867D01*
X353412287Y-305019834D01*
X353416655Y-305008783D01*
X353422769Y-304998713D01*
X353430630Y-304989625D01*
X353433639Y-304986814D01*
X353444124Y-304979224D01*
X353454646Y-304974098D01*
X353466791Y-304970063D01*
X353480557Y-304967119D01*
X353492738Y-304965549D01*
X353505957Y-304964676D01*
X353516553Y-304964480D01*
X354238764Y-304965318D01*
X354238764Y-305214616D01*
X354238420Y-305228548D01*
X354237386Y-305241451D01*
X354235663Y-305253325D01*
X354232540Y-305266719D01*
X354228340Y-305278504D01*
X354223063Y-305288681D01*
X354216710Y-305297250D01*
X354208034Y-305305599D01*
X354198337Y-305312221D01*
X354187619Y-305317115D01*
X354175881Y-305320282D01*
X354163122Y-305321721D01*
X354158643Y-305321817D01*
X354145619Y-305320953D01*
X354133557Y-305318362D01*
X354122456Y-305314044D01*
X354112318Y-305307998D01*
X354103141Y-305300225D01*
X354100296Y-305297250D01*
X354092706Y-305286775D01*
X354087581Y-305276276D01*
X354083546Y-305264169D01*
X354080602Y-305250453D01*
X354079031Y-305238322D01*
X354078159Y-305225162D01*
X354077963Y-305214616D01*
X354077963Y-305125282D01*
X353702479Y-305125282D01*
X353702479Y-305321817D01*
X353844018Y-305321817D01*
X353844202Y-305308024D01*
X353844751Y-305295540D01*
X353845667Y-305284365D01*
X353847328Y-305272236D01*
X353850076Y-305260380D01*
X353855022Y-305249152D01*
X353855744Y-305248116D01*
X353863831Y-305238465D01*
X353872914Y-305230450D01*
X353882991Y-305224071D01*
X353894064Y-305219327D01*
X353906132Y-305216219D01*
X353919195Y-305214747D01*
X353924698Y-305214616D01*
X353937533Y-305215489D01*
X353949444Y-305218110D01*
X353960433Y-305222477D01*
X353970500Y-305228592D01*
X353979644Y-305236453D01*
X353982487Y-305239462D01*
X353990076Y-305249843D01*
X353995202Y-305260277D01*
X353999237Y-305272334D01*
X354002181Y-305286013D01*
X354003751Y-305298124D01*
X354004624Y-305311274D01*
X354004820Y-305321817D01*
X354004820Y-305482619D01*
X354004624Y-305496416D01*
X354004035Y-305508913D01*
X354003054Y-305520110D01*
X354001275Y-305532279D01*
X353998330Y-305544200D01*
X353993779Y-305554412D01*
X353992257Y-305556599D01*
X353983983Y-305566169D01*
X353974864Y-305574118D01*
X353964899Y-305580444D01*
X353954090Y-305585148D01*
X353942435Y-305588230D01*
X353929935Y-305589690D01*
X353924698Y-305589820D01*
X353911238Y-305589002D01*
X353898772Y-305586548D01*
X353887301Y-305582459D01*
X353876825Y-305576734D01*
X353867345Y-305569373D01*
X353858859Y-305560376D01*
X353855744Y-305556320D01*
X353850614Y-305545746D01*
X353847728Y-305534381D01*
X353845954Y-305522660D01*
X353844751Y-305508896D01*
X353844202Y-305496411D01*
X353844018Y-305482619D01*
X353702479Y-305482619D01*
G37*
G36*
X354827812Y-305650958D02*
G01*
X355060919Y-305125282D01*
X355024068Y-305125282D01*
X355010070Y-305124937D01*
X354997111Y-305123903D01*
X354985190Y-305122180D01*
X354971748Y-305119057D01*
X354959928Y-305114858D01*
X354949730Y-305109581D01*
X354941155Y-305103227D01*
X354932806Y-305094371D01*
X354926184Y-305084553D01*
X354921290Y-305073774D01*
X354918123Y-305062032D01*
X354916684Y-305049329D01*
X354916588Y-305044881D01*
X354917452Y-305031867D01*
X354920043Y-305019834D01*
X354924361Y-305008783D01*
X354930407Y-304998713D01*
X354938180Y-304989625D01*
X354941155Y-304986814D01*
X354951640Y-304979224D01*
X354962162Y-304974098D01*
X354974306Y-304970063D01*
X354988073Y-304967119D01*
X355000253Y-304965549D01*
X355013473Y-304964676D01*
X355024068Y-304964480D01*
X355239866Y-304964480D01*
X355253925Y-304964829D01*
X355266928Y-304965876D01*
X355278876Y-304967621D01*
X355292326Y-304970783D01*
X355304127Y-304975036D01*
X355314278Y-304980380D01*
X355322780Y-304986814D01*
X355331223Y-304995575D01*
X355337920Y-305005317D01*
X355342870Y-305016041D01*
X355346073Y-305027747D01*
X355347529Y-305040434D01*
X355347626Y-305044881D01*
X355346301Y-305058160D01*
X355343172Y-305068881D01*
X355338204Y-305079288D01*
X355331395Y-305089382D01*
X355322746Y-305099163D01*
X355314502Y-305106762D01*
X355309938Y-305110486D01*
X355300196Y-305116251D01*
X355288974Y-305120066D01*
X355277599Y-305122450D01*
X355264383Y-305124111D01*
X355252486Y-305124920D01*
X355239411Y-305125267D01*
X355235958Y-305125282D01*
X354905421Y-305875690D01*
X354750761Y-305875690D01*
X354421062Y-305125282D01*
X354407561Y-305125046D01*
X354395256Y-305124339D01*
X354384146Y-305123162D01*
X354371939Y-305121027D01*
X354359756Y-305117494D01*
X354348941Y-305112032D01*
X354346524Y-305110207D01*
X354337691Y-305102774D01*
X354328305Y-305093188D01*
X354320760Y-305083275D01*
X354315056Y-305073036D01*
X354311191Y-305062469D01*
X354308983Y-305049356D01*
X354308836Y-305044881D01*
X354309709Y-305031867D01*
X354312330Y-305019834D01*
X354316697Y-305008783D01*
X354322812Y-304998713D01*
X354330673Y-304989625D01*
X354333682Y-304986814D01*
X354344072Y-304979224D01*
X354354530Y-304974098D01*
X354366624Y-304970063D01*
X354380353Y-304967119D01*
X354392515Y-304965549D01*
X354405723Y-304964676D01*
X354416316Y-304964480D01*
X354633789Y-304964480D01*
X354647652Y-304964829D01*
X354660485Y-304965876D01*
X354672288Y-304967621D01*
X354685595Y-304970783D01*
X354697294Y-304975036D01*
X354707384Y-304980380D01*
X354715865Y-304986814D01*
X354724309Y-304995575D01*
X354731006Y-305005317D01*
X354735955Y-305016041D01*
X354739158Y-305027747D01*
X354740614Y-305040434D01*
X354740711Y-305044881D01*
X354739847Y-305057905D01*
X354737256Y-305069967D01*
X354732938Y-305081067D01*
X354726892Y-305091206D01*
X354719119Y-305100382D01*
X354716144Y-305103227D01*
X354705849Y-305110722D01*
X354695455Y-305115784D01*
X354683412Y-305119768D01*
X354669719Y-305122676D01*
X354657577Y-305124226D01*
X354644380Y-305125088D01*
X354633789Y-305125282D01*
X354596101Y-305125282D01*
X354827812Y-305650958D01*
G37*
G36*
X356978534Y-305354759D02*
G01*
X356991616Y-305363631D01*
X357004059Y-305372762D01*
X357015864Y-305382154D01*
X357027031Y-305391806D01*
X357037561Y-305401718D01*
X357047452Y-305411890D01*
X357056706Y-305422322D01*
X357065321Y-305433014D01*
X357073299Y-305443966D01*
X357080639Y-305455178D01*
X357085177Y-305462798D01*
X357091513Y-305474443D01*
X357097226Y-305486349D01*
X357102316Y-305498515D01*
X357106782Y-305510941D01*
X357110626Y-305523627D01*
X357113846Y-305536574D01*
X357116442Y-305549780D01*
X357118416Y-305563246D01*
X357119766Y-305576973D01*
X357120493Y-305590959D01*
X357120632Y-305600428D01*
X357120220Y-305615710D01*
X357118983Y-305630775D01*
X357116922Y-305645624D01*
X357114036Y-305660258D01*
X357110326Y-305674675D01*
X357105792Y-305688877D01*
X357100433Y-305702863D01*
X357094250Y-305716633D01*
X357087243Y-305730187D01*
X357079411Y-305743525D01*
X357073731Y-305752297D01*
X357064619Y-305765083D01*
X357054766Y-305777271D01*
X357044172Y-305788861D01*
X357032837Y-305799851D01*
X357020761Y-305810243D01*
X357007944Y-305820037D01*
X356994386Y-305829231D01*
X356980087Y-305837827D01*
X356970143Y-305843225D01*
X356959869Y-305848357D01*
X356949266Y-305853223D01*
X356938334Y-305857823D01*
X356927056Y-305862150D01*
X356915346Y-305866198D01*
X356903204Y-305869967D01*
X356890631Y-305873456D01*
X356877626Y-305876667D01*
X356864188Y-305879598D01*
X356850319Y-305882250D01*
X356836018Y-305884623D01*
X356821286Y-305886717D01*
X356806121Y-305888531D01*
X356790525Y-305890067D01*
X356774496Y-305891323D01*
X356758036Y-305892300D01*
X356741144Y-305892998D01*
X356723821Y-305893417D01*
X356706065Y-305893556D01*
X356694482Y-305893501D01*
X356683080Y-305893334D01*
X356671859Y-305893056D01*
X356649957Y-305892166D01*
X356628777Y-305890831D01*
X356608319Y-305889051D01*
X356588583Y-305886827D01*
X356569569Y-305884157D01*
X356551277Y-305881043D01*
X356533707Y-305877483D01*
X356516859Y-305873479D01*
X356500732Y-305869030D01*
X356485328Y-305864136D01*
X356470645Y-305858796D01*
X356456684Y-305853012D01*
X356443446Y-305846783D01*
X356430929Y-305840110D01*
X356424941Y-305836606D01*
X356415562Y-305830476D01*
X356404491Y-305821959D01*
X356395060Y-305813049D01*
X356387270Y-305803747D01*
X356381119Y-305794053D01*
X356375738Y-305781383D01*
X356372919Y-305768099D01*
X356372457Y-305759834D01*
X356373272Y-305747530D01*
X356375716Y-305735952D01*
X356379789Y-305725100D01*
X356385491Y-305714975D01*
X356392822Y-305705576D01*
X356395628Y-305702604D01*
X356404661Y-305694635D01*
X356414381Y-305688314D01*
X356424787Y-305683643D01*
X356435881Y-305680620D01*
X356447662Y-305679246D01*
X356451741Y-305679154D01*
X356463170Y-305680061D01*
X356474843Y-305682783D01*
X356486760Y-305687320D01*
X356497388Y-305692778D01*
X356498921Y-305693671D01*
X356509563Y-305700121D01*
X356520028Y-305705863D01*
X356530315Y-305710895D01*
X356542427Y-305715999D01*
X356554283Y-305720082D01*
X356563968Y-305722705D01*
X356576312Y-305725060D01*
X356589756Y-305727101D01*
X356604299Y-305728829D01*
X356615928Y-305729918D01*
X356628174Y-305730831D01*
X356641040Y-305731567D01*
X356654523Y-305732127D01*
X356668625Y-305732509D01*
X356683345Y-305732715D01*
X356693502Y-305732755D01*
X356710752Y-305732622D01*
X356727395Y-305732223D01*
X356743432Y-305731557D01*
X356758863Y-305730626D01*
X356773687Y-305729429D01*
X356787905Y-305727965D01*
X356801517Y-305726236D01*
X356814522Y-305724240D01*
X356826921Y-305721978D01*
X356838714Y-305719451D01*
X356849901Y-305716657D01*
X356865543Y-305711967D01*
X356879822Y-305706678D01*
X356892736Y-305700791D01*
X356896738Y-305698696D01*
X356907963Y-305692062D01*
X356918084Y-305684933D01*
X356927102Y-305677308D01*
X356935015Y-305669187D01*
X356943848Y-305657588D01*
X356950718Y-305645109D01*
X356955625Y-305631748D01*
X356958569Y-305617506D01*
X356959490Y-305606246D01*
X356959551Y-305602382D01*
X356958979Y-305590919D01*
X356957265Y-305579560D01*
X356954408Y-305568306D01*
X356950408Y-305557157D01*
X356945265Y-305546112D01*
X356938980Y-305535172D01*
X356931551Y-305524337D01*
X356922980Y-305513607D01*
X356913514Y-305503168D01*
X356903263Y-305493349D01*
X356892227Y-305484150D01*
X356880406Y-305475570D01*
X356867800Y-305467609D01*
X356857830Y-305462045D01*
X356847419Y-305456829D01*
X356836565Y-305451962D01*
X356825270Y-305447443D01*
X356813085Y-305443460D01*
X356801620Y-305440568D01*
X356788627Y-305437938D01*
X356774108Y-305435569D01*
X356762217Y-305433965D01*
X356749467Y-305432507D01*
X356735859Y-305431197D01*
X356721391Y-305430034D01*
X356706065Y-305429018D01*
X356694033Y-305427830D01*
X356682886Y-305425659D01*
X356670680Y-305421760D01*
X356659750Y-305416447D01*
X356650096Y-305409721D01*
X356644368Y-305404451D01*
X356637063Y-305395713D01*
X356630451Y-305384601D01*
X356625895Y-305372499D01*
X356623628Y-305361340D01*
X356622872Y-305349455D01*
X356623697Y-305336961D01*
X356626170Y-305325233D01*
X356630292Y-305314270D01*
X356636063Y-305304072D01*
X356643483Y-305294641D01*
X356646323Y-305291667D01*
X356655653Y-305283697D01*
X356665847Y-305277377D01*
X356676905Y-305272705D01*
X356688826Y-305269682D01*
X356701611Y-305268308D01*
X356706065Y-305268217D01*
X356720433Y-305268209D01*
X356733490Y-305268187D01*
X356745237Y-305268150D01*
X356758862Y-305268078D01*
X356770158Y-305267980D01*
X356782733Y-305267784D01*
X356791770Y-305267379D01*
X356803495Y-305265881D01*
X356815220Y-305263479D01*
X356826945Y-305260175D01*
X356838670Y-305255968D01*
X356850396Y-305250858D01*
X356854304Y-305248954D01*
X356865702Y-305242679D01*
X356876236Y-305235580D01*
X356885907Y-305227656D01*
X356894714Y-305218908D01*
X356902657Y-305209336D01*
X356905113Y-305205962D01*
X356911659Y-305195643D01*
X356916851Y-305185207D01*
X356920689Y-305174653D01*
X356923454Y-305162192D01*
X356924376Y-305149569D01*
X356923669Y-305138246D01*
X356920798Y-305124631D01*
X356915719Y-305111615D01*
X356910066Y-305101635D01*
X356902999Y-305092039D01*
X356894520Y-305082826D01*
X356884627Y-305073997D01*
X356879150Y-305069727D01*
X356867141Y-305061810D01*
X356857213Y-305056565D01*
X356846495Y-305051914D01*
X356834986Y-305047856D01*
X356822688Y-305044392D01*
X356809599Y-305041522D01*
X356795721Y-305039246D01*
X356781052Y-305037564D01*
X356765593Y-305036475D01*
X356749345Y-305035980D01*
X356743753Y-305035947D01*
X356729450Y-305036227D01*
X356715574Y-305037064D01*
X356702126Y-305038460D01*
X356689105Y-305040414D01*
X356676512Y-305042927D01*
X356664347Y-305045998D01*
X356652608Y-305049627D01*
X356641298Y-305053814D01*
X356630414Y-305058560D01*
X356619959Y-305063864D01*
X356609930Y-305069727D01*
X356600329Y-305076148D01*
X356591156Y-305083127D01*
X356582410Y-305090665D01*
X356574092Y-305098761D01*
X356566201Y-305107415D01*
X356558705Y-305115745D01*
X356550009Y-305124374D01*
X356540821Y-305131743D01*
X356537167Y-305133936D01*
X356526491Y-305138794D01*
X356515052Y-305141853D01*
X356502849Y-305143113D01*
X356500317Y-305143149D01*
X356488288Y-305142304D01*
X356476906Y-305139772D01*
X356466172Y-305135552D01*
X356456086Y-305129644D01*
X356446648Y-305122047D01*
X356443646Y-305119140D01*
X356435676Y-305109639D01*
X356429356Y-305099354D01*
X356424684Y-305088283D01*
X356421661Y-305076427D01*
X356420287Y-305063786D01*
X356420195Y-305059398D01*
X356421325Y-305045561D01*
X356424714Y-305031830D01*
X356430363Y-305018203D01*
X356436083Y-305008051D01*
X356443073Y-304997959D01*
X356451334Y-304987925D01*
X356460867Y-304977950D01*
X356471670Y-304968034D01*
X356483745Y-304958177D01*
X356492500Y-304951638D01*
X356505861Y-304942375D01*
X356519632Y-304933710D01*
X356533813Y-304925643D01*
X356548404Y-304918173D01*
X356563405Y-304911300D01*
X356578816Y-304905026D01*
X356594637Y-304899348D01*
X356610868Y-304894269D01*
X356627509Y-304889787D01*
X356644560Y-304885902D01*
X356662022Y-304882616D01*
X356679893Y-304879927D01*
X356698174Y-304877835D01*
X356716865Y-304876341D01*
X356735967Y-304875445D01*
X356755478Y-304875146D01*
X356773882Y-304875461D01*
X356791827Y-304876406D01*
X356809311Y-304877982D01*
X356826335Y-304880188D01*
X356842898Y-304883025D01*
X356859002Y-304886491D01*
X356874645Y-304890588D01*
X356889828Y-304895316D01*
X356904551Y-304900673D01*
X356918814Y-304906661D01*
X356932616Y-304913280D01*
X356945959Y-304920528D01*
X356958841Y-304928407D01*
X356971263Y-304936916D01*
X356983225Y-304946056D01*
X356994726Y-304955826D01*
X357005679Y-304966039D01*
X357015926Y-304976510D01*
X357025465Y-304987239D01*
X357034299Y-304998225D01*
X357042425Y-305009468D01*
X357049845Y-305020968D01*
X357056558Y-305032726D01*
X357062564Y-305044741D01*
X357067864Y-305057014D01*
X357072458Y-305069544D01*
X357076344Y-305082331D01*
X357079524Y-305095376D01*
X357081997Y-305108678D01*
X357083764Y-305122237D01*
X357084824Y-305136054D01*
X357085177Y-305150128D01*
X357084758Y-305164736D01*
X357083502Y-305179109D01*
X357081408Y-305193246D01*
X357078477Y-305207148D01*
X357074708Y-305220814D01*
X357070102Y-305234245D01*
X357064658Y-305247440D01*
X357058377Y-305260400D01*
X357051328Y-305273050D01*
X357043441Y-305285455D01*
X357036977Y-305294599D01*
X357030041Y-305303606D01*
X357022634Y-305312475D01*
X357014757Y-305321206D01*
X357006408Y-305329801D01*
X356997588Y-305338258D01*
X356988297Y-305346577D01*
X356978534Y-305354759D01*
G37*
G36*
X352907963Y-307981860D02*
G01*
X352758607Y-308415690D01*
X352577984Y-308415690D01*
X352482229Y-307665282D01*
X352469039Y-307664506D01*
X352457104Y-307662180D01*
X352446426Y-307658304D01*
X352435556Y-307651821D01*
X352426395Y-307643227D01*
X352419107Y-307632802D01*
X352413609Y-307621067D01*
X352410321Y-307609967D01*
X352408349Y-307597905D01*
X352407691Y-307584881D01*
X352408555Y-307571867D01*
X352411146Y-307559834D01*
X352415464Y-307548783D01*
X352421510Y-307538713D01*
X352429283Y-307529625D01*
X352432258Y-307526814D01*
X352442743Y-307519224D01*
X352453265Y-307514098D01*
X352465409Y-307510063D01*
X352479176Y-307507119D01*
X352491357Y-307505549D01*
X352504576Y-307504676D01*
X352515171Y-307504480D01*
X352729574Y-307504480D01*
X352743571Y-307504829D01*
X352756531Y-307505876D01*
X352768452Y-307507621D01*
X352781894Y-307510783D01*
X352793714Y-307515036D01*
X352803911Y-307520380D01*
X352812487Y-307526814D01*
X352820931Y-307535575D01*
X352827627Y-307545317D01*
X352832577Y-307556041D01*
X352835780Y-307567747D01*
X352837236Y-307580434D01*
X352837333Y-307584881D01*
X352836459Y-307597905D01*
X352833839Y-307609967D01*
X352829472Y-307621067D01*
X352823357Y-307631206D01*
X352815496Y-307640382D01*
X352812487Y-307643227D01*
X352802002Y-307650722D01*
X352791480Y-307655784D01*
X352779335Y-307659768D01*
X352765569Y-307662676D01*
X352753388Y-307664226D01*
X352740169Y-307665088D01*
X352729574Y-307665282D01*
X352645543Y-307665282D01*
X352699144Y-308092132D01*
X352825329Y-307736749D01*
X352992551Y-307736749D01*
X353118178Y-308092132D01*
X353171778Y-307665282D01*
X353087748Y-307665282D01*
X353073750Y-307664937D01*
X353060791Y-307663903D01*
X353048869Y-307662180D01*
X353035427Y-307659057D01*
X353023608Y-307654858D01*
X353013410Y-307649581D01*
X353004835Y-307643227D01*
X352996391Y-307634371D01*
X352989694Y-307624553D01*
X352984744Y-307613774D01*
X352981541Y-307602032D01*
X352980086Y-307589329D01*
X352979989Y-307584881D01*
X352980862Y-307571867D01*
X352983483Y-307559834D01*
X352987850Y-307548783D01*
X352993965Y-307538713D01*
X353001826Y-307529625D01*
X353004835Y-307526814D01*
X353015320Y-307519224D01*
X353025842Y-307514098D01*
X353037986Y-307510063D01*
X353051752Y-307507119D01*
X353063933Y-307505549D01*
X353077152Y-307504676D01*
X353087748Y-307504480D01*
X353301313Y-307504480D01*
X353315306Y-307504829D01*
X353328253Y-307505876D01*
X353340152Y-307507621D01*
X353353555Y-307510783D01*
X353365321Y-307515036D01*
X353375452Y-307520380D01*
X353383947Y-307526814D01*
X353392391Y-307535575D01*
X353399088Y-307545317D01*
X353404037Y-307556041D01*
X353407240Y-307567747D01*
X353408696Y-307580434D01*
X353408793Y-307584881D01*
X353408096Y-307597905D01*
X353406006Y-307609967D01*
X353402522Y-307621067D01*
X353397644Y-307631206D01*
X353390191Y-307641818D01*
X353388972Y-307643227D01*
X353379594Y-307651821D01*
X353368560Y-307658304D01*
X353357784Y-307662180D01*
X353345790Y-307664506D01*
X353332580Y-307665282D01*
X353239895Y-308415690D01*
X353062623Y-308415690D01*
X352907963Y-307981860D01*
G37*
G36*
X353876454Y-307719119D02*
G01*
X353894409Y-307719829D01*
X353911839Y-307721012D01*
X353928746Y-307722668D01*
X353945130Y-307724798D01*
X353960990Y-307727401D01*
X353976327Y-307730478D01*
X353991141Y-307734027D01*
X354005431Y-307738050D01*
X354019197Y-307742546D01*
X354032440Y-307747516D01*
X354045160Y-307752958D01*
X354057356Y-307758874D01*
X354069029Y-307765264D01*
X354080178Y-307772126D01*
X354090804Y-307779462D01*
X354100845Y-307787208D01*
X354110237Y-307795301D01*
X354118982Y-307803740D01*
X354127079Y-307812526D01*
X354134528Y-307821659D01*
X354141330Y-307831139D01*
X354147483Y-307840965D01*
X354152989Y-307851139D01*
X354157848Y-307861659D01*
X354162058Y-307872526D01*
X354165621Y-307883740D01*
X354168536Y-307895300D01*
X354170803Y-307907207D01*
X354172422Y-307919461D01*
X354173394Y-307932062D01*
X354173718Y-307945010D01*
X354173718Y-308254888D01*
X354201076Y-308254888D01*
X354215074Y-308255237D01*
X354228034Y-308256284D01*
X354239955Y-308258028D01*
X354253397Y-308261191D01*
X354265217Y-308265444D01*
X354275414Y-308270787D01*
X354283990Y-308277221D01*
X354292433Y-308285983D01*
X354299130Y-308295725D01*
X354304080Y-308306449D01*
X354307283Y-308318155D01*
X354308739Y-308330842D01*
X354308836Y-308335289D01*
X354307962Y-308348313D01*
X354305342Y-308360375D01*
X354300974Y-308371475D01*
X354294860Y-308381613D01*
X354286998Y-308390790D01*
X354283990Y-308393635D01*
X354273504Y-308401130D01*
X354262982Y-308406191D01*
X354250838Y-308410176D01*
X354237072Y-308413083D01*
X354224891Y-308414634D01*
X354211672Y-308415496D01*
X354201076Y-308415690D01*
X354012637Y-308415690D01*
X354012637Y-308326355D01*
X354001168Y-308336170D01*
X353989478Y-308345513D01*
X353977567Y-308354386D01*
X353965435Y-308362787D01*
X353953083Y-308370717D01*
X353940510Y-308378176D01*
X353927716Y-308385164D01*
X353914701Y-308391681D01*
X353901465Y-308397727D01*
X353888008Y-308403301D01*
X353878915Y-308406756D01*
X353865371Y-308411546D01*
X353852062Y-308415864D01*
X353838989Y-308419711D01*
X353826152Y-308423087D01*
X353813550Y-308425993D01*
X353801183Y-308428427D01*
X353789053Y-308430390D01*
X353777157Y-308431881D01*
X353765498Y-308432902D01*
X353754073Y-308433452D01*
X353746588Y-308433556D01*
X353730552Y-308433306D01*
X353714898Y-308432553D01*
X353699626Y-308431299D01*
X353684735Y-308429543D01*
X353670226Y-308427286D01*
X353656098Y-308424527D01*
X353642352Y-308421266D01*
X353628988Y-308417504D01*
X353616006Y-308413240D01*
X353603405Y-308408475D01*
X353591186Y-308403208D01*
X353579348Y-308397439D01*
X353567892Y-308391168D01*
X353556818Y-308384396D01*
X353546126Y-308377123D01*
X353535815Y-308369347D01*
X353526045Y-308361233D01*
X353516906Y-308353012D01*
X353508397Y-308344683D01*
X353500518Y-308336248D01*
X353493269Y-308327706D01*
X353483578Y-308314693D01*
X353475305Y-308301439D01*
X353468451Y-308287945D01*
X353463014Y-308274211D01*
X353458996Y-308260235D01*
X353456396Y-308246020D01*
X353455214Y-308231564D01*
X353455135Y-308226692D01*
X353455336Y-308220829D01*
X353621799Y-308220829D01*
X353623871Y-308231838D01*
X353630087Y-308241483D01*
X353639225Y-308248999D01*
X353643016Y-308251259D01*
X353653245Y-308256297D01*
X353664390Y-308260663D01*
X353676451Y-308264358D01*
X353689428Y-308267381D01*
X353703321Y-308269732D01*
X353718130Y-308271411D01*
X353729838Y-308272230D01*
X353742062Y-308272671D01*
X353750497Y-308272755D01*
X353765253Y-308272462D01*
X353776636Y-308271860D01*
X353788288Y-308270928D01*
X353800210Y-308269668D01*
X353812402Y-308268079D01*
X353824865Y-308266161D01*
X353837596Y-308263914D01*
X353850598Y-308261338D01*
X353863870Y-308258434D01*
X353877412Y-308255201D01*
X353881986Y-308254050D01*
X353895610Y-308250373D01*
X353908949Y-308246460D01*
X353922004Y-308242312D01*
X353934775Y-308237928D01*
X353947260Y-308233309D01*
X353959462Y-308228454D01*
X353971378Y-308223363D01*
X353983010Y-308218037D01*
X353994357Y-308212476D01*
X354005420Y-308206679D01*
X354012637Y-308202683D01*
X354012637Y-308145453D01*
X354000622Y-308143560D01*
X353988724Y-308141789D01*
X353976945Y-308140140D01*
X353965283Y-308138614D01*
X353953739Y-308137209D01*
X353942312Y-308135927D01*
X353931004Y-308134766D01*
X353919813Y-308133728D01*
X353903248Y-308132400D01*
X353886947Y-308131347D01*
X353870912Y-308130568D01*
X353855142Y-308130064D01*
X353839636Y-308129835D01*
X353834527Y-308129820D01*
X353822351Y-308129975D01*
X353810392Y-308130439D01*
X353798648Y-308131214D01*
X353787120Y-308132297D01*
X353775808Y-308133691D01*
X353764712Y-308135395D01*
X353748473Y-308138530D01*
X353732720Y-308142363D01*
X353717453Y-308146892D01*
X353702671Y-308152119D01*
X353688376Y-308158042D01*
X353674566Y-308164662D01*
X353665629Y-308169462D01*
X353655357Y-308175822D01*
X353644442Y-308183796D01*
X353635667Y-308191798D01*
X353627963Y-308201436D01*
X353622870Y-308212729D01*
X353621799Y-308220829D01*
X353455336Y-308220829D01*
X353455539Y-308214880D01*
X353456749Y-308203176D01*
X353458767Y-308191578D01*
X353461591Y-308180088D01*
X353465222Y-308168704D01*
X353469661Y-308157427D01*
X353474906Y-308146257D01*
X353480958Y-308135194D01*
X353487818Y-308124238D01*
X353495484Y-308113388D01*
X353503957Y-308102646D01*
X353513237Y-308092010D01*
X353523325Y-308081481D01*
X353534219Y-308071059D01*
X353545920Y-308060744D01*
X353558428Y-308050536D01*
X353571647Y-308040664D01*
X353585481Y-308031430D01*
X353599930Y-308022832D01*
X353614995Y-308014872D01*
X353630674Y-308007548D01*
X353646968Y-308000861D01*
X353663878Y-307994811D01*
X353681402Y-307989398D01*
X353699542Y-307984621D01*
X353718296Y-307980482D01*
X353737666Y-307976979D01*
X353757650Y-307974113D01*
X353778250Y-307971884D01*
X353799465Y-307970292D01*
X353821294Y-307969337D01*
X353843739Y-307969018D01*
X353857652Y-307969156D01*
X353871963Y-307969568D01*
X353886671Y-307970255D01*
X353901776Y-307971217D01*
X353917279Y-307972453D01*
X353933179Y-307973965D01*
X353949477Y-307975751D01*
X353960563Y-307977094D01*
X353971826Y-307978560D01*
X353983265Y-307980148D01*
X353994882Y-307981858D01*
X354006674Y-307983690D01*
X354012637Y-307984652D01*
X354012637Y-307951151D01*
X354011547Y-307939734D01*
X354007523Y-307927455D01*
X354001712Y-307917824D01*
X353993723Y-307909017D01*
X353983556Y-307901034D01*
X353981649Y-307899784D01*
X353970595Y-307893994D01*
X353959780Y-307890068D01*
X353947211Y-307886770D01*
X353932888Y-307884100D01*
X353920995Y-307882511D01*
X353908116Y-307881274D01*
X353894250Y-307880391D01*
X353879399Y-307879861D01*
X353863560Y-307879684D01*
X353849787Y-307879915D01*
X353835268Y-307880606D01*
X353820003Y-307881760D01*
X353803993Y-307883374D01*
X353792904Y-307884707D01*
X353781484Y-307886244D01*
X353769733Y-307887987D01*
X353757650Y-307889935D01*
X353745236Y-307892087D01*
X353732490Y-307894445D01*
X353719413Y-307897008D01*
X353706004Y-307899775D01*
X353692264Y-307902748D01*
X353678192Y-307905926D01*
X353665395Y-307908660D01*
X353653524Y-307910931D01*
X353640504Y-307913045D01*
X353628818Y-307914491D01*
X353616871Y-307915334D01*
X353612308Y-307915418D01*
X353600517Y-307914613D01*
X353589433Y-307912198D01*
X353577395Y-307907347D01*
X353567842Y-307901446D01*
X353558996Y-307893934D01*
X353557590Y-307892526D01*
X353550001Y-307883500D01*
X353543981Y-307873590D01*
X353539532Y-307862797D01*
X353536653Y-307851121D01*
X353535344Y-307838562D01*
X353535257Y-307834179D01*
X353536020Y-307822162D01*
X353538623Y-307810202D01*
X353543074Y-307799562D01*
X353549206Y-307790083D01*
X353557627Y-307781322D01*
X353565128Y-307775833D01*
X353575544Y-307770521D01*
X353586973Y-307765992D01*
X353599087Y-307761834D01*
X353610817Y-307758174D01*
X353624033Y-307754337D01*
X353635254Y-307751360D01*
X353646515Y-307748500D01*
X353657815Y-307745759D01*
X353669154Y-307743135D01*
X353680532Y-307740629D01*
X353691950Y-307738241D01*
X353703406Y-307735970D01*
X353714903Y-307733818D01*
X353726438Y-307731783D01*
X353738013Y-307729866D01*
X353745751Y-307728653D01*
X353757268Y-307726907D01*
X353768579Y-307725333D01*
X353779685Y-307723930D01*
X353794171Y-307722327D01*
X353808291Y-307721029D01*
X353822044Y-307720037D01*
X353835431Y-307719350D01*
X353848452Y-307718968D01*
X353857977Y-307718882D01*
X353876454Y-307719119D01*
G37*
G36*
X354738199Y-308397823D02*
G01*
X354459587Y-307897551D01*
X354447750Y-307897012D01*
X354434769Y-307894945D01*
X354423122Y-307891326D01*
X354412810Y-307886157D01*
X354403833Y-307879438D01*
X354399845Y-307875496D01*
X354392919Y-307866640D01*
X354387426Y-307856823D01*
X354383366Y-307846043D01*
X354380739Y-307834301D01*
X354379545Y-307821598D01*
X354379466Y-307817150D01*
X354380329Y-307804136D01*
X354382920Y-307792103D01*
X354387239Y-307781052D01*
X354393285Y-307770982D01*
X354401058Y-307761894D01*
X354404033Y-307759083D01*
X354414518Y-307751493D01*
X354425040Y-307746367D01*
X354437184Y-307742332D01*
X354450950Y-307739388D01*
X354463131Y-307737818D01*
X354476350Y-307736945D01*
X354486946Y-307736749D01*
X354633789Y-307736749D01*
X354647787Y-307737098D01*
X354660746Y-307738145D01*
X354672668Y-307739890D01*
X354686110Y-307743052D01*
X354697929Y-307747305D01*
X354708127Y-307752649D01*
X354716703Y-307759083D01*
X354725146Y-307767844D01*
X354731843Y-307777586D01*
X354736793Y-307788310D01*
X354739996Y-307800016D01*
X354741452Y-307812703D01*
X354741549Y-307817150D01*
X354740675Y-307830174D01*
X354738055Y-307842236D01*
X354733687Y-307853336D01*
X354727573Y-307863475D01*
X354719711Y-307872651D01*
X354716703Y-307875496D01*
X354706384Y-307882991D01*
X354696256Y-307888053D01*
X354684738Y-307892037D01*
X354671829Y-307894945D01*
X354660501Y-307896495D01*
X354648283Y-307897357D01*
X354638535Y-307897551D01*
X354828650Y-308234229D01*
X355017089Y-307897551D01*
X355004531Y-307897206D01*
X354992819Y-307896172D01*
X354979369Y-307893911D01*
X354967241Y-307890573D01*
X354956435Y-307886157D01*
X354945214Y-307879438D01*
X354940317Y-307875496D01*
X354931968Y-307866640D01*
X354925347Y-307856823D01*
X354920453Y-307846043D01*
X354917286Y-307834301D01*
X354915846Y-307821598D01*
X354915750Y-307817150D01*
X354916614Y-307804136D01*
X354919205Y-307792103D01*
X354923524Y-307781052D01*
X354929569Y-307770982D01*
X354937342Y-307761894D01*
X354940317Y-307759083D01*
X354950803Y-307751493D01*
X354961325Y-307746367D01*
X354973469Y-307742332D01*
X354987235Y-307739388D01*
X354999416Y-307737818D01*
X355012635Y-307736945D01*
X355023231Y-307736749D01*
X355174820Y-307736749D01*
X355188621Y-307737098D01*
X355201411Y-307738145D01*
X355213188Y-307739890D01*
X355226487Y-307743052D01*
X355238204Y-307747305D01*
X355248341Y-307752649D01*
X355256896Y-307759083D01*
X355265339Y-307767844D01*
X355272036Y-307777586D01*
X355276986Y-307788310D01*
X355280189Y-307800016D01*
X355281645Y-307812703D01*
X355281742Y-307817150D01*
X355280996Y-307830174D01*
X355278758Y-307842236D01*
X355275029Y-307853336D01*
X355269807Y-307863475D01*
X355263094Y-307872651D01*
X355260525Y-307875496D01*
X355251852Y-307882991D01*
X355241746Y-307888936D01*
X355230208Y-307893329D01*
X355217236Y-307896172D01*
X355205332Y-307897357D01*
X355197712Y-307897551D01*
X354828650Y-308558624D01*
X354843079Y-308558624D01*
X354856218Y-308558624D01*
X354868065Y-308558624D01*
X354881058Y-308558624D01*
X354893987Y-308558624D01*
X354905399Y-308558624D01*
X354907934Y-308558624D01*
X354916767Y-308569590D01*
X354924422Y-308580295D01*
X354930900Y-308590738D01*
X354936200Y-308600919D01*
X354941168Y-308613277D01*
X354944297Y-308625226D01*
X354945585Y-308636766D01*
X354945622Y-308639025D01*
X354944748Y-308652039D01*
X354942128Y-308664072D01*
X354937760Y-308675123D01*
X354931646Y-308685193D01*
X354923784Y-308694281D01*
X354920775Y-308697092D01*
X354910375Y-308704682D01*
X354899894Y-308709808D01*
X354887764Y-308713843D01*
X354873984Y-308716787D01*
X354861772Y-308718357D01*
X354848505Y-308719230D01*
X354837862Y-308719426D01*
X354486946Y-308719426D01*
X354472948Y-308719077D01*
X354459989Y-308718030D01*
X354448067Y-308716285D01*
X354434625Y-308713123D01*
X354422806Y-308708870D01*
X354412608Y-308703526D01*
X354404033Y-308697092D01*
X354395684Y-308688331D01*
X354389062Y-308678589D01*
X354384168Y-308667865D01*
X354381001Y-308656159D01*
X354379562Y-308643472D01*
X354379466Y-308639025D01*
X354380329Y-308626001D01*
X354382920Y-308613939D01*
X354387239Y-308602839D01*
X354393285Y-308592700D01*
X354401058Y-308583524D01*
X354404033Y-308580679D01*
X354414518Y-308573184D01*
X354425040Y-308568122D01*
X354437184Y-308564138D01*
X354450950Y-308561230D01*
X354463131Y-308559680D01*
X354476350Y-308558818D01*
X354486946Y-308558624D01*
X354647189Y-308558624D01*
X354738199Y-308397823D01*
G37*
G36*
X355788993Y-307981860D02*
G01*
X355639637Y-308415690D01*
X355459014Y-308415690D01*
X355363259Y-307665282D01*
X355350069Y-307664506D01*
X355338134Y-307662180D01*
X355327456Y-307658304D01*
X355316586Y-307651821D01*
X355307425Y-307643227D01*
X355300137Y-307632802D01*
X355294639Y-307621067D01*
X355291351Y-307609967D01*
X355289379Y-307597905D01*
X355288721Y-307584881D01*
X355289585Y-307571867D01*
X355292176Y-307559834D01*
X355296494Y-307548783D01*
X355302540Y-307538713D01*
X355310313Y-307529625D01*
X355313288Y-307526814D01*
X355323773Y-307519224D01*
X355334295Y-307514098D01*
X355346439Y-307510063D01*
X355360206Y-307507119D01*
X355372387Y-307505549D01*
X355385606Y-307504676D01*
X355396201Y-307504480D01*
X355610604Y-307504480D01*
X355624601Y-307504829D01*
X355637561Y-307505876D01*
X355649482Y-307507621D01*
X355662924Y-307510783D01*
X355674744Y-307515036D01*
X355684941Y-307520380D01*
X355693517Y-307526814D01*
X355701961Y-307535575D01*
X355708657Y-307545317D01*
X355713607Y-307556041D01*
X355716810Y-307567747D01*
X355718266Y-307580434D01*
X355718363Y-307584881D01*
X355717489Y-307597905D01*
X355714869Y-307609967D01*
X355710502Y-307621067D01*
X355704387Y-307631206D01*
X355696526Y-307640382D01*
X355693517Y-307643227D01*
X355683032Y-307650722D01*
X355672510Y-307655784D01*
X355660365Y-307659768D01*
X355646599Y-307662676D01*
X355634418Y-307664226D01*
X355621199Y-307665088D01*
X355610604Y-307665282D01*
X355526573Y-307665282D01*
X355580174Y-308092132D01*
X355706359Y-307736749D01*
X355873581Y-307736749D01*
X355999208Y-308092132D01*
X356052808Y-307665282D01*
X355968778Y-307665282D01*
X355954780Y-307664937D01*
X355941821Y-307663903D01*
X355929899Y-307662180D01*
X355916457Y-307659057D01*
X355904638Y-307654858D01*
X355894440Y-307649581D01*
X355885865Y-307643227D01*
X355877421Y-307634371D01*
X355870724Y-307624553D01*
X355865774Y-307613774D01*
X355862572Y-307602032D01*
X355861116Y-307589329D01*
X355861019Y-307584881D01*
X355861892Y-307571867D01*
X355864513Y-307559834D01*
X355868880Y-307548783D01*
X355874995Y-307538713D01*
X355882856Y-307529625D01*
X355885865Y-307526814D01*
X355896350Y-307519224D01*
X355906872Y-307514098D01*
X355919016Y-307510063D01*
X355932782Y-307507119D01*
X355944963Y-307505549D01*
X355958182Y-307504676D01*
X355968778Y-307504480D01*
X356182343Y-307504480D01*
X356196336Y-307504829D01*
X356209283Y-307505876D01*
X356221182Y-307507621D01*
X356234585Y-307510783D01*
X356246351Y-307515036D01*
X356256482Y-307520380D01*
X356264977Y-307526814D01*
X356273421Y-307535575D01*
X356280118Y-307545317D01*
X356285067Y-307556041D01*
X356288270Y-307567747D01*
X356289726Y-307580434D01*
X356289823Y-307584881D01*
X356289126Y-307597905D01*
X356287036Y-307609967D01*
X356283552Y-307621067D01*
X356278674Y-307631206D01*
X356271222Y-307641818D01*
X356270002Y-307643227D01*
X356260624Y-307651821D01*
X356249590Y-307658304D01*
X356238814Y-307662180D01*
X356226820Y-307664506D01*
X356213610Y-307665282D01*
X356120925Y-308415690D01*
X355943653Y-308415690D01*
X355788993Y-307981860D01*
G37*
G36*
X356757484Y-307719119D02*
G01*
X356775439Y-307719829D01*
X356792869Y-307721012D01*
X356809776Y-307722668D01*
X356826160Y-307724798D01*
X356842021Y-307727401D01*
X356857357Y-307730478D01*
X356872171Y-307734027D01*
X356886461Y-307738050D01*
X356900227Y-307742546D01*
X356913470Y-307747516D01*
X356926190Y-307752958D01*
X356938386Y-307758874D01*
X356950059Y-307765264D01*
X356961208Y-307772126D01*
X356971834Y-307779462D01*
X356981875Y-307787208D01*
X356991267Y-307795301D01*
X357000012Y-307803740D01*
X357008109Y-307812526D01*
X357015558Y-307821659D01*
X357022360Y-307831139D01*
X357028513Y-307840965D01*
X357034019Y-307851139D01*
X357038878Y-307861659D01*
X357043088Y-307872526D01*
X357046651Y-307883740D01*
X357049566Y-307895300D01*
X357051833Y-307907207D01*
X357053452Y-307919461D01*
X357054424Y-307932062D01*
X357054748Y-307945010D01*
X357054748Y-308254888D01*
X357082106Y-308254888D01*
X357096104Y-308255237D01*
X357109064Y-308256284D01*
X357120985Y-308258028D01*
X357134427Y-308261191D01*
X357146247Y-308265444D01*
X357156444Y-308270787D01*
X357165020Y-308277221D01*
X357173463Y-308285983D01*
X357180160Y-308295725D01*
X357185110Y-308306449D01*
X357188313Y-308318155D01*
X357189769Y-308330842D01*
X357189866Y-308335289D01*
X357188992Y-308348313D01*
X357186372Y-308360375D01*
X357182004Y-308371475D01*
X357175890Y-308381613D01*
X357168028Y-308390790D01*
X357165020Y-308393635D01*
X357154534Y-308401130D01*
X357144012Y-308406191D01*
X357131868Y-308410176D01*
X357118102Y-308413083D01*
X357105921Y-308414634D01*
X357092702Y-308415496D01*
X357082106Y-308415690D01*
X356893667Y-308415690D01*
X356893667Y-308326355D01*
X356882198Y-308336170D01*
X356870508Y-308345513D01*
X356858597Y-308354386D01*
X356846465Y-308362787D01*
X356834113Y-308370717D01*
X356821540Y-308378176D01*
X356808746Y-308385164D01*
X356795731Y-308391681D01*
X356782495Y-308397727D01*
X356769038Y-308403301D01*
X356759945Y-308406756D01*
X356746401Y-308411546D01*
X356733092Y-308415864D01*
X356720019Y-308419711D01*
X356707182Y-308423087D01*
X356694580Y-308425993D01*
X356682213Y-308428427D01*
X356670083Y-308430390D01*
X356658187Y-308431881D01*
X356646528Y-308432902D01*
X356635104Y-308433452D01*
X356627618Y-308433556D01*
X356611582Y-308433306D01*
X356595928Y-308432553D01*
X356580656Y-308431299D01*
X356565765Y-308429543D01*
X356551256Y-308427286D01*
X356537128Y-308424527D01*
X356523382Y-308421266D01*
X356510018Y-308417504D01*
X356497036Y-308413240D01*
X356484435Y-308408475D01*
X356472216Y-308403208D01*
X356460378Y-308397439D01*
X356448922Y-308391168D01*
X356437848Y-308384396D01*
X356427156Y-308377123D01*
X356416845Y-308369347D01*
X356407075Y-308361233D01*
X356397936Y-308353012D01*
X356389427Y-308344683D01*
X356381548Y-308336248D01*
X356374299Y-308327706D01*
X356364608Y-308314693D01*
X356356335Y-308301439D01*
X356349481Y-308287945D01*
X356344044Y-308274211D01*
X356340026Y-308260235D01*
X356337426Y-308246020D01*
X356336244Y-308231564D01*
X356336165Y-308226692D01*
X356336366Y-308220829D01*
X356502829Y-308220829D01*
X356504901Y-308231838D01*
X356511117Y-308241483D01*
X356520255Y-308248999D01*
X356524046Y-308251259D01*
X356534275Y-308256297D01*
X356545420Y-308260663D01*
X356557481Y-308264358D01*
X356570458Y-308267381D01*
X356584351Y-308269732D01*
X356599160Y-308271411D01*
X356610868Y-308272230D01*
X356623092Y-308272671D01*
X356631527Y-308272755D01*
X356646283Y-308272462D01*
X356657666Y-308271860D01*
X356669318Y-308270928D01*
X356681240Y-308269668D01*
X356693432Y-308268079D01*
X356705895Y-308266161D01*
X356718626Y-308263914D01*
X356731628Y-308261338D01*
X356744900Y-308258434D01*
X356758442Y-308255201D01*
X356763016Y-308254050D01*
X356776640Y-308250373D01*
X356789979Y-308246460D01*
X356803034Y-308242312D01*
X356815805Y-308237928D01*
X356828290Y-308233309D01*
X356840492Y-308228454D01*
X356852408Y-308223363D01*
X356864040Y-308218037D01*
X356875387Y-308212476D01*
X356886450Y-308206679D01*
X356893667Y-308202683D01*
X356893667Y-308145453D01*
X356881652Y-308143560D01*
X356869754Y-308141789D01*
X356857975Y-308140140D01*
X356846313Y-308138614D01*
X356834769Y-308137209D01*
X356823342Y-308135927D01*
X356812034Y-308134766D01*
X356800843Y-308133728D01*
X356784278Y-308132400D01*
X356767977Y-308131347D01*
X356751942Y-308130568D01*
X356736172Y-308130064D01*
X356720666Y-308129835D01*
X356715557Y-308129820D01*
X356703381Y-308129975D01*
X356691422Y-308130439D01*
X356679678Y-308131214D01*
X356668150Y-308132297D01*
X356656838Y-308133691D01*
X356645742Y-308135395D01*
X356629503Y-308138530D01*
X356613750Y-308142363D01*
X356598483Y-308146892D01*
X356583701Y-308152119D01*
X356569406Y-308158042D01*
X356555596Y-308164662D01*
X356546659Y-308169462D01*
X356536387Y-308175822D01*
X356525472Y-308183796D01*
X356516697Y-308191798D01*
X356508993Y-308201436D01*
X356503900Y-308212729D01*
X356502829Y-308220829D01*
X356336366Y-308220829D01*
X356336569Y-308214880D01*
X356337779Y-308203176D01*
X356339797Y-308191578D01*
X356342621Y-308180088D01*
X356346252Y-308168704D01*
X356350691Y-308157427D01*
X356355936Y-308146257D01*
X356361988Y-308135194D01*
X356368848Y-308124238D01*
X356376514Y-308113388D01*
X356384987Y-308102646D01*
X356394267Y-308092010D01*
X356404355Y-308081481D01*
X356415249Y-308071059D01*
X356426950Y-308060744D01*
X356439458Y-308050536D01*
X356452677Y-308040664D01*
X356466511Y-308031430D01*
X356480960Y-308022832D01*
X356496025Y-308014872D01*
X356511704Y-308007548D01*
X356527998Y-308000861D01*
X356544908Y-307994811D01*
X356562432Y-307989398D01*
X356580572Y-307984621D01*
X356599326Y-307980482D01*
X356618696Y-307976979D01*
X356638680Y-307974113D01*
X356659280Y-307971884D01*
X356680495Y-307970292D01*
X356702324Y-307969337D01*
X356724769Y-307969018D01*
X356738682Y-307969156D01*
X356752993Y-307969568D01*
X356767701Y-307970255D01*
X356782806Y-307971217D01*
X356798309Y-307972453D01*
X356814209Y-307973965D01*
X356830507Y-307975751D01*
X356841593Y-307977094D01*
X356852856Y-307978560D01*
X356864295Y-307980148D01*
X356875912Y-307981858D01*
X356887704Y-307983690D01*
X356893667Y-307984652D01*
X356893667Y-307951151D01*
X356892577Y-307939734D01*
X356888553Y-307927455D01*
X356882742Y-307917824D01*
X356874753Y-307909017D01*
X356864586Y-307901034D01*
X356862679Y-307899784D01*
X356851625Y-307893994D01*
X356840810Y-307890068D01*
X356828241Y-307886770D01*
X356813918Y-307884100D01*
X356802025Y-307882511D01*
X356789146Y-307881274D01*
X356775280Y-307880391D01*
X356760429Y-307879861D01*
X356744590Y-307879684D01*
X356730817Y-307879915D01*
X356716298Y-307880606D01*
X356701033Y-307881760D01*
X356685023Y-307883374D01*
X356673934Y-307884707D01*
X356662514Y-307886244D01*
X356650763Y-307887987D01*
X356638680Y-307889935D01*
X356626266Y-307892087D01*
X356613520Y-307894445D01*
X356600443Y-307897008D01*
X356587034Y-307899775D01*
X356573294Y-307902748D01*
X356559222Y-307905926D01*
X356546425Y-307908660D01*
X356534554Y-307910931D01*
X356521534Y-307913045D01*
X356509848Y-307914491D01*
X356497901Y-307915334D01*
X356493338Y-307915418D01*
X356481547Y-307914613D01*
X356470463Y-307912198D01*
X356458425Y-307907347D01*
X356448872Y-307901446D01*
X356440026Y-307893934D01*
X356438620Y-307892526D01*
X356431031Y-307883500D01*
X356425011Y-307873590D01*
X356420562Y-307862797D01*
X356417683Y-307851121D01*
X356416374Y-307838562D01*
X356416287Y-307834179D01*
X356417050Y-307822162D01*
X356419653Y-307810202D01*
X356424104Y-307799562D01*
X356430236Y-307790083D01*
X356438657Y-307781322D01*
X356446158Y-307775833D01*
X356456574Y-307770521D01*
X356468003Y-307765992D01*
X356480118Y-307761834D01*
X356491847Y-307758174D01*
X356505063Y-307754337D01*
X356516284Y-307751360D01*
X356527545Y-307748500D01*
X356538845Y-307745759D01*
X356550184Y-307743135D01*
X356561562Y-307740629D01*
X356572980Y-307738241D01*
X356584436Y-307735970D01*
X356595933Y-307733818D01*
X356607468Y-307731783D01*
X356619043Y-307729866D01*
X356626781Y-307728653D01*
X356638298Y-307726907D01*
X356649609Y-307725333D01*
X356660715Y-307723930D01*
X356675201Y-307722327D01*
X356689321Y-307721029D01*
X356703074Y-307720037D01*
X356716461Y-307719350D01*
X356729482Y-307718968D01*
X356739007Y-307718882D01*
X356757484Y-307719119D01*
G37*
G36*
X357619229Y-308397823D02*
G01*
X357340617Y-307897551D01*
X357328780Y-307897012D01*
X357315799Y-307894945D01*
X357304152Y-307891326D01*
X357293840Y-307886157D01*
X357284863Y-307879438D01*
X357280875Y-307875496D01*
X357273949Y-307866640D01*
X357268456Y-307856823D01*
X357264396Y-307846043D01*
X357261769Y-307834301D01*
X357260575Y-307821598D01*
X357260496Y-307817150D01*
X357261359Y-307804136D01*
X357263950Y-307792103D01*
X357268269Y-307781052D01*
X357274315Y-307770982D01*
X357282088Y-307761894D01*
X357285063Y-307759083D01*
X357295548Y-307751493D01*
X357306070Y-307746367D01*
X357318214Y-307742332D01*
X357331980Y-307739388D01*
X357344161Y-307737818D01*
X357357380Y-307736945D01*
X357367976Y-307736749D01*
X357514819Y-307736749D01*
X357528817Y-307737098D01*
X357541776Y-307738145D01*
X357553698Y-307739890D01*
X357567140Y-307743052D01*
X357578959Y-307747305D01*
X357589157Y-307752649D01*
X357597733Y-307759083D01*
X357606176Y-307767844D01*
X357612873Y-307777586D01*
X357617823Y-307788310D01*
X357621026Y-307800016D01*
X357622482Y-307812703D01*
X357622579Y-307817150D01*
X357621705Y-307830174D01*
X357619085Y-307842236D01*
X357614717Y-307853336D01*
X357608603Y-307863475D01*
X357600741Y-307872651D01*
X357597733Y-307875496D01*
X357587414Y-307882991D01*
X357577286Y-307888053D01*
X357565768Y-307892037D01*
X357552859Y-307894945D01*
X357541531Y-307896495D01*
X357529313Y-307897357D01*
X357519565Y-307897551D01*
X357709680Y-308234229D01*
X357898119Y-307897551D01*
X357885561Y-307897206D01*
X357873849Y-307896172D01*
X357860399Y-307893911D01*
X357848271Y-307890573D01*
X357837465Y-307886157D01*
X357826244Y-307879438D01*
X357821347Y-307875496D01*
X357812998Y-307866640D01*
X357806377Y-307856823D01*
X357801483Y-307846043D01*
X357798316Y-307834301D01*
X357796876Y-307821598D01*
X357796780Y-307817150D01*
X357797644Y-307804136D01*
X357800235Y-307792103D01*
X357804554Y-307781052D01*
X357810599Y-307770982D01*
X357818372Y-307761894D01*
X357821347Y-307759083D01*
X357831833Y-307751493D01*
X357842355Y-307746367D01*
X357854499Y-307742332D01*
X357868265Y-307739388D01*
X357880446Y-307737818D01*
X357893665Y-307736945D01*
X357904261Y-307736749D01*
X358055850Y-307736749D01*
X358069651Y-307737098D01*
X358082441Y-307738145D01*
X358094218Y-307739890D01*
X358107517Y-307743052D01*
X358119234Y-307747305D01*
X358129371Y-307752649D01*
X358137926Y-307759083D01*
X358146369Y-307767844D01*
X358153066Y-307777586D01*
X358158016Y-307788310D01*
X358161219Y-307800016D01*
X358162675Y-307812703D01*
X358162772Y-307817150D01*
X358162026Y-307830174D01*
X358159788Y-307842236D01*
X358156059Y-307853336D01*
X358150837Y-307863475D01*
X358144124Y-307872651D01*
X358141555Y-307875496D01*
X358132882Y-307882991D01*
X358122776Y-307888936D01*
X358111238Y-307893329D01*
X358098266Y-307896172D01*
X358086362Y-307897357D01*
X358078742Y-307897551D01*
X357709680Y-308558624D01*
X357724109Y-308558624D01*
X357737248Y-308558624D01*
X357749095Y-308558624D01*
X357762088Y-308558624D01*
X357775017Y-308558624D01*
X357786429Y-308558624D01*
X357788964Y-308558624D01*
X357797797Y-308569590D01*
X357805452Y-308580295D01*
X357811930Y-308590738D01*
X357817230Y-308600919D01*
X357822198Y-308613277D01*
X357825327Y-308625226D01*
X357826615Y-308636766D01*
X357826652Y-308639025D01*
X357825778Y-308652039D01*
X357823158Y-308664072D01*
X357818790Y-308675123D01*
X357812676Y-308685193D01*
X357804814Y-308694281D01*
X357801806Y-308697092D01*
X357791405Y-308704682D01*
X357780924Y-308709808D01*
X357768794Y-308713843D01*
X357755014Y-308716787D01*
X357742802Y-308718357D01*
X357729535Y-308719230D01*
X357718892Y-308719426D01*
X357367976Y-308719426D01*
X357353978Y-308719077D01*
X357341019Y-308718030D01*
X357329097Y-308716285D01*
X357315655Y-308713123D01*
X357303836Y-308708870D01*
X357293638Y-308703526D01*
X357285063Y-308697092D01*
X357276714Y-308688331D01*
X357270092Y-308678589D01*
X357265198Y-308667865D01*
X357262031Y-308656159D01*
X357260592Y-308643472D01*
X357260496Y-308639025D01*
X357261359Y-308626001D01*
X357263950Y-308613939D01*
X357268269Y-308602839D01*
X357274315Y-308592700D01*
X357282088Y-308583524D01*
X357285063Y-308580679D01*
X357295548Y-308573184D01*
X357306070Y-308568122D01*
X357318214Y-308564138D01*
X357331980Y-308561230D01*
X357344161Y-308559680D01*
X357357380Y-308558818D01*
X357367976Y-308558624D01*
X357528219Y-308558624D01*
X357619229Y-308397823D01*
G37*
G36*
X358670023Y-307981860D02*
G01*
X358520667Y-308415690D01*
X358340044Y-308415690D01*
X358244289Y-307665282D01*
X358231099Y-307664506D01*
X358219164Y-307662180D01*
X358208486Y-307658304D01*
X358197616Y-307651821D01*
X358188455Y-307643227D01*
X358181167Y-307632802D01*
X358175669Y-307621067D01*
X358172381Y-307609967D01*
X358170409Y-307597905D01*
X358169751Y-307584881D01*
X358170615Y-307571867D01*
X358173206Y-307559834D01*
X358177524Y-307548783D01*
X358183570Y-307538713D01*
X358191343Y-307529625D01*
X358194318Y-307526814D01*
X358204803Y-307519224D01*
X358215325Y-307514098D01*
X358227469Y-307510063D01*
X358241236Y-307507119D01*
X358253417Y-307505549D01*
X358266636Y-307504676D01*
X358277231Y-307504480D01*
X358491634Y-307504480D01*
X358505631Y-307504829D01*
X358518591Y-307505876D01*
X358530512Y-307507621D01*
X358543954Y-307510783D01*
X358555774Y-307515036D01*
X358565971Y-307520380D01*
X358574547Y-307526814D01*
X358582991Y-307535575D01*
X358589687Y-307545317D01*
X358594637Y-307556041D01*
X358597840Y-307567747D01*
X358599296Y-307580434D01*
X358599393Y-307584881D01*
X358598519Y-307597905D01*
X358595899Y-307609967D01*
X358591532Y-307621067D01*
X358585417Y-307631206D01*
X358577556Y-307640382D01*
X358574547Y-307643227D01*
X358564062Y-307650722D01*
X358553540Y-307655784D01*
X358541395Y-307659768D01*
X358527629Y-307662676D01*
X358515448Y-307664226D01*
X358502229Y-307665088D01*
X358491634Y-307665282D01*
X358407603Y-307665282D01*
X358461204Y-308092132D01*
X358587389Y-307736749D01*
X358754611Y-307736749D01*
X358880238Y-308092132D01*
X358933838Y-307665282D01*
X358849808Y-307665282D01*
X358835810Y-307664937D01*
X358822851Y-307663903D01*
X358810929Y-307662180D01*
X358797488Y-307659057D01*
X358785668Y-307654858D01*
X358775470Y-307649581D01*
X358766895Y-307643227D01*
X358758451Y-307634371D01*
X358751754Y-307624553D01*
X358746804Y-307613774D01*
X358743602Y-307602032D01*
X358742146Y-307589329D01*
X358742049Y-307584881D01*
X358742922Y-307571867D01*
X358745543Y-307559834D01*
X358749910Y-307548783D01*
X358756025Y-307538713D01*
X358763886Y-307529625D01*
X358766895Y-307526814D01*
X358777380Y-307519224D01*
X358787902Y-307514098D01*
X358800046Y-307510063D01*
X358813812Y-307507119D01*
X358825993Y-307505549D01*
X358839212Y-307504676D01*
X358849808Y-307504480D01*
X359063373Y-307504480D01*
X359077366Y-307504829D01*
X359090313Y-307505876D01*
X359102212Y-307507621D01*
X359115615Y-307510783D01*
X359127381Y-307515036D01*
X359137512Y-307520380D01*
X359146007Y-307526814D01*
X359154451Y-307535575D01*
X359161148Y-307545317D01*
X359166097Y-307556041D01*
X359169300Y-307567747D01*
X359170756Y-307580434D01*
X359170853Y-307584881D01*
X359170156Y-307597905D01*
X359168066Y-307609967D01*
X359164582Y-307621067D01*
X359159704Y-307631206D01*
X359152252Y-307641818D01*
X359151032Y-307643227D01*
X359141654Y-307651821D01*
X359130620Y-307658304D01*
X359119844Y-307662180D01*
X359107850Y-307664506D01*
X359094640Y-307665282D01*
X359001956Y-308415690D01*
X358824683Y-308415690D01*
X358670023Y-307981860D01*
G37*
G36*
X359638514Y-307719119D02*
G01*
X359656469Y-307719829D01*
X359673899Y-307721012D01*
X359690806Y-307722668D01*
X359707190Y-307724798D01*
X359723051Y-307727401D01*
X359738387Y-307730478D01*
X359753201Y-307734027D01*
X359767491Y-307738050D01*
X359781257Y-307742546D01*
X359794500Y-307747516D01*
X359807220Y-307752958D01*
X359819416Y-307758874D01*
X359831089Y-307765264D01*
X359842238Y-307772126D01*
X359852864Y-307779462D01*
X359862905Y-307787208D01*
X359872297Y-307795301D01*
X359881042Y-307803740D01*
X359889139Y-307812526D01*
X359896588Y-307821659D01*
X359903390Y-307831139D01*
X359909543Y-307840965D01*
X359915049Y-307851139D01*
X359919908Y-307861659D01*
X359924118Y-307872526D01*
X359927681Y-307883740D01*
X359930596Y-307895300D01*
X359932863Y-307907207D01*
X359934482Y-307919461D01*
X359935454Y-307932062D01*
X359935778Y-307945010D01*
X359935778Y-308254888D01*
X359963136Y-308254888D01*
X359977134Y-308255237D01*
X359990094Y-308256284D01*
X360002015Y-308258028D01*
X360015457Y-308261191D01*
X360027277Y-308265444D01*
X360037474Y-308270787D01*
X360046050Y-308277221D01*
X360054493Y-308285983D01*
X360061190Y-308295725D01*
X360066140Y-308306449D01*
X360069343Y-308318155D01*
X360070799Y-308330842D01*
X360070896Y-308335289D01*
X360070022Y-308348313D01*
X360067402Y-308360375D01*
X360063034Y-308371475D01*
X360056920Y-308381613D01*
X360049058Y-308390790D01*
X360046050Y-308393635D01*
X360035564Y-308401130D01*
X360025042Y-308406191D01*
X360012898Y-308410176D01*
X359999132Y-308413083D01*
X359986951Y-308414634D01*
X359973732Y-308415496D01*
X359963136Y-308415690D01*
X359774697Y-308415690D01*
X359774697Y-308326355D01*
X359763228Y-308336170D01*
X359751538Y-308345513D01*
X359739627Y-308354386D01*
X359727495Y-308362787D01*
X359715143Y-308370717D01*
X359702570Y-308378176D01*
X359689776Y-308385164D01*
X359676761Y-308391681D01*
X359663525Y-308397727D01*
X359650068Y-308403301D01*
X359640975Y-308406756D01*
X359627431Y-308411546D01*
X359614122Y-308415864D01*
X359601049Y-308419711D01*
X359588212Y-308423087D01*
X359575610Y-308425993D01*
X359563243Y-308428427D01*
X359551113Y-308430390D01*
X359539217Y-308431881D01*
X359527558Y-308432902D01*
X359516134Y-308433452D01*
X359508648Y-308433556D01*
X359492612Y-308433306D01*
X359476958Y-308432553D01*
X359461686Y-308431299D01*
X359446795Y-308429543D01*
X359432286Y-308427286D01*
X359418158Y-308424527D01*
X359404412Y-308421266D01*
X359391048Y-308417504D01*
X359378066Y-308413240D01*
X359365465Y-308408475D01*
X359353246Y-308403208D01*
X359341408Y-308397439D01*
X359329952Y-308391168D01*
X359318878Y-308384396D01*
X359308186Y-308377123D01*
X359297875Y-308369347D01*
X359288105Y-308361233D01*
X359278966Y-308353012D01*
X359270457Y-308344683D01*
X359262578Y-308336248D01*
X359255329Y-308327706D01*
X359245638Y-308314693D01*
X359237365Y-308301439D01*
X359230511Y-308287945D01*
X359225074Y-308274211D01*
X359221056Y-308260235D01*
X359218456Y-308246020D01*
X359217274Y-308231564D01*
X359217195Y-308226692D01*
X359217396Y-308220829D01*
X359383859Y-308220829D01*
X359385931Y-308231838D01*
X359392147Y-308241483D01*
X359401285Y-308248999D01*
X359405076Y-308251259D01*
X359415305Y-308256297D01*
X359426450Y-308260663D01*
X359438511Y-308264358D01*
X359451488Y-308267381D01*
X359465381Y-308269732D01*
X359480190Y-308271411D01*
X359491898Y-308272230D01*
X359504122Y-308272671D01*
X359512557Y-308272755D01*
X359527313Y-308272462D01*
X359538696Y-308271860D01*
X359550348Y-308270928D01*
X359562270Y-308269668D01*
X359574463Y-308268079D01*
X359586925Y-308266161D01*
X359599656Y-308263914D01*
X359612658Y-308261338D01*
X359625930Y-308258434D01*
X359639472Y-308255201D01*
X359644046Y-308254050D01*
X359657670Y-308250373D01*
X359671009Y-308246460D01*
X359684064Y-308242312D01*
X359696835Y-308237928D01*
X359709320Y-308233309D01*
X359721522Y-308228454D01*
X359733438Y-308223363D01*
X359745070Y-308218037D01*
X359756417Y-308212476D01*
X359767480Y-308206679D01*
X359774697Y-308202683D01*
X359774697Y-308145453D01*
X359762682Y-308143560D01*
X359750784Y-308141789D01*
X359739005Y-308140140D01*
X359727343Y-308138614D01*
X359715799Y-308137209D01*
X359704372Y-308135927D01*
X359693064Y-308134766D01*
X359681873Y-308133728D01*
X359665308Y-308132400D01*
X359649007Y-308131347D01*
X359632972Y-308130568D01*
X359617202Y-308130064D01*
X359601696Y-308129835D01*
X359596587Y-308129820D01*
X359584411Y-308129975D01*
X359572452Y-308130439D01*
X359560708Y-308131214D01*
X359549180Y-308132297D01*
X359537868Y-308133691D01*
X359526772Y-308135395D01*
X359510533Y-308138530D01*
X359494780Y-308142363D01*
X359479513Y-308146892D01*
X359464731Y-308152119D01*
X359450436Y-308158042D01*
X359436626Y-308164662D01*
X359427689Y-308169462D01*
X359417417Y-308175822D01*
X359406502Y-308183796D01*
X359397727Y-308191798D01*
X359390023Y-308201436D01*
X359384930Y-308212729D01*
X359383859Y-308220829D01*
X359217396Y-308220829D01*
X359217599Y-308214880D01*
X359218809Y-308203176D01*
X359220827Y-308191578D01*
X359223651Y-308180088D01*
X359227282Y-308168704D01*
X359231721Y-308157427D01*
X359236966Y-308146257D01*
X359243018Y-308135194D01*
X359249878Y-308124238D01*
X359257544Y-308113388D01*
X359266017Y-308102646D01*
X359275297Y-308092010D01*
X359285385Y-308081481D01*
X359296279Y-308071059D01*
X359307980Y-308060744D01*
X359320488Y-308050536D01*
X359333707Y-308040664D01*
X359347541Y-308031430D01*
X359361990Y-308022832D01*
X359377055Y-308014872D01*
X359392734Y-308007548D01*
X359409028Y-308000861D01*
X359425938Y-307994811D01*
X359443462Y-307989398D01*
X359461602Y-307984621D01*
X359480356Y-307980482D01*
X359499726Y-307976979D01*
X359519710Y-307974113D01*
X359540310Y-307971884D01*
X359561525Y-307970292D01*
X359583354Y-307969337D01*
X359605799Y-307969018D01*
X359619712Y-307969156D01*
X359634023Y-307969568D01*
X359648731Y-307970255D01*
X359663836Y-307971217D01*
X359679339Y-307972453D01*
X359695239Y-307973965D01*
X359711537Y-307975751D01*
X359722623Y-307977094D01*
X359733886Y-307978560D01*
X359745325Y-307980148D01*
X359756942Y-307981858D01*
X359768734Y-307983690D01*
X359774697Y-307984652D01*
X359774697Y-307951151D01*
X359773607Y-307939734D01*
X359769583Y-307927455D01*
X359763772Y-307917824D01*
X359755783Y-307909017D01*
X359745616Y-307901034D01*
X359743709Y-307899784D01*
X359732655Y-307893994D01*
X359721840Y-307890068D01*
X359709271Y-307886770D01*
X359694948Y-307884100D01*
X359683055Y-307882511D01*
X359670176Y-307881274D01*
X359656310Y-307880391D01*
X359641459Y-307879861D01*
X359625620Y-307879684D01*
X359611847Y-307879915D01*
X359597328Y-307880606D01*
X359582063Y-307881760D01*
X359566053Y-307883374D01*
X359554964Y-307884707D01*
X359543544Y-307886244D01*
X359531793Y-307887987D01*
X359519710Y-307889935D01*
X359507296Y-307892087D01*
X359494550Y-307894445D01*
X359481473Y-307897008D01*
X359468064Y-307899775D01*
X359454324Y-307902748D01*
X359440252Y-307905926D01*
X359427455Y-307908660D01*
X359415584Y-307910931D01*
X359402564Y-307913045D01*
X359390878Y-307914491D01*
X359378931Y-307915334D01*
X359374368Y-307915418D01*
X359362577Y-307914613D01*
X359351493Y-307912198D01*
X359339455Y-307907347D01*
X359329902Y-307901446D01*
X359321056Y-307893934D01*
X359319650Y-307892526D01*
X359312061Y-307883500D01*
X359306041Y-307873590D01*
X359301592Y-307862797D01*
X359298713Y-307851121D01*
X359297404Y-307838562D01*
X359297317Y-307834179D01*
X359298080Y-307822162D01*
X359300683Y-307810202D01*
X359305134Y-307799562D01*
X359311266Y-307790083D01*
X359319687Y-307781322D01*
X359327188Y-307775833D01*
X359337604Y-307770521D01*
X359349033Y-307765992D01*
X359361148Y-307761834D01*
X359372877Y-307758174D01*
X359386093Y-307754337D01*
X359397314Y-307751360D01*
X359408575Y-307748500D01*
X359419875Y-307745759D01*
X359431214Y-307743135D01*
X359442592Y-307740629D01*
X359454010Y-307738241D01*
X359465466Y-307735970D01*
X359476963Y-307733818D01*
X359488498Y-307731783D01*
X359500073Y-307729866D01*
X359507811Y-307728653D01*
X359519328Y-307726907D01*
X359530639Y-307725333D01*
X359541745Y-307723930D01*
X359556231Y-307722327D01*
X359570351Y-307721029D01*
X359584104Y-307720037D01*
X359597491Y-307719350D01*
X359610512Y-307718968D01*
X359620037Y-307718882D01*
X359638514Y-307719119D01*
G37*
G36*
X360500259Y-308397823D02*
G01*
X360221647Y-307897551D01*
X360209810Y-307897012D01*
X360196829Y-307894945D01*
X360185182Y-307891326D01*
X360174870Y-307886157D01*
X360165893Y-307879438D01*
X360161905Y-307875496D01*
X360154979Y-307866640D01*
X360149486Y-307856823D01*
X360145426Y-307846043D01*
X360142799Y-307834301D01*
X360141605Y-307821598D01*
X360141526Y-307817150D01*
X360142389Y-307804136D01*
X360144980Y-307792103D01*
X360149299Y-307781052D01*
X360155345Y-307770982D01*
X360163118Y-307761894D01*
X360166093Y-307759083D01*
X360176578Y-307751493D01*
X360187100Y-307746367D01*
X360199244Y-307742332D01*
X360213010Y-307739388D01*
X360225191Y-307737818D01*
X360238410Y-307736945D01*
X360249006Y-307736749D01*
X360395849Y-307736749D01*
X360409847Y-307737098D01*
X360422806Y-307738145D01*
X360434728Y-307739890D01*
X360448170Y-307743052D01*
X360459989Y-307747305D01*
X360470187Y-307752649D01*
X360478763Y-307759083D01*
X360487206Y-307767844D01*
X360493903Y-307777586D01*
X360498853Y-307788310D01*
X360502056Y-307800016D01*
X360503512Y-307812703D01*
X360503609Y-307817150D01*
X360502735Y-307830174D01*
X360500115Y-307842236D01*
X360495747Y-307853336D01*
X360489633Y-307863475D01*
X360481771Y-307872651D01*
X360478763Y-307875496D01*
X360468444Y-307882991D01*
X360458316Y-307888053D01*
X360446798Y-307892037D01*
X360433889Y-307894945D01*
X360422561Y-307896495D01*
X360410343Y-307897357D01*
X360400595Y-307897551D01*
X360590710Y-308234229D01*
X360779149Y-307897551D01*
X360766591Y-307897206D01*
X360754879Y-307896172D01*
X360741429Y-307893911D01*
X360729301Y-307890573D01*
X360718495Y-307886157D01*
X360707274Y-307879438D01*
X360702377Y-307875496D01*
X360694028Y-307866640D01*
X360687407Y-307856823D01*
X360682513Y-307846043D01*
X360679346Y-307834301D01*
X360677906Y-307821598D01*
X360677810Y-307817150D01*
X360678674Y-307804136D01*
X360681265Y-307792103D01*
X360685584Y-307781052D01*
X360691629Y-307770982D01*
X360699402Y-307761894D01*
X360702377Y-307759083D01*
X360712863Y-307751493D01*
X360723385Y-307746367D01*
X360735529Y-307742332D01*
X360749295Y-307739388D01*
X360761476Y-307737818D01*
X360774695Y-307736945D01*
X360785291Y-307736749D01*
X360936880Y-307736749D01*
X360950681Y-307737098D01*
X360963471Y-307738145D01*
X360975248Y-307739890D01*
X360988547Y-307743052D01*
X361000264Y-307747305D01*
X361010401Y-307752649D01*
X361018956Y-307759083D01*
X361027399Y-307767844D01*
X361034096Y-307777586D01*
X361039046Y-307788310D01*
X361042249Y-307800016D01*
X361043705Y-307812703D01*
X361043802Y-307817150D01*
X361043056Y-307830174D01*
X361040818Y-307842236D01*
X361037089Y-307853336D01*
X361031867Y-307863475D01*
X361025154Y-307872651D01*
X361022585Y-307875496D01*
X361013912Y-307882991D01*
X361003806Y-307888936D01*
X360992268Y-307893329D01*
X360979296Y-307896172D01*
X360967392Y-307897357D01*
X360959772Y-307897551D01*
X360590710Y-308558624D01*
X360605139Y-308558624D01*
X360618278Y-308558624D01*
X360630125Y-308558624D01*
X360643118Y-308558624D01*
X360656047Y-308558624D01*
X360667459Y-308558624D01*
X360669994Y-308558624D01*
X360678827Y-308569590D01*
X360686482Y-308580295D01*
X360692960Y-308590738D01*
X360698260Y-308600919D01*
X360703228Y-308613277D01*
X360706357Y-308625226D01*
X360707645Y-308636766D01*
X360707682Y-308639025D01*
X360706808Y-308652039D01*
X360704188Y-308664072D01*
X360699820Y-308675123D01*
X360693706Y-308685193D01*
X360685844Y-308694281D01*
X360682836Y-308697092D01*
X360672435Y-308704682D01*
X360661954Y-308709808D01*
X360649824Y-308713843D01*
X360636044Y-308716787D01*
X360623832Y-308718357D01*
X360610565Y-308719230D01*
X360599922Y-308719426D01*
X360249006Y-308719426D01*
X360235008Y-308719077D01*
X360222049Y-308718030D01*
X360210127Y-308716285D01*
X360196685Y-308713123D01*
X360184866Y-308708870D01*
X360174668Y-308703526D01*
X360166093Y-308697092D01*
X360157744Y-308688331D01*
X360151122Y-308678589D01*
X360146228Y-308667865D01*
X360143061Y-308656159D01*
X360141622Y-308643472D01*
X360141526Y-308639025D01*
X360142389Y-308626001D01*
X360144980Y-308613939D01*
X360149299Y-308602839D01*
X360155345Y-308592700D01*
X360163118Y-308583524D01*
X360166093Y-308580679D01*
X360176578Y-308573184D01*
X360187100Y-308568122D01*
X360199244Y-308564138D01*
X360213010Y-308561230D01*
X360225191Y-308559680D01*
X360238410Y-308558818D01*
X360249006Y-308558624D01*
X360409249Y-308558624D01*
X360500259Y-308397823D01*
G37*
D10*
X448585460Y-272217799D02*
X448680698Y-272217799D01*
X448680698Y-272217799D02*
X448775936Y-272265418D01*
X448775936Y-272265418D02*
X448823555Y-272313037D01*
X448823555Y-272313037D02*
X448871174Y-272408275D01*
X448871174Y-272408275D02*
X448918793Y-272598751D01*
X448918793Y-272598751D02*
X448918793Y-272836846D01*
X448918793Y-272836846D02*
X448871174Y-273027322D01*
X448871174Y-273027322D02*
X448823555Y-273122560D01*
X448823555Y-273122560D02*
X448775936Y-273170180D01*
X448775936Y-273170180D02*
X448680698Y-273217799D01*
X448680698Y-273217799D02*
X448585460Y-273217799D01*
X448585460Y-273217799D02*
X448490222Y-273170180D01*
X448490222Y-273170180D02*
X448442603Y-273122560D01*
X448442603Y-273122560D02*
X448394984Y-273027322D01*
X448394984Y-273027322D02*
X448347365Y-272836846D01*
X448347365Y-272836846D02*
X448347365Y-272598751D01*
X448347365Y-272598751D02*
X448394984Y-272408275D01*
X448394984Y-272408275D02*
X448442603Y-272313037D01*
X448442603Y-272313037D02*
X448490222Y-272265418D01*
X448490222Y-272265418D02*
X448585460Y-272217799D01*
X449347365Y-273122560D02*
X449394984Y-273170180D01*
X449394984Y-273170180D02*
X449347365Y-273217799D01*
X449347365Y-273217799D02*
X449299746Y-273170180D01*
X449299746Y-273170180D02*
X449347365Y-273122560D01*
X449347365Y-273122560D02*
X449347365Y-273217799D01*
X450347364Y-273217799D02*
X449775936Y-273217799D01*
X450061650Y-273217799D02*
X450061650Y-272217799D01*
X450061650Y-272217799D02*
X449966412Y-272360656D01*
X449966412Y-272360656D02*
X449871174Y-272455894D01*
X449871174Y-272455894D02*
X449775936Y-272503513D01*
X451204507Y-272551132D02*
X451204507Y-273217799D01*
X450775936Y-272551132D02*
X450775936Y-273074941D01*
X450775936Y-273074941D02*
X450823555Y-273170180D01*
X450823555Y-273170180D02*
X450918793Y-273217799D01*
X450918793Y-273217799D02*
X451061650Y-273217799D01*
X451061650Y-273217799D02*
X451156888Y-273170180D01*
X451156888Y-273170180D02*
X451204507Y-273122560D01*
X451537841Y-272551132D02*
X451918793Y-272551132D01*
X451680698Y-273217799D02*
X451680698Y-272360656D01*
X451680698Y-272360656D02*
X451728317Y-272265418D01*
X451728317Y-272265418D02*
X451823555Y-272217799D01*
X451823555Y-272217799D02*
X451918793Y-272217799D01*
X438425460Y-279202799D02*
X438520698Y-279202799D01*
X438520698Y-279202799D02*
X438615936Y-279250418D01*
X438615936Y-279250418D02*
X438663555Y-279298037D01*
X438663555Y-279298037D02*
X438711174Y-279393275D01*
X438711174Y-279393275D02*
X438758793Y-279583751D01*
X438758793Y-279583751D02*
X438758793Y-279821846D01*
X438758793Y-279821846D02*
X438711174Y-280012322D01*
X438711174Y-280012322D02*
X438663555Y-280107560D01*
X438663555Y-280107560D02*
X438615936Y-280155180D01*
X438615936Y-280155180D02*
X438520698Y-280202799D01*
X438520698Y-280202799D02*
X438425460Y-280202799D01*
X438425460Y-280202799D02*
X438330222Y-280155180D01*
X438330222Y-280155180D02*
X438282603Y-280107560D01*
X438282603Y-280107560D02*
X438234984Y-280012322D01*
X438234984Y-280012322D02*
X438187365Y-279821846D01*
X438187365Y-279821846D02*
X438187365Y-279583751D01*
X438187365Y-279583751D02*
X438234984Y-279393275D01*
X438234984Y-279393275D02*
X438282603Y-279298037D01*
X438282603Y-279298037D02*
X438330222Y-279250418D01*
X438330222Y-279250418D02*
X438425460Y-279202799D01*
X439187365Y-280107560D02*
X439234984Y-280155180D01*
X439234984Y-280155180D02*
X439187365Y-280202799D01*
X439187365Y-280202799D02*
X439139746Y-280155180D01*
X439139746Y-280155180D02*
X439187365Y-280107560D01*
X439187365Y-280107560D02*
X439187365Y-280202799D01*
X440187364Y-280202799D02*
X439615936Y-280202799D01*
X439901650Y-280202799D02*
X439901650Y-279202799D01*
X439901650Y-279202799D02*
X439806412Y-279345656D01*
X439806412Y-279345656D02*
X439711174Y-279440894D01*
X439711174Y-279440894D02*
X439615936Y-279488513D01*
X441044507Y-279536132D02*
X441044507Y-280202799D01*
X440615936Y-279536132D02*
X440615936Y-280059941D01*
X440615936Y-280059941D02*
X440663555Y-280155180D01*
X440663555Y-280155180D02*
X440758793Y-280202799D01*
X440758793Y-280202799D02*
X440901650Y-280202799D01*
X440901650Y-280202799D02*
X440996888Y-280155180D01*
X440996888Y-280155180D02*
X441044507Y-280107560D01*
X441377841Y-279536132D02*
X441758793Y-279536132D01*
X441520698Y-280202799D02*
X441520698Y-279345656D01*
X441520698Y-279345656D02*
X441568317Y-279250418D01*
X441568317Y-279250418D02*
X441663555Y-279202799D01*
X441663555Y-279202799D02*
X441758793Y-279202799D01*
X438425460Y-267772799D02*
X438520698Y-267772799D01*
X438520698Y-267772799D02*
X438615936Y-267820418D01*
X438615936Y-267820418D02*
X438663555Y-267868037D01*
X438663555Y-267868037D02*
X438711174Y-267963275D01*
X438711174Y-267963275D02*
X438758793Y-268153751D01*
X438758793Y-268153751D02*
X438758793Y-268391846D01*
X438758793Y-268391846D02*
X438711174Y-268582322D01*
X438711174Y-268582322D02*
X438663555Y-268677560D01*
X438663555Y-268677560D02*
X438615936Y-268725180D01*
X438615936Y-268725180D02*
X438520698Y-268772799D01*
X438520698Y-268772799D02*
X438425460Y-268772799D01*
X438425460Y-268772799D02*
X438330222Y-268725180D01*
X438330222Y-268725180D02*
X438282603Y-268677560D01*
X438282603Y-268677560D02*
X438234984Y-268582322D01*
X438234984Y-268582322D02*
X438187365Y-268391846D01*
X438187365Y-268391846D02*
X438187365Y-268153751D01*
X438187365Y-268153751D02*
X438234984Y-267963275D01*
X438234984Y-267963275D02*
X438282603Y-267868037D01*
X438282603Y-267868037D02*
X438330222Y-267820418D01*
X438330222Y-267820418D02*
X438425460Y-267772799D01*
X439187365Y-268677560D02*
X439234984Y-268725180D01*
X439234984Y-268725180D02*
X439187365Y-268772799D01*
X439187365Y-268772799D02*
X439139746Y-268725180D01*
X439139746Y-268725180D02*
X439187365Y-268677560D01*
X439187365Y-268677560D02*
X439187365Y-268772799D01*
X440187364Y-268772799D02*
X439615936Y-268772799D01*
X439901650Y-268772799D02*
X439901650Y-267772799D01*
X439901650Y-267772799D02*
X439806412Y-267915656D01*
X439806412Y-267915656D02*
X439711174Y-268010894D01*
X439711174Y-268010894D02*
X439615936Y-268058513D01*
X441044507Y-268106132D02*
X441044507Y-268772799D01*
X440615936Y-268106132D02*
X440615936Y-268629941D01*
X440615936Y-268629941D02*
X440663555Y-268725180D01*
X440663555Y-268725180D02*
X440758793Y-268772799D01*
X440758793Y-268772799D02*
X440901650Y-268772799D01*
X440901650Y-268772799D02*
X440996888Y-268725180D01*
X440996888Y-268725180D02*
X441044507Y-268677560D01*
X441377841Y-268106132D02*
X441758793Y-268106132D01*
X441520698Y-268772799D02*
X441520698Y-267915656D01*
X441520698Y-267915656D02*
X441568317Y-267820418D01*
X441568317Y-267820418D02*
X441663555Y-267772799D01*
X441663555Y-267772799D02*
X441758793Y-267772799D01*
X428757602Y-276375019D02*
X428186174Y-276375019D01*
X428471888Y-276375019D02*
X428471888Y-275375019D01*
X428471888Y-275375019D02*
X428376650Y-275517876D01*
X428376650Y-275517876D02*
X428281412Y-275613114D01*
X428281412Y-275613114D02*
X428186174Y-275660733D01*
X429376650Y-275375019D02*
X429471888Y-275375019D01*
X429471888Y-275375019D02*
X429567126Y-275422638D01*
X429567126Y-275422638D02*
X429614745Y-275470257D01*
X429614745Y-275470257D02*
X429662364Y-275565495D01*
X429662364Y-275565495D02*
X429709983Y-275755971D01*
X429709983Y-275755971D02*
X429709983Y-275994066D01*
X429709983Y-275994066D02*
X429662364Y-276184542D01*
X429662364Y-276184542D02*
X429614745Y-276279780D01*
X429614745Y-276279780D02*
X429567126Y-276327400D01*
X429567126Y-276327400D02*
X429471888Y-276375019D01*
X429471888Y-276375019D02*
X429376650Y-276375019D01*
X429376650Y-276375019D02*
X429281412Y-276327400D01*
X429281412Y-276327400D02*
X429233793Y-276279780D01*
X429233793Y-276279780D02*
X429186174Y-276184542D01*
X429186174Y-276184542D02*
X429138555Y-275994066D01*
X429138555Y-275994066D02*
X429138555Y-275755971D01*
X429138555Y-275755971D02*
X429186174Y-275565495D01*
X429186174Y-275565495D02*
X429233793Y-275470257D01*
X429233793Y-275470257D02*
X429281412Y-275422638D01*
X429281412Y-275422638D02*
X429376650Y-275375019D01*
X430329031Y-275375019D02*
X430424269Y-275375019D01*
X430424269Y-275375019D02*
X430519507Y-275422638D01*
X430519507Y-275422638D02*
X430567126Y-275470257D01*
X430567126Y-275470257D02*
X430614745Y-275565495D01*
X430614745Y-275565495D02*
X430662364Y-275755971D01*
X430662364Y-275755971D02*
X430662364Y-275994066D01*
X430662364Y-275994066D02*
X430614745Y-276184542D01*
X430614745Y-276184542D02*
X430567126Y-276279780D01*
X430567126Y-276279780D02*
X430519507Y-276327400D01*
X430519507Y-276327400D02*
X430424269Y-276375019D01*
X430424269Y-276375019D02*
X430329031Y-276375019D01*
X430329031Y-276375019D02*
X430233793Y-276327400D01*
X430233793Y-276327400D02*
X430186174Y-276279780D01*
X430186174Y-276279780D02*
X430138555Y-276184542D01*
X430138555Y-276184542D02*
X430090936Y-275994066D01*
X430090936Y-275994066D02*
X430090936Y-275755971D01*
X430090936Y-275755971D02*
X430138555Y-275565495D01*
X430138555Y-275565495D02*
X430186174Y-275470257D01*
X430186174Y-275470257D02*
X430233793Y-275422638D01*
X430233793Y-275422638D02*
X430329031Y-275375019D01*
X431090936Y-276375019D02*
X431090936Y-275375019D01*
X431186174Y-275994066D02*
X431471888Y-276375019D01*
X431471888Y-275708352D02*
X431090936Y-276089304D01*
X431852841Y-276375019D02*
X432090936Y-276375019D01*
X432090936Y-276375019D02*
X432090936Y-276184542D01*
X432090936Y-276184542D02*
X431995698Y-276136923D01*
X431995698Y-276136923D02*
X431900460Y-276041685D01*
X431900460Y-276041685D02*
X431852841Y-275898828D01*
X431852841Y-275898828D02*
X431852841Y-275660733D01*
X431852841Y-275660733D02*
X431900460Y-275517876D01*
X431900460Y-275517876D02*
X431995698Y-275422638D01*
X431995698Y-275422638D02*
X432138555Y-275375019D01*
X432138555Y-275375019D02*
X432329031Y-275375019D01*
X432329031Y-275375019D02*
X432471888Y-275422638D01*
X432471888Y-275422638D02*
X432567126Y-275517876D01*
X432567126Y-275517876D02*
X432614745Y-275660733D01*
X432614745Y-275660733D02*
X432614745Y-275898828D01*
X432614745Y-275898828D02*
X432567126Y-276041685D01*
X432567126Y-276041685D02*
X432471888Y-276136923D01*
X432471888Y-276136923D02*
X432376650Y-276184542D01*
X432376650Y-276184542D02*
X432376650Y-276375019D01*
X432376650Y-276375019D02*
X432614745Y-276375019D01*
D12*
X443686126Y-287747980D02*
X443719460Y-287647980D01*
X443719460Y-287647980D02*
X443752793Y-287614646D01*
X443752793Y-287614646D02*
X443819460Y-287581313D01*
X443819460Y-287581313D02*
X443919460Y-287581313D01*
X443919460Y-287581313D02*
X443986126Y-287614646D01*
X443986126Y-287614646D02*
X444019460Y-287647980D01*
X444019460Y-287647980D02*
X444052793Y-287714646D01*
X444052793Y-287714646D02*
X444052793Y-287981313D01*
X444052793Y-287981313D02*
X443352793Y-287981313D01*
X443352793Y-287981313D02*
X443352793Y-287747980D01*
X443352793Y-287747980D02*
X443386126Y-287681313D01*
X443386126Y-287681313D02*
X443419460Y-287647980D01*
X443419460Y-287647980D02*
X443486126Y-287614646D01*
X443486126Y-287614646D02*
X443552793Y-287614646D01*
X443552793Y-287614646D02*
X443619460Y-287647980D01*
X443619460Y-287647980D02*
X443652793Y-287681313D01*
X443652793Y-287681313D02*
X443686126Y-287747980D01*
X443686126Y-287747980D02*
X443686126Y-287981313D01*
X443986126Y-286881313D02*
X444019460Y-286914646D01*
X444019460Y-286914646D02*
X444052793Y-287014646D01*
X444052793Y-287014646D02*
X444052793Y-287081313D01*
X444052793Y-287081313D02*
X444019460Y-287181313D01*
X444019460Y-287181313D02*
X443952793Y-287247980D01*
X443952793Y-287247980D02*
X443886126Y-287281313D01*
X443886126Y-287281313D02*
X443752793Y-287314646D01*
X443752793Y-287314646D02*
X443652793Y-287314646D01*
X443652793Y-287314646D02*
X443519460Y-287281313D01*
X443519460Y-287281313D02*
X443452793Y-287247980D01*
X443452793Y-287247980D02*
X443386126Y-287181313D01*
X443386126Y-287181313D02*
X443352793Y-287081313D01*
X443352793Y-287081313D02*
X443352793Y-287014646D01*
X443352793Y-287014646D02*
X443386126Y-286914646D01*
X443386126Y-286914646D02*
X443419460Y-286881313D01*
X443352793Y-286247980D02*
X443352793Y-286581313D01*
X443352793Y-286581313D02*
X443686126Y-286614646D01*
X443686126Y-286614646D02*
X443652793Y-286581313D01*
X443652793Y-286581313D02*
X443619460Y-286514646D01*
X443619460Y-286514646D02*
X443619460Y-286347980D01*
X443619460Y-286347980D02*
X443652793Y-286281313D01*
X443652793Y-286281313D02*
X443686126Y-286247980D01*
X443686126Y-286247980D02*
X443752793Y-286214646D01*
X443752793Y-286214646D02*
X443919460Y-286214646D01*
X443919460Y-286214646D02*
X443986126Y-286247980D01*
X443986126Y-286247980D02*
X444019460Y-286281313D01*
X444019460Y-286281313D02*
X444052793Y-286347980D01*
X444052793Y-286347980D02*
X444052793Y-286514646D01*
X444052793Y-286514646D02*
X444019460Y-286581313D01*
X444019460Y-286581313D02*
X443986126Y-286614646D01*
X443586126Y-285614646D02*
X444052793Y-285614646D01*
X443319460Y-285781313D02*
X443819460Y-285947979D01*
X443819460Y-285947979D02*
X443819460Y-285514646D01*
X443352793Y-285314646D02*
X443352793Y-284847979D01*
X443352793Y-284847979D02*
X444052793Y-285147979D01*
X443686126Y-284347979D02*
X443719460Y-284247979D01*
X443719460Y-284247979D02*
X443752793Y-284214645D01*
X443752793Y-284214645D02*
X443819460Y-284181312D01*
X443819460Y-284181312D02*
X443919460Y-284181312D01*
X443919460Y-284181312D02*
X443986126Y-284214645D01*
X443986126Y-284214645D02*
X444019460Y-284247979D01*
X444019460Y-284247979D02*
X444052793Y-284314645D01*
X444052793Y-284314645D02*
X444052793Y-284581312D01*
X444052793Y-284581312D02*
X443352793Y-284581312D01*
X443352793Y-284581312D02*
X443352793Y-284347979D01*
X443352793Y-284347979D02*
X443386126Y-284281312D01*
X443386126Y-284281312D02*
X443419460Y-284247979D01*
X443419460Y-284247979D02*
X443486126Y-284214645D01*
X443486126Y-284214645D02*
X443552793Y-284214645D01*
X443552793Y-284214645D02*
X443619460Y-284247979D01*
X443619460Y-284247979D02*
X443652793Y-284281312D01*
X443652793Y-284281312D02*
X443686126Y-284347979D01*
X443686126Y-284347979D02*
X443686126Y-284581312D01*
X451306126Y-292827980D02*
X451339460Y-292727980D01*
X451339460Y-292727980D02*
X451372793Y-292694646D01*
X451372793Y-292694646D02*
X451439460Y-292661313D01*
X451439460Y-292661313D02*
X451539460Y-292661313D01*
X451539460Y-292661313D02*
X451606126Y-292694646D01*
X451606126Y-292694646D02*
X451639460Y-292727980D01*
X451639460Y-292727980D02*
X451672793Y-292794646D01*
X451672793Y-292794646D02*
X451672793Y-293061313D01*
X451672793Y-293061313D02*
X450972793Y-293061313D01*
X450972793Y-293061313D02*
X450972793Y-292827980D01*
X450972793Y-292827980D02*
X451006126Y-292761313D01*
X451006126Y-292761313D02*
X451039460Y-292727980D01*
X451039460Y-292727980D02*
X451106126Y-292694646D01*
X451106126Y-292694646D02*
X451172793Y-292694646D01*
X451172793Y-292694646D02*
X451239460Y-292727980D01*
X451239460Y-292727980D02*
X451272793Y-292761313D01*
X451272793Y-292761313D02*
X451306126Y-292827980D01*
X451306126Y-292827980D02*
X451306126Y-293061313D01*
X451606126Y-291961313D02*
X451639460Y-291994646D01*
X451639460Y-291994646D02*
X451672793Y-292094646D01*
X451672793Y-292094646D02*
X451672793Y-292161313D01*
X451672793Y-292161313D02*
X451639460Y-292261313D01*
X451639460Y-292261313D02*
X451572793Y-292327980D01*
X451572793Y-292327980D02*
X451506126Y-292361313D01*
X451506126Y-292361313D02*
X451372793Y-292394646D01*
X451372793Y-292394646D02*
X451272793Y-292394646D01*
X451272793Y-292394646D02*
X451139460Y-292361313D01*
X451139460Y-292361313D02*
X451072793Y-292327980D01*
X451072793Y-292327980D02*
X451006126Y-292261313D01*
X451006126Y-292261313D02*
X450972793Y-292161313D01*
X450972793Y-292161313D02*
X450972793Y-292094646D01*
X450972793Y-292094646D02*
X451006126Y-291994646D01*
X451006126Y-291994646D02*
X451039460Y-291961313D01*
X450972793Y-291327980D02*
X450972793Y-291661313D01*
X450972793Y-291661313D02*
X451306126Y-291694646D01*
X451306126Y-291694646D02*
X451272793Y-291661313D01*
X451272793Y-291661313D02*
X451239460Y-291594646D01*
X451239460Y-291594646D02*
X451239460Y-291427980D01*
X451239460Y-291427980D02*
X451272793Y-291361313D01*
X451272793Y-291361313D02*
X451306126Y-291327980D01*
X451306126Y-291327980D02*
X451372793Y-291294646D01*
X451372793Y-291294646D02*
X451539460Y-291294646D01*
X451539460Y-291294646D02*
X451606126Y-291327980D01*
X451606126Y-291327980D02*
X451639460Y-291361313D01*
X451639460Y-291361313D02*
X451672793Y-291427980D01*
X451672793Y-291427980D02*
X451672793Y-291594646D01*
X451672793Y-291594646D02*
X451639460Y-291661313D01*
X451639460Y-291661313D02*
X451606126Y-291694646D01*
X451206126Y-290694646D02*
X451672793Y-290694646D01*
X450939460Y-290861313D02*
X451439460Y-291027979D01*
X451439460Y-291027979D02*
X451439460Y-290594646D01*
X450972793Y-290394646D02*
X450972793Y-289927979D01*
X450972793Y-289927979D02*
X451672793Y-290227979D01*
X451306126Y-289427979D02*
X451339460Y-289327979D01*
X451339460Y-289327979D02*
X451372793Y-289294645D01*
X451372793Y-289294645D02*
X451439460Y-289261312D01*
X451439460Y-289261312D02*
X451539460Y-289261312D01*
X451539460Y-289261312D02*
X451606126Y-289294645D01*
X451606126Y-289294645D02*
X451639460Y-289327979D01*
X451639460Y-289327979D02*
X451672793Y-289394645D01*
X451672793Y-289394645D02*
X451672793Y-289661312D01*
X451672793Y-289661312D02*
X450972793Y-289661312D01*
X450972793Y-289661312D02*
X450972793Y-289427979D01*
X450972793Y-289427979D02*
X451006126Y-289361312D01*
X451006126Y-289361312D02*
X451039460Y-289327979D01*
X451039460Y-289327979D02*
X451106126Y-289294645D01*
X451106126Y-289294645D02*
X451172793Y-289294645D01*
X451172793Y-289294645D02*
X451239460Y-289327979D01*
X451239460Y-289327979D02*
X451272793Y-289361312D01*
X451272793Y-289361312D02*
X451306126Y-289427979D01*
X451306126Y-289427979D02*
X451306126Y-289661312D01*
X451306126Y-281397980D02*
X451339460Y-281297980D01*
X451339460Y-281297980D02*
X451372793Y-281264646D01*
X451372793Y-281264646D02*
X451439460Y-281231313D01*
X451439460Y-281231313D02*
X451539460Y-281231313D01*
X451539460Y-281231313D02*
X451606126Y-281264646D01*
X451606126Y-281264646D02*
X451639460Y-281297980D01*
X451639460Y-281297980D02*
X451672793Y-281364646D01*
X451672793Y-281364646D02*
X451672793Y-281631313D01*
X451672793Y-281631313D02*
X450972793Y-281631313D01*
X450972793Y-281631313D02*
X450972793Y-281397980D01*
X450972793Y-281397980D02*
X451006126Y-281331313D01*
X451006126Y-281331313D02*
X451039460Y-281297980D01*
X451039460Y-281297980D02*
X451106126Y-281264646D01*
X451106126Y-281264646D02*
X451172793Y-281264646D01*
X451172793Y-281264646D02*
X451239460Y-281297980D01*
X451239460Y-281297980D02*
X451272793Y-281331313D01*
X451272793Y-281331313D02*
X451306126Y-281397980D01*
X451306126Y-281397980D02*
X451306126Y-281631313D01*
X451606126Y-280531313D02*
X451639460Y-280564646D01*
X451639460Y-280564646D02*
X451672793Y-280664646D01*
X451672793Y-280664646D02*
X451672793Y-280731313D01*
X451672793Y-280731313D02*
X451639460Y-280831313D01*
X451639460Y-280831313D02*
X451572793Y-280897980D01*
X451572793Y-280897980D02*
X451506126Y-280931313D01*
X451506126Y-280931313D02*
X451372793Y-280964646D01*
X451372793Y-280964646D02*
X451272793Y-280964646D01*
X451272793Y-280964646D02*
X451139460Y-280931313D01*
X451139460Y-280931313D02*
X451072793Y-280897980D01*
X451072793Y-280897980D02*
X451006126Y-280831313D01*
X451006126Y-280831313D02*
X450972793Y-280731313D01*
X450972793Y-280731313D02*
X450972793Y-280664646D01*
X450972793Y-280664646D02*
X451006126Y-280564646D01*
X451006126Y-280564646D02*
X451039460Y-280531313D01*
X450972793Y-279897980D02*
X450972793Y-280231313D01*
X450972793Y-280231313D02*
X451306126Y-280264646D01*
X451306126Y-280264646D02*
X451272793Y-280231313D01*
X451272793Y-280231313D02*
X451239460Y-280164646D01*
X451239460Y-280164646D02*
X451239460Y-279997980D01*
X451239460Y-279997980D02*
X451272793Y-279931313D01*
X451272793Y-279931313D02*
X451306126Y-279897980D01*
X451306126Y-279897980D02*
X451372793Y-279864646D01*
X451372793Y-279864646D02*
X451539460Y-279864646D01*
X451539460Y-279864646D02*
X451606126Y-279897980D01*
X451606126Y-279897980D02*
X451639460Y-279931313D01*
X451639460Y-279931313D02*
X451672793Y-279997980D01*
X451672793Y-279997980D02*
X451672793Y-280164646D01*
X451672793Y-280164646D02*
X451639460Y-280231313D01*
X451639460Y-280231313D02*
X451606126Y-280264646D01*
X451206126Y-279264646D02*
X451672793Y-279264646D01*
X450939460Y-279431313D02*
X451439460Y-279597979D01*
X451439460Y-279597979D02*
X451439460Y-279164646D01*
X450972793Y-278964646D02*
X450972793Y-278497979D01*
X450972793Y-278497979D02*
X451672793Y-278797979D01*
X451306126Y-277997979D02*
X451339460Y-277897979D01*
X451339460Y-277897979D02*
X451372793Y-277864645D01*
X451372793Y-277864645D02*
X451439460Y-277831312D01*
X451439460Y-277831312D02*
X451539460Y-277831312D01*
X451539460Y-277831312D02*
X451606126Y-277864645D01*
X451606126Y-277864645D02*
X451639460Y-277897979D01*
X451639460Y-277897979D02*
X451672793Y-277964645D01*
X451672793Y-277964645D02*
X451672793Y-278231312D01*
X451672793Y-278231312D02*
X450972793Y-278231312D01*
X450972793Y-278231312D02*
X450972793Y-277997979D01*
X450972793Y-277997979D02*
X451006126Y-277931312D01*
X451006126Y-277931312D02*
X451039460Y-277897979D01*
X451039460Y-277897979D02*
X451106126Y-277864645D01*
X451106126Y-277864645D02*
X451172793Y-277864645D01*
X451172793Y-277864645D02*
X451239460Y-277897979D01*
X451239460Y-277897979D02*
X451272793Y-277931312D01*
X451272793Y-277931312D02*
X451306126Y-277997979D01*
X451306126Y-277997979D02*
X451306126Y-278231312D01*
X443686126Y-276317980D02*
X443719460Y-276217980D01*
X443719460Y-276217980D02*
X443752793Y-276184646D01*
X443752793Y-276184646D02*
X443819460Y-276151313D01*
X443819460Y-276151313D02*
X443919460Y-276151313D01*
X443919460Y-276151313D02*
X443986126Y-276184646D01*
X443986126Y-276184646D02*
X444019460Y-276217980D01*
X444019460Y-276217980D02*
X444052793Y-276284646D01*
X444052793Y-276284646D02*
X444052793Y-276551313D01*
X444052793Y-276551313D02*
X443352793Y-276551313D01*
X443352793Y-276551313D02*
X443352793Y-276317980D01*
X443352793Y-276317980D02*
X443386126Y-276251313D01*
X443386126Y-276251313D02*
X443419460Y-276217980D01*
X443419460Y-276217980D02*
X443486126Y-276184646D01*
X443486126Y-276184646D02*
X443552793Y-276184646D01*
X443552793Y-276184646D02*
X443619460Y-276217980D01*
X443619460Y-276217980D02*
X443652793Y-276251313D01*
X443652793Y-276251313D02*
X443686126Y-276317980D01*
X443686126Y-276317980D02*
X443686126Y-276551313D01*
X443986126Y-275451313D02*
X444019460Y-275484646D01*
X444019460Y-275484646D02*
X444052793Y-275584646D01*
X444052793Y-275584646D02*
X444052793Y-275651313D01*
X444052793Y-275651313D02*
X444019460Y-275751313D01*
X444019460Y-275751313D02*
X443952793Y-275817980D01*
X443952793Y-275817980D02*
X443886126Y-275851313D01*
X443886126Y-275851313D02*
X443752793Y-275884646D01*
X443752793Y-275884646D02*
X443652793Y-275884646D01*
X443652793Y-275884646D02*
X443519460Y-275851313D01*
X443519460Y-275851313D02*
X443452793Y-275817980D01*
X443452793Y-275817980D02*
X443386126Y-275751313D01*
X443386126Y-275751313D02*
X443352793Y-275651313D01*
X443352793Y-275651313D02*
X443352793Y-275584646D01*
X443352793Y-275584646D02*
X443386126Y-275484646D01*
X443386126Y-275484646D02*
X443419460Y-275451313D01*
X443352793Y-274817980D02*
X443352793Y-275151313D01*
X443352793Y-275151313D02*
X443686126Y-275184646D01*
X443686126Y-275184646D02*
X443652793Y-275151313D01*
X443652793Y-275151313D02*
X443619460Y-275084646D01*
X443619460Y-275084646D02*
X443619460Y-274917980D01*
X443619460Y-274917980D02*
X443652793Y-274851313D01*
X443652793Y-274851313D02*
X443686126Y-274817980D01*
X443686126Y-274817980D02*
X443752793Y-274784646D01*
X443752793Y-274784646D02*
X443919460Y-274784646D01*
X443919460Y-274784646D02*
X443986126Y-274817980D01*
X443986126Y-274817980D02*
X444019460Y-274851313D01*
X444019460Y-274851313D02*
X444052793Y-274917980D01*
X444052793Y-274917980D02*
X444052793Y-275084646D01*
X444052793Y-275084646D02*
X444019460Y-275151313D01*
X444019460Y-275151313D02*
X443986126Y-275184646D01*
X443586126Y-274184646D02*
X444052793Y-274184646D01*
X443319460Y-274351313D02*
X443819460Y-274517979D01*
X443819460Y-274517979D02*
X443819460Y-274084646D01*
X443352793Y-273884646D02*
X443352793Y-273417979D01*
X443352793Y-273417979D02*
X444052793Y-273717979D01*
X443686126Y-272917979D02*
X443719460Y-272817979D01*
X443719460Y-272817979D02*
X443752793Y-272784645D01*
X443752793Y-272784645D02*
X443819460Y-272751312D01*
X443819460Y-272751312D02*
X443919460Y-272751312D01*
X443919460Y-272751312D02*
X443986126Y-272784645D01*
X443986126Y-272784645D02*
X444019460Y-272817979D01*
X444019460Y-272817979D02*
X444052793Y-272884645D01*
X444052793Y-272884645D02*
X444052793Y-273151312D01*
X444052793Y-273151312D02*
X443352793Y-273151312D01*
X443352793Y-273151312D02*
X443352793Y-272917979D01*
X443352793Y-272917979D02*
X443386126Y-272851312D01*
X443386126Y-272851312D02*
X443419460Y-272817979D01*
X443419460Y-272817979D02*
X443486126Y-272784645D01*
X443486126Y-272784645D02*
X443552793Y-272784645D01*
X443552793Y-272784645D02*
X443619460Y-272817979D01*
X443619460Y-272817979D02*
X443652793Y-272851312D01*
X443652793Y-272851312D02*
X443686126Y-272917979D01*
X443686126Y-272917979D02*
X443686126Y-273151312D01*
D10*
X391975459Y-286552799D02*
X391975459Y-286028989D01*
X391975459Y-286028989D02*
X391927840Y-285933751D01*
X391927840Y-285933751D02*
X391832602Y-285886132D01*
X391832602Y-285886132D02*
X391642126Y-285886132D01*
X391642126Y-285886132D02*
X391546888Y-285933751D01*
X391975459Y-286505180D02*
X391880221Y-286552799D01*
X391880221Y-286552799D02*
X391642126Y-286552799D01*
X391642126Y-286552799D02*
X391546888Y-286505180D01*
X391546888Y-286505180D02*
X391499269Y-286409941D01*
X391499269Y-286409941D02*
X391499269Y-286314703D01*
X391499269Y-286314703D02*
X391546888Y-286219465D01*
X391546888Y-286219465D02*
X391642126Y-286171846D01*
X391642126Y-286171846D02*
X391880221Y-286171846D01*
X391880221Y-286171846D02*
X391975459Y-286124227D01*
X392308793Y-285886132D02*
X392689745Y-285886132D01*
X392451650Y-285552799D02*
X392451650Y-286409941D01*
X392451650Y-286409941D02*
X392499269Y-286505180D01*
X392499269Y-286505180D02*
X392594507Y-286552799D01*
X392594507Y-286552799D02*
X392689745Y-286552799D01*
X393023079Y-286552799D02*
X393023079Y-285886132D01*
X393023079Y-285981370D02*
X393070698Y-285933751D01*
X393070698Y-285933751D02*
X393165936Y-285886132D01*
X393165936Y-285886132D02*
X393308793Y-285886132D01*
X393308793Y-285886132D02*
X393404031Y-285933751D01*
X393404031Y-285933751D02*
X393451650Y-286028989D01*
X393451650Y-286028989D02*
X393451650Y-286552799D01*
X393451650Y-286028989D02*
X393499269Y-285933751D01*
X393499269Y-285933751D02*
X393594507Y-285886132D01*
X393594507Y-285886132D02*
X393737364Y-285886132D01*
X393737364Y-285886132D02*
X393832603Y-285933751D01*
X393832603Y-285933751D02*
X393880222Y-286028989D01*
X393880222Y-286028989D02*
X393880222Y-286552799D01*
X394737364Y-286505180D02*
X394642126Y-286552799D01*
X394642126Y-286552799D02*
X394451650Y-286552799D01*
X394451650Y-286552799D02*
X394356412Y-286505180D01*
X394356412Y-286505180D02*
X394308793Y-286409941D01*
X394308793Y-286409941D02*
X394308793Y-286028989D01*
X394308793Y-286028989D02*
X394356412Y-285933751D01*
X394356412Y-285933751D02*
X394451650Y-285886132D01*
X394451650Y-285886132D02*
X394642126Y-285886132D01*
X394642126Y-285886132D02*
X394737364Y-285933751D01*
X394737364Y-285933751D02*
X394784983Y-286028989D01*
X394784983Y-286028989D02*
X394784983Y-286124227D01*
X394784983Y-286124227D02*
X394308793Y-286219465D01*
X395642126Y-285886132D02*
X395642126Y-286695656D01*
X395642126Y-286695656D02*
X395594507Y-286790894D01*
X395594507Y-286790894D02*
X395546888Y-286838513D01*
X395546888Y-286838513D02*
X395451650Y-286886132D01*
X395451650Y-286886132D02*
X395308793Y-286886132D01*
X395308793Y-286886132D02*
X395213555Y-286838513D01*
X395642126Y-286505180D02*
X395546888Y-286552799D01*
X395546888Y-286552799D02*
X395356412Y-286552799D01*
X395356412Y-286552799D02*
X395261174Y-286505180D01*
X395261174Y-286505180D02*
X395213555Y-286457560D01*
X395213555Y-286457560D02*
X395165936Y-286362322D01*
X395165936Y-286362322D02*
X395165936Y-286076608D01*
X395165936Y-286076608D02*
X395213555Y-285981370D01*
X395213555Y-285981370D02*
X395261174Y-285933751D01*
X395261174Y-285933751D02*
X395356412Y-285886132D01*
X395356412Y-285886132D02*
X395546888Y-285886132D01*
X395546888Y-285886132D02*
X395642126Y-285933751D01*
X396546888Y-286552799D02*
X396546888Y-286028989D01*
X396546888Y-286028989D02*
X396499269Y-285933751D01*
X396499269Y-285933751D02*
X396404031Y-285886132D01*
X396404031Y-285886132D02*
X396213555Y-285886132D01*
X396213555Y-285886132D02*
X396118317Y-285933751D01*
X396546888Y-286505180D02*
X396451650Y-286552799D01*
X396451650Y-286552799D02*
X396213555Y-286552799D01*
X396213555Y-286552799D02*
X396118317Y-286505180D01*
X396118317Y-286505180D02*
X396070698Y-286409941D01*
X396070698Y-286409941D02*
X396070698Y-286314703D01*
X396070698Y-286314703D02*
X396118317Y-286219465D01*
X396118317Y-286219465D02*
X396213555Y-286171846D01*
X396213555Y-286171846D02*
X396451650Y-286171846D01*
X396451650Y-286171846D02*
X396546888Y-286124227D01*
X397546888Y-286552799D02*
X396975460Y-286552799D01*
X397261174Y-286552799D02*
X397261174Y-285552799D01*
X397261174Y-285552799D02*
X397165936Y-285695656D01*
X397165936Y-285695656D02*
X397070698Y-285790894D01*
X397070698Y-285790894D02*
X396975460Y-285838513D01*
X398404031Y-285552799D02*
X398213555Y-285552799D01*
X398213555Y-285552799D02*
X398118317Y-285600418D01*
X398118317Y-285600418D02*
X398070698Y-285648037D01*
X398070698Y-285648037D02*
X397975460Y-285790894D01*
X397975460Y-285790894D02*
X397927841Y-285981370D01*
X397927841Y-285981370D02*
X397927841Y-286362322D01*
X397927841Y-286362322D02*
X397975460Y-286457560D01*
X397975460Y-286457560D02*
X398023079Y-286505180D01*
X398023079Y-286505180D02*
X398118317Y-286552799D01*
X398118317Y-286552799D02*
X398308793Y-286552799D01*
X398308793Y-286552799D02*
X398404031Y-286505180D01*
X398404031Y-286505180D02*
X398451650Y-286457560D01*
X398451650Y-286457560D02*
X398499269Y-286362322D01*
X398499269Y-286362322D02*
X398499269Y-286124227D01*
X398499269Y-286124227D02*
X398451650Y-286028989D01*
X398451650Y-286028989D02*
X398404031Y-285981370D01*
X398404031Y-285981370D02*
X398308793Y-285933751D01*
X398308793Y-285933751D02*
X398118317Y-285933751D01*
X398118317Y-285933751D02*
X398023079Y-285981370D01*
X398023079Y-285981370D02*
X397975460Y-286028989D01*
X397975460Y-286028989D02*
X397927841Y-286124227D01*
X399356412Y-285886132D02*
X399356412Y-286552799D01*
X399118317Y-285505180D02*
X398880222Y-286219465D01*
X398880222Y-286219465D02*
X399499269Y-286219465D01*
X393975460Y-298252799D02*
X394070698Y-298252799D01*
X394070698Y-298252799D02*
X394165936Y-298300418D01*
X394165936Y-298300418D02*
X394213555Y-298348037D01*
X394213555Y-298348037D02*
X394261174Y-298443275D01*
X394261174Y-298443275D02*
X394308793Y-298633751D01*
X394308793Y-298633751D02*
X394308793Y-298871846D01*
X394308793Y-298871846D02*
X394261174Y-299062322D01*
X394261174Y-299062322D02*
X394213555Y-299157560D01*
X394213555Y-299157560D02*
X394165936Y-299205180D01*
X394165936Y-299205180D02*
X394070698Y-299252799D01*
X394070698Y-299252799D02*
X393975460Y-299252799D01*
X393975460Y-299252799D02*
X393880222Y-299205180D01*
X393880222Y-299205180D02*
X393832603Y-299157560D01*
X393832603Y-299157560D02*
X393784984Y-299062322D01*
X393784984Y-299062322D02*
X393737365Y-298871846D01*
X393737365Y-298871846D02*
X393737365Y-298633751D01*
X393737365Y-298633751D02*
X393784984Y-298443275D01*
X393784984Y-298443275D02*
X393832603Y-298348037D01*
X393832603Y-298348037D02*
X393880222Y-298300418D01*
X393880222Y-298300418D02*
X393975460Y-298252799D01*
X394737365Y-299157560D02*
X394784984Y-299205180D01*
X394784984Y-299205180D02*
X394737365Y-299252799D01*
X394737365Y-299252799D02*
X394689746Y-299205180D01*
X394689746Y-299205180D02*
X394737365Y-299157560D01*
X394737365Y-299157560D02*
X394737365Y-299252799D01*
X395737364Y-299252799D02*
X395165936Y-299252799D01*
X395451650Y-299252799D02*
X395451650Y-298252799D01*
X395451650Y-298252799D02*
X395356412Y-298395656D01*
X395356412Y-298395656D02*
X395261174Y-298490894D01*
X395261174Y-298490894D02*
X395165936Y-298538513D01*
X396594507Y-298586132D02*
X396594507Y-299252799D01*
X396165936Y-298586132D02*
X396165936Y-299109941D01*
X396165936Y-299109941D02*
X396213555Y-299205180D01*
X396213555Y-299205180D02*
X396308793Y-299252799D01*
X396308793Y-299252799D02*
X396451650Y-299252799D01*
X396451650Y-299252799D02*
X396546888Y-299205180D01*
X396546888Y-299205180D02*
X396594507Y-299157560D01*
X396927841Y-298586132D02*
X397308793Y-298586132D01*
X397070698Y-299252799D02*
X397070698Y-298395656D01*
X397070698Y-298395656D02*
X397118317Y-298300418D01*
X397118317Y-298300418D02*
X397213555Y-298252799D01*
X397213555Y-298252799D02*
X397308793Y-298252799D01*
X448585460Y-283647799D02*
X448680698Y-283647799D01*
X448680698Y-283647799D02*
X448775936Y-283695418D01*
X448775936Y-283695418D02*
X448823555Y-283743037D01*
X448823555Y-283743037D02*
X448871174Y-283838275D01*
X448871174Y-283838275D02*
X448918793Y-284028751D01*
X448918793Y-284028751D02*
X448918793Y-284266846D01*
X448918793Y-284266846D02*
X448871174Y-284457322D01*
X448871174Y-284457322D02*
X448823555Y-284552560D01*
X448823555Y-284552560D02*
X448775936Y-284600180D01*
X448775936Y-284600180D02*
X448680698Y-284647799D01*
X448680698Y-284647799D02*
X448585460Y-284647799D01*
X448585460Y-284647799D02*
X448490222Y-284600180D01*
X448490222Y-284600180D02*
X448442603Y-284552560D01*
X448442603Y-284552560D02*
X448394984Y-284457322D01*
X448394984Y-284457322D02*
X448347365Y-284266846D01*
X448347365Y-284266846D02*
X448347365Y-284028751D01*
X448347365Y-284028751D02*
X448394984Y-283838275D01*
X448394984Y-283838275D02*
X448442603Y-283743037D01*
X448442603Y-283743037D02*
X448490222Y-283695418D01*
X448490222Y-283695418D02*
X448585460Y-283647799D01*
X449347365Y-284552560D02*
X449394984Y-284600180D01*
X449394984Y-284600180D02*
X449347365Y-284647799D01*
X449347365Y-284647799D02*
X449299746Y-284600180D01*
X449299746Y-284600180D02*
X449347365Y-284552560D01*
X449347365Y-284552560D02*
X449347365Y-284647799D01*
X450347364Y-284647799D02*
X449775936Y-284647799D01*
X450061650Y-284647799D02*
X450061650Y-283647799D01*
X450061650Y-283647799D02*
X449966412Y-283790656D01*
X449966412Y-283790656D02*
X449871174Y-283885894D01*
X449871174Y-283885894D02*
X449775936Y-283933513D01*
X451204507Y-283981132D02*
X451204507Y-284647799D01*
X450775936Y-283981132D02*
X450775936Y-284504941D01*
X450775936Y-284504941D02*
X450823555Y-284600180D01*
X450823555Y-284600180D02*
X450918793Y-284647799D01*
X450918793Y-284647799D02*
X451061650Y-284647799D01*
X451061650Y-284647799D02*
X451156888Y-284600180D01*
X451156888Y-284600180D02*
X451204507Y-284552560D01*
X451537841Y-283981132D02*
X451918793Y-283981132D01*
X451680698Y-284647799D02*
X451680698Y-283790656D01*
X451680698Y-283790656D02*
X451728317Y-283695418D01*
X451728317Y-283695418D02*
X451823555Y-283647799D01*
X451823555Y-283647799D02*
X451918793Y-283647799D01*
X363859717Y-294365179D02*
X363812098Y-294317560D01*
X363812098Y-294317560D02*
X363764479Y-294222322D01*
X363764479Y-294222322D02*
X363764479Y-293984227D01*
X363764479Y-293984227D02*
X363812098Y-293888989D01*
X363812098Y-293888989D02*
X363859717Y-293841370D01*
X363859717Y-293841370D02*
X363954955Y-293793751D01*
X363954955Y-293793751D02*
X364050193Y-293793751D01*
X364050193Y-293793751D02*
X364193050Y-293841370D01*
X364193050Y-293841370D02*
X364764479Y-294412798D01*
X364764479Y-294412798D02*
X364764479Y-293793751D01*
X363764479Y-293174703D02*
X363764479Y-293079465D01*
X363764479Y-293079465D02*
X363812098Y-292984227D01*
X363812098Y-292984227D02*
X363859717Y-292936608D01*
X363859717Y-292936608D02*
X363954955Y-292888989D01*
X363954955Y-292888989D02*
X364145431Y-292841370D01*
X364145431Y-292841370D02*
X364383526Y-292841370D01*
X364383526Y-292841370D02*
X364574002Y-292888989D01*
X364574002Y-292888989D02*
X364669240Y-292936608D01*
X364669240Y-292936608D02*
X364716860Y-292984227D01*
X364716860Y-292984227D02*
X364764479Y-293079465D01*
X364764479Y-293079465D02*
X364764479Y-293174703D01*
X364764479Y-293174703D02*
X364716860Y-293269941D01*
X364716860Y-293269941D02*
X364669240Y-293317560D01*
X364669240Y-293317560D02*
X364574002Y-293365179D01*
X364574002Y-293365179D02*
X364383526Y-293412798D01*
X364383526Y-293412798D02*
X364145431Y-293412798D01*
X364145431Y-293412798D02*
X363954955Y-293365179D01*
X363954955Y-293365179D02*
X363859717Y-293317560D01*
X363859717Y-293317560D02*
X363812098Y-293269941D01*
X363812098Y-293269941D02*
X363764479Y-293174703D01*
X364097812Y-292412798D02*
X365097812Y-292412798D01*
X364145431Y-292412798D02*
X364097812Y-292317560D01*
X364097812Y-292317560D02*
X364097812Y-292127084D01*
X364097812Y-292127084D02*
X364145431Y-292031846D01*
X364145431Y-292031846D02*
X364193050Y-291984227D01*
X364193050Y-291984227D02*
X364288288Y-291936608D01*
X364288288Y-291936608D02*
X364574002Y-291936608D01*
X364574002Y-291936608D02*
X364669240Y-291984227D01*
X364669240Y-291984227D02*
X364716860Y-292031846D01*
X364716860Y-292031846D02*
X364764479Y-292127084D01*
X364764479Y-292127084D02*
X364764479Y-292317560D01*
X364764479Y-292317560D02*
X364716860Y-292412798D01*
X364097812Y-291650893D02*
X364097812Y-291269941D01*
X364764479Y-291508036D02*
X363907336Y-291508036D01*
X363907336Y-291508036D02*
X363812098Y-291460417D01*
X363812098Y-291460417D02*
X363764479Y-291365179D01*
X363764479Y-291365179D02*
X363764479Y-291269941D01*
X363859717Y-286962979D02*
X363812098Y-286915360D01*
X363812098Y-286915360D02*
X363764479Y-286820122D01*
X363764479Y-286820122D02*
X363764479Y-286582027D01*
X363764479Y-286582027D02*
X363812098Y-286486789D01*
X363812098Y-286486789D02*
X363859717Y-286439170D01*
X363859717Y-286439170D02*
X363954955Y-286391551D01*
X363954955Y-286391551D02*
X364050193Y-286391551D01*
X364050193Y-286391551D02*
X364193050Y-286439170D01*
X364193050Y-286439170D02*
X364764479Y-287010598D01*
X364764479Y-287010598D02*
X364764479Y-286391551D01*
X363764479Y-285772503D02*
X363764479Y-285677265D01*
X363764479Y-285677265D02*
X363812098Y-285582027D01*
X363812098Y-285582027D02*
X363859717Y-285534408D01*
X363859717Y-285534408D02*
X363954955Y-285486789D01*
X363954955Y-285486789D02*
X364145431Y-285439170D01*
X364145431Y-285439170D02*
X364383526Y-285439170D01*
X364383526Y-285439170D02*
X364574002Y-285486789D01*
X364574002Y-285486789D02*
X364669240Y-285534408D01*
X364669240Y-285534408D02*
X364716860Y-285582027D01*
X364716860Y-285582027D02*
X364764479Y-285677265D01*
X364764479Y-285677265D02*
X364764479Y-285772503D01*
X364764479Y-285772503D02*
X364716860Y-285867741D01*
X364716860Y-285867741D02*
X364669240Y-285915360D01*
X364669240Y-285915360D02*
X364574002Y-285962979D01*
X364574002Y-285962979D02*
X364383526Y-286010598D01*
X364383526Y-286010598D02*
X364145431Y-286010598D01*
X364145431Y-286010598D02*
X363954955Y-285962979D01*
X363954955Y-285962979D02*
X363859717Y-285915360D01*
X363859717Y-285915360D02*
X363812098Y-285867741D01*
X363812098Y-285867741D02*
X363764479Y-285772503D01*
X364097812Y-285010598D02*
X365097812Y-285010598D01*
X364145431Y-285010598D02*
X364097812Y-284915360D01*
X364097812Y-284915360D02*
X364097812Y-284724884D01*
X364097812Y-284724884D02*
X364145431Y-284629646D01*
X364145431Y-284629646D02*
X364193050Y-284582027D01*
X364193050Y-284582027D02*
X364288288Y-284534408D01*
X364288288Y-284534408D02*
X364574002Y-284534408D01*
X364574002Y-284534408D02*
X364669240Y-284582027D01*
X364669240Y-284582027D02*
X364716860Y-284629646D01*
X364716860Y-284629646D02*
X364764479Y-284724884D01*
X364764479Y-284724884D02*
X364764479Y-284915360D01*
X364764479Y-284915360D02*
X364716860Y-285010598D01*
X364097812Y-284248693D02*
X364097812Y-283867741D01*
X364764479Y-284105836D02*
X363907336Y-284105836D01*
X363907336Y-284105836D02*
X363812098Y-284058217D01*
X363812098Y-284058217D02*
X363764479Y-283962979D01*
X363764479Y-283962979D02*
X363764479Y-283867741D01*
X452395460Y-269680932D02*
X452395460Y-270347599D01*
X452157365Y-269299980D02*
X451919270Y-270014265D01*
X451919270Y-270014265D02*
X452538317Y-270014265D01*
X452919270Y-270252360D02*
X452966889Y-270299980D01*
X452966889Y-270299980D02*
X452919270Y-270347599D01*
X452919270Y-270347599D02*
X452871651Y-270299980D01*
X452871651Y-270299980D02*
X452919270Y-270252360D01*
X452919270Y-270252360D02*
X452919270Y-270347599D01*
X453300222Y-269347599D02*
X453966888Y-269347599D01*
X453966888Y-269347599D02*
X453538317Y-270347599D01*
X454347841Y-270347599D02*
X454347841Y-269347599D01*
X454443079Y-269966646D02*
X454728793Y-270347599D01*
X454728793Y-269680932D02*
X454347841Y-270061884D01*
X455109746Y-270347599D02*
X455347841Y-270347599D01*
X455347841Y-270347599D02*
X455347841Y-270157122D01*
X455347841Y-270157122D02*
X455252603Y-270109503D01*
X455252603Y-270109503D02*
X455157365Y-270014265D01*
X455157365Y-270014265D02*
X455109746Y-269871408D01*
X455109746Y-269871408D02*
X455109746Y-269633313D01*
X455109746Y-269633313D02*
X455157365Y-269490456D01*
X455157365Y-269490456D02*
X455252603Y-269395218D01*
X455252603Y-269395218D02*
X455395460Y-269347599D01*
X455395460Y-269347599D02*
X455585936Y-269347599D01*
X455585936Y-269347599D02*
X455728793Y-269395218D01*
X455728793Y-269395218D02*
X455824031Y-269490456D01*
X455824031Y-269490456D02*
X455871650Y-269633313D01*
X455871650Y-269633313D02*
X455871650Y-269871408D01*
X455871650Y-269871408D02*
X455824031Y-270014265D01*
X455824031Y-270014265D02*
X455728793Y-270109503D01*
X455728793Y-270109503D02*
X455633555Y-270157122D01*
X455633555Y-270157122D02*
X455633555Y-270347599D01*
X455633555Y-270347599D02*
X455871650Y-270347599D01*
X452395460Y-266945352D02*
X452395460Y-267612019D01*
X452157365Y-266564400D02*
X451919270Y-267278685D01*
X451919270Y-267278685D02*
X452538317Y-267278685D01*
X452919270Y-267516780D02*
X452966889Y-267564400D01*
X452966889Y-267564400D02*
X452919270Y-267612019D01*
X452919270Y-267612019D02*
X452871651Y-267564400D01*
X452871651Y-267564400D02*
X452919270Y-267516780D01*
X452919270Y-267516780D02*
X452919270Y-267612019D01*
X453300222Y-266612019D02*
X453966888Y-266612019D01*
X453966888Y-266612019D02*
X453538317Y-267612019D01*
X454347841Y-267612019D02*
X454347841Y-266612019D01*
X454443079Y-267231066D02*
X454728793Y-267612019D01*
X454728793Y-266945352D02*
X454347841Y-267326304D01*
X455109746Y-267612019D02*
X455347841Y-267612019D01*
X455347841Y-267612019D02*
X455347841Y-267421542D01*
X455347841Y-267421542D02*
X455252603Y-267373923D01*
X455252603Y-267373923D02*
X455157365Y-267278685D01*
X455157365Y-267278685D02*
X455109746Y-267135828D01*
X455109746Y-267135828D02*
X455109746Y-266897733D01*
X455109746Y-266897733D02*
X455157365Y-266754876D01*
X455157365Y-266754876D02*
X455252603Y-266659638D01*
X455252603Y-266659638D02*
X455395460Y-266612019D01*
X455395460Y-266612019D02*
X455585936Y-266612019D01*
X455585936Y-266612019D02*
X455728793Y-266659638D01*
X455728793Y-266659638D02*
X455824031Y-266754876D01*
X455824031Y-266754876D02*
X455871650Y-266897733D01*
X455871650Y-266897733D02*
X455871650Y-267135828D01*
X455871650Y-267135828D02*
X455824031Y-267278685D01*
X455824031Y-267278685D02*
X455728793Y-267373923D01*
X455728793Y-267373923D02*
X455633555Y-267421542D01*
X455633555Y-267421542D02*
X455633555Y-267612019D01*
X455633555Y-267612019D02*
X455871650Y-267612019D01*
X429233793Y-280172319D02*
X428662365Y-280172319D01*
X428948079Y-280172319D02*
X428948079Y-279172319D01*
X428948079Y-279172319D02*
X428852841Y-279315176D01*
X428852841Y-279315176D02*
X428757603Y-279410414D01*
X428757603Y-279410414D02*
X428662365Y-279458033D01*
X429852841Y-279172319D02*
X429948079Y-279172319D01*
X429948079Y-279172319D02*
X430043317Y-279219938D01*
X430043317Y-279219938D02*
X430090936Y-279267557D01*
X430090936Y-279267557D02*
X430138555Y-279362795D01*
X430138555Y-279362795D02*
X430186174Y-279553271D01*
X430186174Y-279553271D02*
X430186174Y-279791366D01*
X430186174Y-279791366D02*
X430138555Y-279981842D01*
X430138555Y-279981842D02*
X430090936Y-280077080D01*
X430090936Y-280077080D02*
X430043317Y-280124700D01*
X430043317Y-280124700D02*
X429948079Y-280172319D01*
X429948079Y-280172319D02*
X429852841Y-280172319D01*
X429852841Y-280172319D02*
X429757603Y-280124700D01*
X429757603Y-280124700D02*
X429709984Y-280077080D01*
X429709984Y-280077080D02*
X429662365Y-279981842D01*
X429662365Y-279981842D02*
X429614746Y-279791366D01*
X429614746Y-279791366D02*
X429614746Y-279553271D01*
X429614746Y-279553271D02*
X429662365Y-279362795D01*
X429662365Y-279362795D02*
X429709984Y-279267557D01*
X429709984Y-279267557D02*
X429757603Y-279219938D01*
X429757603Y-279219938D02*
X429852841Y-279172319D01*
X430614746Y-280172319D02*
X430614746Y-279172319D01*
X430709984Y-279791366D02*
X430995698Y-280172319D01*
X430995698Y-279505652D02*
X430614746Y-279886604D01*
X431376651Y-280172319D02*
X431614746Y-280172319D01*
X431614746Y-280172319D02*
X431614746Y-279981842D01*
X431614746Y-279981842D02*
X431519508Y-279934223D01*
X431519508Y-279934223D02*
X431424270Y-279838985D01*
X431424270Y-279838985D02*
X431376651Y-279696128D01*
X431376651Y-279696128D02*
X431376651Y-279458033D01*
X431376651Y-279458033D02*
X431424270Y-279315176D01*
X431424270Y-279315176D02*
X431519508Y-279219938D01*
X431519508Y-279219938D02*
X431662365Y-279172319D01*
X431662365Y-279172319D02*
X431852841Y-279172319D01*
X431852841Y-279172319D02*
X431995698Y-279219938D01*
X431995698Y-279219938D02*
X432090936Y-279315176D01*
X432090936Y-279315176D02*
X432138555Y-279458033D01*
X432138555Y-279458033D02*
X432138555Y-279696128D01*
X432138555Y-279696128D02*
X432090936Y-279838985D01*
X432090936Y-279838985D02*
X431995698Y-279934223D01*
X431995698Y-279934223D02*
X431900460Y-279981842D01*
X431900460Y-279981842D02*
X431900460Y-280172319D01*
X431900460Y-280172319D02*
X432138555Y-280172319D01*
X429268333Y-287805019D02*
X428696905Y-287805019D01*
X428982619Y-287805019D02*
X428982619Y-286805019D01*
X428982619Y-286805019D02*
X428887381Y-286947876D01*
X428887381Y-286947876D02*
X428792143Y-287043114D01*
X428792143Y-287043114D02*
X428696905Y-287090733D01*
X429887381Y-286805019D02*
X429982619Y-286805019D01*
X429982619Y-286805019D02*
X430077857Y-286852638D01*
X430077857Y-286852638D02*
X430125476Y-286900257D01*
X430125476Y-286900257D02*
X430173095Y-286995495D01*
X430173095Y-286995495D02*
X430220714Y-287185971D01*
X430220714Y-287185971D02*
X430220714Y-287424066D01*
X430220714Y-287424066D02*
X430173095Y-287614542D01*
X430173095Y-287614542D02*
X430125476Y-287709780D01*
X430125476Y-287709780D02*
X430077857Y-287757400D01*
X430077857Y-287757400D02*
X429982619Y-287805019D01*
X429982619Y-287805019D02*
X429887381Y-287805019D01*
X429887381Y-287805019D02*
X429792143Y-287757400D01*
X429792143Y-287757400D02*
X429744524Y-287709780D01*
X429744524Y-287709780D02*
X429696905Y-287614542D01*
X429696905Y-287614542D02*
X429649286Y-287424066D01*
X429649286Y-287424066D02*
X429649286Y-287185971D01*
X429649286Y-287185971D02*
X429696905Y-286995495D01*
X429696905Y-286995495D02*
X429744524Y-286900257D01*
X429744524Y-286900257D02*
X429792143Y-286852638D01*
X429792143Y-286852638D02*
X429887381Y-286805019D01*
X430649286Y-287805019D02*
X430649286Y-286805019D01*
X430744524Y-287424066D02*
X431030238Y-287805019D01*
X431030238Y-287138352D02*
X430649286Y-287519304D01*
X431411191Y-287805019D02*
X431649286Y-287805019D01*
X431649286Y-287805019D02*
X431649286Y-287614542D01*
X431649286Y-287614542D02*
X431554048Y-287566923D01*
X431554048Y-287566923D02*
X431458810Y-287471685D01*
X431458810Y-287471685D02*
X431411191Y-287328828D01*
X431411191Y-287328828D02*
X431411191Y-287090733D01*
X431411191Y-287090733D02*
X431458810Y-286947876D01*
X431458810Y-286947876D02*
X431554048Y-286852638D01*
X431554048Y-286852638D02*
X431696905Y-286805019D01*
X431696905Y-286805019D02*
X431887381Y-286805019D01*
X431887381Y-286805019D02*
X432030238Y-286852638D01*
X432030238Y-286852638D02*
X432125476Y-286947876D01*
X432125476Y-286947876D02*
X432173095Y-287090733D01*
X432173095Y-287090733D02*
X432173095Y-287328828D01*
X432173095Y-287328828D02*
X432125476Y-287471685D01*
X432125476Y-287471685D02*
X432030238Y-287566923D01*
X432030238Y-287566923D02*
X431935000Y-287614542D01*
X431935000Y-287614542D02*
X431935000Y-287805019D01*
X431935000Y-287805019D02*
X432173095Y-287805019D01*
X426510000Y-292189819D02*
X426605238Y-292189819D01*
X426605238Y-292189819D02*
X426700476Y-292237438D01*
X426700476Y-292237438D02*
X426748095Y-292285057D01*
X426748095Y-292285057D02*
X426795714Y-292380295D01*
X426795714Y-292380295D02*
X426843333Y-292570771D01*
X426843333Y-292570771D02*
X426843333Y-292808866D01*
X426843333Y-292808866D02*
X426795714Y-292999342D01*
X426795714Y-292999342D02*
X426748095Y-293094580D01*
X426748095Y-293094580D02*
X426700476Y-293142200D01*
X426700476Y-293142200D02*
X426605238Y-293189819D01*
X426605238Y-293189819D02*
X426510000Y-293189819D01*
X426510000Y-293189819D02*
X426414762Y-293142200D01*
X426414762Y-293142200D02*
X426367143Y-293094580D01*
X426367143Y-293094580D02*
X426319524Y-292999342D01*
X426319524Y-292999342D02*
X426271905Y-292808866D01*
X426271905Y-292808866D02*
X426271905Y-292570771D01*
X426271905Y-292570771D02*
X426319524Y-292380295D01*
X426319524Y-292380295D02*
X426367143Y-292285057D01*
X426367143Y-292285057D02*
X426414762Y-292237438D01*
X426414762Y-292237438D02*
X426510000Y-292189819D01*
X427271905Y-293094580D02*
X427319524Y-293142200D01*
X427319524Y-293142200D02*
X427271905Y-293189819D01*
X427271905Y-293189819D02*
X427224286Y-293142200D01*
X427224286Y-293142200D02*
X427271905Y-293094580D01*
X427271905Y-293094580D02*
X427271905Y-293189819D01*
X428271904Y-293189819D02*
X427700476Y-293189819D01*
X427986190Y-293189819D02*
X427986190Y-292189819D01*
X427986190Y-292189819D02*
X427890952Y-292332676D01*
X427890952Y-292332676D02*
X427795714Y-292427914D01*
X427795714Y-292427914D02*
X427700476Y-292475533D01*
X429129047Y-292523152D02*
X429129047Y-293189819D01*
X428700476Y-292523152D02*
X428700476Y-293046961D01*
X428700476Y-293046961D02*
X428748095Y-293142200D01*
X428748095Y-293142200D02*
X428843333Y-293189819D01*
X428843333Y-293189819D02*
X428986190Y-293189819D01*
X428986190Y-293189819D02*
X429081428Y-293142200D01*
X429081428Y-293142200D02*
X429129047Y-293094580D01*
X429462381Y-292523152D02*
X429843333Y-292523152D01*
X429605238Y-293189819D02*
X429605238Y-292332676D01*
X429605238Y-292332676D02*
X429652857Y-292237438D01*
X429652857Y-292237438D02*
X429748095Y-292189819D01*
X429748095Y-292189819D02*
X429843333Y-292189819D01*
X434130000Y-292189819D02*
X434225238Y-292189819D01*
X434225238Y-292189819D02*
X434320476Y-292237438D01*
X434320476Y-292237438D02*
X434368095Y-292285057D01*
X434368095Y-292285057D02*
X434415714Y-292380295D01*
X434415714Y-292380295D02*
X434463333Y-292570771D01*
X434463333Y-292570771D02*
X434463333Y-292808866D01*
X434463333Y-292808866D02*
X434415714Y-292999342D01*
X434415714Y-292999342D02*
X434368095Y-293094580D01*
X434368095Y-293094580D02*
X434320476Y-293142200D01*
X434320476Y-293142200D02*
X434225238Y-293189819D01*
X434225238Y-293189819D02*
X434130000Y-293189819D01*
X434130000Y-293189819D02*
X434034762Y-293142200D01*
X434034762Y-293142200D02*
X433987143Y-293094580D01*
X433987143Y-293094580D02*
X433939524Y-292999342D01*
X433939524Y-292999342D02*
X433891905Y-292808866D01*
X433891905Y-292808866D02*
X433891905Y-292570771D01*
X433891905Y-292570771D02*
X433939524Y-292380295D01*
X433939524Y-292380295D02*
X433987143Y-292285057D01*
X433987143Y-292285057D02*
X434034762Y-292237438D01*
X434034762Y-292237438D02*
X434130000Y-292189819D01*
X434891905Y-293094580D02*
X434939524Y-293142200D01*
X434939524Y-293142200D02*
X434891905Y-293189819D01*
X434891905Y-293189819D02*
X434844286Y-293142200D01*
X434844286Y-293142200D02*
X434891905Y-293094580D01*
X434891905Y-293094580D02*
X434891905Y-293189819D01*
X435891904Y-293189819D02*
X435320476Y-293189819D01*
X435606190Y-293189819D02*
X435606190Y-292189819D01*
X435606190Y-292189819D02*
X435510952Y-292332676D01*
X435510952Y-292332676D02*
X435415714Y-292427914D01*
X435415714Y-292427914D02*
X435320476Y-292475533D01*
X436749047Y-292523152D02*
X436749047Y-293189819D01*
X436320476Y-292523152D02*
X436320476Y-293046961D01*
X436320476Y-293046961D02*
X436368095Y-293142200D01*
X436368095Y-293142200D02*
X436463333Y-293189819D01*
X436463333Y-293189819D02*
X436606190Y-293189819D01*
X436606190Y-293189819D02*
X436701428Y-293142200D01*
X436701428Y-293142200D02*
X436749047Y-293094580D01*
X437082381Y-292523152D02*
X437463333Y-292523152D01*
X437225238Y-293189819D02*
X437225238Y-292332676D01*
X437225238Y-292332676D02*
X437272857Y-292237438D01*
X437272857Y-292237438D02*
X437368095Y-292189819D01*
X437368095Y-292189819D02*
X437463333Y-292189819D01*
X428760142Y-283982319D02*
X428188714Y-283982319D01*
X428474428Y-283982319D02*
X428474428Y-282982319D01*
X428474428Y-282982319D02*
X428379190Y-283125176D01*
X428379190Y-283125176D02*
X428283952Y-283220414D01*
X428283952Y-283220414D02*
X428188714Y-283268033D01*
X429379190Y-282982319D02*
X429474428Y-282982319D01*
X429474428Y-282982319D02*
X429569666Y-283029938D01*
X429569666Y-283029938D02*
X429617285Y-283077557D01*
X429617285Y-283077557D02*
X429664904Y-283172795D01*
X429664904Y-283172795D02*
X429712523Y-283363271D01*
X429712523Y-283363271D02*
X429712523Y-283601366D01*
X429712523Y-283601366D02*
X429664904Y-283791842D01*
X429664904Y-283791842D02*
X429617285Y-283887080D01*
X429617285Y-283887080D02*
X429569666Y-283934700D01*
X429569666Y-283934700D02*
X429474428Y-283982319D01*
X429474428Y-283982319D02*
X429379190Y-283982319D01*
X429379190Y-283982319D02*
X429283952Y-283934700D01*
X429283952Y-283934700D02*
X429236333Y-283887080D01*
X429236333Y-283887080D02*
X429188714Y-283791842D01*
X429188714Y-283791842D02*
X429141095Y-283601366D01*
X429141095Y-283601366D02*
X429141095Y-283363271D01*
X429141095Y-283363271D02*
X429188714Y-283172795D01*
X429188714Y-283172795D02*
X429236333Y-283077557D01*
X429236333Y-283077557D02*
X429283952Y-283029938D01*
X429283952Y-283029938D02*
X429379190Y-282982319D01*
X430331571Y-282982319D02*
X430426809Y-282982319D01*
X430426809Y-282982319D02*
X430522047Y-283029938D01*
X430522047Y-283029938D02*
X430569666Y-283077557D01*
X430569666Y-283077557D02*
X430617285Y-283172795D01*
X430617285Y-283172795D02*
X430664904Y-283363271D01*
X430664904Y-283363271D02*
X430664904Y-283601366D01*
X430664904Y-283601366D02*
X430617285Y-283791842D01*
X430617285Y-283791842D02*
X430569666Y-283887080D01*
X430569666Y-283887080D02*
X430522047Y-283934700D01*
X430522047Y-283934700D02*
X430426809Y-283982319D01*
X430426809Y-283982319D02*
X430331571Y-283982319D01*
X430331571Y-283982319D02*
X430236333Y-283934700D01*
X430236333Y-283934700D02*
X430188714Y-283887080D01*
X430188714Y-283887080D02*
X430141095Y-283791842D01*
X430141095Y-283791842D02*
X430093476Y-283601366D01*
X430093476Y-283601366D02*
X430093476Y-283363271D01*
X430093476Y-283363271D02*
X430141095Y-283172795D01*
X430141095Y-283172795D02*
X430188714Y-283077557D01*
X430188714Y-283077557D02*
X430236333Y-283029938D01*
X430236333Y-283029938D02*
X430331571Y-282982319D01*
X431093476Y-283982319D02*
X431093476Y-282982319D01*
X431188714Y-283601366D02*
X431474428Y-283982319D01*
X431474428Y-283315652D02*
X431093476Y-283696604D01*
X431855381Y-283982319D02*
X432093476Y-283982319D01*
X432093476Y-283982319D02*
X432093476Y-283791842D01*
X432093476Y-283791842D02*
X431998238Y-283744223D01*
X431998238Y-283744223D02*
X431903000Y-283648985D01*
X431903000Y-283648985D02*
X431855381Y-283506128D01*
X431855381Y-283506128D02*
X431855381Y-283268033D01*
X431855381Y-283268033D02*
X431903000Y-283125176D01*
X431903000Y-283125176D02*
X431998238Y-283029938D01*
X431998238Y-283029938D02*
X432141095Y-282982319D01*
X432141095Y-282982319D02*
X432331571Y-282982319D01*
X432331571Y-282982319D02*
X432474428Y-283029938D01*
X432474428Y-283029938D02*
X432569666Y-283125176D01*
X432569666Y-283125176D02*
X432617285Y-283268033D01*
X432617285Y-283268033D02*
X432617285Y-283506128D01*
X432617285Y-283506128D02*
X432569666Y-283648985D01*
X432569666Y-283648985D02*
X432474428Y-283744223D01*
X432474428Y-283744223D02*
X432379190Y-283791842D01*
X432379190Y-283791842D02*
X432379190Y-283982319D01*
X432379190Y-283982319D02*
X432617285Y-283982319D01*
D13*
%TO.C,0.1uf*%
X449436460Y-273747980D02*
X450694460Y-273747980D01*
X449436460Y-275587980D02*
X450694460Y-275587980D01*
X439276460Y-280732980D02*
X440534460Y-280732980D01*
X439276460Y-282572980D02*
X440534460Y-282572980D01*
X439276460Y-269302980D02*
X440534460Y-269302980D01*
X439276460Y-271142980D02*
X440534460Y-271142980D01*
%TO.C,100k\u03A9*%
X434440460Y-275920200D02*
X433670460Y-275920200D01*
X433670460Y-277290200D02*
X433670460Y-274550200D01*
X433670460Y-274550200D02*
X427130460Y-274550200D01*
X427130460Y-277290200D02*
X433670460Y-277290200D01*
X427130460Y-274550200D02*
X427130460Y-277290200D01*
X426360460Y-275920200D02*
X427130460Y-275920200D01*
%TO.C,BC547B*%
X443045460Y-287897980D02*
X443045460Y-284297980D01*
X438595460Y-286097980D02*
G75*
G03*
X443033938Y-287936458I2600000J0D01*
G01*
X443033938Y-284259502D02*
G75*
G03*
X438595460Y-286097980I-1838478J-1838478D01*
G01*
X450665460Y-292977980D02*
X450665460Y-289377980D01*
X446215460Y-291177980D02*
G75*
G03*
X450653938Y-293016458I2600000J0D01*
G01*
X450653938Y-289339502D02*
G75*
G03*
X446215460Y-291177980I-1838478J-1838478D01*
G01*
X450665460Y-281547980D02*
X450665460Y-277947980D01*
X446215460Y-279747980D02*
G75*
G03*
X450653938Y-281586458I2600000J0D01*
G01*
X450653938Y-277909502D02*
G75*
G03*
X446215460Y-279747980I-1838478J-1838478D01*
G01*
X443045460Y-276467980D02*
X443045460Y-272867980D01*
X438595460Y-274667980D02*
G75*
G03*
X443033938Y-276506458I2600000J0D01*
G01*
X443033938Y-272829502D02*
G75*
G03*
X438595460Y-274667980I-1838478J-1838478D01*
G01*
%TO.C,RJ45*%
X461777460Y-291926780D02*
X462777460Y-291926780D01*
X462777460Y-291926780D02*
X462277460Y-291426780D01*
X462277460Y-291426780D02*
X461777460Y-291926780D01*
X458487460Y-291346780D02*
X475227460Y-291346780D01*
X458487460Y-275626780D02*
X458487460Y-291346780D01*
X458487460Y-275616780D02*
X475227460Y-275616780D01*
X475227460Y-275616780D02*
X475227460Y-291346780D01*
%TO.C,atmega164*%
X420995460Y-277147980D02*
X369955460Y-277147980D01*
X369955460Y-277147980D02*
X369955460Y-295047980D01*
X420935460Y-279637980D02*
X370015460Y-279637980D01*
X370015460Y-279637980D02*
X370015460Y-292557980D01*
X420935460Y-285097980D02*
X420935460Y-279637980D01*
X420935460Y-292557980D02*
X420935460Y-287097980D01*
X370015460Y-292557980D02*
X420935460Y-292557980D01*
X420995460Y-295047980D02*
X420995460Y-277147980D01*
X369955460Y-295047980D02*
X420995460Y-295047980D01*
X420935460Y-285097980D02*
G75*
G03*
X420935460Y-287097980I0J-1000000D01*
G01*
%TO.C,20pin conn.*%
X467829900Y-308516020D02*
X467829900Y-309786020D01*
X466559900Y-308516020D02*
X467829900Y-308516020D01*
X464399900Y-310828949D02*
X464399900Y-311283091D01*
X463639900Y-310828949D02*
X463639900Y-311283091D01*
X461859900Y-310828949D02*
X461859900Y-311283091D01*
X461099900Y-310828949D02*
X461099900Y-311283091D01*
X459319900Y-310828949D02*
X459319900Y-311283091D01*
X458559900Y-310828949D02*
X458559900Y-311283091D01*
X456779900Y-310828949D02*
X456779900Y-311283091D01*
X456019900Y-310828949D02*
X456019900Y-311283091D01*
X454239900Y-310828949D02*
X454239900Y-311283091D01*
X453479900Y-310828949D02*
X453479900Y-311283091D01*
X451699900Y-310828949D02*
X451699900Y-311283091D01*
X450939900Y-310828949D02*
X450939900Y-311283091D01*
X449159900Y-310828949D02*
X449159900Y-311283091D01*
X448399900Y-310828949D02*
X448399900Y-311283091D01*
X446619900Y-310828949D02*
X446619900Y-311283091D01*
X445859900Y-310828949D02*
X445859900Y-311283091D01*
X444079900Y-310828949D02*
X444079900Y-311283091D01*
X443319900Y-310828949D02*
X443319900Y-311283091D01*
X441539900Y-310828949D02*
X441539900Y-311283091D01*
X440779900Y-310828949D02*
X440779900Y-311283091D01*
X438999900Y-310828949D02*
X438999900Y-311283091D01*
X438239900Y-310828949D02*
X438239900Y-311283091D01*
X436459900Y-310828949D02*
X436459900Y-311283091D01*
X435699900Y-310828949D02*
X435699900Y-311283091D01*
X433919900Y-310828949D02*
X433919900Y-311283091D01*
X433159900Y-310828949D02*
X433159900Y-311283091D01*
X431379900Y-310828949D02*
X431379900Y-311283091D01*
X430619900Y-310828949D02*
X430619900Y-311283091D01*
X428839900Y-310828949D02*
X428839900Y-311283091D01*
X428079900Y-310828949D02*
X428079900Y-311283091D01*
X426299900Y-310828949D02*
X426299900Y-311283091D01*
X425539900Y-310828949D02*
X425539900Y-311283091D01*
X423759900Y-310828949D02*
X423759900Y-311283091D01*
X422999900Y-310828949D02*
X422999900Y-311283091D01*
X421219900Y-310828949D02*
X421219900Y-311283091D01*
X420459900Y-310828949D02*
X420459900Y-311283091D01*
X418679900Y-310828949D02*
X418679900Y-311283091D01*
X417919900Y-310828949D02*
X417919900Y-311283091D01*
X466939900Y-310896020D02*
X466939900Y-311283091D01*
X466179900Y-310896020D02*
X466179900Y-311283091D01*
X466939900Y-313368949D02*
X466939900Y-313766020D01*
X466179900Y-313368949D02*
X466179900Y-313766020D01*
X464399900Y-313368949D02*
X464399900Y-313766020D01*
X463639900Y-313368949D02*
X463639900Y-313766020D01*
X461859900Y-313368949D02*
X461859900Y-313766020D01*
X461099900Y-313368949D02*
X461099900Y-313766020D01*
X459319900Y-313368949D02*
X459319900Y-313766020D01*
X458559900Y-313368949D02*
X458559900Y-313766020D01*
X456779900Y-313368949D02*
X456779900Y-313766020D01*
X456019900Y-313368949D02*
X456019900Y-313766020D01*
X454239900Y-313368949D02*
X454239900Y-313766020D01*
X453479900Y-313368949D02*
X453479900Y-313766020D01*
X451699900Y-313368949D02*
X451699900Y-313766020D01*
X450939900Y-313368949D02*
X450939900Y-313766020D01*
X449159900Y-313368949D02*
X449159900Y-313766020D01*
X448399900Y-313368949D02*
X448399900Y-313766020D01*
X446619900Y-313368949D02*
X446619900Y-313766020D01*
X445859900Y-313368949D02*
X445859900Y-313766020D01*
X444079900Y-313368949D02*
X444079900Y-313766020D01*
X443319900Y-313368949D02*
X443319900Y-313766020D01*
X441539900Y-313368949D02*
X441539900Y-313766020D01*
X440779900Y-313368949D02*
X440779900Y-313766020D01*
X438999900Y-313368949D02*
X438999900Y-313766020D01*
X438239900Y-313368949D02*
X438239900Y-313766020D01*
X436459900Y-313368949D02*
X436459900Y-313766020D01*
X435699900Y-313368949D02*
X435699900Y-313766020D01*
X433919900Y-313368949D02*
X433919900Y-313766020D01*
X433159900Y-313368949D02*
X433159900Y-313766020D01*
X431379900Y-313368949D02*
X431379900Y-313766020D01*
X430619900Y-313368949D02*
X430619900Y-313766020D01*
X428839900Y-313368949D02*
X428839900Y-313766020D01*
X428079900Y-313368949D02*
X428079900Y-313766020D01*
X426299900Y-313368949D02*
X426299900Y-313766020D01*
X425539900Y-313368949D02*
X425539900Y-313766020D01*
X423759900Y-313368949D02*
X423759900Y-313766020D01*
X422999900Y-313368949D02*
X422999900Y-313766020D01*
X421219900Y-313368949D02*
X421219900Y-313766020D01*
X420459900Y-313368949D02*
X420459900Y-313766020D01*
X418679900Y-313368949D02*
X418679900Y-313766020D01*
X417919900Y-313368949D02*
X417919900Y-313766020D01*
X467889900Y-313766020D02*
X416969900Y-313766020D01*
X465289900Y-313766020D02*
X465289900Y-316426020D01*
X462749900Y-313766020D02*
X462749900Y-316426020D01*
X460209900Y-313766020D02*
X460209900Y-316426020D01*
X457669900Y-313766020D02*
X457669900Y-316426020D01*
X455129900Y-313766020D02*
X455129900Y-316426020D01*
X452589900Y-313766020D02*
X452589900Y-316426020D01*
X450049900Y-313766020D02*
X450049900Y-316426020D01*
X447509900Y-313766020D02*
X447509900Y-316426020D01*
X444969900Y-313766020D02*
X444969900Y-316426020D01*
X442429900Y-313766020D02*
X442429900Y-316426020D01*
X439889900Y-313766020D02*
X439889900Y-316426020D01*
X437349900Y-313766020D02*
X437349900Y-316426020D01*
X434809900Y-313766020D02*
X434809900Y-316426020D01*
X432269900Y-313766020D02*
X432269900Y-316426020D01*
X429729900Y-313766020D02*
X429729900Y-316426020D01*
X427189900Y-313766020D02*
X427189900Y-316426020D01*
X424649900Y-313766020D02*
X424649900Y-316426020D01*
X422109900Y-313766020D02*
X422109900Y-316426020D01*
X419569900Y-313766020D02*
X419569900Y-316426020D01*
X416969900Y-313766020D02*
X416969900Y-316426020D01*
X467889900Y-316426020D02*
X467889900Y-313766020D01*
X466939900Y-316426020D02*
X466939900Y-322426020D01*
X466879900Y-316426020D02*
X466879900Y-322426020D01*
X466759900Y-316426020D02*
X466759900Y-322426020D01*
X466639900Y-316426020D02*
X466639900Y-322426020D01*
X466519900Y-316426020D02*
X466519900Y-322426020D01*
X466399900Y-316426020D02*
X466399900Y-322426020D01*
X466279900Y-316426020D02*
X466279900Y-322426020D01*
X464399900Y-316426020D02*
X464399900Y-322426020D01*
X461859900Y-316426020D02*
X461859900Y-322426020D01*
X459319900Y-316426020D02*
X459319900Y-322426020D01*
X456779900Y-316426020D02*
X456779900Y-322426020D01*
X454239900Y-316426020D02*
X454239900Y-322426020D01*
X451699900Y-316426020D02*
X451699900Y-322426020D01*
X449159900Y-316426020D02*
X449159900Y-322426020D01*
X446619900Y-316426020D02*
X446619900Y-322426020D01*
X444079900Y-316426020D02*
X444079900Y-322426020D01*
X441539900Y-316426020D02*
X441539900Y-322426020D01*
X438999900Y-316426020D02*
X438999900Y-322426020D01*
X436459900Y-316426020D02*
X436459900Y-322426020D01*
X433919900Y-316426020D02*
X433919900Y-322426020D01*
X431379900Y-316426020D02*
X431379900Y-322426020D01*
X428839900Y-316426020D02*
X428839900Y-322426020D01*
X426299900Y-316426020D02*
X426299900Y-322426020D01*
X423759900Y-316426020D02*
X423759900Y-322426020D01*
X421219900Y-316426020D02*
X421219900Y-322426020D01*
X418679900Y-316426020D02*
X418679900Y-322426020D01*
X416969900Y-316426020D02*
X467889900Y-316426020D01*
X466939900Y-322426020D02*
X466179900Y-322426020D01*
X466179900Y-322426020D02*
X466179900Y-316426020D01*
X464399900Y-322426020D02*
X463639900Y-322426020D01*
X463639900Y-322426020D02*
X463639900Y-316426020D01*
X461859900Y-322426020D02*
X461099900Y-322426020D01*
X461099900Y-322426020D02*
X461099900Y-316426020D01*
X459319900Y-322426020D02*
X458559900Y-322426020D01*
X458559900Y-322426020D02*
X458559900Y-316426020D01*
X456779900Y-322426020D02*
X456019900Y-322426020D01*
X456019900Y-322426020D02*
X456019900Y-316426020D01*
X454239900Y-322426020D02*
X453479900Y-322426020D01*
X453479900Y-322426020D02*
X453479900Y-316426020D01*
X451699900Y-322426020D02*
X450939900Y-322426020D01*
X450939900Y-322426020D02*
X450939900Y-316426020D01*
X449159900Y-322426020D02*
X448399900Y-322426020D01*
X448399900Y-322426020D02*
X448399900Y-316426020D01*
X446619900Y-322426020D02*
X445859900Y-322426020D01*
X445859900Y-322426020D02*
X445859900Y-316426020D01*
X444079900Y-322426020D02*
X443319900Y-322426020D01*
X443319900Y-322426020D02*
X443319900Y-316426020D01*
X441539900Y-322426020D02*
X440779900Y-322426020D01*
X440779900Y-322426020D02*
X440779900Y-316426020D01*
X438999900Y-322426020D02*
X438239900Y-322426020D01*
X438239900Y-322426020D02*
X438239900Y-316426020D01*
X436459900Y-322426020D02*
X435699900Y-322426020D01*
X435699900Y-322426020D02*
X435699900Y-316426020D01*
X433919900Y-322426020D02*
X433159900Y-322426020D01*
X433159900Y-322426020D02*
X433159900Y-316426020D01*
X431379900Y-322426020D02*
X430619900Y-322426020D01*
X430619900Y-322426020D02*
X430619900Y-316426020D01*
X428839900Y-322426020D02*
X428079900Y-322426020D01*
X428079900Y-322426020D02*
X428079900Y-316426020D01*
X426299900Y-322426020D02*
X425539900Y-322426020D01*
X425539900Y-322426020D02*
X425539900Y-316426020D01*
X423759900Y-322426020D02*
X422999900Y-322426020D01*
X422999900Y-322426020D02*
X422999900Y-316426020D01*
X421219900Y-322426020D02*
X420459900Y-322426020D01*
X420459900Y-322426020D02*
X420459900Y-316426020D01*
X418679900Y-322426020D02*
X417919900Y-322426020D01*
X417919900Y-322426020D02*
X417919900Y-316426020D01*
%TO.C,RX*%
X469685060Y-267693580D02*
X473545060Y-267693580D01*
X469685060Y-267693580D02*
X469685060Y-264573580D01*
X469555060Y-267403580D02*
X469555060Y-267403580D01*
X469555060Y-267403580D02*
X469685060Y-267403580D01*
X469685060Y-267403580D02*
X469555060Y-267403580D01*
X469685060Y-267403580D02*
X469685060Y-267403580D01*
X469555060Y-264863580D02*
X469555060Y-264863580D01*
X469555060Y-264863580D02*
X469685060Y-264863580D01*
X469685060Y-264863580D02*
X469555060Y-264863580D01*
X469685060Y-264863580D02*
X469685060Y-264863580D01*
X469685060Y-264573580D02*
X473545060Y-264573580D01*
X469685060Y-264573580D02*
X469685060Y-264173580D01*
X470805060Y-264573580D02*
X469685060Y-264573580D01*
X469685060Y-264173580D02*
X470805060Y-264173580D01*
X470805060Y-264173580D02*
X470805060Y-264573580D01*
X473545060Y-267693580D02*
G75*
G03*
X473545060Y-264573580I0J1560000D01*
G01*
%TO.C,0.1uf*%
X394826460Y-295972980D02*
X396084460Y-295972980D01*
X394826460Y-297812980D02*
X396084460Y-297812980D01*
X449436460Y-285177980D02*
X450694460Y-285177980D01*
X449436460Y-287017980D02*
X450694460Y-287017980D01*
%TO.C,20pf*%
X361535460Y-293514180D02*
X361535460Y-292256180D01*
X363375460Y-293514180D02*
X363375460Y-292256180D01*
%TO.C, *%
X360535460Y-286057980D02*
X360535460Y-292307980D01*
X355485460Y-286057980D02*
X355485460Y-292307980D01*
X360535460Y-286057980D02*
G75*
G03*
X355485460Y-286057980I-2525000J0D01*
G01*
X355485460Y-292307980D02*
G75*
G03*
X360535460Y-292307980I2525000J0D01*
G01*
%TO.C,20pf*%
X361535460Y-286111980D02*
X361535460Y-284853980D01*
X363375460Y-286111980D02*
X363375460Y-284853980D01*
%TO.C,4.7k\u03A9*%
X457935460Y-269892780D02*
X457165460Y-269892780D01*
X457165460Y-271262780D02*
X457165460Y-268522780D01*
X457165460Y-268522780D02*
X450625460Y-268522780D01*
X450625460Y-271262780D02*
X457165460Y-271262780D01*
X450625460Y-268522780D02*
X450625460Y-271262780D01*
X449855460Y-269892780D02*
X450625460Y-269892780D01*
X457935460Y-267157200D02*
X457165460Y-267157200D01*
X457165460Y-268527200D02*
X457165460Y-265787200D01*
X457165460Y-265787200D02*
X450625460Y-265787200D01*
X450625460Y-268527200D02*
X457165460Y-268527200D01*
X450625460Y-265787200D02*
X450625460Y-268527200D01*
X449855460Y-267157200D02*
X450625460Y-267157200D01*
%TO.C,TX*%
X469685060Y-273060600D02*
X473545060Y-273060600D01*
X469685060Y-273060600D02*
X469685060Y-269940600D01*
X469555060Y-272770600D02*
X469555060Y-272770600D01*
X469555060Y-272770600D02*
X469685060Y-272770600D01*
X469685060Y-272770600D02*
X469555060Y-272770600D01*
X469685060Y-272770600D02*
X469685060Y-272770600D01*
X469555060Y-270230600D02*
X469555060Y-270230600D01*
X469555060Y-270230600D02*
X469685060Y-270230600D01*
X469685060Y-270230600D02*
X469555060Y-270230600D01*
X469685060Y-270230600D02*
X469685060Y-270230600D01*
X469685060Y-269940600D02*
X473545060Y-269940600D01*
X469685060Y-269940600D02*
X469685060Y-269540600D01*
X470805060Y-269940600D02*
X469685060Y-269940600D01*
X469685060Y-269540600D02*
X470805060Y-269540600D01*
X470805060Y-269540600D02*
X470805060Y-269940600D01*
X473545060Y-273060600D02*
G75*
G03*
X473545060Y-269940600I0J1560000D01*
G01*
%TO.C,10k\u03A9*%
X434440460Y-279717500D02*
X433670460Y-279717500D01*
X433670460Y-281087500D02*
X433670460Y-278347500D01*
X433670460Y-278347500D02*
X427130460Y-278347500D01*
X427130460Y-281087500D02*
X433670460Y-281087500D01*
X427130460Y-278347500D02*
X427130460Y-281087500D01*
X426360460Y-279717500D02*
X427130460Y-279717500D01*
X434475000Y-287350200D02*
X433705000Y-287350200D01*
X433705000Y-288720200D02*
X433705000Y-285980200D01*
X433705000Y-285980200D02*
X427165000Y-285980200D01*
X427165000Y-288720200D02*
X433705000Y-288720200D01*
X427165000Y-285980200D02*
X427165000Y-288720200D01*
X426395000Y-287350200D02*
X427165000Y-287350200D01*
%TO.C,0.1uf*%
X427361000Y-293720000D02*
X428619000Y-293720000D01*
X427361000Y-295560000D02*
X428619000Y-295560000D01*
X434981000Y-293720000D02*
X436239000Y-293720000D01*
X434981000Y-295560000D02*
X436239000Y-295560000D01*
%TO.C,100k\u03A9*%
X434443000Y-283527500D02*
X433673000Y-283527500D01*
X433673000Y-284897500D02*
X433673000Y-282157500D01*
X433673000Y-282157500D02*
X427133000Y-282157500D01*
X427133000Y-284897500D02*
X433673000Y-284897500D01*
X427133000Y-282157500D02*
X427133000Y-284897500D01*
X426363000Y-283527500D02*
X427133000Y-283527500D01*
%TD*%
D14*
%TO.C,RJ45*%
X468627460Y-289196780D03*
X468627460Y-277766780D03*
%TD*%
M02*
