%TF.GenerationSoftware,KiCad,Pcbnew,7.0.10*%
%TF.CreationDate,2024-03-03T15:09:26-07:00*%
%TF.ProjectId,networkv3,6e657477-6f72-46b7-9633-2e6b69636164,rev?*%
%TF.SameCoordinates,Original*%
%TF.FileFunction,Soldermask,Bot*%
%TF.FilePolarity,Negative*%
%FSLAX46Y46*%
G04 Gerber Fmt 4.6, Leading zero omitted, Abs format (unit mm)*
G04 Created by KiCad (PCBNEW 7.0.10) date 2024-03-03 15:09:26*
%MOMM*%
%LPD*%
G01*
G04 APERTURE LIST*
G04 Aperture macros list*
%AMRotRect*
0 Rectangle, with rotation*
0 The origin of the aperture is its center*
0 $1 length*
0 $2 width*
0 $3 Rotation angle, in degrees counterclockwise*
0 Add horizontal line*
21,1,$1,$2,0,0,$3*%
G04 Aperture macros list end*
%ADD10C,1.600000*%
%ADD11O,1.600000X1.600000*%
%ADD12RotRect,1.300000X1.300000X135.000000*%
%ADD13C,1.300000*%
%ADD14C,3.650000*%
%ADD15R,1.500000X1.500000*%
%ADD16C,1.500000*%
%ADD17R,1.600000X1.600000*%
%ADD18R,1.700000X1.700000*%
%ADD19O,1.700000X1.700000*%
%ADD20R,1.800000X1.800000*%
%ADD21C,1.800000*%
G04 APERTURE END LIST*
D10*
%TO.C,0.1uf*%
X448815460Y-274667980D03*
X451315460Y-274667980D03*
%TD*%
%TO.C,0.1uf*%
X438655460Y-281652980D03*
X441155460Y-281652980D03*
%TD*%
%TO.C,0.1uf*%
X438655460Y-270222980D03*
X441155460Y-270222980D03*
%TD*%
%TO.C,100k\u03A9*%
X435480460Y-275920200D03*
D11*
X425320460Y-275920200D03*
%TD*%
D12*
%TO.C,BC547B*%
X441195460Y-287367980D03*
D13*
X439925460Y-286097980D03*
X441195460Y-284827980D03*
%TD*%
D12*
%TO.C,BC547B*%
X448815460Y-292447980D03*
D13*
X447545460Y-291177980D03*
X448815460Y-289907980D03*
%TD*%
D12*
%TO.C,BC547B*%
X448815460Y-281017980D03*
D13*
X447545460Y-279747980D03*
X448815460Y-278477980D03*
%TD*%
D12*
%TO.C,BC547B*%
X441195460Y-275937980D03*
D13*
X439925460Y-274667980D03*
X441195460Y-273397980D03*
%TD*%
D14*
%TO.C,RJ45*%
X468627460Y-289196780D03*
X468627460Y-277766780D03*
D15*
X462277460Y-287926780D03*
D16*
X459737460Y-286656780D03*
X462277460Y-285386780D03*
X459737460Y-284116780D03*
X462277460Y-282846780D03*
X459737460Y-281576780D03*
X462277460Y-280306780D03*
X459737460Y-279036780D03*
%TD*%
D17*
%TO.C,atmega164*%
X419605460Y-278477980D03*
D11*
X417065460Y-278477980D03*
X414525460Y-278477980D03*
X411985460Y-278477980D03*
X409445460Y-278477980D03*
X406905460Y-278477980D03*
X404365460Y-278477980D03*
X401825460Y-278477980D03*
X399285460Y-278477980D03*
X396745460Y-278477980D03*
X394205460Y-278477980D03*
X391665460Y-278477980D03*
X389125460Y-278477980D03*
X386585460Y-278477980D03*
X384045460Y-278477980D03*
X381505460Y-278477980D03*
X378965460Y-278477980D03*
X376425460Y-278477980D03*
X373885460Y-278477980D03*
X371345460Y-278477980D03*
X371345460Y-293717980D03*
X373885460Y-293717980D03*
X376425460Y-293717980D03*
X378965460Y-293717980D03*
X381505460Y-293717980D03*
X384045460Y-293717980D03*
X386585460Y-293717980D03*
X389125460Y-293717980D03*
X391665460Y-293717980D03*
X394205460Y-293717980D03*
X396745460Y-293717980D03*
X399285460Y-293717980D03*
X401825460Y-293717980D03*
X404365460Y-293717980D03*
X406905460Y-293717980D03*
X409445460Y-293717980D03*
X411985460Y-293717980D03*
X414525460Y-293717980D03*
X417065460Y-293717980D03*
X419605460Y-293717980D03*
%TD*%
D18*
%TO.C,20pin conn.*%
X466559900Y-309786020D03*
X466559900Y-312326020D03*
D19*
X464019900Y-309786020D03*
X464019900Y-312326020D03*
X461479900Y-309786020D03*
X461479900Y-312326020D03*
X458939900Y-309786020D03*
X458939900Y-312326020D03*
X456399900Y-309786020D03*
X456399900Y-312326020D03*
D18*
X453859900Y-309786020D03*
X453859900Y-312326020D03*
D19*
X451319900Y-309786020D03*
X451319900Y-312326020D03*
X448779900Y-309786020D03*
X448779900Y-312326020D03*
X446239900Y-309786020D03*
X446239900Y-312326020D03*
X443699900Y-309786020D03*
X443699900Y-312326020D03*
X441159900Y-309786020D03*
X441159900Y-312326020D03*
X438619900Y-309786020D03*
X438619900Y-312326020D03*
X436079900Y-309786020D03*
X436079900Y-312326020D03*
X433539900Y-309786020D03*
X433539900Y-312326020D03*
D18*
X430999900Y-309786020D03*
X430999900Y-312326020D03*
D19*
X428459900Y-309786020D03*
X428459900Y-312326020D03*
X425919900Y-309786020D03*
X425919900Y-312326020D03*
X423379900Y-309786020D03*
X423379900Y-312326020D03*
X420839900Y-309786020D03*
X420839900Y-312326020D03*
X418299900Y-309786020D03*
X418299900Y-312326020D03*
%TD*%
D20*
%TO.C,RX*%
X468475060Y-264863580D03*
D21*
X468475060Y-267403580D03*
%TD*%
D10*
%TO.C,0.1uf*%
X394205460Y-296892980D03*
X396705460Y-296892980D03*
%TD*%
%TO.C,0.1uf*%
X448815460Y-286097980D03*
X451315460Y-286097980D03*
%TD*%
%TO.C,20pf*%
X362455460Y-294135180D03*
X362455460Y-291635180D03*
%TD*%
D16*
%TO.C, *%
X358010460Y-286732980D03*
X358010460Y-291632980D03*
%TD*%
D10*
%TO.C,20pf*%
X362455460Y-286732980D03*
X362455460Y-284232980D03*
%TD*%
%TO.C,4.7k\u03A9*%
X458975460Y-269892780D03*
D11*
X448815460Y-269892780D03*
%TD*%
D10*
%TO.C,4.7k\u03A9*%
X458975460Y-267157200D03*
D11*
X448815460Y-267157200D03*
%TD*%
D20*
%TO.C,TX*%
X468475060Y-270230600D03*
D21*
X468475060Y-272770600D03*
%TD*%
D10*
%TO.C,10k\u03A9*%
X435480460Y-279717500D03*
D11*
X425320460Y-279717500D03*
%TD*%
D10*
%TO.C,10k\u03A9*%
X435515000Y-287350200D03*
D11*
X425355000Y-287350200D03*
%TD*%
D10*
%TO.C,0.1uf*%
X426740000Y-294640000D03*
X429240000Y-294640000D03*
%TD*%
%TO.C,0.1uf*%
X434360000Y-294640000D03*
X436860000Y-294640000D03*
%TD*%
%TO.C,100k\u03A9*%
X435483000Y-283527500D03*
D11*
X425323000Y-283527500D03*
%TD*%
M02*
